<?xml version="1.0" standalone="no"?>
<!DOCTYPE svg PUBLIC "-//W3C//DTD SVG 1.1//EN" "http://www.w3.org/Graphics/SVG/1.1/DTD/svg11.dtd" >
<svg xmlns="http://www.w3.org/2000/svg" xmlns:xlink="http://www.w3.org/1999/xlink" version="1.1">
<metadata>
Created by FontForge 20170731 at Thu Jan 16 16:35:19 2020
 By Aleksey,,,
Copyright 2019 The Bellota Project Authors (https://github.com/kemie/Bellota-Font)
</metadata>
<defs>
<font id="Bellota-LightItalic" horiz-adv-x="0" >
  <font-face 
    font-family="Bellota Light"
    font-weight="300"
    font-style="italic"
    font-stretch="normal"
    units-per-em="1000"
    panose-1="0 0 4 0 0 0 0 0 0 0"
    ascent="800"
    descent="-200"
    x-height="495"
    cap-height="686"
    bbox="-493 -325 1248 1106"
    underline-thickness="50"
    underline-position="-100"
    slope="-7.5"
    unicode-range="U+000D-1F330"
  />
<missing-glyph horiz-adv-x="582" 
 />
    <glyph glyph-name="fi" unicode="fi" horiz-adv-x="512" 
d="M145 638q24 34 54 51t70 17q69 0 100 -44l-33 -30q-20 35 -69 35q-31 0 -56.5 -18t-40.5 -46q-17 -30 -25 -62.5t-14 -73.5l-3 -22h277l-49 -370q-3 -24 6 -35.5t25 -11.5q17 0 32 17l29 -24q-27 -31 -63 -31q-32 0 -51 19.5t-19 52.5q0 11 1 16l43 328h-236l-88 -670
h-41l97 730q13 110 54 172z" />
    <glyph glyph-name="fl" unicode="fl" horiz-adv-x="495" 
d="M138 636q49 68 136 68q51 0 83.5 -22t40.5 -62q6 -22 4 -50l-65 -494q-3 -19 7.5 -30.5t25.5 -11.5q21 0 32 14l33 -25q-27 -31 -66 -31q-38 0 -58 25t-15 61l66 494l1 14q0 40 -23 59.5t-65 19.5q-63 0 -97 -44q-37 -42 -46 -114l-37 -264h147l-6 -39h-146l-62 -470h-41
l96 730q17 113 55 172z" />
    <glyph glyph-name="f_f" unicode="ff" horiz-adv-x="624" 
d="M353 371l-16 -128h146l-5 -38h-146l-62 -471h-41l62 471h-201l-62 -471h-41l101 767q12 89 59 149.5t128 60.5q38 0 67 -14t52 -41q19 21 49 33t61 12q58 0 89.5 -31t31.5 -87q0 -9 -2 -29q-11 -85 -69 -134t-145 -49h-56zM325 464q8 62 15 90.5t25 59.5q-9 27 -34 43
t-56 16q-68 0 -103.5 -58t-47.5 -150l-29 -222h201zM366 465l-7 -55h53q68 0 114.5 41.5t54.5 108.5q1 7 1 21q0 39 -21.5 60.5t-57.5 21.5q-63 0 -98 -62q-26 -43 -39 -136z" />
    <glyph glyph-name="f_f_i" unicode="ffi" horiz-adv-x="749" 
d="M684 21q-25 -31 -63 -31q-31 0 -50 19t-19 52q0 11 1 17l43 328h-225l-88 -670h-41l88 670h-207l-88 -670h-41l97 730q15 115 54 172q25 35 62 51.5t78 16.5q33 0 65.5 -19t44.5 -44q49 63 123 63q30 0 56 -12.5t41 -32.5l-33 -29q-10 16 -28.5 25.5t-38.5 9.5
q-30 0 -55 -18t-42 -47q-27 -43 -39 -136l-3 -22l266 1l-49 -370q-1 -4 -1 -12q0 -18 9 -26.5t23 -8.5q17 0 32 17zM348.5 523.5q7.5 30.5 9.5 39.5q8 26 12 35q-5 26 -32.5 47.5t-55.5 21.5q-35 0 -65.5 -18.5t-46.5 -46.5q-27 -46 -39 -136l-3 -22h207l3 21
q3 28 10.5 58.5z" />
    <glyph glyph-name="f_f_l" unicode="ffl" horiz-adv-x="745" 
d="M97 204l-62 -468h-41l97 730q15 111 54 172q24 33 53 49t71 16q68 0 100 -42l-33 -29q-20 32 -66 32q-34 0 -60 -18t-42 -50q-27 -49 -38 -139l-28 -214h225l30 231q15 113 51 167q46 60 126 60q63 0 95 -41q26 -27 26 -70q0 -13 -1 -20l-65 -494l-1 -11q0 -36 32 -36
q17 0 32 17l29 -24q-27 -31 -63 -31q-32 0 -51 19.5t-19 52.5q0 11 1 16l64 493q3 42 -19.5 66t-61.5 24q-52 0 -84.5 -37.5t-41.5 -98.5l-39 -283h146l-5 -39h-146l-62 -470h-40l62 470h-225z" />
    <glyph glyph-name=".notdef" horiz-adv-x="582" 
 />
    <glyph glyph-name=".null" 
 />
    <glyph glyph-name="nonmarkingreturn" unicode="&#xd;" horiz-adv-x="262" 
 />
    <glyph glyph-name="NULL" 
 />
    <glyph glyph-name="space" unicode=" " horiz-adv-x="262" 
 />
    <glyph glyph-name="exclam" unicode="!" horiz-adv-x="242" 
d="M134 705h55l-83 -562h-38zM45.5 -8q-8.5 9 -8.5 23q0 17 10.5 28.5t26.5 11.5q15 0 24 -9t9 -23q0 -17 -11 -28.5t-27 -11.5q-15 0 -23.5 9z" />
    <glyph glyph-name="quotedbl" unicode="&#x22;" horiz-adv-x="349" 
d="M130 685h56l-33 -182h-38zM239 685h56l-33 -182h-39z" />
    <glyph glyph-name="numbersign" unicode="#" horiz-adv-x="585" 
d="M136 189h-114l5 39h113l25 194h-112l5 39h112l21 156h41l-21 -156h179l20 156h41l-21 -156h114l-5 -39h-114l-25 -194h113l-5 -39h-113l-21 -157h-38l21 157h-182l-20 -157h-39zM359 228l25 194h-178l-26 -194h179z" />
    <glyph glyph-name="dollar" unicode="$" horiz-adv-x="586" 
d="M26 62l29 36q81 -56 164 -64l40 291q-38 12 -63.5 26t-45.5 36q-36 39 -36 92q0 40 14 70.5t42 54.5q51 41 131 50l12 89h44l-13 -89q60 -5 105 -27q38 -14 77 -43l-29 -36q-19 13 -60 36q-29 12 -47.5 17.5t-49.5 9.5l-35 -254q51 -17 77.5 -29.5t48.5 -33.5
q24 -21 35.5 -45t11.5 -55q0 -99 -75 -156q-53 -39 -144 -46l-9 -62h-44l9 61q-114 8 -189 71zM196.5 570.5q-34.5 -37.5 -34.5 -85.5q0 -33 21 -62q23 -26 80 -51l34 241q-66 -5 -100.5 -42.5zM321 43q29 9 50 25q32 23 45.5 56.5t13.5 64.5q0 41 -30 71q-17 14 -45 27.5
t-54 22.5l-39 -277q30 1 59 10z" />
    <glyph glyph-name="percent" unicode="%" horiz-adv-x="758" 
d="M431 40.5q-29 28.5 -29 79.5q0 75 41.5 113t100.5 38q50 0 79.5 -28.5t29.5 -78.5q0 -7 -2 -25q-8 -63 -48.5 -95t-92.5 -32q-50 0 -79 28.5zM584.5 80.5q28.5 32.5 28.5 79.5q0 34 -18.5 54.5t-52.5 20.5q-44 0 -72 -33t-28 -79q0 -34 18.5 -54.5t52.5 -20.5
q43 0 71.5 32.5zM460 508h44l-275 -496h-44zM99 283.5q-29 28.5 -29 79.5q0 75 41.5 113t100.5 38q50 0 79.5 -28.5t29.5 -78.5q0 -7 -2 -25q-8 -63 -48.5 -95t-92.5 -32q-50 0 -79 28.5zM252.5 323.5q28.5 32.5 28.5 79.5q0 34 -18.5 54.5t-52.5 20.5q-44 0 -72 -33
t-28 -79q0 -34 18.5 -54.5t52.5 -20.5q43 0 71.5 32.5z" />
    <glyph glyph-name="ampersand" unicode="&#x26;" horiz-adv-x="684" 
d="M87 274q37 50 95 78q-40 54 -40 109q0 49 22.5 88.5t62 62t87.5 22.5q49 0 85.5 -22t36.5 -64q0 -27 -20 -52t-51 -25q-19 0 -34 10t-22 29l36 16q5 -15 20 -15q32 0 32 39q0 46 -82 46q-58 0 -94.5 -35t-36.5 -91q0 -34 17 -66.5t54 -70.5l180 -190q56 78 70 175l4 32
h36l-5 -36q-7 -53 -27.5 -104t-52.5 -94l56 -64q3 -3 7 -8t8 -7t10 -2q13 0 19 3l18 -35q-10 -5 -17.5 -7t-19.5 -2q-18 0 -28.5 8t-29.5 29l-52 54q-86 -94 -208 -94q-82 0 -132.5 40t-50.5 107q0 8 2 24q8 62 45 112zM81 141q0 -51 39.5 -81.5t103.5 -30.5q52 0 99.5 22
t83.5 60l-201 214q-52 -23 -84.5 -66t-39.5 -101q-1 -6 -1 -17z" />
    <glyph glyph-name="quotesingle" unicode="'" horiz-adv-x="242" 
d="M130 685h57l-33 -182h-38z" />
    <glyph glyph-name="parenleft" unicode="(" horiz-adv-x="350" 
d="M68 36q-33 82 -33 179q0 35 5 80q19 143 95 263q39 59 92 108.5t117 83.5l15 -33q-50 -29 -96.5 -76.5t-80.5 -100.5q-37 -55 -62.5 -120t-33.5 -128q-4 -28 -4 -64q0 -97 33 -183q20 -52 54 -98t77 -77l-20 -30q-111 71 -158 196z" />
    <glyph glyph-name="parenright" unicode=")" horiz-adv-x="350" 
d="M-37 -134q52 31 97.5 77.5t80.5 99.5q35 52 60.5 117t34.5 130q4 28 4 63q0 97 -32 185q-22 54 -56 100t-76 75l20 29q56 -35 96.5 -84.5t62.5 -109.5q32 -83 32 -182q0 -47 -5 -81q-18 -140 -94 -259q-83 -124 -210 -194z" />
    <glyph glyph-name="asterisk" unicode="*" horiz-adv-x="381" 
d="M100 456l80 87l-104 29l19 44l103 -43l9 122h46l-24 -123l114 44l8 -44l-111 -30l57 -86l-39 -26l-50 99l-76 -100z" />
    <glyph glyph-name="plus" unicode="+" horiz-adv-x="491" 
d="M209 274h-157l5 38h157l21 163h41l-21 -163h157l-5 -38h-157l-22 -164h-41z" />
    <glyph glyph-name="comma" unicode="," horiz-adv-x="232" 
d="M48 -11q4 15 4.5 30.5t0.5 19.5q1 12 8.5 18.5t18.5 6.5q13 0 19 -8.5t4 -20.5q-8 -53 -22 -83q-16 -28 -48 -52l-23 27q28 27 38 62z" />
    <glyph glyph-name="hyphen" unicode="-" horiz-adv-x="437" 
d="M69 326h281l-6 -40h-280z" />
    <glyph glyph-name="period" unicode="." horiz-adv-x="240" 
d="M45.5 6q-8.5 9 -8.5 23q0 17 10.5 28.5t26.5 11.5q14 0 23.5 -9t9.5 -23q0 -17 -11 -28.5t-27 -11.5q-15 0 -23.5 9z" />
    <glyph glyph-name="slash" unicode="/" horiz-adv-x="300" 
d="M278 752h49l-320 -822h-49z" />
    <glyph glyph-name="zero" unicode="0" horiz-adv-x="638" 
d="M146 27q-50 36 -75 97.5t-25 137.5q0 35 4 63q11 88 51.5 163t104.5 119.5t145 44.5q72 0 122 -36t75 -97.5t25 -136.5q0 -36 -4 -65q-12 -89 -52.5 -163.5t-105 -118.5t-143.5 -44q-72 0 -122 36zM398.5 71.5q55.5 42.5 88.5 110.5t43 144q4 38 4 55q0 101 -47 167
t-136 66q-71 0 -126.5 -41.5t-90 -108.5t-44.5 -143q-4 -25 -4 -58q0 -101 47.5 -167.5t137.5 -66.5q72 0 127.5 42.5z" />
    <glyph glyph-name="one" unicode="1" horiz-adv-x="333" 
d="M139 539q-38 -19 -81 -21l-7 33q37 4 76.5 24.5t119.5 69.5l21 13l-86 -658h-40l79 595q-44 -37 -82 -56z" />
    <glyph glyph-name="two" unicode="2" horiz-adv-x="505" 
d="M51.5 133q46.5 56 144.5 126l35 24q52 35 84.5 61.5t57.5 62.5t31 80q1 6 1 18q0 52 -35.5 83.5t-94.5 31.5t-106 -31.5t-74 -89.5l-28 18q34 70 86.5 103.5t126.5 33.5q81 0 122.5 -36.5t41.5 -104.5q0 -9 -2 -31q-8 -54 -34 -94.5t-62 -70.5t-100 -74q-36 -23 -70 -49
q-55 -40 -87 -76t-45 -81l371 1l-5 -38h-415l1 5q9 72 55.5 128z" />
    <glyph glyph-name="three" unicode="3" horiz-adv-x="520" 
d="M78.5 14.5q-49.5 25.5 -89.5 64.5l24 28q38 -39 77 -59t94 -20q82 0 143 41t71 115q1 7 1 20q0 42 -22.5 73t-58 47t-75.5 16h-101l5 38h98q33 0 68.5 18.5t60.5 49t30 65.5q1 4 1 12q0 44 -39 70t-90 26q-36 0 -75.5 -12t-70.5 -34l-15 35q77 51 161 51q75 0 122.5 -35
t47.5 -92q0 -39 -20.5 -78.5t-56 -66t-75.5 -28.5q67 -4 106 -46t39 -108q0 -10 -2 -30q-11 -90 -79.5 -138t-160.5 -48q-69 0 -118.5 25.5z" />
    <glyph glyph-name="four" unicode="4" horiz-adv-x="514" 
d="M320 131h-315l5 40l262 479h43l-262 -479h272l30 228h41l-30 -228h84l-5 -40h-84l-18 -133h-41z" />
    <glyph glyph-name="five" unicode="5" horiz-adv-x="501" 
d="M86.5 12q-50.5 19 -76.5 47l26 27q28 -25 65.5 -39t77.5 -14q82 0 139 52t68 138q2 22 2 31q0 65 -46.5 97t-141.5 32q-71 0 -125 -19l36 277h312l-5 -40h-272l-26 -189l26 3q50 7 70 7q100 0 157 -47.5t57 -130.5q0 -11 -2 -33q-8 -62 -42 -111.5t-86.5 -78
t-113.5 -28.5q-49 0 -99.5 19z" />
    <glyph glyph-name="six" unicode="6" horiz-adv-x="555" 
d="M127 15q-45 28 -69.5 78.5t-24.5 116.5q0 23 3 48q11 80 55 156.5t113 133.5q59 49 127 75.5t132 26.5l-3 -39q-63 -1 -124 -26.5t-115 -71.5q-51 -43 -90 -104.5t-54 -121.5q33 67 90 105t124 38q55 0 99 -25.5t69 -70t25 -98.5q0 -66 -35 -123.5t-93 -91.5t-124 -34
q-60 0 -105 28zM335.5 55.5q48.5 28.5 78.5 76.5t30 102q0 43 -20.5 79t-56 56.5t-78.5 20.5q-52 0 -101.5 -29t-80 -77t-30.5 -100q0 -43 20.5 -79t56.5 -57t80 -21q53 0 101.5 28.5z" />
    <glyph glyph-name="seven" unicode="7" horiz-adv-x="463" 
d="M398 601l-339 1l5 39h394l-2 -15l-330 -625h-45z" />
    <glyph glyph-name="eight" unicode="8" horiz-adv-x="532" 
d="M74 28q-51 43 -51 120q0 72 39 123.5t113 98.5q-72 37 -72 111q0 50 25.5 90t70 62.5t97.5 22.5q71 0 115.5 -37.5t44.5 -95.5q0 -61 -36.5 -102t-86.5 -66q55 -21 86.5 -60t31.5 -96q0 -9 -2 -27q-12 -88 -76 -137.5t-159 -49.5q-89 0 -140 43zM381 431.5
q28 29.5 34 72.5q1 4 1 13q0 43 -33 72t-86 29q-42 0 -77 -18t-55.5 -48.5t-20.5 -66.5q0 -65 77 -92l66 -21l16 -3q50 33 78 62.5zM347 66q52 43 62 114q1 7 1 21q0 43 -23 70.5t-59 44t-92 33.5q-2 0 -26 6l-9 -8q-74 -60 -101.5 -93.5t-33.5 -76.5q-2 -16 -2 -24
q0 -61 40.5 -95.5t111.5 -34.5q79 0 131 43z" />
    <glyph glyph-name="nine" unicode="9" horiz-adv-x="555" 
d="M407 620q45 -28 69.5 -78.5t24.5 -116.5q0 -22 -3 -48q-11 -80 -55 -156.5t-113 -133.5q-59 -49 -127 -75.5t-132 -26.5l3 39q63 1 124 26.5t115 71.5q51 44 90 105t53 121q-32 -67 -89 -105t-125 -38q-55 0 -98.5 25.5t-68.5 70t-25 98.5q0 66 35 123.5t93 91.5t124 34
q60 0 105 -28zM197.5 579.5q-48.5 -28.5 -78 -76.5t-29.5 -102q0 -43 20.5 -79t56 -56.5t78.5 -20.5q52 0 101.5 29.5t80 77t30.5 100.5q0 42 -21 78t-57 57t-80 21q-53 0 -101.5 -28.5z" />
    <glyph glyph-name="colon" unicode=":" horiz-adv-x="238" 
d="M43.5 0q-8.5 9 -8.5 23q0 17 10.5 28.5t26.5 11.5q14 0 23.5 -9t9.5 -23q0 -17 -11 -28.5t-27 -11.5q-15 0 -23.5 9zM96.5 402q-8.5 9 -8.5 23q0 17 10.5 28.5t26.5 11.5q14 0 23.5 -9t9.5 -23q0 -17 -11 -28.5t-27 -11.5q-15 0 -23.5 9z" />
    <glyph glyph-name="semicolon" unicode=";" horiz-adv-x="234" 
d="M98.5 402q-8.5 9 -8.5 23q0 17 10.5 28.5t26.5 11.5q14 0 23.5 -9t9.5 -23q0 -17 -11 -28.5t-27 -11.5q-15 0 -23.5 9zM41 -17q4 15 4.5 30.5t0.5 19.5q1 12 8.5 18.5t18.5 6.5q13 0 19 -8.5t4 -20.5q-8 -53 -22 -83q-16 -28 -48 -52l-23 27q28 27 38 62z" />
    <glyph glyph-name="less" unicode="&#x3c;" horiz-adv-x="484" 
d="M52 235l8 64l345 149l-6 -50l-311 -129l275 -138l-6 -52z" />
    <glyph glyph-name="equal" unicode="=" horiz-adv-x="577" 
d="M121 394h334l-5 -39h-334zM99 231h335l-5 -39h-335z" />
    <glyph glyph-name="greater" unicode="&#x3e;" horiz-adv-x="488" 
d="M50 131l315 138l-279 129l6 50l310 -149l-8 -64l-350 -156z" />
    <glyph glyph-name="question" unicode="?" horiz-adv-x="459" 
d="M92.5 205q8.5 33 23.5 53q34 41 115 81q72 33 109.5 74t47.5 97q2 10 2 30q0 59 -37.5 97t-99.5 38q-35 0 -71 -15t-59 -38t-23 -47q0 -12 8.5 -20t23.5 -9l-17 -39q-24 1 -39.5 19t-15.5 44q0 10 1 15q6 35 34.5 65t70.5 47.5t87 17.5q83 0 130.5 -47t47.5 -126
q0 -20 -3 -41q-11 -64 -50 -106.5t-130 -93.5l-22 -12q-24 -12 -38 -21.5t-29 -27.5q-19 -20 -26.5 -40.5t-8.5 -55.5l-39 -6q-1 34 7.5 67zM82 -3q-9 9 -9 23q0 17 11 28.5t27 11.5q14 0 23.5 -9t9.5 -23q0 -17 -11 -28.5t-28 -11.5q-14 0 -23 9z" />
    <glyph glyph-name="at" unicode="@" horiz-adv-x="736" 
d="M127.5 3.5q-70.5 63.5 -70.5 180.5q0 16 4 52q12 90 57 160.5t115.5 110t156.5 39.5q78 0 135.5 -31t88.5 -86.5t31 -126.5q0 -21 -3 -42q-11 -78 -51 -124t-103 -46q-35 0 -57 21.5t-24 53.5q-16 -27 -43.5 -44t-55.5 -17q-48 0 -78 33t-30 90q0 55 24 94.5t60.5 59.5
t71.5 20q9 0 30 -3l34 -2h41l-28 -206q1 -33 15.5 -50.5t40.5 -17.5q43 0 74 40.5t39 104.5q2 12 2 36q0 61 -26.5 107.5t-75 72t-113.5 25.5q-76 0 -137.5 -34.5t-100.5 -97t-49 -142.5q-3 -25 -3 -47q0 -99 59 -154t167 -55q49 0 98.5 10.5t85.5 28.5l7 -34
q-96 -43 -199 -43q-119 0 -189.5 63.5zM355.5 158q20.5 17 32.5 39q4 4 9 14l21 153h-63q-44 0 -75 -31.5t-37 -79.5q-2 -18 -2 -28q0 -36 15.5 -60t49.5 -24q29 0 49.5 17z" />
    <glyph glyph-name="A" unicode="A" horiz-adv-x="729" 
d="M13 8q-18 17 -23 46l38 4q2 -11 11.5 -19t21.5 -8q13 0 24.5 9t16.5 19l341 633h8l189 -691h-43l-63 233h-295l-101 -193q-13 -25 -33.5 -37.5t-45.5 -12.5q-28 0 -46 17zM521 274l-73 288l-10 63l-27 -65l-150 -286h260z" />
    <glyph glyph-name="B" unicode="B" horiz-adv-x="628" 
d="M122 644q-9 -7 -13 -16t-8 -22l-36 2q7 44 34 67q25 21 78 21h208q76 0 123.5 -41.5t47.5 -110.5q0 -52 -24.5 -93.5t-63.5 -66.5q-20 -13 -61 -18q32 -5 55 -20q80 -50 80 -139q0 -9 -2 -29q-13 -96 -85 -141.5t-191 -45.5q-96 0 -135 5l-43 5l87 656q-33 0 -51 -13z
M427 66.5q61 36.5 72 116.5q2 16 2 23q0 64 -44 101.5t-111 37.5h-87l5 39h79q31 0 61 9.5t51 26.5q29 22 44 54t15 71q0 52 -33 80.5t-86 31.5h-182l-83 -622l104 -4l35 -1q97 0 158 36.5z" />
    <glyph glyph-name="C" unicode="C" horiz-adv-x="698" 
d="M185 18.5q-66 40.5 -102 110t-36 155.5q0 30 4 55q12 97 68 181.5t139.5 135t175.5 50.5q85 0 144.5 -33.5t59.5 -96.5q0 -43 -24.5 -73.5t-62.5 -30.5q-26 0 -44 15l27 31q12 -6 19 -6q19 0 34.5 18.5t15.5 40.5q0 29 -26.5 50t-66 32.5t-76.5 11.5q-83 0 -158 -46
t-124.5 -122t-60.5 -162q-3 -24 -3 -48q0 -75 30.5 -136.5t88 -97t132.5 -35.5q71 0 139 33t115 90l29 -24q-57 -70 -132 -104.5t-153 -34.5q-86 0 -152 40.5z" />
    <glyph glyph-name="D" unicode="D" horiz-adv-x="756" 
d="M124 -4l-39 4l87 652q-19 0 -30 -3t-20 -10q-16 -11 -21 -38l-37 2q7 44 35 67q25 21 77 21l251 -1q79 -2 138.5 -41t92 -106t32.5 -153q0 -33 -4 -61q-22 -172 -136.5 -254.5t-332.5 -82.5q-47 0 -93 4zM647 335q4 28 4 59q0 114 -61.5 181t-175.5 75h-202l-82 -614
q49 -4 106 -4q371 0 411 303z" />
    <glyph glyph-name="E" unicode="E" horiz-adv-x="600" 
d="M142 642q-11 -3 -20 -10q-16 -11 -21 -38l-37 2q7 44 35 67q25 21 77 21l416 1l-6 -40h-374l-34 -261h255l-5 -40h-256l-39 -303h374l-5 -40h-415l85 644q-19 0 -30 -3z" />
    <glyph glyph-name="F" unicode="F" horiz-adv-x="591" 
d="M141 642q-11 -3 -20 -10q-16 -11 -21 -38l-37 2q7 43 35 67q26 21 77 21h418l-6 -40h-376l-34 -261h258l-6 -40h-258l-45 -343h-41l86 645q-19 0 -30 -3z" />
    <glyph glyph-name="G" unicode="G" horiz-adv-x="713" 
d="M649 335l-10 -83q-11 -81 -58 -143t-115 -95.5t-139 -33.5q-84 0 -147.5 39t-98 107t-34.5 152q0 18 4 54q13 99 66.5 183t135 133.5t174.5 49.5q46 0 93 -11.5t79.5 -39t32.5 -71.5q0 -45 -26 -74t-64 -29q-16 0 -28 5.5t-18 13.5l28 31q6 -9 20 -9q19 0 33.5 18.5
t14.5 41.5q0 44 -54 64t-112 20q-81 0 -154 -45.5t-121.5 -122t-59.5 -163.5q-3 -24 -3 -47q0 -74 30.5 -133t85 -93t125.5 -34q63 0 122 31.5t99 85t48 115.5l5 41h-241l5 42h282z" />
    <glyph glyph-name="H" unicode="H" horiz-adv-x="699" 
d="M162 621q0 40 -37 40q-29 0 -45 -26l-28 25q25 41 76 41q35 0 55 -20t20 -59q0 -12 -1 -19l-30 -225h383l41 307h40l-90 -684h-40l44 337h-383l-45 -337h-40l79 604q1 6 1 16z" />
    <glyph glyph-name="I" unicode="I" horiz-adv-x="247" 
d="M140 685h43l-90 -684h-43z" />
    <glyph glyph-name="J" unicode="J" horiz-adv-x="499" 
d="M44.5 42.5q-36.5 48.5 -30.5 121.5l39 -6q-1 -6 -1 -17q0 -49 32 -78t89 -29q77 0 116.5 46.5t47.5 108.5l61 454q-24 -22 -66 -22q-23 0 -41 5.5t-40 17.5q-13 5 -27 9.5t-27 4.5q-15 0 -28.5 -4t-27.5 -9.5t-22 -8.5l-15 36q42 15 59.5 20t35.5 5q30 0 82 -24
q35 -13 54 -13q17 0 36 8.5t27 20.5l46 -1l-67 -504q-11 -82 -63 -136t-145 -54q-88 0 -124.5 48.5z" />
    <glyph glyph-name="K" unicode="K" horiz-adv-x="669" 
d="M158 621q0 40 -37 40q-29 0 -45 -26l-28 25q25 41 76 41q35 0 55 -20t20 -59q0 -12 -1 -19l-32 -240h54q37 0 69 16q18 7 31 17t25 26q48 52 85 111q40 57 96 153l51 -2q-62 -96 -106 -161l-13 -20q-36 -52 -63 -88q-6 -6 -19.5 -22.5t-23.5 -25t-22 -17.5l164 -298
q4 -8 12.5 -13.5t18.5 -5.5q17 0 32 13l30 -25q-13 -14 -31 -21t-35 -7q-39 0 -60 38l-171 307q-50 -15 -86 -15q-12 0 -22 1t-18 1l-43 -323h-43l79 603q1 6 1 16z" />
    <glyph glyph-name="L" unicode="L" horiz-adv-x="523" 
d="M140 685h40l-84 -644h345l-5 -40h-386z" />
    <glyph glyph-name="M" unicode="M" horiz-adv-x="997" 
d="M11.5 2q-17.5 13 -25.5 33l41 15q8 -18 29 -18q12 0 23 7.5t17 20.5l211 625h48l129 -578l9 -64l26 64l283 578h50l45 -684h-43l-36 568l-2 71l-29 -71l-273 -568h-51l-123 567l-10 73l-20 -73l-172 -513q-9 -29 -32 -47.5t-52 -18.5q-25 0 -42.5 13z" />
    <glyph glyph-name="N" unicode="N" horiz-adv-x="760" 
d="M-18 16l39 25q5 -6 13 -10.5t14 -4.5q17 0 31 12.5t17 32.5l81 614h26l91 -125l263 -418l22 -45l75 587h43l-90 -683h-6l-370 572l-24 45l-69 -549q-5 -41 -31.5 -63.5t-61.5 -22.5q-39 0 -63 33z" />
    <glyph glyph-name="O" unicode="O" horiz-adv-x="784" 
d="M190 23.5q-67 37.5 -104 104t-37 151.5q0 17 4 53l2 19q13 99 66.5 179t134.5 126t173 46q85 0 151 -38.5t103 -107t37 -154.5q0 -17 -4 -53l-2 -19q-13 -99 -65.5 -177.5t-132.5 -122.5t-173 -44q-86 0 -153 37.5zM495 64.5q72 40.5 119.5 111t58.5 156.5l3 19
q3 24 3 46q0 76 -32 136.5t-89.5 94.5t-130.5 34q-81 0 -152.5 -41.5t-119.5 -113t-60 -158.5l-2 -19q-3 -24 -3 -47q0 -75 31.5 -134t88.5 -92t131 -33q82 0 154 40.5z" />
    <glyph glyph-name="P" unicode="P" horiz-adv-x="576" 
d="M141 642q-11 -3 -20 -10q-16 -11 -21 -38l-37 2q7 43 35 67q26 21 77 21l204 1q77 1 118 -45.5t41 -124.5q0 -20 -3 -41q-13 -104 -79.5 -156.5t-157.5 -52.5q-32 0 -67 5l3 38l60 -3q81 0 135 41.5t66 130.5q2 12 2 34q0 66 -36.5 100t-98.5 34h-151l-85 -645h-41
l86 645q-19 0 -30 -3z" />
    <glyph glyph-name="Q" unicode="Q" horiz-adv-x="764" 
d="M262 -1q-105 22 -159 98.5t-54 186.5q0 33 4 61q13 101 63.5 180.5t129 124.5t173.5 45q87 0 151 -37.5t97.5 -104.5t33.5 -154q0 -32 -4 -59q-13 -101 -63.5 -180t-129 -123.5t-173.5 -44.5h-34l-80 -101l84 -31q59 -21 110 -21q24 0 46 7t52 26l15 -32
q-36 -23 -58.5 -30t-49.5 -7q-35 0 -63 5.5t-61 17.5l-101 36l-47 -61l-28 23zM487 71.5q70 41.5 114 113.5t56 161q4 36 4 53q0 75 -29 133.5t-83.5 91.5t-129.5 33q-85 0 -155 -41t-114.5 -113t-55.5 -161q-4 -38 -4 -55q0 -75 28.5 -133t83 -91t130.5 -33q85 0 155 41.5z
" />
    <glyph glyph-name="R" unicode="R" horiz-adv-x="675" 
d="M142 642q-11 -3 -20 -10q-16 -11 -21 -38l-37 2q7 44 35 67q25 21 77 21l212 1q45 0 74 -18q38 -20 59.5 -60t21.5 -92q0 -17 -3 -35q-6 -52 -31 -94.5t-63 -67t-80 -24.5h-40q15 -7 18 -10q15 -5 33 -35l118 -200q12 -19 30 -19q10 0 21 4.5t19 11.5l28 -23
q-13 -16 -30.5 -24t-37.5 -8q-42 0 -63 38l-98 168q-22 38 -46.5 59t-73.5 28l4 39h78q49 0 89.5 24t63.5 67t23 97q0 59 -33.5 96.5t-87.5 37.5h-169l-85 -644h-40l85 644q-19 0 -30 -3z" />
    <glyph glyph-name="S" unicode="S" horiz-adv-x="544" 
d="M76.5 30q-57.5 46 -71.5 120l39 13q10 -63 58.5 -101t116.5 -38q52 0 97 23t74.5 63t35.5 89q2 14 2 21q0 45 -36 79.5t-126 76.5q-79 35 -111.5 67t-32.5 77q0 50 27 91.5t73 65.5t100 24q62 0 99.5 -28.5t37.5 -75.5q0 -29 -13.5 -51.5t-35.5 -34.5t-45 -10l6 38
q19 -2 33 13.5t14 39.5q0 31 -26 50t-69 19q-37 0 -72.5 -16.5t-59 -44.5t-27.5 -59q-1 -6 -1 -17q0 -32 26 -55.5t99 -58.5q99 -45 140 -86.5t41 -98.5q0 -68 -34 -123t-92 -86.5t-127 -31.5q-82 0 -139.5 46z" />
    <glyph glyph-name="T" unicode="T" horiz-adv-x="590" 
d="M151 645q-15 0 -28.5 -10.5t-18.5 -25.5l-40 2q6 28 29 51q28 23 58 23h441l-6 -40h-231l-85 -644h-41l85 644h-163z" />
    <glyph glyph-name="U" unicode="U" horiz-adv-x="705" 
d="M164.5 53.5q-55.5 63.5 -55.5 163.5q0 24 3 49l44 339q1 6 1 16q0 40 -37 40q-29 0 -45 -26l-28 25q25 41 76 41q34 0 54.5 -19.5t20.5 -57.5q0 -14 -1 -21l-45 -339q-3 -22 -3 -43q0 -84 45 -137.5t129 -53.5q69 0 119.5 34.5t80 88.5t37.5 113l55 418h41l-56 -420
q-9 -71 -43.5 -133.5t-94 -101.5t-139.5 -39q-103 0 -158.5 63.5z" />
    <glyph glyph-name="V" unicode="V" horiz-adv-x="635" 
d="M106 648q-7 0 -14 -3q-12 -2 -19 -12l-30 23q10 18 37 29q17 5 28 5q24 0 40.5 -15.5t22.5 -44.5l119 -533l5 -44l16 45l277 588h46l-324 -685h-46l-133 619q-6 28 -25 28z" />
    <glyph glyph-name="W" unicode="W" horiz-adv-x="1064" 
d="M128 656q-9 0 -13 -2q-12 -3 -19 -12l-28 24q9 16 37 28q12 4 26 4q26 0 42.5 -16.5t20.5 -46.5l98 -541l4 -53l19 53l262 592h49l106 -592l4 -56l18 56l262 592h46l-306 -685h-48l-115 619l-276 -619h-49l-114 624q-6 31 -26 31z" />
    <glyph glyph-name="X" unicode="X" horiz-adv-x="597" 
d="M277 393l221 292h52l-253 -332l130 -298q3 -7 11 -12t17 -5t23 9l36 -30q-27 -24 -65 -24q-29 0 -44.5 17t-31.5 55l-107 256l-220 -320h-52l251 361l-164 323h51z" />
    <glyph glyph-name="Y" unicode="Y" horiz-adv-x="595" 
d="M133 655q-9 0 -16 -4q-13 -7 -17 -15l-33 18q13 23 33 34q20 10 38 10q20 0 36 -13t25 -36l124 -301l226 338h48l-260 -384l-38 -301h-42l40 299l-134 331q-10 24 -30 24z" />
    <glyph glyph-name="Z" unicode="Z" horiz-adv-x="556" 
d="M439 644h-334l5 40h402l-427 -603l41 -8q25 -4 84 -22q44 -13 67.5 -18.5t46.5 -5.5q63 0 126 51l25 -30q-41 -34 -76.5 -47.5t-76.5 -13.5q-35 0 -69 8t-80 24q-72 23 -110 30l-43 -60l-32 20z" />
    <glyph glyph-name="bracketleft" unicode="[" horiz-adv-x="351" 
d="M145 752h217l-5 -40h-177l-112 -850h177l-5 -39h-218z" />
    <glyph glyph-name="backslash" unicode="\" horiz-adv-x="301" 
d="M67 752h47l106 -822h-49z" />
    <glyph glyph-name="bracketright" unicode="]" horiz-adv-x="351" 
d="M178 -177h-218l5 39h177l112 850h-177l6 40h217z" />
    <glyph glyph-name="asciicircum" unicode="^" horiz-adv-x="484" 
d="M259 541l-161 -201l-34 26l200 248h12l135 -248l-41 -28z" />
    <glyph glyph-name="underscore" unicode="_" horiz-adv-x="579" 
d="M14 -93h422l-5 -40h-422z" />
    <glyph glyph-name="grave" unicode="`" horiz-adv-x="218" 
d="M70 692l35 33l106 -144l-19 -20z" />
    <glyph glyph-name="a" unicode="a" horiz-adv-x="564" 
d="M500 27q-12 -17 -30 -25.5t-35 -8.5q-36 0 -54 21t-16 60q-26 -39 -69.5 -61t-95.5 -22q-87 0 -131.5 56.5t-44.5 147.5q0 25 3 52q15 117 86.5 187.5t180.5 70.5q54 0 117 -9h49l-55 -419q-1 -4 -1 -12q0 -34 31 -34q10 0 20.5 5.5t14.5 12.5zM416 460q-16 -1 -71 3
l-57 2q-93 0 -150.5 -62.5t-70.5 -157.5q-3 -21 -3 -41q0 -74 35 -123.5t103 -49.5q48 0 88.5 24.5t63.5 63.5q19 29 25 68z" />
    <glyph glyph-name="b" unicode="b" horiz-adv-x="528" 
d="M92 -3q-38 5 -62 13l94 717h41l-43 -318q28 49 73 72.5t96 23.5q81 0 127 -55.5t46 -150.5q0 -17 -4 -53q-15 -114 -82.5 -184.5t-191.5 -70.5q-50 0 -94 6zM350 91.5q57 62.5 70 157.5q3 26 3 47q0 81 -37.5 126t-98.5 45q-26 0 -53.5 -10t-50.5 -26q-58 -39 -71 -103
l-38 -288l56 -8q18 -3 56 -3q107 0 164 62.5z" />
    <glyph glyph-name="c" unicode="c" horiz-adv-x="476" 
d="M74 45.5q-52 50.5 -52 142.5q0 15 4 51q10 80 45 141.5t89 95t118 33.5q73 0 114.5 -39.5t36.5 -102.5l-38 2q3 47 -27.5 74.5t-85.5 27.5q-51 0 -96.5 -30.5t-76 -84.5t-39.5 -122q-3 -21 -3 -41q0 -76 42 -118t118 -42q36 0 72.5 10.5t88.5 36.5l16 -32
q-45 -28 -88 -40.5t-90 -12.5q-96 0 -148 50.5z" />
    <glyph glyph-name="d" unicode="d" horiz-adv-x="564" 
d="M69.5 49q-45.5 58 -45.5 150q0 25 3 50q15 116 86.5 186t180.5 70q34 0 69.5 -4t54.5 -8l32 235h41l-86 -651q-1 -4 -1 -12q0 -34 31 -34q10 0 20.5 5.5t14.5 12.5l30 -22q-12 -17 -30 -25.5t-35 -8.5q-37 0 -55 21.5t-14 61.5q-24 -35 -69.5 -60t-95.5 -25
q-86 0 -131.5 58zM289 53.5q41 24.5 65 65.5q20 30 25 68l36 267q-41 13 -102 13q-112 0 -172.5 -61.5t-73.5 -160.5q-3 -22 -3 -45q0 -76 35 -123.5t103 -47.5q46 0 87 24.5z" />
    <glyph glyph-name="e" unicode="e" horiz-adv-x="480" 
d="M70 42.5q-48 51.5 -48 139.5q0 24 3 49q9 69 40 131.5t84 102.5t124 40q68 0 112 -36t44 -96q0 -13 -1 -20q-10 -72 -72 -110t-161 -38l-130 -1q-3 -84 34.5 -129.5t114.5 -45.5q44 0 82.5 13.5t80.5 38.5l18 -31q-88 -59 -182 -59q-95 0 -143 51.5zM335 275q54 32 54 99
q0 46 -33.5 69.5t-80.5 23.5q-60 0 -105.5 -37t-71.5 -89.5t-30 -98.5l130 1q83 0 137 32z" />
    <glyph glyph-name="f" unicode="f" horiz-adv-x="364" 
d="M155.5 688q42.5 56 121.5 56q58 0 88.5 -30.5t30.5 -87.5q0 -8 -2 -30q-11 -84 -67.5 -129.5t-145.5 -42.5l-55 2l-24 -182h147l-6 -38h-146l-62 -470h-41l102 771q17 125 59.5 181zM299.5 499.5q46.5 37.5 54.5 101.5q1 7 1 19q0 40 -21.5 63t-60.5 23q-110 0 -136 -198
l-6 -46h53q69 0 115.5 37.5z" />
    <glyph glyph-name="g" unicode="g" horiz-adv-x="531" 
d="M128.5 -249q-33.5 36 -33.5 93q0 15 1 23q11 84 78 126q-68 9 -110 67.5t-42 143.5q0 23 3 45q10 73 48 131.5t95.5 92t124.5 33.5q37 0 60 -3l61 -7h48l-83 -629q-9 -68 -54 -110t-108 -42q-55 0 -88.5 36zM250 41.5q28 11.5 54 32.5q31 24 51.5 52.5t23.5 51.5l38 284
l-100 6h-31q-53 0 -101 -29t-80 -80t-40 -114q-2 -12 -2 -36q0 -50 17 -91t47.5 -64.5t69.5 -23.5q25 0 53 11.5zM298 -214.5q31 32.5 42 91.5l29 216q-24 -35 -65 -67q-16 -12 -64 -38q-29 -15 -32 -18q-34 -22 -51.5 -46.5t-21.5 -58.5q-1 -6 -1 -18q0 -41 25 -67.5
t64 -26.5q44 0 75 32.5z" />
    <glyph glyph-name="h" unicode="h" horiz-adv-x="564" 
d="M407 63q0 -18 8.5 -26.5t22.5 -8.5q18 0 33 17l28 -24q-25 -31 -63 -31q-32 0 -51 19.5t-19 53.5q0 10 1 15l36 271q2 18 2 26q0 48 -27 71.5t-78 23.5q-53 0 -94 -27.5t-88 -82.5l-48 -356h-40l95 726h41l-44 -328q40 55 84.5 80.5t101.5 25.5q139 0 139 -122
q0 -16 -3 -36l-36 -275q-1 -4 -1 -12z" />
    <glyph glyph-name="i" unicode="i" horiz-adv-x="239" 
d="M75 63q0 -18 9 -26.5t23 -8.5q17 0 32 17l28 -24q-25 -31 -63 -31q-31 0 -50 19t-19 52q0 11 1 17l55 422h41l-56 -425q-1 -4 -1 -12zM100.5 584q-8.5 9 -8.5 23q0 17 10.5 28.5t26.5 11.5q14 0 23.5 -9t9.5 -23q0 -17 -11 -28.5t-27 -11.5q-15 0 -23.5 9z" />
    <glyph glyph-name="j" unicode="j" horiz-adv-x="212" 
d="M-112 -223l35 21q15 -22 35 -22q19 0 33.5 15t16.5 37l89 672h41l-89 -674q-5 -40 -31 -65t-61 -25q-45 0 -69 41zM106.5 584q-8.5 9 -8.5 23q0 17 10.5 28.5t26.5 11.5q14 0 23.5 -9t9.5 -23q0 -17 -11 -28.5t-27 -11.5q-15 0 -23.5 9z" />
    <glyph glyph-name="k" unicode="k" horiz-adv-x="534" 
d="M166 728l-47 -349q31 63 78.5 96t104.5 33q60 0 94.5 -34t34.5 -91q0 -117 -116 -166l68 -159q9 -27 30 -27q18 0 30 14l26 -27q-16 -14 -28.5 -20t-29.5 -6q-22 0 -37.5 9.5t-24.5 31.5l-75 173h-177l-27 -206h-41l96 728h41zM307 260q40 15 63.5 47t23.5 74
q0 39 -25 64t-70 25q-54 0 -99.5 -37.5t-72.5 -103.5q-19 -47 -23 -85l121 1q52 0 82 15z" />
    <glyph glyph-name="l" unicode="l" horiz-adv-x="233" 
d="M76 63q0 -18 9 -26.5t23 -8.5q17 0 32 17l28 -24q-25 -31 -63 -31q-31 0 -50 19t-19 52q0 11 1 17l85 649h41l-86 -652q-1 -4 -1 -12z" />
    <glyph glyph-name="m" unicode="m" horiz-adv-x="834" 
d="M770 21q-27 -31 -63 -31q-32 0 -51 19.5t-19 52.5q0 11 1 16l36 274q1 7 1 20q0 94 -90 94q-99 0 -167 -107l-47 -358h-41l44 337q2 11 2 31q0 46 -22.5 71.5t-65.5 25.5q-50 0 -97 -31t-69 -75l-48 -359h-41l48 360q3 23 3 40q0 25 -5.5 43t-17.5 36l29 25
q18 -20 27.5 -46t8.5 -54q62 100 169 100q106 0 122 -105q68 105 170 105q62 0 96 -33.5t34 -92.5q0 -8 -2 -28l-37 -276q-3 -24 6 -35.5t25 -11.5q18 0 32 17z" />
    <glyph glyph-name="n" unicode="n" horiz-adv-x="568" 
d="M504 21q-25 -31 -63 -31q-32 0 -51 19.5t-19 53.5q0 10 1 15l34 260q2 12 2 33q0 96 -99 96q-49 0 -93 -25.5t-94 -84.5l-47 -357h-41l48 361q3 23 3 40q0 25 -5.5 43t-17.5 36l29 25q19 -21 28.5 -48.5t7.5 -55.5q40 55 85 79.5t103 24.5q66 0 101.5 -31.5t35.5 -89.5
q0 -9 -2 -27l-38 -282q-3 -24 6 -35.5t25 -11.5q18 0 33 17z" />
    <glyph glyph-name="o" unicode="o" horiz-adv-x="559" 
d="M77.5 49q-55.5 58 -55.5 155q0 22 3 44q10 75 47 133.5t94.5 91t125.5 32.5q93 0 149 -59t56 -157q0 -21 -3 -44q-10 -75 -46.5 -132.5t-94 -89.5t-126.5 -32q-94 0 -149.5 58zM334.5 57q48.5 28 80 79t39.5 117q3 20 3 39q0 80 -45 127.5t-122 47.5q-57 0 -105 -28
t-79.5 -78.5t-40.5 -115.5q-3 -21 -3 -39q0 -81 45 -129t122 -48q57 0 105.5 28z" />
    <glyph glyph-name="p" unicode="p" horiz-adv-x="534" 
d="M426.5 448.5q45.5 -56.5 45.5 -147.5q0 -16 -4 -52q-15 -117 -85.5 -187.5t-180.5 -70.5q-41 0 -125 12l-36 -263h-40l82 622q3 23 3 40q0 25 -5.5 43t-17.5 36l29 25q18 -20 27.5 -46t8.5 -53q51 98 166 98q87 0 132.5 -56.5zM355 89q60 60 72 158q3 23 3 45
q0 76 -35.5 125.5t-99.5 49.5q-38 0 -75.5 -18t-64.5 -49.5t-36 -71.5l-39 -289q96 -10 118 -10q97 0 157 60z" />
    <glyph glyph-name="q" unicode="q" horiz-adv-x="528" 
d="M296.5 15q-43.5 -24 -97.5 -24q-86 0 -131 56.5t-45 148.5q0 17 4 53q16 118 87.5 187t193.5 69q33 0 74.5 -5t74.5 -14l-97 -746h-41l46 348q-25 -49 -68.5 -73zM274.5 47q37.5 18 64.5 49.5t36 71.5l39 287q-50 10 -103 10q-113 0 -171.5 -57.5t-71.5 -156.5
q-3 -25 -3 -48q0 -78 34.5 -126t99.5 -48q38 0 75.5 18z" />
    <glyph glyph-name="r" unicode="r" horiz-adv-x="340" 
d="M334 498l-3 -38q-28 5 -47 5q-55 0 -93 -29q-17 -13 -36.5 -33.5t-33.5 -43.5l-48 -358h-41l48 362q3 24 3 42q0 25 -5.5 42t-17.5 35l29 25q19 -21 28.5 -47.5t8.5 -54.5q16 27 36 48t38 32q35 20 84 20q14 0 50 -7z" />
    <glyph glyph-name="s" unicode="s" horiz-adv-x="409" 
d="M65.5 7.5q-40.5 18.5 -76.5 56.5l26 27q61 -64 143 -64q61 0 102.5 34t41.5 90q0 24 -13.5 41t-37 30t-71.5 35q-44 19 -68.5 33t-40 34.5t-15.5 50.5q0 10 1 16q8 55 52 88.5t110 33.5q62 0 112 -36l-22 -30q-43 28 -90 28q-52 0 -86.5 -28t-34.5 -71q0 -16 10.5 -28.5
t33.5 -26t72 -37.5q50 -23 76 -38.5t40.5 -36t14.5 -51.5q0 -7 -2 -21q-9 -68 -60 -108t-127 -40q-50 0 -90.5 18.5z" />
    <glyph glyph-name="t" unicode="t" horiz-adv-x="339" 
d="M38 103q0 19 3 38l63 482h41l-16 -123h156l-5 -40h-156l-43 -321q-2 -24 -2 -33q0 -37 15.5 -57t51.5 -20q29 0 54.5 15t45.5 43l28 -24q-28 -37 -58 -54.5t-71 -17.5q-107 0 -107 112z" />
    <glyph glyph-name="u" unicode="u" horiz-adv-x="562" 
d="M180 -7q-73 0 -107 35t-29 108l30 229q3 24 3 42q0 25 -5.5 42t-17.5 35l30 25q16 -20 26 -44.5t10 -50.5q0 -12 -1 -18l-31 -236q-2 -22 -2 -31q0 -98 101 -98q54 0 95 26t87 79l50 364h41l-57 -423q-1 -4 -1 -12q0 -34 31 -34q10 0 20.5 5.5t14.5 12.5l30 -22
q-12 -17 -30 -25.5t-35 -8.5q-37 0 -55 21.5t-14 61.5q-74 -83 -184 -83z" />
    <glyph glyph-name="v" unicode="v" horiz-adv-x="466" 
d="M52.5 452.5q-10.5 15.5 -24.5 25.5l27 31q40 -31 56 -102l85 -350l217 439h44l-244 -495h-46l-100 420q-4 16 -14.5 31.5z" />
    <glyph glyph-name="w" unicode="w" horiz-adv-x="746" 
d="M54.5 453q-10.5 16 -24.5 26l23 31q22 -15 34 -35.5t17 -48.5l70 -366l197 437h45l80 -437l197 437h41l-221 -495h-46l-81 437l-196 -437h-47l-76 420q-2 15 -12.5 31z" />
    <glyph glyph-name="x" unicode="x" horiz-adv-x="458" 
d="M193 280l156 217h51l-181 -246l91 -196q5 -10 11.5 -15t16.5 -5q15 0 25 10l36 -27q-27 -26 -62 -26q-45 0 -64 41l-86 185l-161 -217h-48l184 248l-120 248h48z" />
    <glyph glyph-name="y" unicode="y" horiz-adv-x="530" 
d="M128.5 -254q-34.5 36 -34.5 93q0 50 26.5 93t70.5 62q-73 0 -110 29.5t-37 86.5q0 8 2 26l30 228q3 24 3 42q0 25 -5.5 42t-17.5 35l30 25q16 -20 26 -44.5t10 -50.5q0 -12 -1 -18l-32 -240q-2 -12 -2 -33q0 -47 24 -68.5t76 -21.5q46 0 85.5 20.5t81.5 67.5
q11 15 16 25.5t6 23.5l45 331h41l-50 -366l-34 -260q-10 -76 -52.5 -120t-106.5 -44q-56 0 -90.5 36zM297.5 -216.5q32.5 33.5 39.5 88.5l28 206q-32 -36 -73 -63l-59 -31q-50 -24 -74 -58.5t-24 -84.5q0 -41 22.5 -66t61.5 -25q46 0 78.5 33.5z" />
    <glyph glyph-name="z" unicode="z" horiz-adv-x="450" 
d="M326 456h-260l5 39h333v-4l-328 -412l82 -32q51 -20 108 -20q25 0 46 7t53 26l16 -34q-32 -21 -57.5 -29.5t-57.5 -8.5q-54 0 -118 22l-99 34l-48 -60l-30 25z" />
    <glyph glyph-name="braceleft" unicode="{" horiz-adv-x="295" 
d="M95.5 -154.5q-32.5 15.5 -48.5 48.5q-10 18 -10 41q0 29 33 168q17 70 19 85l1 11q0 51 -72 62l3 41q51 7 77 36q13 13 16.5 49t4.5 107q0 11 1 46.5t4 59.5q5 40 19 66t48 44q45 21 106 35l7 -29q-24 -6 -49 -15.5t-42 -20.5q-39 -25 -46 -76q-2 -12 -4 -95
q-4 -113 -7 -138q-5 -39 -31.5 -60.5t-77.5 -29.5q43 -9 64.5 -25.5t21.5 -53.5q0 -13 -1 -20q-5 -27 -19 -84q-26 -99 -32 -145q-1 -5 -1 -16q0 -15 3 -27q10 -26 38 -40t67 -22l-11 -28q-49 10 -81.5 25.5z" />
    <glyph glyph-name="bar" unicode="|" horiz-adv-x="285" 
d="M169 752h41l-109 -822h-40z" />
    <glyph glyph-name="braceright" unicode="}" horiz-adv-x="295" 
d="M83 -80q12 17 15 43q4 32 6 131q0 13 1 47.5t3 50.5q6 47 32 66.5t78 28.5q-85 15 -85 79q0 10 1 15q5 35 32 150q14 59 18 83q1 6 1 16q0 38 -25 58q-27 21 -83 34l11 29q57 -14 96 -37q24 -13 33.5 -32.5t9.5 -46.5q0 -9 -2 -33q-4 -27 -24 -108q-27 -96 -27 -131
q0 -15 5 -23q12 -14 28.5 -21t39.5 -11l-3 -41q-84 -11 -93 -77q-1 -9 -2 -35.5t-1 -40.5q-2 -107 -8 -153q-4 -39 -23 -65q-24 -32 -59.5 -45.5t-88.5 -24.5l-8 28q94 19 122 66z" />
    <glyph glyph-name="asciitilde" unicode="~" horiz-adv-x="560" 
d="M137 321.5q24 8.5 55 8.5q24 0 42.5 -4.5t39.5 -13.5t34 -12.5t31 -3.5q44 0 86 31l23 -33q-30 -21 -52 -28.5t-57 -9.5q-21 0 -38.5 4.5t-39.5 13.5q-21 8 -36 12.5t-33 4.5q-41 0 -85 -31l-23 33q29 20 53 28.5z" />
    <glyph glyph-name="uni00A0" unicode="&#xa0;" horiz-adv-x="262" 
 />
    <glyph glyph-name="exclamdown" unicode="&#xa1;" horiz-adv-x="242" 
d="M160.5 522q9.5 -9 9.5 -23q0 -17 -11 -28.5t-28 -11.5q-15 0 -23.5 9.5t-8.5 24.5q0 16 11.5 27t26.5 11q14 0 23.5 -9zM98 371h38l-65 -562h-55z" />
    <glyph glyph-name="cent" unicode="&#xa2;" horiz-adv-x="540" 
d="M95 148q-25 43 -25 113q0 29 4 56q13 104 69 175q67 76 146 86l15 106h40l-15 -105q33 -3 60.5 -16t43.5 -32q36 -37 30 -92l-42 2q3 40 -17 68q-11 12 -31.5 22t-45.5 13l-60 -439q41 2 70.5 12.5t51 21t27.5 13.5l16 -33q-35 -22 -70 -35q-29 -8 -51 -12.5t-47 -5.5
l-16 -116h-41l16 118q-92 12 -128 80zM218 510q-32 -26 -52 -60q-42 -64 -53 -149q-3 -22 -3 -41q0 -52 22 -90q31 -50 95 -62l59 434q-36 -6 -68 -32z" />
    <glyph glyph-name="sterling" unicode="&#xa3;" horiz-adv-x="525" 
d="M443 24q-30 -19 -60 -27.5t-65 -8.5q-30 0 -66 6q-16 2 -40.5 9.5t-33.5 10.5l-72 22l-11 -17q-8 -14 -19 -30l-31 19q35 61 42 111l21 166h-46l5 41h47l18 135q12 96 68 144.5t154 48.5q35 0 78.5 -15t69.5 -38l-22 -27q-26 18 -66.5 30t-68.5 12q-78 0 -120 -39.5
t-53 -120.5l-17 -130h162l-6 -41h-162l-22 -166l-10 -43q18 -7 35 -12q42 -16 65 -23.5t38 -9.5q38 -5 62 -5q32 0 58 7.5t55 24.5z" />
    <glyph glyph-name="currency" unicode="&#xa4;" horiz-adv-x="700" 
d="M146 133q-32 47 -32 113q0 21 3 43q6 49 23 84q20 43 47 69l-88 105l37 35l90 -107q26 17 66 33q31 10 72 10q45 0 70 -12q31 -9 60 -33l118 109l29 -35l-115 -107q31 -44 31 -111q0 -20 -3 -43q-6 -43 -22 -84q-18 -38 -47 -69l88 -104l-37 -35l-90 107q-25 -16 -67 -33
q-35 -11 -72 -11q-43 0 -70 12q-27 8 -60 32l-117 -107l-29 35zM382 112q36 14 60 41q28 25 43 61q17 32 23 78q2 12 2 35q0 62 -29 101q-40 49 -117 49q-28 0 -42 -3t-31 -11q-31 -11 -60 -40q-29 -25 -44 -60q-17 -35 -22 -77q-2 -12 -2 -34q0 -25 4 -44q8 -37 26 -60
q17 -21 48 -38q34 -13 69 -13q41 0 72 15z" />
    <glyph glyph-name="yen" unicode="&#xa5;" horiz-adv-x="629" 
d="M265 174h-193l6 39h190l12 90l-11 22h-178l6 41h157l-145 275h51l149 -285l222 285h53l-214 -275h153l-6 -41h-174l-16 -22l-12 -90h188l-5 -39h-188l-23 -173h-45z" />
    <glyph glyph-name="brokenbar" unicode="&#xa6;" horiz-adv-x="291" 
d="M169 752h46l-47 -363h-47zM108 293h47l-48 -363h-46z" />
    <glyph glyph-name="section" unicode="&#xa7;" horiz-adv-x="418" 
d="M170 10q52 23 52 77q0 22 -10.5 39t-29.5 35l-31 25q-36 26 -50 43q-19 19 -28 38t-9 43q0 6 2 22q7 49 34 82q13 14 26 20.5t20 4.5q-24 34 -24 75q0 38 14 64t47 46q49 32 145 48l6 -40q-37 -8 -67 -18t-45 -18q-25 -11 -37.5 -32t-12.5 -44q0 -37 38 -75
q19 -16 31 -24q5 -4 21.5 -16.5t30.5 -27.5q19 -19 27.5 -37.5t8.5 -42.5q0 -25 -9.5 -55t-26.5 -50q-13 -11 -46 -30q24 -30 24 -71q0 -72 -60 -109q-52 -33 -147 -48l-6 40q75 16 112 36zM261 230q16 25 19 49q1 4 1 12q0 18 -8.5 33t-22.5 29q-11 10 -21 17.5t-17 13.5
q-27 21 -36 29q-28 -14 -46 -40t-18 -56q0 -19 7.5 -34.5t22.5 -30.5q13 -12 41 -32q25 -18 33 -26q29 11 45 36z" />
    <glyph glyph-name="dieresis" unicode="&#xa8;" horiz-adv-x="399" 
d="M91.5 573q-8.5 9 -8.5 23q0 17 10.5 28.5t26.5 11.5q14 0 23.5 -9t9.5 -23q0 -17 -11 -28.5t-27 -11.5q-15 0 -23.5 9zM306.5 573q-8.5 9 -8.5 23q0 17 10.5 28.5t26.5 11.5q14 0 23.5 -9t9.5 -23q0 -17 -11 -28.5t-27 -11.5q-15 0 -23.5 9z" />
    <glyph glyph-name="copyright" unicode="&#xa9;" horiz-adv-x="749" 
d="M117 36q-58 69 -58 168q0 16 4 50q8 64 36.5 120.5t72.5 98.5q46 42 103.5 63t118.5 21q65 0 116 -23t84 -65q57 -66 57 -169q0 -24 -3 -48q-9 -66 -37.5 -121.5t-71.5 -96.5q-44 -41 -100.5 -62.5t-122.5 -21.5q-128 0 -199 86zM425 5.5q50 21.5 87 56.5q39 36 64 87.5
t33 109.5q3 23 3 46q0 90 -46 146q-30 35 -74.5 53t-97.5 18q-55 0 -106 -19.5t-89 -56.5q-40 -36 -64.5 -85.5t-32.5 -108.5q-3 -24 -3 -47q0 -90 46 -149q30 -35 75 -53.5t98 -18.5q57 0 107 21.5zM246.5 121.5q-32.5 36.5 -32.5 98.5q0 10 2 30q10 75 56 124.5t112 49.5
q33 0 52 -11t26.5 -19.5t9.5 -10.5l-27 -22q-12 14 -26.5 20.5t-35.5 6.5q-42 0 -71.5 -26t-44.5 -65t-15 -79q0 -46 23 -71.5t67 -25.5q27 0 51.5 8.5t53.5 23.5l14 -30q-27 -18 -59.5 -28t-63.5 -10q-59 0 -91.5 36.5z" />
    <glyph glyph-name="ordfeminine" unicode="&#xaa;" horiz-adv-x="457" 
d="M117.5 405.5q-31.5 36.5 -31.5 92.5q0 52 22.5 93.5t62.5 65t91 23.5q39 0 76 -5h40l-33 -252v-3q0 -7 5 -11.5t12 -4.5q12 0 21 11l26 -22q-10 -12 -24 -18t-27 -6q-21 0 -36.5 12t-16.5 29q-34 -41 -98 -41q-58 0 -89.5 36.5zM260 417q25 13 39 35q10 14 12 25t2 12
l21 154l-38 1q-14 1 -37 1q-61 0 -97 -41.5t-36 -104.5q0 -42 20 -68.5t61 -26.5q28 0 53 13z" />
    <glyph glyph-name="guillemotleft" unicode="&#xab;" horiz-adv-x="545" 
d="M226 248q0 18 33 47l224 182l22 -32l-242 -195l191 -196l-30 -31l-174 184q-24 26 -24 41zM19 248q0 18 33 47l224 182l22 -32l-242 -195l191 -196l-30 -31l-174 184q-24 26 -24 41z" />
    <glyph glyph-name="logicalnot" unicode="&#xac;" horiz-adv-x="548" 
d="M363 270h-295l6 45h342l-22 -164h-47z" />
    <glyph glyph-name="uni00AD" unicode="&#xad;" horiz-adv-x="437" 
d="M68 320h281l-6 -40h-280z" />
    <glyph glyph-name="registered" unicode="&#xae;" horiz-adv-x="749" 
d="M658.5 555.5q14.5 -43.5 14.5 -93.5q0 -23 -3 -47q-9 -66 -37.5 -121.5t-71.5 -96.5q-44 -40 -101 -62t-122 -22q-129 0 -200 86q-57 68 -57 170q0 24 3 48q9 65 37 121.5t72 97.5q46 42 103.5 63t119.5 21q64 0 115 -23t84 -65q29 -33 43.5 -76.5zM598 312.5
q25 51.5 33 109.5q3 21 3 43q0 44 -11.5 82.5t-34.5 66.5q-30 35 -75 53t-98 18q-55 0 -105.5 -19.5t-89.5 -56.5q-40 -36 -64 -85.5t-32 -108.5q-4 -34 -4 -50q0 -86 46 -146q30 -35 75.5 -53.5t98.5 -18.5q57 0 107 21.5t87 56.5q39 36 64 87.5zM488 291l13 -35
q-13 -9 -26 -9t-21.5 4.5t-13 10t-4.5 7.5l-49 78q-15 23 -25 30t-33 8l4 37h46q31 0 51 22t20 58q0 24 -12.5 39t-34.5 15h-67l-40 -306h-38l45 342h105q35 0 57.5 -24.5t22.5 -61.5q0 -30 -10.5 -54t-25.5 -37.5t-27 -15.5q-21 -3 -29 -3q4 -3 9 -9.5t8 -12.5
q5 -6 11.5 -17.5t15.5 -24.5l26 -43q3 -2 5 -3t5 -1q6 0 12 6z" />
    <glyph glyph-name="macron" unicode="&#xaf;" horiz-adv-x="406" 
d="M106 610h251l-6 -41h-251z" />
    <glyph glyph-name="degree" unicode="&#xb0;" horiz-adv-x="440" 
d="M142 433.5q-29 28.5 -29 79.5q0 75 41.5 113t100.5 38q50 0 79.5 -28.5t29.5 -78.5q0 -7 -2 -25q-8 -63 -48.5 -95t-92.5 -32q-50 0 -79 28.5zM295.5 473.5q28.5 32.5 28.5 79.5q0 34 -18.5 54.5t-52.5 20.5q-44 0 -72 -33t-28 -79q0 -34 18.5 -54.5t52.5 -20.5
q43 0 71.5 32.5z" />
    <glyph glyph-name="plusminus" unicode="&#xb1;" horiz-adv-x="507" 
d="M217 274h-157l5 38h157l21 163h42l-22 -163h156l-5 -38h-156l-21 -164h-42zM30 40h354l-6 -39h-354z" />
    <glyph glyph-name="uni00B2" unicode="&#xb2;" horiz-adv-x="300" 
d="M18.5 249q6.5 16 28.5 40t66 54q6 4 35 22.5t44.5 40t15.5 45.5q0 20 -13 31.5t-36 11.5q-30 0 -54 -17t-34 -47l-32 20q39 79 119 79q41 0 64 -21t23 -57q0 -31 -11 -52.5t-29 -37t-53 -39.5q-22 -14 -38 -27q-29 -21 -39 -30.5t-18 -23.5l181 1l-5 -41h-225l2 13
q2 19 8.5 35z" />
    <glyph glyph-name="uni00B3" unicode="&#xb3;" horiz-adv-x="298" 
d="M44.5 214.5q-28.5 15.5 -46.5 37.5l25 25q17 -20 36.5 -29.5t46.5 -9.5q42 0 67.5 18.5t25.5 54.5q0 25 -18.5 39.5t-46.5 14.5h-51l5 37h48q24 0 45 18.5t21 42.5q0 17 -15.5 26t-37.5 9q-36 0 -75 -25l-16 32q18 15 44 23.5t50 8.5q41 0 68 -23t22 -61
q-2 -20 -14.5 -40.5t-35.5 -27.5q23 -4 35.5 -27t12.5 -51q0 -49 -39 -78.5t-90 -29.5q-38 0 -66.5 15.5z" />
    <glyph glyph-name="acute" unicode="&#xb4;" horiz-adv-x="212" 
d="M58 580l131 154l32 -29l-146 -143z" />
    <glyph glyph-name="uni00B5" unicode="&#xb5;" horiz-adv-x="597" 
d="M176 495l-46 -343l1 -1q-1 -10 -1 -28q0 -42 15 -64q23 -29 82 -29q56 0 97 30q42 30 84 81l47 354h41l-47 -355q-3 -19 -3 -37q0 -50 23 -84l-26 -23q-19 16 -25 38q-14 32 -11 70q-40 -58 -84 -85.5t-97 -27.5q-39 0 -59 8q-30 7 -52 29l-38 -282h-41l99 749h41z" />
    <glyph glyph-name="paragraph" unicode="&#xb6;" horiz-adv-x="634" 
d="M104 309q-29 34 -29 90q0 18 3 37q14 99 76 140q64 40 220 40h94l73 -3l-81 -611h-43l75 567h-143l-75 -567h-45l35 254q-122 10 -160 53z" />
    <glyph glyph-name="periodcentered" unicode="&#xb7;" horiz-adv-x="267" 
d="M84.5 287q-13.5 14 -13.5 34q0 24 17.5 42t40.5 18q21 0 34.5 -14t13.5 -34q0 -25 -17 -42.5t-42 -17.5q-20 0 -33.5 14z" />
    <glyph glyph-name="cedilla" unicode="&#xb8;" horiz-adv-x="224" 
d="M49 -170q17 22 17 45q0 18 -12.5 28.5t-35.5 10.5h-25l24 95h46l-21 -61q31 -2 46 -21t15 -49q0 -25 -13 -52t-36.5 -44t-55.5 -15l10 38q24 3 41 25z" />
    <glyph glyph-name="uni00B9" unicode="&#xb9;" horiz-adv-x="206" 
d="M27 444l-6 38q21 -3 43.5 8.5t74.5 44.5l14 -1l-44 -334h-41l36 266q-36 -25 -77 -22z" />
    <glyph glyph-name="ordmasculine" unicode="&#xba;" horiz-adv-x="441" 
d="M121 405.5q-36 36.5 -36 95.5q0 49 22.5 90.5t61.5 66t87 24.5q61 0 97 -37.5t36 -96.5q0 -51 -23 -92t-62 -64t-86 -23q-61 0 -97 36.5zM312.5 448q35.5 41 35.5 102q0 44 -24 69t-69 25q-58 0 -94 -41t-36 -100q0 -44 25 -70t70 -26q57 0 92.5 41z" />
    <glyph glyph-name="guillemotright" unicode="&#xbb;" horiz-adv-x="545" 
d="M448 250l-189 195l31 32l174 -184q9 -10 19 -26q5 -8 5 -15q0 -20 -34 -47l-223 -182l-23 32zM241 250l-189 195l31 32l174 -184q9 -10 19 -26q5 -8 5 -15q0 -20 -34 -47l-223 -182l-23 32z" />
    <glyph glyph-name="onequarter" unicode="&#xbc;" horiz-adv-x="675" 
d="M27 444l-6 38q21 -3 43.5 8.5t74.5 44.5l14 -1l-44 -334h-41l36 266q-36 -25 -77 -22zM384 497h44l-275 -496h-44zM504 43h-154l4 31l133 234h46l-128 -227h104l15 108h40l-14 -108h41l-5 -38h-41l-8 -62h-41z" />
    <glyph glyph-name="onehalf" unicode="&#xbd;" horiz-adv-x="687" 
d="M27 444l-6 38q21 -3 43.5 8.5t74.5 44.5l14 -1l-44 -334h-41l36 266q-36 -25 -77 -22zM384 497h44l-275 -496h-44zM364.5 31q6.5 16 28.5 40t66 54q6 4 35 22.5t44.5 40t15.5 45.5q0 20 -13 31.5t-36 11.5q-30 0 -54 -17t-34 -47l-32 20q39 79 119 79q41 0 64 -21t23 -57
q0 -31 -11 -52.5t-29 -37t-53 -39.5q-22 -14 -38 -27q-29 -21 -39 -30.5t-18 -23.5l181 1l-5 -41h-225l2 13q2 19 8.5 35z" />
    <glyph glyph-name="threequarters" unicode="&#xbe;" horiz-adv-x="767" 
d="M43.5 208.5q-28.5 15.5 -46.5 37.5l25 25q17 -20 36.5 -29.5t46.5 -9.5q42 0 67.5 18.5t25.5 54.5q0 25 -18.5 39.5t-46.5 14.5h-51l5 37h48q24 0 45 18.5t21 42.5q0 17 -15.5 26t-37.5 9q-36 0 -75 -25l-16 32q18 15 44 23.5t50 8.5q41 0 68 -23t22 -61
q-2 -20 -14.5 -40.5t-35.5 -27.5q23 -4 35.5 -27t12.5 -51q0 -49 -39 -78.5t-90 -29.5q-38 0 -66.5 15.5zM473 497h44l-275 -496h-44zM594 43h-154l4 31l133 234h46l-128 -227h104l15 108h40l-14 -108h41l-5 -38h-41l-8 -62h-41z" />
    <glyph glyph-name="questiondown" unicode="&#xbf;" horiz-adv-x="459" 
d="M345 558q9 -9 9 -23q0 -17 -11 -28.5t-27 -11.5q-14 0 -23 9t-9 23q0 17 11 28.5t27 11.5q14 0 23 -9zM334.5 350.5q-8.5 -33.5 -23.5 -53.5q-34 -41 -115 -81q-72 -33 -109.5 -74t-47.5 -97q-2 -10 -2 -29q0 -59 38 -97.5t100 -38.5q35 0 70.5 15t58.5 38t23 47
q0 12 -8.5 20t-23.5 9l17 39q25 -1 40.5 -19.5t15.5 -44.5q0 -9 -1 -14q-7 -35 -35.5 -65t-70.5 -47.5t-87 -17.5q-83 0 -130.5 47t-47.5 126q0 20 3 41q11 64 50 106.5t130 93.5l9 4.5t11 6.5q26 14 40 23t29 27q19 20 26.5 40.5t9.5 55.5l38 6q1 -33 -7.5 -66.5z" />
    <glyph glyph-name="Agrave" unicode="&#xc0;" horiz-adv-x="752" 
d="M13 8q-18 17 -23 46l38 4q2 -11 11.5 -19t21.5 -8q13 0 24.5 9t16.5 19l341 633h8l189 -691h-43l-63 233h-295l-101 -193q-13 -25 -33.5 -37.5t-45.5 -12.5q-28 0 -46 17zM521 274l-73 288l-10 63l-27 -65l-150 -286h260zM298 822l29 39l139 -110l-16 -24z" />
    <glyph glyph-name="Aacute" unicode="&#xc1;" horiz-adv-x="752" 
d="M13 8q-18 17 -23 46l38 4q2 -11 11.5 -19t21.5 -8q13 0 24.5 9t16.5 19l341 633h8l189 -691h-43l-63 233h-295l-101 -193q-13 -25 -33.5 -37.5t-45.5 -12.5q-28 0 -46 17zM521 274l-73 288l-10 63l-27 -65l-150 -286h260zM439 762l169 105l20 -40l-179 -89z" />
    <glyph glyph-name="Acircumflex" unicode="&#xc2;" horiz-adv-x="752" 
d="M13 8q-18 17 -23 46l38 4q2 -11 11.5 -19t21.5 -8q13 0 24.5 9t16.5 19l341 633h8l189 -691h-43l-63 233h-295l-101 -193q-13 -25 -33.5 -37.5t-45.5 -12.5q-28 0 -46 17zM521 274l-73 288l-10 63l-27 -65l-150 -286h260zM447 853h42l100 -121h-53l-71 85l-95 -85h-54z
" />
    <glyph glyph-name="Atilde" unicode="&#xc3;" horiz-adv-x="752" 
d="M13 8q-18 17 -23 46l38 4q2 -11 11.5 -19t21.5 -8q13 0 24.5 9t16.5 19l341 633h8l189 -691h-43l-63 233h-295l-101 -193q-13 -25 -33.5 -37.5t-45.5 -12.5q-28 0 -46 17zM521 274l-73 288l-10 63l-27 -65l-150 -286h260zM373.5 802q23.5 8 45.5 8q20 0 32 -5t27 -14
q11 -8 21 -12.5t25 -4.5q33 0 76 32l22 -33q-28 -21 -48.5 -29t-53.5 -8q-18 0 -30 4.5t-26 13.5q-13 8 -23 12t-23 4q-18 0 -35 -6.5t-42 -25.5l-22 33q31 23 54.5 31z" />
    <glyph glyph-name="Adieresis" unicode="&#xc4;" horiz-adv-x="752" 
d="M13 8q-18 17 -23 46l38 4q2 -11 11.5 -19t21.5 -8q13 0 24.5 9t16.5 19l341 633h8l189 -691h-43l-63 233h-295l-101 -193q-13 -25 -33.5 -37.5t-45.5 -12.5q-28 0 -46 17zM521 274l-73 288l-10 63l-27 -65l-150 -286h260zM322.5 740q-8.5 9 -8.5 23q0 17 10.5 28.5
t26.5 11.5q14 0 23.5 -9t9.5 -23q0 -17 -11 -28.5t-27 -11.5q-15 0 -23.5 9zM537.5 740q-8.5 9 -8.5 23q0 17 10.5 28.5t26.5 11.5q14 0 23.5 -9t9.5 -23q0 -17 -11 -28.5t-27 -11.5q-15 0 -23.5 9z" />
    <glyph glyph-name="Aring" unicode="&#xc5;" horiz-adv-x="752" 
d="M13 8q-18 17 -23 46l38 4q2 -11 11.5 -19t21.5 -8q13 0 24.5 9t16.5 19l341 633h8l189 -691h-43l-63 233h-295l-101 -193q-13 -25 -33.5 -37.5t-45.5 -12.5q-28 0 -46 17zM521 274l-73 288l-10 63l-27 -65l-150 -286h260zM395 759q-22 22 -22 58q0 46 29.5 76t73.5 30
q37 0 59 -21.5t22 -56.5q0 -48 -30.5 -78t-73.5 -30q-36 0 -58 22zM501 790q22 23 22 50q0 22 -14 37t-34 15q-26 0 -46.5 -22.5t-20.5 -51.5q0 -23 13.5 -37t32.5 -14q25 0 47 23z" />
    <glyph glyph-name="AE" unicode="&#xc6;" horiz-adv-x="942" 
d="M2.5 8.5q-17.5 10.5 -27.5 30.5l37 16q5 -7 14.5 -12t19.5 -5q14 0 24 8.5t17.5 19t10.5 13.5l404 606h415l-6 -40h-346l-34 -261h246l-5 -40h-246l-40 -303h365l-5 -40h-406l30 234h-220l-111 -165q-6 -8 -24 -31t-34.5 -32t-37.5 -9q-23 0 -40.5 10.5zM476 275l49 381
l-37 -60l-213 -321h201z" />
    <glyph glyph-name="Ccedilla" unicode="&#xc7;" horiz-adv-x="698" 
d="M492 13.5q-74 -34.5 -152 -35.5l-19 -53q31 -2 46 -21t15 -49q0 -25 -13 -52t-36.5 -44t-54.5 -15l10 38q24 3 40.5 25t16.5 45q0 18 -12.5 28.5t-35.5 10.5h-24l22 89q-74 9 -130.5 51t-87 108t-30.5 145q0 30 4 55q12 97 68 181.5t139.5 135t175.5 50.5
q85 0 144.5 -33.5t59.5 -96.5q0 -43 -24.5 -73.5t-62.5 -30.5q-26 0 -44 15l27 31q12 -6 19 -6q19 0 34.5 18.5t15.5 40.5q0 29 -26.5 50t-66 32.5t-76.5 11.5q-83 0 -158 -46t-124.5 -122t-60.5 -162q-3 -24 -3 -48q0 -75 30.5 -136.5t88 -97t132.5 -35.5q71 0 139 33
t115 90l29 -24q-56 -69 -130 -103.5z" />
    <glyph glyph-name="Egrave" unicode="&#xc8;" horiz-adv-x="619" 
d="M142 642q-11 -3 -20 -10q-16 -11 -21 -38l-37 2q7 44 35 67q25 21 77 21l416 1l-6 -40h-374l-34 -261h255l-5 -40h-256l-39 -303h374l-5 -40h-415l85 644q-19 0 -30 -3zM238 831l29 39l139 -110l-16 -24z" />
    <glyph glyph-name="Eacute" unicode="&#xc9;" horiz-adv-x="619" 
d="M142 642q-11 -3 -20 -10q-16 -11 -21 -38l-37 2q7 44 35 67q25 21 77 21l416 1l-6 -40h-374l-34 -261h255l-5 -40h-256l-39 -303h374l-5 -40h-415l85 644q-19 0 -30 -3zM379 771l169 105l20 -40l-179 -89z" />
    <glyph glyph-name="Ecircumflex" unicode="&#xca;" horiz-adv-x="619" 
d="M142 642q-11 -3 -20 -10q-16 -11 -21 -38l-37 2q7 44 35 67q25 21 77 21l416 1l-6 -40h-374l-34 -261h255l-5 -40h-256l-39 -303h374l-5 -40h-415l85 644q-19 0 -30 -3zM387 862h42l100 -121h-53l-71 85l-95 -85h-54z" />
    <glyph glyph-name="Edieresis" unicode="&#xcb;" horiz-adv-x="619" 
d="M142 642q-11 -3 -20 -10q-16 -11 -21 -38l-37 2q7 44 35 67q25 21 77 21l416 1l-6 -40h-374l-34 -261h255l-5 -40h-256l-39 -303h374l-5 -40h-415l85 644q-19 0 -30 -3zM262.5 749q-8.5 9 -8.5 23q0 17 10.5 28.5t26.5 11.5q14 0 23.5 -9t9.5 -23q0 -17 -11 -28.5
t-27 -11.5q-15 0 -23.5 9zM477.5 749q-8.5 9 -8.5 23q0 17 10.5 28.5t26.5 11.5q14 0 23.5 -9t9.5 -23q0 -17 -11 -28.5t-27 -11.5q-15 0 -23.5 9z" />
    <glyph glyph-name="Igrave" unicode="&#xcc;" horiz-adv-x="255" 
d="M140 685h43l-90 -684h-43zM41 868l36 33l106 -144l-19 -20z" />
    <glyph glyph-name="Iacute" unicode="&#xcd;" horiz-adv-x="255" 
d="M140 685h43l-90 -684h-43zM153 764l106 172l38 -23l-123 -164z" />
    <glyph glyph-name="Icircumflex" unicode="&#xce;" horiz-adv-x="255" 
d="M140 685h43l-90 -684h-43zM163 882h42l74 -131h-48l-50 95l-77 -95h-48z" />
    <glyph glyph-name="Idieresis" unicode="&#xcf;" horiz-adv-x="255" 
d="M140 685h43l-90 -684h-43zM62.5 760q-8.5 9 -8.5 23q0 17 10.5 28.5t26.5 11.5q14 0 23.5 -9t9.5 -23q0 -17 -11 -28.5t-27 -11.5q-15 0 -23.5 9zM231.5 760q-8.5 9 -8.5 23q0 17 10.5 28.5t26.5 11.5q14 0 23.5 -9t9.5 -23q0 -17 -11 -28.5t-27 -11.5q-15 0 -23.5 9z
" />
    <glyph glyph-name="Eth" unicode="&#xd0;" horiz-adv-x="756" 
d="M565.5 649q59.5 -39 92 -106t32.5 -153q0 -33 -4 -61q-22 -172 -136.5 -254.5t-332.5 -82.5q-47 0 -93 4l-39 4l46 347h-82l5 41h83l35 264q-19 0 -30 -3t-20 -10q-16 -11 -21 -38l-37 2q7 44 35 67q25 21 77 21l251 -1q79 -2 138.5 -41zM647 335q4 28 4 59
q0 114 -61.5 181t-175.5 75h-202l-35 -262h126l-5 -41h-126l-42 -311q49 -4 106 -4q371 0 411 303z" />
    <glyph glyph-name="Ntilde" unicode="&#xd1;" horiz-adv-x="784" 
d="M-18 16l39 25q5 -6 13 -10.5t14 -4.5q17 0 31 12.5t17 32.5l81 614h26l91 -125l263 -418l22 -45l75 587h43l-90 -683h-6l-370 572l-24 45l-69 -549q-5 -41 -31.5 -63.5t-61.5 -22.5q-39 0 -63 33zM377.5 811q23.5 8 45.5 8q20 0 32 -5t27 -14q11 -8 21 -12.5t25 -4.5
q33 0 76 32l22 -33q-28 -21 -48.5 -29t-53.5 -8q-18 0 -30 4.5t-26 13.5q-13 8 -23 12t-23 4q-18 0 -35 -6.5t-42 -25.5l-22 33q31 23 54.5 31z" />
    <glyph glyph-name="Ograve" unicode="&#xd2;" horiz-adv-x="808" 
d="M190 23.5q-67 37.5 -104 104t-37 151.5q0 17 4 53l2 19q13 99 66.5 179t134.5 126t173 46q85 0 151 -38.5t103 -107t37 -154.5q0 -17 -4 -53l-2 -19q-13 -99 -65.5 -177.5t-132.5 -122.5t-173 -44q-86 0 -153 37.5zM495 64.5q72 40.5 119.5 111t58.5 156.5l3 19
q3 24 3 46q0 76 -32 136.5t-89.5 94.5t-130.5 34q-81 0 -152.5 -41.5t-119.5 -113t-60 -158.5l-2 -19q-3 -24 -3 -47q0 -75 31.5 -134t88.5 -92t131 -33q82 0 154 40.5zM280 831l29 39l139 -110l-16 -24z" />
    <glyph glyph-name="Oacute" unicode="&#xd3;" horiz-adv-x="808" 
d="M190 23.5q-67 37.5 -104 104t-37 151.5q0 17 4 53l2 19q13 99 66.5 179t134.5 126t173 46q85 0 151 -38.5t103 -107t37 -154.5q0 -17 -4 -53l-2 -19q-13 -99 -65.5 -177.5t-132.5 -122.5t-173 -44q-86 0 -153 37.5zM495 64.5q72 40.5 119.5 111t58.5 156.5l3 19
q3 24 3 46q0 76 -32 136.5t-89.5 94.5t-130.5 34q-81 0 -152.5 -41.5t-119.5 -113t-60 -158.5l-2 -19q-3 -24 -3 -47q0 -75 31.5 -134t88.5 -92t131 -33q82 0 154 40.5zM422 771l169 105l20 -40l-179 -89z" />
    <glyph glyph-name="Ocircumflex" unicode="&#xd4;" horiz-adv-x="808" 
d="M190 23.5q-67 37.5 -104 104t-37 151.5q0 17 4 53l2 19q13 99 66.5 179t134.5 126t173 46q85 0 151 -38.5t103 -107t37 -154.5q0 -17 -4 -53l-2 -19q-13 -99 -65.5 -177.5t-132.5 -122.5t-173 -44q-86 0 -153 37.5zM495 64.5q72 40.5 119.5 111t58.5 156.5l3 19
q3 24 3 46q0 76 -32 136.5t-89.5 94.5t-130.5 34q-81 0 -152.5 -41.5t-119.5 -113t-60 -158.5l-2 -19q-3 -24 -3 -47q0 -75 31.5 -134t88.5 -92t131 -33q82 0 154 40.5zM429 862h42l100 -121h-53l-71 85l-95 -85h-54z" />
    <glyph glyph-name="Otilde" unicode="&#xd5;" horiz-adv-x="808" 
d="M190 23.5q-67 37.5 -104 104t-37 151.5q0 17 4 53l2 19q13 99 66.5 179t134.5 126t173 46q85 0 151 -38.5t103 -107t37 -154.5q0 -17 -4 -53l-2 -19q-13 -99 -65.5 -177.5t-132.5 -122.5t-173 -44q-86 0 -153 37.5zM495 64.5q72 40.5 119.5 111t58.5 156.5l3 19
q3 24 3 46q0 76 -32 136.5t-89.5 94.5t-130.5 34q-81 0 -152.5 -41.5t-119.5 -113t-60 -158.5l-2 -19q-3 -24 -3 -47q0 -75 31.5 -134t88.5 -92t131 -33q82 0 154 40.5zM356.5 811q23.5 8 45.5 8q20 0 32 -5t27 -14q11 -8 21 -12.5t25 -4.5q33 0 76 32l22 -33
q-28 -21 -48.5 -29t-53.5 -8q-18 0 -30 4.5t-26 13.5q-13 8 -23 12t-23 4q-18 0 -35 -6.5t-42 -25.5l-22 33q31 23 54.5 31z" />
    <glyph glyph-name="Odieresis" unicode="&#xd6;" horiz-adv-x="808" 
d="M190 23.5q-67 37.5 -104 104t-37 151.5q0 17 4 53l2 19q13 99 66.5 179t134.5 126t173 46q85 0 151 -38.5t103 -107t37 -154.5q0 -17 -4 -53l-2 -19q-13 -99 -65.5 -177.5t-132.5 -122.5t-173 -44q-86 0 -153 37.5zM495 64.5q72 40.5 119.5 111t58.5 156.5l3 19
q3 24 3 46q0 76 -32 136.5t-89.5 94.5t-130.5 34q-81 0 -152.5 -41.5t-119.5 -113t-60 -158.5l-2 -19q-3 -24 -3 -47q0 -75 31.5 -134t88.5 -92t131 -33q82 0 154 40.5zM305.5 749q-8.5 9 -8.5 23q0 17 10.5 28.5t26.5 11.5q14 0 23.5 -9t9.5 -23q0 -17 -11 -28.5t-27 -11.5
q-15 0 -23.5 9zM520.5 749q-8.5 9 -8.5 23q0 17 10.5 28.5t26.5 11.5q14 0 23.5 -9t9.5 -23q0 -17 -11 -28.5t-27 -11.5q-15 0 -23.5 9z" />
    <glyph glyph-name="multiply" unicode="&#xd7;" horiz-adv-x="504" 
d="M35 112l168 152l-122 146l37 34l121 -146l160 146l27 -32l-159 -145l127 -152l-36 -33l-128 152l-167 -153z" />
    <glyph glyph-name="Oslash" unicode="&#xd8;" horiz-adv-x="784" 
d="M682 559q38 -69 38 -157q0 -17 -4 -53l-2 -19q-13 -99 -65.5 -177.5t-132.5 -122.5t-173 -44q-61 0 -111 18l-18 -32h-53l28 52q-65 36 -102.5 103t-37.5 152q0 17 4 53l2 19q13 99 66.5 179t134.5 126t173 46q56 0 104 -17l31 56h53l-40 -75q67 -38 105 -107zM90 282
q0 -74 30.5 -132t85.5 -90l310 587q-42 15 -89 15q-81 0 -152.5 -41.5t-119.5 -113t-60 -158.5l-2 -19q-3 -24 -3 -48zM676 351q3 24 3 46q0 76 -32 136.5t-89 93.5l-310 -587q41 -16 93 -16q82 0 154 40.5t119.5 111t58.5 156.5z" />
    <glyph glyph-name="Ugrave" unicode="&#xd9;" horiz-adv-x="727" 
d="M164.5 53.5q-55.5 63.5 -55.5 163.5q0 24 3 49l44 339q1 6 1 16q0 40 -37 40q-29 0 -45 -26l-28 25q25 41 76 41q34 0 54.5 -19.5t20.5 -57.5q0 -14 -1 -21l-45 -339q-3 -22 -3 -43q0 -84 45 -137.5t129 -53.5q69 0 119.5 34.5t80 88.5t37.5 113l55 418h41l-56 -420
q-9 -71 -43.5 -133.5t-94 -101.5t-139.5 -39q-103 0 -158.5 63.5zM255 822l29 39l139 -110l-16 -24z" />
    <glyph glyph-name="Uacute" unicode="&#xda;" horiz-adv-x="727" 
d="M164.5 53.5q-55.5 63.5 -55.5 163.5q0 24 3 49l44 339q1 6 1 16q0 40 -37 40q-29 0 -45 -26l-28 25q25 41 76 41q34 0 54.5 -19.5t20.5 -57.5q0 -14 -1 -21l-45 -339q-3 -22 -3 -43q0 -84 45 -137.5t129 -53.5q69 0 119.5 34.5t80 88.5t37.5 113l55 418h41l-56 -420
q-9 -71 -43.5 -133.5t-94 -101.5t-139.5 -39q-103 0 -158.5 63.5zM396 762l169 105l20 -40l-179 -89z" />
    <glyph glyph-name="Ucircumflex" unicode="&#xdb;" horiz-adv-x="727" 
d="M164.5 53.5q-55.5 63.5 -55.5 163.5q0 24 3 49l44 339q1 6 1 16q0 40 -37 40q-29 0 -45 -26l-28 25q25 41 76 41q34 0 54.5 -19.5t20.5 -57.5q0 -14 -1 -21l-45 -339q-3 -22 -3 -43q0 -84 45 -137.5t129 -53.5q69 0 119.5 34.5t80 88.5t37.5 113l55 418h41l-56 -420
q-9 -71 -43.5 -133.5t-94 -101.5t-139.5 -39q-103 0 -158.5 63.5zM404 853h42l100 -121h-53l-71 85l-95 -85h-54z" />
    <glyph glyph-name="Udieresis" unicode="&#xdc;" horiz-adv-x="727" 
d="M164.5 53.5q-55.5 63.5 -55.5 163.5q0 24 3 49l44 339q1 6 1 16q0 40 -37 40q-29 0 -45 -26l-28 25q25 41 76 41q34 0 54.5 -19.5t20.5 -57.5q0 -14 -1 -21l-45 -339q-3 -22 -3 -43q0 -84 45 -137.5t129 -53.5q69 0 119.5 34.5t80 88.5t37.5 113l55 418h41l-56 -420
q-9 -71 -43.5 -133.5t-94 -101.5t-139.5 -39q-103 0 -158.5 63.5zM279.5 740q-8.5 9 -8.5 23q0 17 10.5 28.5t26.5 11.5q14 0 23.5 -9t9.5 -23q0 -17 -11 -28.5t-27 -11.5q-15 0 -23.5 9zM494.5 740q-8.5 9 -8.5 23q0 17 10.5 28.5t26.5 11.5q14 0 23.5 -9t9.5 -23
q0 -17 -11 -28.5t-27 -11.5q-15 0 -23.5 9z" />
    <glyph glyph-name="Yacute" unicode="&#xdd;" horiz-adv-x="613" 
d="M133 655q-9 0 -16 -4q-13 -7 -17 -15l-33 18q13 23 33 34q20 10 38 10q20 0 36 -13t25 -36l124 -301l226 338h48l-260 -384l-38 -301h-42l40 299l-134 331q-10 24 -30 24zM357 762l169 105l20 -40l-179 -89z" />
    <glyph glyph-name="Thorn" unicode="&#xde;" horiz-adv-x="539" 
d="M180 685l-16 -125h162q76 -4 117.5 -48t41.5 -121q0 -19 -3 -40q-14 -106 -83.5 -157.5t-173.5 -51.5q-32 0 -47 3l3 38q16 -3 48 -3q84 0 143 45.5t70 133.5q2 22 2 31q0 63 -37 96.5t-103 33.5h-145l-69 -519h-40l90 684h40z" />
    <glyph glyph-name="germandbls" unicode="&#xdf;" horiz-adv-x="525" 
d="M213.5 4q-25.5 12 -39.5 27t-11 15l31 27q35 -41 83 -41q55 0 93.5 44t47.5 108q2 16 2 23q0 39 -18.5 62.5t-60.5 54.5q-31 22 -45 37t-14 38q0 25 6.5 40.5t22.5 39.5q3 3 17.5 22t23 43.5t8.5 52.5q0 43 -26 66t-68 23q-56 0 -85.5 -28.5t-38.5 -100.5l-74 -557h-40
l73 557q12 90 54 132t113 42q57 0 95.5 -31.5t38.5 -97.5q0 -53 -14 -84t-38 -60q-11 -12 -17.5 -23t-9.5 -25q-3 -13 7.5 -24.5t34.5 -27.5q44 -29 69.5 -61t25.5 -87q0 -8 -2 -30q-12 -88 -62.5 -138t-119.5 -50q-37 0 -62.5 12z" />
    <glyph glyph-name="agrave" unicode="&#xe0;" horiz-adv-x="581" 
d="M500 27q-12 -17 -30 -25.5t-35 -8.5q-36 0 -54 21t-16 60q-26 -39 -69.5 -61t-95.5 -22q-87 0 -131.5 56.5t-44.5 147.5q0 25 3 52q15 117 86.5 187.5t180.5 70.5q54 0 117 -9h49l-55 -419q-1 -4 -1 -12q0 -34 31 -34q10 0 20.5 5.5t14.5 12.5zM416 460q-16 -1 -71 3
l-57 2q-93 0 -150.5 -62.5t-70.5 -157.5q-3 -21 -3 -41q0 -74 35 -123.5t103 -49.5q48 0 88.5 24.5t63.5 63.5q19 29 25 68zM167 692l35 33l106 -144l-19 -20z" />
    <glyph glyph-name="aacute" unicode="&#xe1;" horiz-adv-x="581" 
d="M500 27q-12 -17 -30 -25.5t-35 -8.5q-36 0 -54 21t-16 60q-26 -39 -69.5 -61t-95.5 -22q-87 0 -131.5 56.5t-44.5 147.5q0 25 3 52q15 117 86.5 187.5t180.5 70.5q54 0 117 -9h49l-55 -419q-1 -4 -1 -12q0 -34 31 -34q10 0 20.5 5.5t14.5 12.5zM416 460q-16 -1 -71 3
l-57 2q-93 0 -150.5 -62.5t-70.5 -157.5q-3 -21 -3 -41q0 -74 35 -123.5t103 -49.5q48 0 88.5 24.5t63.5 63.5q19 29 25 68zM277 580l131 154l32 -29l-146 -143z" />
    <glyph glyph-name="acircumflex" unicode="&#xe2;" horiz-adv-x="581" 
d="M500 27q-12 -17 -30 -25.5t-35 -8.5q-36 0 -54 21t-16 60q-26 -39 -69.5 -61t-95.5 -22q-87 0 -131.5 56.5t-44.5 147.5q0 25 3 52q15 117 86.5 187.5t180.5 70.5q54 0 117 -9h49l-55 -419q-1 -4 -1 -12q0 -34 31 -34q10 0 20.5 5.5t14.5 12.5zM416 460q-16 -1 -71 3
l-57 2q-93 0 -150.5 -62.5t-70.5 -157.5q-3 -21 -3 -41q0 -74 35 -123.5t103 -49.5q48 0 88.5 24.5t63.5 63.5q19 29 25 68zM289 694h41l94 -131h-48l-70 95l-96 -95h-48z" />
    <glyph glyph-name="atilde" unicode="&#xe3;" horiz-adv-x="581" 
d="M500 27q-12 -17 -30 -25.5t-35 -8.5q-36 0 -54 21t-16 60q-26 -39 -69.5 -61t-95.5 -22q-87 0 -131.5 56.5t-44.5 147.5q0 25 3 52q15 117 86.5 187.5t180.5 70.5q54 0 117 -9h49l-55 -419q-1 -4 -1 -12q0 -34 31 -34q10 0 20.5 5.5t14.5 12.5zM416 460q-16 -1 -71 3
l-57 2q-93 0 -150.5 -62.5t-70.5 -157.5q-3 -21 -3 -41q0 -74 35 -123.5t103 -49.5q48 0 88.5 24.5t63.5 63.5q19 29 25 68zM198.5 628q23.5 8 45.5 8q20 0 32 -5t27 -14q11 -8 21 -12.5t25 -4.5q33 0 76 32l22 -33q-28 -21 -48.5 -29t-53.5 -8q-18 0 -30 4.5t-26 13.5
q-13 8 -23 12t-23 4q-18 0 -35 -6.5t-42 -25.5l-22 33q31 23 54.5 31z" />
    <glyph glyph-name="adieresis" unicode="&#xe4;" horiz-adv-x="581" 
d="M500 27q-12 -17 -30 -25.5t-35 -8.5q-36 0 -54 21t-16 60q-26 -39 -69.5 -61t-95.5 -22q-87 0 -131.5 56.5t-44.5 147.5q0 25 3 52q15 117 86.5 187.5t180.5 70.5q54 0 117 -9h49l-55 -419q-1 -4 -1 -12q0 -34 31 -34q10 0 20.5 5.5t14.5 12.5zM416 460q-16 -1 -71 3
l-57 2q-93 0 -150.5 -62.5t-70.5 -157.5q-3 -21 -3 -41q0 -74 35 -123.5t103 -49.5q48 0 88.5 24.5t63.5 63.5q19 29 25 68zM161.5 573q-8.5 9 -8.5 23q0 17 10.5 28.5t26.5 11.5q14 0 23.5 -9t9.5 -23q0 -17 -11 -28.5t-27 -11.5q-15 0 -23.5 9zM376.5 573q-8.5 9 -8.5 23
q0 17 10.5 28.5t26.5 11.5q14 0 23.5 -9t9.5 -23q0 -17 -11 -28.5t-27 -11.5q-15 0 -23.5 9z" />
    <glyph glyph-name="aring" unicode="&#xe5;" horiz-adv-x="581" 
d="M500 27q-12 -17 -30 -25.5t-35 -8.5q-36 0 -54 21t-16 60q-26 -39 -69.5 -61t-95.5 -22q-87 0 -131.5 56.5t-44.5 147.5q0 25 3 52q15 117 86.5 187.5t180.5 70.5q54 0 117 -9h49l-55 -419q-1 -4 -1 -12q0 -34 31 -34q10 0 20.5 5.5t14.5 12.5zM416 460q-16 -1 -71 3
l-57 2q-93 0 -150.5 -62.5t-70.5 -157.5q-3 -21 -3 -41q0 -74 35 -123.5t103 -49.5q48 0 88.5 24.5t63.5 63.5q19 29 25 68zM243.5 584.5q-21.5 22.5 -21.5 59.5q0 49 29.5 81.5t75.5 32.5q39 0 61 -23t22 -60q0 -49 -31 -81t-76 -32q-38 0 -59.5 22.5zM354 617.5
q22 25.5 22 55.5q0 23 -14 38.5t-35 15.5q-28 0 -49.5 -24.5t-21.5 -56.5q0 -24 13.5 -39t34.5 -15q28 0 50 25.5z" />
    <glyph glyph-name="ae" unicode="&#xe6;" horiz-adv-x="767" 
d="M36 20.5q-37 29.5 -37 85.5q0 88 62.5 127t158.5 39h104l9 66q3 21 3 37q0 40 -16 62q-25 30 -75 30q-38 0 -79.5 -14.5t-75.5 -39.5l-17 33q34 27 80.5 43t89.5 16q35 0 55.5 -7t36.5 -23q19 -17 27.5 -40t9.5 -55q37 65 86 97q23 15 46.5 21.5t52.5 6.5
q70 0 113.5 -35.5t43.5 -95.5q0 -14 -1 -21q-10 -74 -73.5 -111t-156.5 -37l-125 -1q-3 -87 32.5 -131t114.5 -44q41 0 75 11t86 36l16 -32q-86 -53 -179 -53q-87 0 -129 44q-36 34 -48 97q-3 -7 -8.5 -27.5t-20.5 -42t-42 -39.5q-51 -32 -117 -32q-65 0 -102 29.5zM614 270
q51 26 59 88q1 6 1 17q0 46 -32.5 69t-79.5 23q-42 0 -76 -19.5t-59 -50.5q-28 -33 -45 -73.5t-21 -80.5l125 1q77 0 128 26zM254.5 69q48.5 40 56.5 107l8 59h-102q-76 0 -122 -25t-54 -86q-1 -7 -1 -19q0 -76 93 -76q73 0 121.5 40z" />
    <glyph glyph-name="ccedilla" unicode="&#xe7;" horiz-adv-x="476" 
d="M263.5 -73.5q15.5 -19.5 15.5 -48.5q0 -26 -13 -52.5t-36.5 -43.5t-55.5 -15l10 38q24 3 40.5 24.5t16.5 43.5q0 20 -12.5 30.5t-35.5 10.5h-24l22 82q-82 8 -125 57.5t-43 135.5q0 23 3 50q10 80 45 141.5t89 95t118 33.5q73 0 114.5 -39.5t36.5 -102.5l-38 2
q3 47 -27.5 74.5t-85.5 27.5q-51 0 -96.5 -30.5t-76 -84.5t-39.5 -122q-3 -21 -3 -41q0 -76 42 -118t118 -42q36 0 72.5 10.5t88.5 36.5l16 -32q-80 -49 -166 -53l-17 -47q31 -2 46.5 -21.5z" />
    <glyph glyph-name="egrave" unicode="&#xe8;" horiz-adv-x="495" 
d="M70 42.5q-48 51.5 -48 139.5q0 24 3 49q9 69 40 131.5t84 102.5t124 40q68 0 112 -36t44 -96q0 -13 -1 -20q-10 -72 -72 -110t-161 -38l-130 -1q-3 -84 34.5 -129.5t114.5 -45.5q44 0 82.5 13.5t80.5 38.5l18 -31q-88 -59 -182 -59q-95 0 -143 51.5zM335 275q54 32 54 99
q0 46 -33.5 69.5t-80.5 23.5q-60 0 -105.5 -37t-71.5 -89.5t-30 -98.5l130 1q83 0 137 32zM157 704l35 33l106 -144l-19 -20z" />
    <glyph glyph-name="eacute" unicode="&#xe9;" horiz-adv-x="495" 
d="M70 42.5q-48 51.5 -48 139.5q0 24 3 49q9 69 40 131.5t84 102.5t124 40q68 0 112 -36t44 -96q0 -13 -1 -20q-10 -72 -72 -110t-161 -38l-130 -1q-3 -84 34.5 -129.5t114.5 -45.5q44 0 82.5 13.5t80.5 38.5l18 -31q-88 -59 -182 -59q-95 0 -143 51.5zM335 275q54 32 54 99
q0 46 -33.5 69.5t-80.5 23.5q-60 0 -105.5 -37t-71.5 -89.5t-30 -98.5l130 1q83 0 137 32zM267 592l131 154l32 -29l-146 -143z" />
    <glyph glyph-name="ecircumflex" unicode="&#xea;" horiz-adv-x="495" 
d="M70 42.5q-48 51.5 -48 139.5q0 24 3 49q9 69 40 131.5t84 102.5t124 40q68 0 112 -36t44 -96q0 -13 -1 -20q-10 -72 -72 -110t-161 -38l-130 -1q-3 -84 34.5 -129.5t114.5 -45.5q44 0 82.5 13.5t80.5 38.5l18 -31q-88 -59 -182 -59q-95 0 -143 51.5zM335 275q54 32 54 99
q0 46 -33.5 69.5t-80.5 23.5q-60 0 -105.5 -37t-71.5 -89.5t-30 -98.5l130 1q83 0 137 32zM279 706h41l94 -131h-48l-70 95l-96 -95h-48z" />
    <glyph glyph-name="edieresis" unicode="&#xeb;" horiz-adv-x="495" 
d="M70 42.5q-48 51.5 -48 139.5q0 24 3 49q9 69 40 131.5t84 102.5t124 40q68 0 112 -36t44 -96q0 -13 -1 -20q-10 -72 -72 -110t-161 -38l-130 -1q-3 -84 34.5 -129.5t114.5 -45.5q44 0 82.5 13.5t80.5 38.5l18 -31q-88 -59 -182 -59q-95 0 -143 51.5zM335 275q54 32 54 99
q0 46 -33.5 69.5t-80.5 23.5q-60 0 -105.5 -37t-71.5 -89.5t-30 -98.5l130 1q83 0 137 32zM151.5 585q-8.5 9 -8.5 23q0 17 10.5 28.5t26.5 11.5q14 0 23.5 -9t9.5 -23q0 -17 -11 -28.5t-27 -11.5q-15 0 -23.5 9zM366.5 585q-8.5 9 -8.5 23q0 17 10.5 28.5t26.5 11.5
q14 0 23.5 -9t9.5 -23q0 -17 -11 -28.5t-27 -11.5q-15 0 -23.5 9z" />
    <glyph glyph-name="igrave" unicode="&#xec;" horiz-adv-x="239" 
d="M75 63q0 -18 9 -26.5t23 -8.5q17 0 32 17l28 -24q-25 -31 -63 -31q-31 0 -50 19t-19 52q0 11 1 17l55 422h41l-56 -425q-1 -4 -1 -12zM-7 682l36 33l106 -144l-19 -20z" />
    <glyph glyph-name="iacute" unicode="&#xed;" horiz-adv-x="239" 
d="M75 63q0 -18 9 -26.5t23 -8.5q17 0 32 17l28 -24q-25 -31 -63 -31q-31 0 -50 19t-19 52q0 11 1 17l55 422h41l-56 -425q-1 -4 -1 -12zM106 578l106 172l38 -23l-123 -164z" />
    <glyph glyph-name="icircumflex" unicode="&#xee;" horiz-adv-x="239" 
d="M75 63q0 -18 9 -26.5t23 -8.5q17 0 32 17l28 -24q-25 -31 -63 -31q-31 0 -50 19t-19 52q0 11 1 17l55 422h41l-56 -425q-1 -4 -1 -12zM116 696h42l74 -131h-48l-50 95l-77 -95h-48z" />
    <glyph glyph-name="idieresis" unicode="&#xef;" horiz-adv-x="239" 
d="M75 63q0 -18 9 -26.5t23 -8.5q17 0 32 17l28 -24q-25 -31 -63 -31q-31 0 -50 19t-19 52q0 11 1 17l55 422h41l-56 -425q-1 -4 -1 -12zM14.5 574q-8.5 9 -8.5 23q0 17 10.5 28.5t26.5 11.5q14 0 23.5 -9t9.5 -23q0 -17 -11 -28.5t-27 -11.5q-15 0 -23.5 9zM183.5 574
q-8.5 9 -8.5 23q0 17 10.5 28.5t26.5 11.5q14 0 23.5 -9t9.5 -23q0 -17 -11 -28.5t-27 -11.5q-15 0 -23.5 9z" />
    <glyph glyph-name="eth" unicode="&#xf0;" horiz-adv-x="505" 
d="M63 41q-46 56 -46 141q0 20 3 41q9 65 41 119t82.5 86t110.5 32q41 0 78.5 -19t62.5 -56q-4 49 -18 101.5t-35 88.5l-115 -65l-16 37l109 61q-37 49 -93 79l22 39q63 -32 109 -98l120 67l16 -37l-114 -63q26 -47 40.5 -113t14.5 -138q0 -49 -5 -83q-17 -129 -79.5 -202.5
t-154.5 -73.5q-87 0 -133 56zM321 84q48 61 66 158q5 33 5 52q0 26 -7.5 45.5t-24.5 36.5q-21 21 -49 33.5t-60 12.5q-47 0 -87.5 -26.5t-68 -72t-34.5 -101.5q-2 -22 -2 -34q0 -70 34.5 -117.5t102.5 -47.5q77 0 125 61z" />
    <glyph glyph-name="ntilde" unicode="&#xf1;" horiz-adv-x="586" 
d="M504 21q-25 -31 -63 -31q-32 0 -51 19.5t-19 53.5q0 10 1 15l34 260q2 12 2 33q0 96 -99 96q-49 0 -93 -25.5t-94 -84.5l-47 -357h-41l48 361q3 23 3 40q0 25 -5.5 43t-17.5 36l29 25q19 -21 28.5 -48.5t7.5 -55.5q40 55 85 79.5t103 24.5q66 0 101.5 -31.5t35.5 -89.5
q0 -9 -2 -27l-38 -282q-3 -24 6 -35.5t25 -11.5q18 0 33 17zM222.5 633q23.5 8 45.5 8q20 0 32 -5t27 -14q11 -8 21 -12.5t25 -4.5q33 0 76 32l22 -33q-28 -21 -48.5 -29t-53.5 -8q-18 0 -30 4.5t-26 13.5q-13 8 -23 12t-23 4q-18 0 -35 -6.5t-42 -25.5l-22 33
q31 23 54.5 31z" />
    <glyph glyph-name="ograve" unicode="&#xf2;" horiz-adv-x="576" 
d="M77.5 49q-55.5 58 -55.5 155q0 22 3 44q10 75 47 133.5t94.5 91t125.5 32.5q93 0 149 -59t56 -157q0 -21 -3 -44q-10 -75 -46.5 -132.5t-94 -89.5t-126.5 -32q-94 0 -149.5 58zM334.5 57q48.5 28 80 79t39.5 117q3 20 3 39q0 80 -45 127.5t-122 47.5q-57 0 -105 -28
t-79.5 -78.5t-40.5 -115.5q-3 -21 -3 -39q0 -81 45 -129t122 -48q57 0 105.5 28zM177 697l35 33l106 -144l-19 -20z" />
    <glyph glyph-name="oacute" unicode="&#xf3;" horiz-adv-x="576" 
d="M77.5 49q-55.5 58 -55.5 155q0 22 3 44q10 75 47 133.5t94.5 91t125.5 32.5q93 0 149 -59t56 -157q0 -21 -3 -44q-10 -75 -46.5 -132.5t-94 -89.5t-126.5 -32q-94 0 -149.5 58zM334.5 57q48.5 28 80 79t39.5 117q3 20 3 39q0 80 -45 127.5t-122 47.5q-57 0 -105 -28
t-79.5 -78.5t-40.5 -115.5q-3 -21 -3 -39q0 -81 45 -129t122 -48q57 0 105.5 28zM288 585l131 154l32 -29l-146 -143z" />
    <glyph glyph-name="ocircumflex" unicode="&#xf4;" horiz-adv-x="576" 
d="M77.5 49q-55.5 58 -55.5 155q0 22 3 44q10 75 47 133.5t94.5 91t125.5 32.5q93 0 149 -59t56 -157q0 -21 -3 -44q-10 -75 -46.5 -132.5t-94 -89.5t-126.5 -32q-94 0 -149.5 58zM334.5 57q48.5 28 80 79t39.5 117q3 20 3 39q0 80 -45 127.5t-122 47.5q-57 0 -105 -28
t-79.5 -78.5t-40.5 -115.5q-3 -21 -3 -39q0 -81 45 -129t122 -48q57 0 105.5 28zM300 699h41l94 -131h-48l-70 95l-96 -95h-48z" />
    <glyph glyph-name="otilde" unicode="&#xf5;" horiz-adv-x="576" 
d="M77.5 49q-55.5 58 -55.5 155q0 22 3 44q10 75 47 133.5t94.5 91t125.5 32.5q93 0 149 -59t56 -157q0 -21 -3 -44q-10 -75 -46.5 -132.5t-94 -89.5t-126.5 -32q-94 0 -149.5 58zM334.5 57q48.5 28 80 79t39.5 117q3 20 3 39q0 80 -45 127.5t-122 47.5q-57 0 -105 -28
t-79.5 -78.5t-40.5 -115.5q-3 -21 -3 -39q0 -81 45 -129t122 -48q57 0 105.5 28zM208.5 633q23.5 8 45.5 8q20 0 32 -5t27 -14q11 -8 21 -12.5t25 -4.5q33 0 76 32l22 -33q-28 -21 -48.5 -29t-53.5 -8q-18 0 -30 4.5t-26 13.5q-13 8 -23 12t-23 4q-18 0 -35 -6.5t-42 -25.5
l-22 33q31 23 54.5 31z" />
    <glyph glyph-name="odieresis" unicode="&#xf6;" horiz-adv-x="576" 
d="M77.5 49q-55.5 58 -55.5 155q0 22 3 44q10 75 47 133.5t94.5 91t125.5 32.5q93 0 149 -59t56 -157q0 -21 -3 -44q-10 -75 -46.5 -132.5t-94 -89.5t-126.5 -32q-94 0 -149.5 58zM334.5 57q48.5 28 80 79t39.5 117q3 20 3 39q0 80 -45 127.5t-122 47.5q-57 0 -105 -28
t-79.5 -78.5t-40.5 -115.5q-3 -21 -3 -39q0 -81 45 -129t122 -48q57 0 105.5 28zM171.5 578q-8.5 9 -8.5 23q0 17 10.5 28.5t26.5 11.5q14 0 23.5 -9t9.5 -23q0 -17 -11 -28.5t-27 -11.5q-15 0 -23.5 9zM386.5 578q-8.5 9 -8.5 23q0 17 10.5 28.5t26.5 11.5q14 0 23.5 -9
t9.5 -23q0 -17 -11 -28.5t-27 -11.5q-15 0 -23.5 9z" />
    <glyph glyph-name="divide" unicode="&#xf7;" horiz-adv-x="466" 
d="M154.5 107q-8.5 9 -8.5 23q0 17 10.5 28.5t26.5 11.5q14 0 23.5 -9t9.5 -23q0 -17 -11 -28.5t-27 -11.5q-15 0 -23.5 9zM194.5 412q-8.5 9 -8.5 23q0 17 10.5 28.5t26.5 11.5q14 0 23.5 -9t9.5 -23q0 -17 -11 -28.5t-27 -11.5q-15 0 -23.5 9zM57 312h325l-5 -44h-325z
" />
    <glyph glyph-name="oslash" unicode="&#xf8;" horiz-adv-x="569" 
d="M86 43q-31 28 -47 69t-16 90q0 23 3 45q9 73 46.5 132t95.5 92.5t128 33.5q33 0 63.5 -8t52.5 -23l29 40l33 -23l-32 -39q65 -58 65 -159q0 -21 -3 -45q-11 -83 -52.5 -141t-99.5 -87.5t-120 -29.5q-66 0 -115 32l-29 -40l-33 23zM304 466q-94 0 -158.5 -61t-77.5 -163
q-3 -21 -3 -42q0 -78 42 -125l280 364q-25 27 -83 27zM336 56q49 27 83 79t44 123q3 21 3 40q0 79 -44 123l-282 -370q44 -22 94 -22q53 0 102 27z" />
    <glyph glyph-name="ugrave" unicode="&#xf9;" horiz-adv-x="579" 
d="M180 -7q-73 0 -107 35t-29 108l30 229q3 24 3 42q0 25 -5.5 42t-17.5 35l30 25q16 -20 26 -44.5t10 -50.5q0 -12 -1 -18l-31 -236q-2 -22 -2 -31q0 -98 101 -98q54 0 95 26t87 79l50 364h41l-57 -423q-1 -4 -1 -12q0 -34 31 -34q10 0 20.5 5.5t14.5 12.5l30 -22
q-12 -17 -30 -25.5t-35 -8.5q-37 0 -55 21.5t-14 61.5q-74 -83 -184 -83zM153 694l35 33l106 -144l-19 -20z" />
    <glyph glyph-name="uacute" unicode="&#xfa;" horiz-adv-x="579" 
d="M180 -7q-73 0 -107 35t-29 108l30 229q3 24 3 42q0 25 -5.5 42t-17.5 35l30 25q16 -20 26 -44.5t10 -50.5q0 -12 -1 -18l-31 -236q-2 -22 -2 -31q0 -98 101 -98q54 0 95 26t87 79l50 364h41l-57 -423q-1 -4 -1 -12q0 -34 31 -34q10 0 20.5 5.5t14.5 12.5l30 -22
q-12 -17 -30 -25.5t-35 -8.5q-37 0 -55 21.5t-14 61.5q-74 -83 -184 -83zM264 582l131 154l32 -29l-146 -143z" />
    <glyph glyph-name="ucircumflex" unicode="&#xfb;" horiz-adv-x="579" 
d="M180 -7q-73 0 -107 35t-29 108l30 229q3 24 3 42q0 25 -5.5 42t-17.5 35l30 25q16 -20 26 -44.5t10 -50.5q0 -12 -1 -18l-31 -236q-2 -22 -2 -31q0 -98 101 -98q54 0 95 26t87 79l50 364h41l-57 -423q-1 -4 -1 -12q0 -34 31 -34q10 0 20.5 5.5t14.5 12.5l30 -22
q-12 -17 -30 -25.5t-35 -8.5q-37 0 -55 21.5t-14 61.5q-74 -83 -184 -83zM276 696h41l94 -131h-48l-70 95l-96 -95h-48z" />
    <glyph glyph-name="udieresis" unicode="&#xfc;" horiz-adv-x="579" 
d="M180 -7q-73 0 -107 35t-29 108l30 229q3 24 3 42q0 25 -5.5 42t-17.5 35l30 25q16 -20 26 -44.5t10 -50.5q0 -12 -1 -18l-31 -236q-2 -22 -2 -31q0 -98 101 -98q54 0 95 26t87 79l50 364h41l-57 -423q-1 -4 -1 -12q0 -34 31 -34q10 0 20.5 5.5t14.5 12.5l30 -22
q-12 -17 -30 -25.5t-35 -8.5q-37 0 -55 21.5t-14 61.5q-74 -83 -184 -83zM148.5 575q-8.5 9 -8.5 23q0 17 10.5 28.5t26.5 11.5q14 0 23.5 -9t9.5 -23q0 -17 -11 -28.5t-27 -11.5q-15 0 -23.5 9zM363.5 575q-8.5 9 -8.5 23q0 17 10.5 28.5t26.5 11.5q14 0 23.5 -9t9.5 -23
q0 -17 -11 -28.5t-27 -11.5q-15 0 -23.5 9z" />
    <glyph glyph-name="yacute" unicode="&#xfd;" horiz-adv-x="546" 
d="M128.5 -254q-34.5 36 -34.5 93q0 50 26.5 93t70.5 62q-73 0 -110 29.5t-37 86.5q0 8 2 26l30 228q3 24 3 42q0 25 -5.5 42t-17.5 35l30 25q16 -20 26 -44.5t10 -50.5q0 -12 -1 -18l-32 -240q-2 -12 -2 -33q0 -47 24 -68.5t76 -21.5q46 0 85.5 20.5t81.5 67.5
q11 15 16 25.5t6 23.5l45 331h41l-50 -366l-34 -260q-10 -76 -52.5 -120t-106.5 -44q-56 0 -90.5 36zM297.5 -216.5q32.5 33.5 39.5 88.5l28 206q-32 -36 -73 -63l-59 -31q-50 -24 -74 -58.5t-24 -84.5q0 -41 22.5 -66t61.5 -25q46 0 78.5 33.5zM268 582l131 154l32 -29
l-146 -143z" />
    <glyph glyph-name="thorn" unicode="&#xfe;" horiz-adv-x="525" 
d="M163 726q-24 -174 -48 -323q57 103 172 103q86 0 130.5 -57t44.5 -149q0 -25 -3 -51q-10 -75 -45 -133t-91.5 -91t-129.5 -33q-41 0 -125 12l-33 -247h-38l128 970zM345.5 90q59.5 60 72.5 157q3 21 3 43q0 76 -34.5 127t-100.5 51q-37 0 -74 -17.5t-64.5 -49
t-37.5 -72.5l-39 -289q94 -10 117 -10q98 0 157.5 60z" />
    <glyph glyph-name="ydieresis" unicode="&#xff;" horiz-adv-x="546" 
d="M128.5 -254q-34.5 36 -34.5 93q0 50 26.5 93t70.5 62q-73 0 -110 29.5t-37 86.5q0 8 2 26l30 228q3 24 3 42q0 25 -5.5 42t-17.5 35l30 25q16 -20 26 -44.5t10 -50.5q0 -12 -1 -18l-32 -240q-2 -12 -2 -33q0 -47 24 -68.5t76 -21.5q46 0 85.5 20.5t81.5 67.5
q11 15 16 25.5t6 23.5l45 331h41l-50 -366l-34 -260q-10 -76 -52.5 -120t-106.5 -44q-56 0 -90.5 36zM297.5 -216.5q32.5 33.5 39.5 88.5l28 206q-32 -36 -73 -63l-59 -31q-50 -24 -74 -58.5t-24 -84.5q0 -41 22.5 -66t61.5 -25q46 0 78.5 33.5zM152.5 575q-8.5 9 -8.5 23
q0 17 10.5 28.5t26.5 11.5q14 0 23.5 -9t9.5 -23q0 -17 -11 -28.5t-27 -11.5q-15 0 -23.5 9zM367.5 575q-8.5 9 -8.5 23q0 17 10.5 28.5t26.5 11.5q14 0 23.5 -9t9.5 -23q0 -17 -11 -28.5t-27 -11.5q-15 0 -23.5 9z" />
    <glyph glyph-name="Amacron" unicode="&#x100;" horiz-adv-x="752" 
d="M13 8q-18 17 -23 46l38 4q2 -11 11.5 -19t21.5 -8q13 0 24.5 9t16.5 19l341 633h8l189 -691h-43l-63 233h-295l-101 -193q-13 -25 -33.5 -37.5t-45.5 -12.5q-28 0 -46 17zM521 274l-73 288l-10 63l-27 -65l-150 -286h260zM334 785h251l-6 -41h-251z" />
    <glyph glyph-name="amacron" unicode="&#x101;" horiz-adv-x="581" 
d="M500 27q-12 -17 -30 -25.5t-35 -8.5q-36 0 -54 21t-16 60q-26 -39 -69.5 -61t-95.5 -22q-87 0 -131.5 56.5t-44.5 147.5q0 25 3 52q15 117 86.5 187.5t180.5 70.5q54 0 117 -9h49l-55 -419q-1 -4 -1 -12q0 -34 31 -34q10 0 20.5 5.5t14.5 12.5zM416 460q-16 -1 -71 3
l-57 2q-93 0 -150.5 -62.5t-70.5 -157.5q-3 -21 -3 -41q0 -74 35 -123.5t103 -49.5q48 0 88.5 24.5t63.5 63.5q19 29 25 68zM171 606h251l-6 -41h-251z" />
    <glyph glyph-name="Abreve" unicode="&#x102;" horiz-adv-x="752" 
d="M13 8q-18 17 -23 46l38 4q2 -11 11.5 -19t21.5 -8q13 0 24.5 9t16.5 19l341 633h8l189 -691h-43l-63 233h-295l-101 -193q-13 -25 -33.5 -37.5t-45.5 -12.5q-28 0 -46 17zM521 274l-73 288l-10 63l-27 -65l-150 -286h260zM363.5 762.5q-28.5 31.5 -25.5 84.5l42 -2
q0 -33 19 -54t58 -21q40 0 65 21.5t31 55.5l43 -2q-11 -55 -46.5 -84.5t-94.5 -29.5q-63 0 -91.5 31.5z" />
    <glyph glyph-name="abreve" unicode="&#x103;" horiz-adv-x="581" 
d="M500 27q-12 -17 -30 -25.5t-35 -8.5q-36 0 -54 21t-16 60q-26 -39 -69.5 -61t-95.5 -22q-87 0 -131.5 56.5t-44.5 147.5q0 25 3 52q15 117 86.5 187.5t180.5 70.5q54 0 117 -9h49l-55 -419q-1 -4 -1 -12q0 -34 31 -34q10 0 20.5 5.5t14.5 12.5zM416 460q-16 -1 -71 3
l-57 2q-93 0 -150.5 -62.5t-70.5 -157.5q-3 -21 -3 -41q0 -74 35 -123.5t103 -49.5q48 0 88.5 24.5t63.5 63.5q19 29 25 68zM202 594.5q-29 33.5 -24 92.5l41 -2q-2 -39 17 -62t58 -23t64.5 23.5t33.5 63.5l41 -2q-11 -61 -47.5 -92.5t-93.5 -31.5q-61 0 -90 33.5z" />
    <glyph glyph-name="Aogonek" unicode="&#x104;" horiz-adv-x="729" 
d="M663 -171q-17 -11 -39.5 -17.5t-41.5 -6.5q-33 0 -52 19.5t-19 52.5q0 35 18 59t67 66l-62 232h-295l-101 -193q-13 -25 -33.5 -37.5t-45.5 -12.5q-28 0 -46 17t-23 46l38 4q2 -11 11.5 -19t21.5 -8q13 0 24.5 9t16.5 19l341 633h8l190 -692q-51 -48 -69 -71t-18 -46
q0 -20 13.5 -29t29.5 -9q21 0 50 19zM261 274h260l-73 288l-10 63l-27 -65z" />
    <glyph glyph-name="aogonek" unicode="&#x105;" horiz-adv-x="564" 
d="M512 -153q-17 -11 -39.5 -17.5t-41.5 -6.5q-33 0 -51.5 19t-18.5 51q0 30 12.5 52t44.5 50q-28 4 -41.5 24.5t-11.5 54.5q-26 -39 -69.5 -61t-95.5 -22q-87 0 -131.5 56.5t-44.5 147.5q0 25 3 52q15 117 86.5 187.5t180.5 70.5q54 0 117 -9h49l-55 -419q-1 -4 -1 -12
q0 -34 31 -34q10 0 20.5 5.5t14.5 12.5l30 -22q-11 -15 -24 -23q-41 -38 -56.5 -59t-15.5 -43q0 -20 13 -29.5t29 -9.5q21 0 50 19zM416 460q-16 -1 -71 3l-57 2q-93 0 -150.5 -62.5t-70.5 -157.5q-3 -21 -3 -41q0 -74 35 -123.5t103 -49.5q48 0 88.5 24.5t63.5 63.5
q19 29 25 68z" />
    <glyph glyph-name="Cacute" unicode="&#x106;" horiz-adv-x="720" 
d="M185 18.5q-66 40.5 -102 110t-36 155.5q0 30 4 55q12 97 68 181.5t139.5 135t175.5 50.5q85 0 144.5 -33.5t59.5 -96.5q0 -43 -24.5 -73.5t-62.5 -30.5q-26 0 -44 15l27 31q12 -6 19 -6q19 0 34.5 18.5t15.5 40.5q0 29 -26.5 50t-66 32.5t-76.5 11.5q-83 0 -158 -46
t-124.5 -122t-60.5 -162q-3 -24 -3 -48q0 -75 30.5 -136.5t88 -97t132.5 -35.5q71 0 139 33t115 90l29 -24q-57 -70 -132 -104.5t-153 -34.5q-86 0 -152 40.5zM408 801l169 105l20 -40l-179 -89z" />
    <glyph glyph-name="cacute" unicode="&#x107;" horiz-adv-x="491" 
d="M74 45.5q-52 50.5 -52 142.5q0 15 4 51q10 80 45 141.5t89 95t118 33.5q73 0 114.5 -39.5t36.5 -102.5l-38 2q3 47 -27.5 74.5t-85.5 27.5q-51 0 -96.5 -30.5t-76 -84.5t-39.5 -122q-3 -21 -3 -41q0 -76 42 -118t118 -42q36 0 72.5 10.5t88.5 36.5l16 -32
q-45 -28 -88 -40.5t-90 -12.5q-96 0 -148 50.5zM272 584l131 154l32 -29l-146 -143z" />
    <glyph glyph-name="Ccircumflex" unicode="&#x108;" horiz-adv-x="720" 
d="M185 18.5q-66 40.5 -102 110t-36 155.5q0 30 4 55q12 97 68 181.5t139.5 135t175.5 50.5q85 0 144.5 -33.5t59.5 -96.5q0 -43 -24.5 -73.5t-62.5 -30.5q-26 0 -44 15l27 31q12 -6 19 -6q19 0 34.5 18.5t15.5 40.5q0 29 -26.5 50t-66 32.5t-76.5 11.5q-83 0 -158 -46
t-124.5 -122t-60.5 -162q-3 -24 -3 -48q0 -75 30.5 -136.5t88 -97t132.5 -35.5q71 0 139 33t115 90l29 -24q-57 -70 -132 -104.5t-153 -34.5q-86 0 -152 40.5zM416 892h42l100 -121h-53l-71 85l-95 -85h-54z" />
    <glyph glyph-name="ccircumflex" unicode="&#x109;" horiz-adv-x="491" 
d="M74 45.5q-52 50.5 -52 142.5q0 15 4 51q10 80 45 141.5t89 95t118 33.5q73 0 114.5 -39.5t36.5 -102.5l-38 2q3 47 -27.5 74.5t-85.5 27.5q-51 0 -96.5 -30.5t-76 -84.5t-39.5 -122q-3 -21 -3 -41q0 -76 42 -118t118 -42q36 0 72.5 10.5t88.5 36.5l16 -32
q-45 -28 -88 -40.5t-90 -12.5q-96 0 -148 50.5zM284 698h41l94 -131h-48l-70 95l-96 -95h-48z" />
    <glyph glyph-name="Cdotaccent" unicode="&#x10a;" horiz-adv-x="720" 
d="M185 18.5q-66 40.5 -102 110t-36 155.5q0 30 4 55q12 97 68 181.5t139.5 135t175.5 50.5q85 0 144.5 -33.5t59.5 -96.5q0 -43 -24.5 -73.5t-62.5 -30.5q-26 0 -44 15l27 31q12 -6 19 -6q19 0 34.5 18.5t15.5 40.5q0 29 -26.5 50t-66 32.5t-76.5 11.5q-83 0 -158 -46
t-124.5 -122t-60.5 -162q-3 -24 -3 -48q0 -75 30.5 -136.5t88 -97t132.5 -35.5q71 0 139 33t115 90l29 -24q-57 -70 -132 -104.5t-153 -34.5q-86 0 -152 40.5zM400.5 785q-8.5 9 -8.5 23q0 17 10.5 28.5t26.5 11.5q14 0 23.5 -9t9.5 -23q0 -17 -11 -28.5t-27 -11.5
q-15 0 -23.5 9z" />
    <glyph glyph-name="cdotaccent" unicode="&#x10b;" horiz-adv-x="491" 
d="M74 45.5q-52 50.5 -52 142.5q0 15 4 51q10 80 45 141.5t89 95t118 33.5q73 0 114.5 -39.5t36.5 -102.5l-38 2q3 47 -27.5 74.5t-85.5 27.5q-51 0 -96.5 -30.5t-76 -84.5t-39.5 -122q-3 -21 -3 -41q0 -76 42 -118t118 -42q36 0 72.5 10.5t88.5 36.5l16 -32
q-45 -28 -88 -40.5t-90 -12.5q-96 0 -148 50.5zM267.5 588q-8.5 9 -8.5 23q0 17 10.5 28.5t26.5 11.5q14 0 23.5 -9t9.5 -23q0 -17 -11 -28.5t-27 -11.5q-15 0 -23.5 9z" />
    <glyph glyph-name="Ccaron" unicode="&#x10c;" horiz-adv-x="720" 
d="M185 18.5q-66 40.5 -102 110t-36 155.5q0 30 4 55q12 97 68 181.5t139.5 135t175.5 50.5q85 0 144.5 -33.5t59.5 -96.5q0 -43 -24.5 -73.5t-62.5 -30.5q-26 0 -44 15l27 31q12 -6 19 -6q19 0 34.5 18.5t15.5 40.5q0 29 -26.5 50t-66 32.5t-76.5 11.5q-83 0 -158 -46
t-124.5 -122t-60.5 -162q-3 -24 -3 -48q0 -75 30.5 -136.5t88 -97t132.5 -35.5q71 0 139 33t115 90l29 -24q-57 -70 -132 -104.5t-153 -34.5q-86 0 -152 40.5zM354 892l72 -85l94 85h55l-132 -121h-42l-100 121h53z" />
    <glyph glyph-name="ccaron" unicode="&#x10d;" horiz-adv-x="491" 
d="M74 45.5q-52 50.5 -52 142.5q0 15 4 51q10 80 45 141.5t89 95t118 33.5q73 0 114.5 -39.5t36.5 -102.5l-38 2q3 47 -27.5 74.5t-85.5 27.5q-51 0 -96.5 -30.5t-76 -84.5t-39.5 -122q-3 -21 -3 -41q0 -76 42 -118t118 -42q36 0 72.5 10.5t88.5 36.5l16 -32
q-45 -28 -88 -40.5t-90 -12.5q-96 0 -148 50.5zM172 699h48l70 -95l95 95h50l-128 -131h-43z" />
    <glyph glyph-name="Dcaron" unicode="&#x10e;" horiz-adv-x="779" 
d="M124 -4l-39 4l87 652q-19 0 -30 -3t-20 -10q-16 -11 -21 -38l-37 2q7 44 35 67q25 21 77 21l251 -1q79 -2 138.5 -41t92 -106t32.5 -153q0 -33 -4 -61q-22 -172 -136.5 -254.5t-332.5 -82.5q-47 0 -93 4zM647 335q4 28 4 59q0 114 -61.5 181t-175.5 75h-202l-82 -614
q49 -4 106 -4q371 0 411 303zM368 863l72 -85l94 85h55l-132 -121h-42l-100 121h53z" />
    <glyph glyph-name="dcaron" unicode="&#x10f;" horiz-adv-x="581" 
d="M69.5 49q-45.5 58 -45.5 150q0 25 3 50q15 116 86.5 186t180.5 70q34 0 69.5 -4t54.5 -8l32 235h41l-86 -651q-1 -4 -1 -12q0 -34 31 -34q10 0 20.5 5.5t14.5 12.5l30 -22q-12 -17 -30 -25.5t-35 -8.5q-37 0 -55 21.5t-14 61.5q-24 -35 -69.5 -60t-95.5 -25
q-86 0 -131.5 58zM289 53.5q41 24.5 65 65.5q20 30 25 68l36 267q-41 13 -102 13q-112 0 -172.5 -61.5t-73.5 -160.5q-3 -22 -3 -45q0 -76 35 -123.5t103 -47.5q46 0 87 24.5zM661 749l39 -21l-116 -169l-20 13z" />
    <glyph glyph-name="Dcroat" unicode="&#x110;" horiz-adv-x="779" 
d="M565.5 649q59.5 -39 92 -106t32.5 -153q0 -33 -4 -61q-22 -172 -136.5 -254.5t-332.5 -82.5q-47 0 -93 4l-39 4l46 347h-82l5 41h83l35 264q-19 0 -30 -3t-20 -10q-16 -11 -21 -38l-37 2q7 44 35 67q25 21 77 21l251 -1q79 -2 138.5 -41zM647 335q4 28 4 59
q0 114 -61.5 181t-175.5 75h-202l-35 -262h126l-5 -41h-126l-42 -311q49 -4 106 -4q371 0 411 303z" />
    <glyph glyph-name="dcroat" unicode="&#x111;" horiz-adv-x="564" 
d="M500 27q-12 -17 -30 -25.5t-35 -8.5q-37 0 -55 21.5t-14 61.5q-24 -35 -69.5 -60t-95.5 -25q-86 0 -131.5 58t-45.5 150q0 25 3 50q15 116 86.5 186t180.5 70q34 0 69.5 -4t54.5 -8l13 89h-125l5 41h125l14 105h41l-14 -105h83l-5 -41h-84l-66 -505q-1 -4 -1 -12
q0 -34 31 -34q10 0 20.5 5.5t14.5 12.5zM415 454q-41 13 -102 13q-112 0 -172.5 -61.5t-73.5 -160.5q-3 -22 -3 -45q0 -76 35 -123.5t103 -47.5q46 0 87 24.5t65 65.5q20 30 25 68z" />
    <glyph glyph-name="Emacron" unicode="&#x112;" horiz-adv-x="619" 
d="M142 642q-11 -3 -20 -10q-16 -11 -21 -38l-37 2q7 44 35 67q25 21 77 21l416 1l-6 -40h-374l-34 -261h255l-5 -40h-256l-39 -303h374l-5 -40h-415l85 644q-19 0 -30 -3zM274 794h251l-6 -41h-251z" />
    <glyph glyph-name="emacron" unicode="&#x113;" horiz-adv-x="495" 
d="M70 42.5q-48 51.5 -48 139.5q0 24 3 49q9 69 40 131.5t84 102.5t124 40q68 0 112 -36t44 -96q0 -13 -1 -20q-10 -72 -72 -110t-161 -38l-130 -1q-3 -84 34.5 -129.5t114.5 -45.5q44 0 82.5 13.5t80.5 38.5l18 -31q-88 -59 -182 -59q-95 0 -143 51.5zM335 275q54 32 54 99
q0 46 -33.5 69.5t-80.5 23.5q-60 0 -105.5 -37t-71.5 -89.5t-30 -98.5l130 1q83 0 137 32zM161 618h251l-6 -41h-251z" />
    <glyph glyph-name="Ebreve" unicode="&#x114;" horiz-adv-x="619" 
d="M142 642q-11 -3 -20 -10q-16 -11 -21 -38l-37 2q7 44 35 67q25 21 77 21l416 1l-6 -40h-374l-34 -261h255l-5 -40h-256l-39 -303h374l-5 -40h-415l85 644q-19 0 -30 -3zM303.5 771.5q-28.5 31.5 -25.5 84.5l42 -2q0 -33 19 -54t58 -21q40 0 65 21.5t31 55.5l43 -2
q-11 -55 -46.5 -84.5t-94.5 -29.5q-63 0 -91.5 31.5z" />
    <glyph glyph-name="ebreve" unicode="&#x115;" horiz-adv-x="495" 
d="M70 42.5q-48 51.5 -48 139.5q0 24 3 49q9 69 40 131.5t84 102.5t124 40q68 0 112 -36t44 -96q0 -13 -1 -20q-10 -72 -72 -110t-161 -38l-130 -1q-3 -84 34.5 -129.5t114.5 -45.5q44 0 82.5 13.5t80.5 38.5l18 -31q-88 -59 -182 -59q-95 0 -143 51.5zM335 275q54 32 54 99
q0 46 -33.5 69.5t-80.5 23.5q-60 0 -105.5 -37t-71.5 -89.5t-30 -98.5l130 1q83 0 137 32zM192 606.5q-29 33.5 -24 92.5l41 -2q-2 -39 17 -62t58 -23t64.5 23.5t33.5 63.5l41 -2q-11 -61 -47.5 -92.5t-93.5 -31.5q-61 0 -90 33.5z" />
    <glyph glyph-name="Edotaccent" unicode="&#x116;" horiz-adv-x="619" 
d="M142 642q-11 -3 -20 -10q-16 -11 -21 -38l-37 2q7 44 35 67q25 21 77 21l416 1l-6 -40h-374l-34 -261h255l-5 -40h-256l-39 -303h374l-5 -40h-415l85 644q-19 0 -30 -3zM371.5 755q-8.5 9 -8.5 23q0 17 10.5 28.5t26.5 11.5q14 0 23.5 -9t9.5 -23q0 -17 -11 -28.5
t-27 -11.5q-15 0 -23.5 9z" />
    <glyph glyph-name="edotaccent" unicode="&#x117;" horiz-adv-x="495" 
d="M70 42.5q-48 51.5 -48 139.5q0 24 3 49q9 69 40 131.5t84 102.5t124 40q68 0 112 -36t44 -96q0 -13 -1 -20q-10 -72 -72 -110t-161 -38l-130 -1q-3 -84 34.5 -129.5t114.5 -45.5q44 0 82.5 13.5t80.5 38.5l18 -31q-88 -59 -182 -59q-95 0 -143 51.5zM335 275q54 32 54 99
q0 46 -33.5 69.5t-80.5 23.5q-60 0 -105.5 -37t-71.5 -89.5t-30 -98.5l130 1q83 0 137 32zM262.5 596q-8.5 9 -8.5 23q0 17 10.5 28.5t26.5 11.5q14 0 23.5 -9t9.5 -23q0 -17 -11 -28.5t-27 -11.5q-15 0 -23.5 9z" />
    <glyph glyph-name="Eogonek" unicode="&#x118;" horiz-adv-x="600" 
d="M525 -171q-18 -11 -40.5 -17.5t-41.5 -6.5q-33 0 -51.5 19t-18.5 51q0 35 17.5 60.5t66.5 66.5l-370 -1l85 644q-19 0 -30 -3t-20 -10q-16 -11 -21 -38l-37 2q7 44 35 67q25 21 77 21l416 1l-6 -40h-374l-34 -261h255l-5 -40h-256l-39 -303h374l-5 -41q-50 -48 -68 -70.5
t-18 -45.5q0 -20 13 -29.5t29 -9.5q22 0 51 19z" />
    <glyph glyph-name="eogonek" unicode="&#x119;" horiz-adv-x="480" 
d="M418 -121q-18 -11 -40.5 -17.5t-41.5 -6.5q-33 0 -51.5 19t-18.5 52q0 23 8.5 42t26.5 37q-44 -14 -88 -14q-95 0 -143 51.5t-48 139.5q0 24 3 49q9 69 40 131.5t84 102.5t124 40q68 0 112 -36t44 -96q0 -13 -1 -20q-10 -72 -72 -110t-161 -38l-130 -1
q-3 -84 34.5 -129.5t114.5 -45.5q44 0 82.5 13.5t80.5 38.5l18 -31q-50 -48 -68 -70.5t-18 -44.5q0 -20 13.5 -30t28.5 -10q22 0 51 19zM169.5 430q-45.5 -37 -71.5 -89.5t-30 -98.5l130 1q83 0 137 32t54 99q0 46 -33.5 69.5t-80.5 23.5q-60 0 -105.5 -37z" />
    <glyph glyph-name="Ecaron" unicode="&#x11a;" horiz-adv-x="619" 
d="M142 642q-11 -3 -20 -10q-16 -11 -21 -38l-37 2q7 44 35 67q25 21 77 21l416 1l-6 -40h-374l-34 -261h255l-5 -40h-256l-39 -303h374l-5 -40h-415l85 644q-19 0 -30 -3zM325 862l72 -85l94 85h55l-132 -121h-42l-100 121h53z" />
    <glyph glyph-name="ecaron" unicode="&#x11b;" horiz-adv-x="495" 
d="M70 42.5q-48 51.5 -48 139.5q0 24 3 49q9 69 40 131.5t84 102.5t124 40q68 0 112 -36t44 -96q0 -13 -1 -20q-10 -72 -72 -110t-161 -38l-130 -1q-3 -84 34.5 -129.5t114.5 -45.5q44 0 82.5 13.5t80.5 38.5l18 -31q-88 -59 -182 -59q-95 0 -143 51.5zM335 275q54 32 54 99
q0 46 -33.5 69.5t-80.5 23.5q-60 0 -105.5 -37t-71.5 -89.5t-30 -98.5l130 1q83 0 137 32zM167 707h48l70 -95l95 95h50l-128 -131h-43z" />
    <glyph glyph-name="Gcircumflex" unicode="&#x11c;" horiz-adv-x="735" 
d="M649 335l-10 -83q-11 -81 -58 -143t-115 -95.5t-139 -33.5q-84 0 -147.5 39t-98 107t-34.5 152q0 18 4 54q13 99 66.5 183t135 133.5t174.5 49.5q46 0 93 -11.5t79.5 -39t32.5 -71.5q0 -45 -26 -74t-64 -29q-16 0 -28 5.5t-18 13.5l28 31q6 -9 20 -9q19 0 33.5 18.5
t14.5 41.5q0 44 -54 64t-112 20q-81 0 -154 -45.5t-121.5 -122t-59.5 -163.5q-3 -24 -3 -47q0 -74 30.5 -133t85 -93t125.5 -34q63 0 122 31.5t99 85t48 115.5l5 41h-241l5 42h282zM428 852h42l100 -121h-53l-71 85l-95 -85h-54z" />
    <glyph glyph-name="gcircumflex" unicode="&#x11d;" horiz-adv-x="547" 
d="M128.5 -249q-33.5 36 -33.5 93q0 15 1 23q11 84 78 126q-68 9 -110 67.5t-42 143.5q0 23 3 45q10 73 48 131.5t95.5 92t124.5 33.5q37 0 60 -3l61 -7h48l-83 -629q-9 -68 -54 -110t-108 -42q-55 0 -88.5 36zM250 41.5q28 11.5 54 32.5q31 24 51.5 52.5t23.5 51.5l38 284
l-100 6h-31q-53 0 -101 -29t-80 -80t-40 -114q-2 -12 -2 -36q0 -50 17 -91t47.5 -64.5t69.5 -23.5q25 0 53 11.5zM298 -214.5q31 32.5 42 91.5l29 216q-24 -35 -65 -67q-16 -12 -64 -38q-29 -15 -32 -18q-34 -22 -51.5 -46.5t-21.5 -58.5q-1 -6 -1 -18q0 -41 25 -67.5
t64 -26.5q44 0 75 32.5zM297 707h41l94 -131h-48l-70 95l-96 -95h-48z" />
    <glyph glyph-name="Gbreve" unicode="&#x11e;" horiz-adv-x="735" 
d="M649 335l-10 -83q-11 -81 -58 -143t-115 -95.5t-139 -33.5q-84 0 -147.5 39t-98 107t-34.5 152q0 18 4 54q13 99 66.5 183t135 133.5t174.5 49.5q46 0 93 -11.5t79.5 -39t32.5 -71.5q0 -45 -26 -74t-64 -29q-16 0 -28 5.5t-18 13.5l28 31q6 -9 20 -9q19 0 33.5 18.5
t14.5 41.5q0 44 -54 64t-112 20q-81 0 -154 -45.5t-121.5 -122t-59.5 -163.5q-3 -24 -3 -47q0 -74 30.5 -133t85 -93t125.5 -34q63 0 122 31.5t99 85t48 115.5l5 41h-241l5 42h282zM344.5 761.5q-28.5 31.5 -25.5 84.5l42 -2q0 -33 19 -54t58 -21q40 0 65 21.5t31 55.5
l43 -2q-11 -55 -46.5 -84.5t-94.5 -29.5q-63 0 -91.5 31.5z" />
    <glyph glyph-name="gbreve" unicode="&#x11f;" horiz-adv-x="547" 
d="M128.5 -249q-33.5 36 -33.5 93q0 15 1 23q11 84 78 126q-68 9 -110 67.5t-42 143.5q0 23 3 45q10 73 48 131.5t95.5 92t124.5 33.5q37 0 60 -3l61 -7h48l-83 -629q-9 -68 -54 -110t-108 -42q-55 0 -88.5 36zM250 41.5q28 11.5 54 32.5q31 24 51.5 52.5t23.5 51.5l38 284
l-100 6h-31q-53 0 -101 -29t-80 -80t-40 -114q-2 -12 -2 -36q0 -50 17 -91t47.5 -64.5t69.5 -23.5q25 0 53 11.5zM298 -214.5q31 32.5 42 91.5l29 216q-24 -35 -65 -67q-16 -12 -64 -38q-29 -15 -32 -18q-34 -22 -51.5 -46.5t-21.5 -58.5q-1 -6 -1 -18q0 -41 25 -67.5
t64 -26.5q44 0 75 32.5zM210 607.5q-29 33.5 -24 92.5l41 -2q-2 -39 17 -62t58 -23t64.5 23.5t33.5 63.5l41 -2q-11 -61 -47.5 -92.5t-93.5 -31.5q-61 0 -90 33.5z" />
    <glyph glyph-name="Gdotaccent" unicode="&#x120;" horiz-adv-x="735" 
d="M649 335l-10 -83q-11 -81 -58 -143t-115 -95.5t-139 -33.5q-84 0 -147.5 39t-98 107t-34.5 152q0 18 4 54q13 99 66.5 183t135 133.5t174.5 49.5q46 0 93 -11.5t79.5 -39t32.5 -71.5q0 -45 -26 -74t-64 -29q-16 0 -28 5.5t-18 13.5l28 31q6 -9 20 -9q19 0 33.5 18.5
t14.5 41.5q0 44 -54 64t-112 20q-81 0 -154 -45.5t-121.5 -122t-59.5 -163.5q-3 -24 -3 -47q0 -74 30.5 -133t85 -93t125.5 -34q63 0 122 31.5t99 85t48 115.5l5 41h-241l5 42h282zM413.5 745q-8.5 9 -8.5 23q0 17 10.5 28.5t26.5 11.5q14 0 23.5 -9t9.5 -23
q0 -17 -11 -28.5t-27 -11.5q-15 0 -23.5 9z" />
    <glyph glyph-name="gdotaccent" unicode="&#x121;" horiz-adv-x="547" 
d="M128.5 -249q-33.5 36 -33.5 93q0 15 1 23q11 84 78 126q-68 9 -110 67.5t-42 143.5q0 23 3 45q10 73 48 131.5t95.5 92t124.5 33.5q37 0 60 -3l61 -7h48l-83 -629q-9 -68 -54 -110t-108 -42q-55 0 -88.5 36zM250 41.5q28 11.5 54 32.5q31 24 51.5 52.5t23.5 51.5l38 284
l-100 6h-31q-53 0 -101 -29t-80 -80t-40 -114q-2 -12 -2 -36q0 -50 17 -91t47.5 -64.5t69.5 -23.5q25 0 53 11.5zM298 -214.5q31 32.5 42 91.5l29 216q-24 -35 -65 -67q-16 -12 -64 -38q-29 -15 -32 -18q-34 -22 -51.5 -46.5t-21.5 -58.5q-1 -6 -1 -18q0 -41 25 -67.5
t64 -26.5q44 0 75 32.5zM279.5 597q-8.5 9 -8.5 23q0 17 10.5 28.5t26.5 11.5q14 0 23.5 -9t9.5 -23q0 -17 -11 -28.5t-27 -11.5q-15 0 -23.5 9z" />
    <glyph glyph-name="uni0122" unicode="&#x122;" horiz-adv-x="735" 
d="M649 335l-10 -83q-11 -81 -58 -143t-115 -95.5t-139 -33.5q-84 0 -147.5 39t-98 107t-34.5 152q0 18 4 54q13 99 66.5 183t135 133.5t174.5 49.5q46 0 93 -11.5t79.5 -39t32.5 -71.5q0 -45 -26 -74t-64 -29q-16 0 -28 5.5t-18 13.5l28 31q6 -9 20 -9q19 0 33.5 18.5
t14.5 41.5q0 44 -54 64t-112 20q-81 0 -154 -45.5t-121.5 -122t-59.5 -163.5q-3 -24 -3 -47q0 -74 30.5 -133t85 -93t125.5 -34q63 0 122 31.5t99 85t48 115.5l5 41h-241l5 42h282zM287 -128h49l-71 -197h-41z" />
    <glyph glyph-name="uni0123" unicode="&#x123;" horiz-adv-x="547" 
d="M128.5 -249q-33.5 36 -33.5 93q0 15 1 23q11 84 78 126q-68 9 -110 67.5t-42 143.5q0 23 3 45q10 73 48 131.5t95.5 92t124.5 33.5q37 0 60 -3l61 -7h48l-83 -629q-9 -68 -54 -110t-108 -42q-55 0 -88.5 36zM250 41.5q28 11.5 54 32.5q31 24 51.5 52.5t23.5 51.5l38 284
l-100 6h-31q-53 0 -101 -29t-80 -80t-40 -114q-2 -12 -2 -36q0 -50 17 -91t47.5 -64.5t69.5 -23.5q25 0 53 11.5zM298 -214.5q31 32.5 42 91.5l29 216q-24 -35 -65 -67q-16 -12 -64 -38q-29 -15 -32 -18q-34 -22 -51.5 -46.5t-21.5 -58.5q-1 -6 -1 -18q0 -41 25 -67.5
t64 -26.5q44 0 75 32.5zM325 658q-4 -15 -4.5 -30.5t-0.5 -19.5q-3 -25 -28 -25q-13 0 -18.5 8.5t-3.5 20.5q6 52 22 83q13 26 48 52l22 -27q-29 -28 -37 -62z" />
    <glyph glyph-name="Hcircumflex" unicode="&#x124;" horiz-adv-x="721" 
d="M162 621q0 40 -37 40q-29 0 -45 -26l-28 25q25 41 76 41q35 0 55 -20t20 -59q0 -12 -1 -19l-30 -225h383l41 307h40l-90 -684h-40l44 337h-383l-45 -337h-40l79 604q1 6 1 16zM403 853h42l100 -121h-53l-71 85l-95 -85h-54z" />
    <glyph glyph-name="hcircumflex" unicode="&#x125;" horiz-adv-x="581" 
d="M407 63q0 -18 8.5 -26.5t22.5 -8.5q18 0 33 17l28 -24q-25 -31 -63 -31q-32 0 -51 19.5t-19 53.5q0 10 1 15l36 271q2 18 2 26q0 48 -27 71.5t-78 23.5q-53 0 -94 -27.5t-88 -82.5l-48 -356h-40l95 726h41l-44 -328q40 55 84.5 80.5t101.5 25.5q139 0 139 -122
q0 -16 -3 -36l-36 -275q-1 -4 -1 -12zM146 900h42l100 -121h-53l-71 85l-95 -85h-54z" />
    <glyph glyph-name="Hbar" unicode="&#x126;" horiz-adv-x="699" 
d="M636 685l-90 -684h-40l44 337h-383l-45 -337h-40l79 604q1 6 1 16q0 40 -37 40q-29 0 -45 -26l-28 25q25 41 76 41q35 0 55 -20t20 -59q0 -12 -1 -19l-12 -92h383l23 174h40zM172 378h383l12 92h-383z" />
    <glyph glyph-name="hbar" unicode="&#x127;" horiz-adv-x="564" 
d="M499 21q-25 -31 -63 -31q-32 0 -51 19.5t-19 53.5q0 10 1 15l36 271q2 18 2 26q0 48 -27 71.5t-78 23.5q-53 0 -94 -27.5t-88 -82.5l-48 -356h-40l77 587h-84l5 41h84l13 98h41l-13 -98h124l-5 -41h-124l-26 -189q40 55 84.5 80.5t101.5 25.5q139 0 139 -122
q0 -16 -3 -36l-36 -275q-1 -4 -1 -12q0 -18 8.5 -26.5t22.5 -8.5q18 0 33 17z" />
    <glyph glyph-name="Itilde" unicode="&#x128;" horiz-adv-x="255" 
d="M140 685h43l-90 -684h-43zM87.5 804q23.5 8 45.5 8q20 0 32 -5t27 -14q11 -8 21 -12.5t25 -4.5q33 0 76 32l22 -33q-28 -21 -48.5 -29t-53.5 -8q-18 0 -30 4.5t-26 13.5q-13 8 -23 12t-23 4q-18 0 -35 -6.5t-42 -25.5l-22 33q31 23 54.5 31z" />
    <glyph glyph-name="itilde" unicode="&#x129;" horiz-adv-x="239" 
d="M75 63q0 -18 9 -26.5t23 -8.5q17 0 32 17l28 -24q-25 -31 -63 -31q-31 0 -50 19t-19 52q0 11 1 17l55 422h41l-56 -425q-1 -4 -1 -12zM43 628.5q19 7.5 39 7.5q15 0 25 -5t25 -15q12 -9 19 -12.5t16 -3.5q17 0 28.5 6t23 14.5t16.5 11.5l21 -33q-6 -4 -22 -16
t-31.5 -16.5t-38.5 -4.5q-13 0 -23 5t-24 14q-21 15 -35 15q-17 0 -29 -6t-39 -26l-22 33q32 24 51 31.5z" />
    <glyph glyph-name="Imacron" unicode="&#x12a;" horiz-adv-x="255" 
d="M140 685h43l-90 -684h-43zM78 795h192l-6 -44h-192z" />
    <glyph glyph-name="imacron" unicode="&#x12b;" horiz-adv-x="239" 
d="M75 63q0 -18 9 -26.5t23 -8.5q17 0 32 17l28 -24q-25 -31 -63 -31q-31 0 -50 19t-19 52q0 11 1 17l55 422h41l-56 -425q-1 -4 -1 -12zM30 609h192l-6 -44h-192z" />
    <glyph glyph-name="Ibreve" unicode="&#x12c;" horiz-adv-x="255" 
d="M140 685h43l-90 -684h-43zM90.5 777q-26.5 34 -22.5 92l47 -2q-2 -38 13 -61.5t42 -23.5t49.5 24t29.5 63l46 -2q-12 -60 -46 -92t-81 -32q-51 0 -77.5 34z" />
    <glyph glyph-name="ibreve" unicode="&#x12d;" horiz-adv-x="239" 
d="M75 63q0 -18 9 -26.5t23 -8.5q17 0 32 17l28 -24q-25 -31 -63 -31q-31 0 -50 19t-19 52q0 11 1 17l55 422h41l-56 -425q-1 -4 -1 -12zM43.5 591q-26.5 34 -22.5 92l47 -2q-2 -38 13 -61.5t42 -23.5t49.5 24t29.5 63l46 -2q-12 -60 -46 -92t-81 -32q-51 0 -77.5 34z" />
    <glyph glyph-name="Iogonek" unicode="&#x12e;" horiz-adv-x="247" 
d="M116 -171q-17 -11 -39.5 -17.5t-41.5 -6.5q-33 0 -52 19.5t-19 52.5q0 35 18 59t67 66l91 683h43l-89 -685q-51 -48 -69 -71t-18 -46q0 -20 13.5 -29t29.5 -9q21 0 50 19z" />
    <glyph glyph-name="iogonek" unicode="&#x12f;" horiz-adv-x="232" 
d="M151 586.5q-11 -11.5 -28 -11.5q-15 0 -23.5 9.5t-8.5 24.5q0 16 11.5 27t26.5 11q14 0 23.5 -9t9.5 -23q0 -17 -11 -28.5zM175 -164q-17 -11 -39.5 -17.5t-41.5 -6.5q-33 0 -52 19.5t-19 52.5q0 31 15 54t51 54q-25 3 -39.5 21.5t-14.5 47.5q0 11 1 17l55 422h41
l-56 -425q-1 -4 -1 -12q0 -18 9 -26.5t23 -8.5q17 0 32 17l28 -24q-4 -6 -8.5 -10t-7.5 -8q-49 -44 -66.5 -66.5t-17.5 -45.5q0 -20 13 -29.5t29 -9.5q21 0 50 19z" />
    <glyph glyph-name="Idotaccent" unicode="&#x130;" horiz-adv-x="255" 
d="M140 685h43l-90 -684h-43zM144.5 748q-8.5 9 -8.5 23q0 17 10.5 28.5t26.5 11.5q14 0 23.5 -9t9.5 -23q0 -17 -11 -28.5t-27 -11.5q-15 0 -23.5 9z" />
    <glyph glyph-name="dotlessi" unicode="&#x131;" horiz-adv-x="232" 
d="M75 63q0 -18 9 -26.5t23 -8.5q17 0 32 17l28 -24q-25 -31 -63 -31q-31 0 -50 19t-19 52q0 11 1 17l55 422h41l-56 -425q-1 -4 -1 -12z" />
    <glyph glyph-name="IJ" unicode="&#x132;" horiz-adv-x="769" 
d="M140 685h43l-90 -684h-43zM291.5 42.5q-36.5 48.5 -30.5 121.5l39 -6q-1 -6 -1 -17q0 -49 32 -78t89 -29q77 0 116.5 46.5t47.5 108.5l61 454q-24 -22 -66 -22q-23 0 -41 5.5t-40 17.5q-13 5 -27 9.5t-27 4.5q-15 0 -28.5 -4t-27.5 -9.5t-22 -8.5l-15 36q42 15 59.5 20
t35.5 5q30 0 82 -24q35 -13 54 -13q17 0 36 8.5t27 20.5l46 -1l-67 -504q-11 -82 -63 -136t-145 -54q-88 0 -124.5 48.5z" />
    <glyph glyph-name="ij" unicode="&#x133;" horiz-adv-x="451" 
d="M75 63q0 -18 9 -26.5t23 -8.5q17 0 32 17l28 -24q-25 -31 -63 -31q-31 0 -50 19t-19 52q0 11 1 17l55 422h41l-56 -425q-1 -4 -1 -12zM100.5 584q-8.5 9 -8.5 23q0 17 10.5 28.5t26.5 11.5q14 0 23.5 -9t9.5 -23q0 -17 -11 -28.5t-27 -11.5q-15 0 -23.5 9zM120 -223
l35 21q15 -22 35 -22q19 0 33.5 15t16.5 37l89 672h41l-89 -674q-5 -40 -31 -65t-61 -25q-45 0 -69 41zM338.5 584q-8.5 9 -8.5 23q0 17 10.5 28.5t26.5 11.5q14 0 23.5 -9t9.5 -23q0 -17 -11 -28.5t-27 -11.5q-15 0 -23.5 9z" />
    <glyph glyph-name="Jcircumflex" unicode="&#x134;" horiz-adv-x="514" 
d="M44.5 42.5q-36.5 48.5 -30.5 121.5l39 -6q-1 -6 -1 -17q0 -49 32 -78t89 -29q77 0 116.5 46.5t47.5 108.5l61 454q-24 -22 -66 -22q-23 0 -41 5.5t-40 17.5q-13 5 -27 9.5t-27 4.5q-15 0 -28.5 -4t-27.5 -9.5t-22 -8.5l-15 36q42 15 59.5 20t35.5 5q30 0 82 -24
q35 -13 54 -13q17 0 36 8.5t27 20.5l46 -1l-67 -504q-11 -82 -63 -136t-145 -54q-88 0 -124.5 48.5zM273 853h42l100 -121h-53l-71 85l-95 -85h-54z" />
    <glyph glyph-name="jcircumflex" unicode="&#x135;" horiz-adv-x="212" 
d="M-112 -223l35 21q15 -22 35 -22q19 0 33.5 15t16.5 37l89 672h41l-89 -674q-5 -40 -31 -65t-61 -25q-45 0 -69 41zM123 694h41l94 -131h-48l-70 95l-96 -95h-48z" />
    <glyph glyph-name="uni0136" unicode="&#x136;" horiz-adv-x="690" 
d="M158 621q0 40 -37 40q-29 0 -45 -26l-28 25q25 41 76 41q35 0 55 -20t20 -59q0 -12 -1 -19l-32 -240h54q37 0 69 16q18 7 31 17t25 26q48 52 85 111q40 57 96 153l51 -2q-62 -96 -106 -161l-13 -20q-36 -52 -63 -88q-6 -6 -19.5 -22.5t-23.5 -25t-22 -17.5l164 -298
q4 -8 12.5 -13.5t18.5 -5.5q17 0 32 13l30 -25q-13 -14 -31 -21t-35 -7q-39 0 -60 38l-171 307q-50 -15 -86 -15q-12 0 -22 1t-18 1l-43 -323h-43l79 603q1 6 1 16zM219 -92h49l-71 -197h-41z" />
    <glyph glyph-name="uni0137" unicode="&#x137;" horiz-adv-x="550" 
d="M166 728l-47 -349q31 63 78.5 96t104.5 33q60 0 94.5 -34t34.5 -91q0 -117 -116 -166l68 -159q9 -27 30 -27q18 0 30 14l26 -27q-16 -14 -28.5 -20t-29.5 -6q-22 0 -37.5 9.5t-24.5 31.5l-75 173h-177l-27 -206h-41l96 728h41zM307 260q40 15 63.5 47t23.5 74
q0 39 -25 64t-70 25q-54 0 -99.5 -37.5t-72.5 -103.5q-19 -47 -23 -85l121 1q52 0 82 15zM193 -93h49l-71 -197h-41z" />
    <glyph glyph-name="kgreenlandic" unicode="&#x138;" horiz-adv-x="531" 
d="M136 500l-30 -222h20q9 -1 36 -1q35 0 78.5 18.5t71.5 45.5q9 7 19.5 23t21.5 33l18 28q28 38 55 62.5t58 33.5l8 -42q-26 -5 -56 -40q-14 -15 -34 -44t-23 -36q-20 -31 -43.5 -55t-73.5 -46q46 -22 66.5 -51t30.5 -65q7 -21 17 -46t21 -42q22 -27 43 -32l-17 -42
q-35 13 -58 50q-11 14 -22 41t-19 56q-15 46 -49.5 73.5t-79.5 33.5q-14 2 -47 2h-46l-32 -236h-41l66 500h41z" />
    <glyph glyph-name="Lacute" unicode="&#x139;" horiz-adv-x="539" 
d="M140 685h40l-84 -644h345l-5 -40h-386zM324 771l169 105l20 -40l-179 -89z" />
    <glyph glyph-name="lacute" unicode="&#x13a;" horiz-adv-x="240" 
d="M76 63q0 -18 9 -26.5t23 -8.5q17 0 32 17l28 -24q-25 -31 -63 -31q-31 0 -50 19t-19 52q0 11 1 17l85 649h41l-86 -652q-1 -4 -1 -12zM135 805l169 105l20 -40l-179 -89z" />
    <glyph glyph-name="uni013B" unicode="&#x13b;" horiz-adv-x="539" 
d="M140 685h40l-84 -644h345l-5 -40h-386zM203 -100h49l-71 -197h-41z" />
    <glyph glyph-name="uni013C" unicode="&#x13c;" horiz-adv-x="240" 
d="M76 63q0 -18 9 -26.5t23 -8.5q17 0 32 17l28 -24q-25 -31 -63 -31q-31 0 -50 19t-19 52q0 11 1 17l85 649h41l-86 -652q-1 -4 -1 -12zM16 -95h49l-71 -197h-41z" />
    <glyph glyph-name="Lcaron" unicode="&#x13d;" horiz-adv-x="539" 
d="M140 685h40l-84 -644h345l-5 -40h-386zM443 749l39 -21l-116 -169l-20 13z" />
    <glyph glyph-name="lcaron" unicode="&#x13e;" horiz-adv-x="240" 
d="M76 63q0 -18 9 -26.5t23 -8.5q17 0 32 17l28 -24q-25 -31 -63 -31q-31 0 -50 19t-19 52q0 11 1 17l85 649h41l-86 -652q-1 -4 -1 -12zM318 776l39 -21l-116 -169l-20 13z" />
    <glyph glyph-name="Ldot" unicode="&#x13f;" horiz-adv-x="539" 
d="M140 685h40l-84 -644h345l-5 -40h-386zM279.5 345q-13.5 14 -13.5 34q0 24 17.5 42t40.5 18q21 0 34.5 -14t13.5 -34q0 -25 -17 -42.5t-42 -17.5q-20 0 -33.5 14z" />
    <glyph glyph-name="ldot" unicode="&#x140;" horiz-adv-x="240" 
d="M76 63q0 -18 9 -26.5t23 -8.5q17 0 32 17l28 -24q-25 -31 -63 -31q-31 0 -50 19t-19 52q0 11 1 17l85 649h41l-86 -652q-1 -4 -1 -12zM188.5 403q-13.5 14 -13.5 34q0 24 17.5 42t40.5 18q21 0 34.5 -14t13.5 -34q0 -25 -17 -42.5t-42 -17.5q-20 0 -33.5 14z" />
    <glyph glyph-name="Lslash" unicode="&#x141;" horiz-adv-x="523" 
d="M96 41h345l-5 -40h-386l39 300l-68 -38l-17 39l92 51l44 332h40l-40 -308l79 44l16 -39l-102 -57z" />
    <glyph glyph-name="lslash" unicode="&#x142;" horiz-adv-x="262" 
d="M186 21q-27 -31 -63 -31q-32 0 -51 19.5t-19 52.5q0 11 1 16l39 296l-74 -44l5 48l75 44l40 305h41l-37 -278l70 41l-6 -48l-70 -41l-43 -326q-3 -24 6 -35.5t25 -11.5q18 0 32 17z" />
    <glyph glyph-name="Nacute" unicode="&#x143;" horiz-adv-x="784" 
d="M-18 16l39 25q5 -6 13 -10.5t14 -4.5q17 0 31 12.5t17 32.5l81 614h26l91 -125l263 -418l22 -45l75 587h43l-90 -683h-6l-370 572l-24 45l-69 -549q-5 -41 -31.5 -63.5t-61.5 -22.5q-39 0 -63 33zM442 771l169 105l20 -40l-179 -89z" />
    <glyph glyph-name="nacute" unicode="&#x144;" horiz-adv-x="586" 
d="M504 21q-25 -31 -63 -31q-32 0 -51 19.5t-19 53.5q0 10 1 15l34 260q2 12 2 33q0 96 -99 96q-49 0 -93 -25.5t-94 -84.5l-47 -357h-41l48 361q3 23 3 40q0 25 -5.5 43t-17.5 36l29 25q19 -21 28.5 -48.5t7.5 -55.5q40 55 85 79.5t103 24.5q66 0 101.5 -31.5t35.5 -89.5
q0 -9 -2 -27l-38 -282q-3 -24 6 -35.5t25 -11.5q18 0 33 17zM301 585l131 154l32 -29l-146 -143z" />
    <glyph glyph-name="uni0145" unicode="&#x145;" horiz-adv-x="784" 
d="M-18 16l39 25q5 -6 13 -10.5t14 -4.5q17 0 31 12.5t17 32.5l81 614h26l91 -125l263 -418l22 -45l75 587h43l-90 -683h-6l-370 572l-24 45l-69 -549q-5 -41 -31.5 -63.5t-61.5 -22.5q-39 0 -63 33zM322 -100h49l-71 -197h-41z" />
    <glyph glyph-name="uni0146" unicode="&#x146;" horiz-adv-x="586" 
d="M504 21q-25 -31 -63 -31q-32 0 -51 19.5t-19 53.5q0 10 1 15l34 260q2 12 2 33q0 96 -99 96q-49 0 -93 -25.5t-94 -84.5l-47 -357h-41l48 361q3 23 3 40q0 25 -5.5 43t-17.5 36l29 25q19 -21 28.5 -48.5t7.5 -55.5q40 55 85 79.5t103 24.5q66 0 101.5 -31.5t35.5 -89.5
q0 -9 -2 -27l-38 -282q-3 -24 6 -35.5t25 -11.5q18 0 33 17zM202 -93h49l-71 -197h-41z" />
    <glyph glyph-name="Ncaron" unicode="&#x147;" horiz-adv-x="784" 
d="M-18 16l39 25q5 -6 13 -10.5t14 -4.5q17 0 31 12.5t17 32.5l81 614h26l91 -125l263 -418l22 -45l75 587h43l-90 -683h-6l-370 572l-24 45l-69 -549q-5 -41 -31.5 -63.5t-61.5 -22.5q-39 0 -63 33zM388 862l72 -85l94 85h55l-132 -121h-42l-100 121h53z" />
    <glyph glyph-name="ncaron" unicode="&#x148;" horiz-adv-x="586" 
d="M504 21q-25 -31 -63 -31q-32 0 -51 19.5t-19 53.5q0 10 1 15l34 260q2 12 2 33q0 96 -99 96q-49 0 -93 -25.5t-94 -84.5l-47 -357h-41l48 361q3 23 3 40q0 25 -5.5 43t-17.5 36l29 25q19 -21 28.5 -48.5t7.5 -55.5q40 55 85 79.5t103 24.5q66 0 101.5 -31.5t35.5 -89.5
q0 -9 -2 -27l-38 -282q-3 -24 6 -35.5t25 -11.5q18 0 33 17zM201 700h48l70 -95l95 95h50l-128 -131h-43z" />
    <glyph glyph-name="Eng" unicode="&#x14a;" horiz-adv-x="760" 
d="M697 684l-96 -735q-5 -36 -30.5 -60t-61.5 -24q-39 0 -60 33l35 21q9 -12 27 -12q19 0 33 13t16 31l13 94l-342 528l-24 45l-69 -549q-5 -41 -31.5 -63.5t-61.5 -22.5q-39 0 -63 33l39 25q5 -6 13 -10.5t14 -4.5q17 0 31 12.5t17 32.5l81 614h26l91 -125l263 -418l22 -45
l75 587h43z" />
    <glyph glyph-name="eng" unicode="&#x14b;" horiz-adv-x="530" 
d="M123 396q44 59 90 84t102 25q72 0 106 -35t29 -108l-51 -387q-5 -35 -30 -59t-61 -24q-40 0 -60 33l34 21q11 -12 27 -12t31.5 12.5t18.5 31.5l47 360q2 12 2 32q0 96 -99 96q-55 0 -98 -27.5t-89 -81.5l-47 -356h-40l47 354q3 20 3 37q0 53 -24 84l26 23q38 -33 36 -103
z" />
    <glyph glyph-name="Omacron" unicode="&#x14c;" horiz-adv-x="808" 
d="M190 23.5q-67 37.5 -104 104t-37 151.5q0 17 4 53l2 19q13 99 66.5 179t134.5 126t173 46q85 0 151 -38.5t103 -107t37 -154.5q0 -17 -4 -53l-2 -19q-13 -99 -65.5 -177.5t-132.5 -122.5t-173 -44q-86 0 -153 37.5zM495 64.5q72 40.5 119.5 111t58.5 156.5l3 19
q3 24 3 46q0 76 -32 136.5t-89.5 94.5t-130.5 34q-81 0 -152.5 -41.5t-119.5 -113t-60 -158.5l-2 -19q-3 -24 -3 -47q0 -75 31.5 -134t88.5 -92t131 -33q82 0 154 40.5zM317 794h251l-6 -41h-251z" />
    <glyph glyph-name="omacron" unicode="&#x14d;" horiz-adv-x="576" 
d="M77.5 49q-55.5 58 -55.5 155q0 22 3 44q10 75 47 133.5t94.5 91t125.5 32.5q93 0 149 -59t56 -157q0 -21 -3 -44q-10 -75 -46.5 -132.5t-94 -89.5t-126.5 -32q-94 0 -149.5 58zM334.5 57q48.5 28 80 79t39.5 117q3 20 3 39q0 80 -45 127.5t-122 47.5q-57 0 -105 -28
t-79.5 -78.5t-40.5 -115.5q-3 -21 -3 -39q0 -81 45 -129t122 -48q57 0 105.5 28zM182 611h251l-6 -41h-251z" />
    <glyph glyph-name="Obreve" unicode="&#x14e;" horiz-adv-x="808" 
d="M190 23.5q-67 37.5 -104 104t-37 151.5q0 17 4 53l2 19q13 99 66.5 179t134.5 126t173 46q85 0 151 -38.5t103 -107t37 -154.5q0 -17 -4 -53l-2 -19q-13 -99 -65.5 -177.5t-132.5 -122.5t-173 -44q-86 0 -153 37.5zM495 64.5q72 40.5 119.5 111t58.5 156.5l3 19
q3 24 3 46q0 76 -32 136.5t-89.5 94.5t-130.5 34q-81 0 -152.5 -41.5t-119.5 -113t-60 -158.5l-2 -19q-3 -24 -3 -47q0 -75 31.5 -134t88.5 -92t131 -33q82 0 154 40.5zM345.5 771.5q-28.5 31.5 -25.5 84.5l42 -2q0 -33 19 -54t58 -21q40 0 65 21.5t31 55.5l43 -2
q-11 -55 -46.5 -84.5t-94.5 -29.5q-63 0 -91.5 31.5z" />
    <glyph glyph-name="obreve" unicode="&#x14f;" horiz-adv-x="576" 
d="M77.5 49q-55.5 58 -55.5 155q0 22 3 44q10 75 47 133.5t94.5 91t125.5 32.5q93 0 149 -59t56 -157q0 -21 -3 -44q-10 -75 -46.5 -132.5t-94 -89.5t-126.5 -32q-94 0 -149.5 58zM334.5 57q48.5 28 80 79t39.5 117q3 20 3 39q0 80 -45 127.5t-122 47.5q-57 0 -105 -28
t-79.5 -78.5t-40.5 -115.5q-3 -21 -3 -39q0 -81 45 -129t122 -48q57 0 105.5 28zM213 599.5q-29 33.5 -24 92.5l41 -2q-2 -39 17 -62t58 -23t64.5 23.5t33.5 63.5l41 -2q-11 -61 -47.5 -92.5t-93.5 -31.5q-61 0 -90 33.5z" />
    <glyph glyph-name="Ohungarumlaut" unicode="&#x150;" horiz-adv-x="808" 
d="M190 23.5q-67 37.5 -104 104t-37 151.5q0 17 4 53l2 19q13 99 66.5 179t134.5 126t173 46q85 0 151 -38.5t103 -107t37 -154.5q0 -17 -4 -53l-2 -19q-13 -99 -65.5 -177.5t-132.5 -122.5t-173 -44q-86 0 -153 37.5zM495 64.5q72 40.5 119.5 111t58.5 156.5l3 19
q3 24 3 46q0 76 -32 136.5t-89.5 94.5t-130.5 34q-81 0 -152.5 -41.5t-119.5 -113t-60 -158.5l-2 -19q-3 -24 -3 -47q0 -75 31.5 -134t88.5 -92t131 -33q82 0 154 40.5zM337 770l169 105l20 -40l-179 -89zM519 771l169 105l20 -40l-179 -89z" />
    <glyph glyph-name="ohungarumlaut" unicode="&#x151;" horiz-adv-x="576" 
d="M77.5 49q-55.5 58 -55.5 155q0 22 3 44q10 75 47 133.5t94.5 91t125.5 32.5q93 0 149 -59t56 -157q0 -21 -3 -44q-10 -75 -46.5 -132.5t-94 -89.5t-126.5 -32q-94 0 -149.5 58zM334.5 57q48.5 28 80 79t39.5 117q3 20 3 39q0 80 -45 127.5t-122 47.5q-57 0 -105 -28
t-79.5 -78.5t-40.5 -115.5q-3 -21 -3 -39q0 -81 45 -129t122 -48q57 0 105.5 28zM206 584l131 154l32 -29l-146 -143zM379 585l131 154l32 -29l-146 -143z" />
    <glyph glyph-name="OE" unicode="&#x152;" horiz-adv-x="1186" 
d="M1086 35l-5 -40h-438l25 190q-49 -92 -135.5 -145.5t-189.5 -53.5q-86 0 -153 37.5t-104 104t-37 151.5q0 17 4 53l2 19q13 99 66.5 179t134.5 126t173 46q104 0 178.5 -57t100.5 -152l25 186h419l-6 -40h-378l-34 -261h278l-5 -40h-279l-39 -303h397zM676 351q3 24 3 46
q0 76 -32 136.5t-89.5 94.5t-130.5 34q-81 0 -152.5 -41.5t-119.5 -113t-60 -158.5l-2 -19q-3 -24 -3 -47q0 -75 31.5 -134t88.5 -92t131 -33q82 0 154 40.5t119.5 111t58.5 156.5z" />
    <glyph glyph-name="oe" unicode="&#x153;" horiz-adv-x="903" 
d="M79 49.5q-57 58.5 -57 154.5q0 22 3 44q10 74 47.5 132.5t95.5 91.5t129 33q78 0 128.5 -40.5t66.5 -115.5q30 73 82 114.5t124 41.5q67 0 109.5 -34t42.5 -95q0 -7 -2 -23q-10 -77 -73.5 -111t-155.5 -34l-124 -1q-5 -88 31.5 -133t111.5 -45q43 0 80.5 12t82.5 35
l17 -32q-85 -53 -179 -53q-157 0 -178 147q-38 -75 -96.5 -111t-131.5 -36q-97 0 -154 58.5zM342 58.5q49 29.5 80 80.5t39 114q3 20 3 38q0 80 -45.5 128t-123.5 48q-60 0 -109 -28.5t-80.5 -78.5t-39.5 -113q-3 -19 -3 -39q0 -80 45.5 -129.5t124.5 -49.5q60 0 109 29.5z
M750 272q50 28 58 87q1 6 1 16q0 46 -32.5 69t-76.5 23q-55 0 -99.5 -33.5t-71 -85t-31.5 -105.5l124 1q78 0 128 28z" />
    <glyph glyph-name="Racute" unicode="&#x154;" horiz-adv-x="696" 
d="M142 642q-11 -3 -20 -10q-16 -11 -21 -38l-37 2q7 44 35 67q25 21 77 21l212 1q45 0 74 -18q38 -20 59.5 -60t21.5 -92q0 -17 -3 -35q-6 -52 -31 -94.5t-63 -67t-80 -24.5h-40q15 -7 18 -10q15 -5 33 -35l118 -200q12 -19 30 -19q10 0 21 4.5t19 11.5l28 -23
q-13 -16 -30.5 -24t-37.5 -8q-42 0 -63 38l-98 168q-22 38 -46.5 59t-73.5 28l4 39h78q49 0 89.5 24t63.5 67t23 97q0 59 -33.5 96.5t-87.5 37.5h-169l-85 -644h-40l85 644q-19 0 -30 -3zM307 762l169 105l20 -40l-179 -89z" />
    <glyph glyph-name="racute" unicode="&#x155;" horiz-adv-x="350" 
d="M334 498l-3 -38q-28 5 -47 5q-55 0 -93 -29q-17 -13 -36.5 -33.5t-33.5 -43.5l-48 -358h-41l48 362q3 24 3 42q0 25 -5.5 42t-17.5 35l29 25q19 -21 28.5 -47.5t8.5 -54.5q16 27 36 48t38 32q35 20 84 20q14 0 50 -7zM217 585l131 154l32 -29l-146 -143z" />
    <glyph glyph-name="uni0156" unicode="&#x156;" horiz-adv-x="696" 
d="M142 642q-11 -3 -20 -10q-16 -11 -21 -38l-37 2q7 44 35 67q25 21 77 21l212 1q45 0 74 -18q38 -20 59.5 -60t21.5 -92q0 -17 -3 -35q-6 -52 -31 -94.5t-63 -67t-80 -24.5h-40q15 -7 18 -10q15 -5 33 -35l118 -200q12 -19 30 -19q10 0 21 4.5t19 11.5l28 -23
q-13 -16 -30.5 -24t-37.5 -8q-42 0 -63 38l-98 168q-22 38 -46.5 59t-73.5 28l4 39h78q49 0 89.5 24t63.5 67t23 97q0 59 -33.5 96.5t-87.5 37.5h-169l-85 -644h-40l85 644q-19 0 -30 -3zM221 -101h49l-71 -197h-41z" />
    <glyph glyph-name="uni0157" unicode="&#x157;" horiz-adv-x="350" 
d="M334 498l-3 -38q-28 5 -47 5q-55 0 -93 -29q-17 -13 -36.5 -33.5t-33.5 -43.5l-48 -358h-41l48 362q3 24 3 42q0 25 -5.5 42t-17.5 35l29 25q19 -21 28.5 -47.5t8.5 -54.5q16 27 36 48t38 32q35 20 84 20q14 0 50 -7zM15 -99h49l-71 -197h-41z" />
    <glyph glyph-name="Rcaron" unicode="&#x158;" horiz-adv-x="696" 
d="M142 642q-11 -3 -20 -10q-16 -11 -21 -38l-37 2q7 44 35 67q25 21 77 21l212 1q45 0 74 -18q38 -20 59.5 -60t21.5 -92q0 -17 -3 -35q-6 -52 -31 -94.5t-63 -67t-80 -24.5h-40q15 -7 18 -10q15 -5 33 -35l118 -200q12 -19 30 -19q10 0 21 4.5t19 11.5l28 -23
q-13 -16 -30.5 -24t-37.5 -8q-42 0 -63 38l-98 168q-22 38 -46.5 59t-73.5 28l4 39h78q49 0 89.5 24t63.5 67t23 97q0 59 -33.5 96.5t-87.5 37.5h-169l-85 -644h-40l85 644q-19 0 -30 -3zM253 853l72 -85l94 85h55l-132 -121h-42l-100 121h53z" />
    <glyph glyph-name="rcaron" unicode="&#x159;" horiz-adv-x="350" 
d="M334 498l-3 -38q-28 5 -47 5q-55 0 -93 -29q-17 -13 -36.5 -33.5t-33.5 -43.5l-48 -358h-41l48 362q3 24 3 42q0 25 -5.5 42t-17.5 35l29 25q19 -21 28.5 -47.5t8.5 -54.5q16 27 36 48t38 32q35 20 84 20q14 0 50 -7zM117 700h48l70 -95l95 95h50l-128 -131h-43z" />
    <glyph glyph-name="Sacute" unicode="&#x15a;" horiz-adv-x="561" 
d="M76.5 30q-57.5 46 -71.5 120l39 13q10 -63 58.5 -101t116.5 -38q52 0 97 23t74.5 63t35.5 89q2 14 2 21q0 45 -36 79.5t-126 76.5q-79 35 -111.5 67t-32.5 77q0 50 27 91.5t73 65.5t100 24q62 0 99.5 -28.5t37.5 -75.5q0 -29 -13.5 -51.5t-35.5 -34.5t-45 -10l6 38
q19 -2 33 13.5t14 39.5q0 31 -26 50t-69 19q-37 0 -72.5 -16.5t-59 -44.5t-27.5 -59q-1 -6 -1 -17q0 -32 26 -55.5t99 -58.5q99 -45 140 -86.5t41 -98.5q0 -68 -34 -123t-92 -86.5t-127 -31.5q-82 0 -139.5 46zM299 762l169 105l20 -40l-179 -89z" />
    <glyph glyph-name="sacute" unicode="&#x15b;" horiz-adv-x="422" 
d="M65.5 7.5q-40.5 18.5 -76.5 56.5l26 27q61 -64 143 -64q61 0 102.5 34t41.5 90q0 24 -13.5 41t-37 30t-71.5 35q-44 19 -68.5 33t-40 34.5t-15.5 50.5q0 10 1 16q8 55 52 88.5t110 33.5q62 0 112 -36l-22 -30q-43 28 -90 28q-52 0 -86.5 -28t-34.5 -71q0 -16 10.5 -28.5
t33.5 -26t72 -37.5q50 -23 76 -38.5t40.5 -36t14.5 -51.5q0 -7 -2 -21q-9 -68 -60 -108t-127 -40q-50 0 -90.5 18.5zM209 580l131 154l32 -29l-146 -143z" />
    <glyph glyph-name="Scircumflex" unicode="&#x15c;" horiz-adv-x="561" 
d="M76.5 30q-57.5 46 -71.5 120l39 13q10 -63 58.5 -101t116.5 -38q52 0 97 23t74.5 63t35.5 89q2 14 2 21q0 45 -36 79.5t-126 76.5q-79 35 -111.5 67t-32.5 77q0 50 27 91.5t73 65.5t100 24q62 0 99.5 -28.5t37.5 -75.5q0 -29 -13.5 -51.5t-35.5 -34.5t-45 -10l6 38
q19 -2 33 13.5t14 39.5q0 31 -26 50t-69 19q-37 0 -72.5 -16.5t-59 -44.5t-27.5 -59q-1 -6 -1 -17q0 -32 26 -55.5t99 -58.5q99 -45 140 -86.5t41 -98.5q0 -68 -34 -123t-92 -86.5t-127 -31.5q-82 0 -139.5 46zM307 853h42l100 -121h-53l-71 85l-95 -85h-54z" />
    <glyph glyph-name="scircumflex" unicode="&#x15d;" horiz-adv-x="422" 
d="M65.5 7.5q-40.5 18.5 -76.5 56.5l26 27q61 -64 143 -64q61 0 102.5 34t41.5 90q0 24 -13.5 41t-37 30t-71.5 35q-44 19 -68.5 33t-40 34.5t-15.5 50.5q0 10 1 16q8 55 52 88.5t110 33.5q62 0 112 -36l-22 -30q-43 28 -90 28q-52 0 -86.5 -28t-34.5 -71q0 -16 10.5 -28.5
t33.5 -26t72 -37.5q50 -23 76 -38.5t40.5 -36t14.5 -51.5q0 -7 -2 -21q-9 -68 -60 -108t-127 -40q-50 0 -90.5 18.5zM221 694h41l94 -131h-48l-70 95l-96 -95h-48z" />
    <glyph glyph-name="Scedilla" unicode="&#x15e;" horiz-adv-x="544" 
d="M439 108.5q-30 -52.5 -82.5 -85.5t-116.5 -38l-10 -23q31 -2 46 -21t15 -49q0 -25 -13 -52t-36.5 -44t-55.5 -15l10 38q24 3 41 25t17 45q0 18 -12.5 28.5t-35.5 10.5h-24l15 57q-75 5 -127.5 50t-64.5 115l39 13q10 -63 58.5 -101t116.5 -38q52 0 97 23t74.5 63t35.5 89
q2 14 2 21q0 45 -36 79.5t-126 76.5q-79 35 -111.5 67t-32.5 77q0 50 27 91.5t73 65.5t100 24q62 0 99.5 -28.5t37.5 -75.5q0 -29 -13.5 -51.5t-35.5 -34.5t-45 -10l6 38q19 -2 33 13.5t14 39.5q0 31 -26 50t-69 19q-37 0 -72.5 -16.5t-59 -44.5t-27.5 -59q-1 -6 -1 -17
q0 -32 26 -55.5t99 -58.5q99 -45 140 -86.5t41 -98.5q0 -64 -30 -116.5z" />
    <glyph glyph-name="scedilla" unicode="&#x15f;" horiz-adv-x="409" 
d="M292.5 37.5q-42.5 -38.5 -107.5 -46.5l-15 -43q31 -2 46 -21t15 -49q0 -25 -13 -52t-36.5 -44t-55.5 -15l10 38q24 3 41 25t17 45q0 18 -12.5 28.5t-35.5 10.5h-24l19 75q-45 2 -82 20.5t-70 54.5l26 27q61 -64 143 -64q61 0 102.5 34t41.5 90q0 24 -13.5 41t-37 30
t-71.5 35q-44 19 -68.5 33t-40 34.5t-15.5 50.5q0 10 1 16q8 55 52 88.5t110 33.5q62 0 112 -36l-22 -30q-43 28 -90 28q-52 0 -86.5 -28t-34.5 -71q0 -16 10.5 -28.5t33.5 -26t72 -37.5q50 -23 76 -38.5t40.5 -36t14.5 -51.5q0 -7 -2 -21q-8 -61 -50.5 -99.5z" />
    <glyph glyph-name="Scaron" unicode="&#x160;" horiz-adv-x="561" 
d="M76.5 30q-57.5 46 -71.5 120l39 13q10 -63 58.5 -101t116.5 -38q52 0 97 23t74.5 63t35.5 89q2 14 2 21q0 45 -36 79.5t-126 76.5q-79 35 -111.5 67t-32.5 77q0 50 27 91.5t73 65.5t100 24q62 0 99.5 -28.5t37.5 -75.5q0 -29 -13.5 -51.5t-35.5 -34.5t-45 -10l6 38
q19 -2 33 13.5t14 39.5q0 31 -26 50t-69 19q-37 0 -72.5 -16.5t-59 -44.5t-27.5 -59q-1 -6 -1 -17q0 -32 26 -55.5t99 -58.5q99 -45 140 -86.5t41 -98.5q0 -68 -34 -123t-92 -86.5t-127 -31.5q-82 0 -139.5 46zM245 853l72 -85l94 85h55l-132 -121h-42l-100 121h53z" />
    <glyph glyph-name="scaron" unicode="&#x161;" horiz-adv-x="422" 
d="M65.5 7.5q-40.5 18.5 -76.5 56.5l26 27q61 -64 143 -64q61 0 102.5 34t41.5 90q0 24 -13.5 41t-37 30t-71.5 35q-44 19 -68.5 33t-40 34.5t-15.5 50.5q0 10 1 16q8 55 52 88.5t110 33.5q62 0 112 -36l-22 -30q-43 28 -90 28q-52 0 -86.5 -28t-34.5 -71q0 -16 10.5 -28.5
t33.5 -26t72 -37.5q50 -23 76 -38.5t40.5 -36t14.5 -51.5q0 -7 -2 -21q-9 -68 -60 -108t-127 -40q-50 0 -90.5 18.5zM109 695h48l70 -95l95 95h50l-128 -131h-43z" />
    <glyph glyph-name="uni0162" unicode="&#x162;" horiz-adv-x="590" 
d="M355 645l-83 -630h5l-21 -61q31 -2 46 -21t15 -49q0 -25 -13 -52t-36.5 -44t-54.5 -15l10 38q24 3 40.5 25.5t16.5 44.5q0 18 -12.5 28.5t-35.5 10.5h-24l23 95l83 630h-163q-15 0 -28.5 -10.5t-18.5 -25.5l-40 2q6 28 29 51q28 23 58 23h441l-6 -40h-231z" />
    <glyph glyph-name="uni0163" unicode="&#x163;" horiz-adv-x="339" 
d="M222.5 12q-26.5 -17 -62.5 -20l-17 -47q31 -2 46.5 -22t15.5 -50q0 -25 -13 -51.5t-37 -43t-55 -14.5l10 38q24 3 40.5 25.5t16.5 44.5q0 18 -12.5 28.5t-35.5 10.5h-24l22 82q-79 14 -79 110q0 19 3 38l63 482h41l-16 -123h156l-5 -40h-156l-43 -321q-2 -24 -2 -33
q0 -37 15.5 -57t51.5 -20q29 0 54.5 15t45.5 43l28 -24q-25 -34 -51.5 -51z" />
    <glyph glyph-name="Tcaron" unicode="&#x164;" horiz-adv-x="608" 
d="M151 645q-15 0 -28.5 -10.5t-18.5 -25.5l-40 2q6 28 29 51q28 23 58 23h441l-6 -40h-231l-85 -644h-41l85 644h-163zM278 853l72 -85l94 85h55l-132 -121h-42l-100 121h53z" />
    <glyph glyph-name="tcaron" unicode="&#x165;" horiz-adv-x="349" 
d="M38 103q0 19 3 38l63 482h41l-16 -123h156l-5 -40h-156l-43 -321q-2 -24 -2 -33q0 -37 15.5 -57t51.5 -20q29 0 54.5 15t45.5 43l28 -24q-28 -37 -58 -54.5t-71 -17.5q-107 0 -107 112zM420 749l39 -21l-116 -169l-20 13z" />
    <glyph glyph-name="Tbar" unicode="&#x166;" horiz-adv-x="590" 
d="M355 645l-36 -272h105l-6 -41h-105l-43 -331h-41l44 331h-104l5 41h104l36 272h-163q-15 0 -28.5 -10.5t-18.5 -25.5l-40 2q6 28 29 51q28 23 58 23h441l-6 -40h-231z" />
    <glyph glyph-name="tbar" unicode="&#x167;" horiz-adv-x="339" 
d="M274 63q-28 -37 -58 -54.5t-71 -17.5q-107 0 -107 112q0 19 3 38l19 144h-84l6 41h83l39 297h41l-16 -123h156l-5 -40h-156l-18 -134h125l-5 -41h-125l-20 -146q-2 -24 -2 -33q0 -37 15.5 -57t51.5 -20q29 0 54.5 15t45.5 43z" />
    <glyph glyph-name="Utilde" unicode="&#x168;" horiz-adv-x="727" 
d="M164.5 53.5q-55.5 63.5 -55.5 163.5q0 24 3 49l44 339q1 6 1 16q0 40 -37 40q-29 0 -45 -26l-28 25q25 41 76 41q34 0 54.5 -19.5t20.5 -57.5q0 -14 -1 -21l-45 -339q-3 -22 -3 -43q0 -84 45 -137.5t129 -53.5q69 0 119.5 34.5t80 88.5t37.5 113l55 418h41l-56 -420
q-9 -71 -43.5 -133.5t-94 -101.5t-139.5 -39q-103 0 -158.5 63.5zM331.5 802q23.5 8 45.5 8q20 0 32 -5t27 -14q11 -8 21 -12.5t25 -4.5q33 0 76 32l22 -33q-28 -21 -48.5 -29t-53.5 -8q-18 0 -30 4.5t-26 13.5q-13 8 -23 12t-23 4q-18 0 -35 -6.5t-42 -25.5l-22 33
q31 23 54.5 31z" />
    <glyph glyph-name="utilde" unicode="&#x169;" horiz-adv-x="579" 
d="M180 -7q-73 0 -107 35t-29 108l30 229q3 24 3 42q0 25 -5.5 42t-17.5 35l30 25q16 -20 26 -44.5t10 -50.5q0 -12 -1 -18l-31 -236q-2 -22 -2 -31q0 -98 101 -98q54 0 95 26t87 79l50 364h41l-57 -423q-1 -4 -1 -12q0 -34 31 -34q10 0 20.5 5.5t14.5 12.5l30 -22
q-12 -17 -30 -25.5t-35 -8.5q-37 0 -55 21.5t-14 61.5q-74 -83 -184 -83zM185.5 630q23.5 8 45.5 8q20 0 32 -5t27 -14q11 -8 21 -12.5t25 -4.5q33 0 76 32l22 -33q-28 -21 -48.5 -29t-53.5 -8q-18 0 -30 4.5t-26 13.5q-13 8 -23 12t-23 4q-18 0 -35 -6.5t-42 -25.5l-22 33
q31 23 54.5 31z" />
    <glyph glyph-name="Umacron" unicode="&#x16a;" horiz-adv-x="727" 
d="M164.5 53.5q-55.5 63.5 -55.5 163.5q0 24 3 49l44 339q1 6 1 16q0 40 -37 40q-29 0 -45 -26l-28 25q25 41 76 41q34 0 54.5 -19.5t20.5 -57.5q0 -14 -1 -21l-45 -339q-3 -22 -3 -43q0 -84 45 -137.5t129 -53.5q69 0 119.5 34.5t80 88.5t37.5 113l55 418h41l-56 -420
q-9 -71 -43.5 -133.5t-94 -101.5t-139.5 -39q-103 0 -158.5 63.5zM291 785h251l-6 -41h-251z" />
    <glyph glyph-name="umacron" unicode="&#x16b;" horiz-adv-x="579" 
d="M180 -7q-73 0 -107 35t-29 108l30 229q3 24 3 42q0 25 -5.5 42t-17.5 35l30 25q16 -20 26 -44.5t10 -50.5q0 -12 -1 -18l-31 -236q-2 -22 -2 -31q0 -98 101 -98q54 0 95 26t87 79l50 364h41l-57 -423q-1 -4 -1 -12q0 -34 31 -34q10 0 20.5 5.5t14.5 12.5l30 -22
q-12 -17 -30 -25.5t-35 -8.5q-37 0 -55 21.5t-14 61.5q-74 -83 -184 -83zM158 608h251l-6 -41h-251z" />
    <glyph glyph-name="Ubreve" unicode="&#x16c;" horiz-adv-x="727" 
d="M164.5 53.5q-55.5 63.5 -55.5 163.5q0 24 3 49l44 339q1 6 1 16q0 40 -37 40q-29 0 -45 -26l-28 25q25 41 76 41q34 0 54.5 -19.5t20.5 -57.5q0 -14 -1 -21l-45 -339q-3 -22 -3 -43q0 -84 45 -137.5t129 -53.5q69 0 119.5 34.5t80 88.5t37.5 113l55 418h41l-56 -420
q-9 -71 -43.5 -133.5t-94 -101.5t-139.5 -39q-103 0 -158.5 63.5zM320.5 762.5q-28.5 31.5 -25.5 84.5l42 -2q0 -33 19 -54t58 -21q40 0 65 21.5t31 55.5l43 -2q-11 -55 -46.5 -84.5t-94.5 -29.5q-63 0 -91.5 31.5z" />
    <glyph glyph-name="ubreve" unicode="&#x16d;" horiz-adv-x="579" 
d="M180 -7q-73 0 -107 35t-29 108l30 229q3 24 3 42q0 25 -5.5 42t-17.5 35l30 25q16 -20 26 -44.5t10 -50.5q0 -12 -1 -18l-31 -236q-2 -22 -2 -31q0 -98 101 -98q54 0 95 26t87 79l50 364h41l-57 -423q-1 -4 -1 -12q0 -34 31 -34q10 0 20.5 5.5t14.5 12.5l30 -22
q-12 -17 -30 -25.5t-35 -8.5q-37 0 -55 21.5t-14 61.5q-74 -83 -184 -83zM189 596.5q-29 33.5 -24 92.5l41 -2q-2 -39 17 -62t58 -23t64.5 23.5t33.5 63.5l41 -2q-11 -61 -47.5 -92.5t-93.5 -31.5q-61 0 -90 33.5z" />
    <glyph glyph-name="Uring" unicode="&#x16e;" horiz-adv-x="727" 
d="M164.5 53.5q-55.5 63.5 -55.5 163.5q0 24 3 49l44 339q1 6 1 16q0 40 -37 40q-29 0 -45 -26l-28 25q25 41 76 41q34 0 54.5 -19.5t20.5 -57.5q0 -14 -1 -21l-45 -339q-3 -22 -3 -43q0 -84 45 -137.5t129 -53.5q69 0 119.5 34.5t80 88.5t37.5 113l55 418h41l-56 -420
q-9 -71 -43.5 -133.5t-94 -101.5t-139.5 -39q-103 0 -158.5 63.5zM352 759q-22 22 -22 58q0 46 29.5 76t73.5 30q37 0 59 -21.5t22 -56.5q0 -48 -30.5 -78t-73.5 -30q-36 0 -58 22zM458 790q22 23 22 50q0 22 -14 37t-34 15q-26 0 -46.5 -22.5t-20.5 -51.5q0 -23 13.5 -37
t32.5 -14q25 0 47 23z" />
    <glyph glyph-name="uring" unicode="&#x16f;" horiz-adv-x="579" 
d="M180 -7q-73 0 -107 35t-29 108l30 229q3 24 3 42q0 25 -5.5 42t-17.5 35l30 25q16 -20 26 -44.5t10 -50.5q0 -12 -1 -18l-31 -236q-2 -22 -2 -31q0 -98 101 -98q54 0 95 26t87 79l50 364h41l-57 -423q-1 -4 -1 -12q0 -34 31 -34q10 0 20.5 5.5t14.5 12.5l30 -22
q-12 -17 -30 -25.5t-35 -8.5q-37 0 -55 21.5t-14 61.5q-74 -83 -184 -83zM230.5 586.5q-21.5 22.5 -21.5 59.5q0 49 29.5 81.5t75.5 32.5q39 0 61 -23t22 -60q0 -49 -31 -81t-76 -32q-38 0 -59.5 22.5zM341 619.5q22 25.5 22 55.5q0 23 -14 38.5t-35 15.5q-28 0 -49.5 -24.5
t-21.5 -56.5q0 -24 13.5 -39t34.5 -15q28 0 50 25.5z" />
    <glyph glyph-name="Uhungarumlaut" unicode="&#x170;" horiz-adv-x="727" 
d="M164.5 53.5q-55.5 63.5 -55.5 163.5q0 24 3 49l44 339q1 6 1 16q0 40 -37 40q-29 0 -45 -26l-28 25q25 41 76 41q34 0 54.5 -19.5t20.5 -57.5q0 -14 -1 -21l-45 -339q-3 -22 -3 -43q0 -84 45 -137.5t129 -53.5q69 0 119.5 34.5t80 88.5t37.5 113l55 418h41l-56 -420
q-9 -71 -43.5 -133.5t-94 -101.5t-139.5 -39q-103 0 -158.5 63.5zM311 761l169 105l20 -40l-179 -89zM493 762l169 105l20 -40l-179 -89z" />
    <glyph glyph-name="uhungarumlaut" unicode="&#x171;" horiz-adv-x="579" 
d="M180 -7q-73 0 -107 35t-29 108l30 229q3 24 3 42q0 25 -5.5 42t-17.5 35l30 25q16 -20 26 -44.5t10 -50.5q0 -12 -1 -18l-31 -236q-2 -22 -2 -31q0 -98 101 -98q54 0 95 26t87 79l50 364h41l-57 -423q-1 -4 -1 -12q0 -34 31 -34q10 0 20.5 5.5t14.5 12.5l30 -22
q-12 -17 -30 -25.5t-35 -8.5q-37 0 -55 21.5t-14 61.5q-74 -83 -184 -83zM182 581l131 154l32 -29l-146 -143zM355 582l131 154l32 -29l-146 -143z" />
    <glyph glyph-name="Uogonek" unicode="&#x172;" horiz-adv-x="705" 
d="M560.5 137.5q-30.5 -59.5 -80.5 -97.5q-48 -46 -65 -67.5t-17 -44.5q0 -20 13.5 -29t29.5 -9q21 0 50 19l16 -35q-17 -11 -39.5 -17.5t-41.5 -6.5q-33 0 -52 19.5t-19 52.5q0 22 8 40t26 37q-30 -9 -66 -9q-103 0 -158.5 63.5t-55.5 163.5q0 24 3 49l44 339q1 6 1 16
q0 40 -37 40q-29 0 -45 -26l-28 25q25 41 76 41q34 0 54.5 -19.5t20.5 -57.5q0 -14 -1 -21l-45 -339q-3 -22 -3 -43q0 -84 45 -137.5t129 -53.5q69 0 119.5 34.5t80 88.5t37.5 113l55 418h41l-56 -420q-9 -67 -39.5 -126.5z" />
    <glyph glyph-name="uogonek" unicode="&#x173;" horiz-adv-x="562" 
d="M511 -155q-17 -11 -39.5 -17.5t-42.5 -6.5q-33 0 -51.5 19.5t-18.5 52.5q0 30 13 52t46 50q-29 3 -43 24t-11 57q-74 -83 -184 -83q-73 0 -107 35t-29 108l30 229q3 24 3 42q0 25 -5.5 42t-17.5 35l30 25q16 -20 26 -44.5t10 -50.5q0 -12 -1 -18l-31 -236q-2 -22 -2 -31
q0 -98 101 -98q54 0 95 26t87 79l50 364h41l-57 -423q-1 -4 -1 -12q0 -34 31 -34q10 0 20.5 5.5t14.5 12.5l30 -22l-9 -12q-51 -47 -69 -70t-18 -46q0 -20 13.5 -29t28.5 -9q22 0 51 19z" />
    <glyph glyph-name="Wcircumflex" unicode="&#x174;" horiz-adv-x="1097" 
d="M128 656q-9 0 -13 -2q-12 -3 -19 -12l-28 24q9 16 37 28q12 4 26 4q26 0 42.5 -16.5t20.5 -46.5l98 -541l4 -53l19 53l262 592h49l106 -592l4 -56l18 56l262 592h46l-306 -685h-48l-115 619l-276 -619h-49l-114 624q-6 31 -26 31zM604 861h42l100 -121h-53l-71 85
l-95 -85h-54z" />
    <glyph glyph-name="wcircumflex" unicode="&#x175;" horiz-adv-x="769" 
d="M54.5 453q-10.5 16 -24.5 26l23 31q22 -15 34 -35.5t17 -48.5l70 -366l197 437h45l80 -437l197 437h41l-221 -495h-46l-81 437l-196 -437h-47l-76 420q-2 15 -12.5 31zM400 698h41l94 -131h-48l-70 95l-96 -95h-48z" />
    <glyph glyph-name="Ycircumflex" unicode="&#x176;" horiz-adv-x="613" 
d="M133 655q-9 0 -16 -4q-13 -7 -17 -15l-33 18q13 23 33 34q20 10 38 10q20 0 36 -13t25 -36l124 -301l226 338h48l-260 -384l-38 -301h-42l40 299l-134 331q-10 24 -30 24zM364 853h42l100 -121h-53l-71 85l-95 -85h-54z" />
    <glyph glyph-name="ycircumflex" unicode="&#x177;" horiz-adv-x="546" 
d="M128.5 -254q-34.5 36 -34.5 93q0 50 26.5 93t70.5 62q-73 0 -110 29.5t-37 86.5q0 8 2 26l30 228q3 24 3 42q0 25 -5.5 42t-17.5 35l30 25q16 -20 26 -44.5t10 -50.5q0 -12 -1 -18l-32 -240q-2 -12 -2 -33q0 -47 24 -68.5t76 -21.5q46 0 85.5 20.5t81.5 67.5
q11 15 16 25.5t6 23.5l45 331h41l-50 -366l-34 -260q-10 -76 -52.5 -120t-106.5 -44q-56 0 -90.5 36zM297.5 -216.5q32.5 33.5 39.5 88.5l28 206q-32 -36 -73 -63l-59 -31q-50 -24 -74 -58.5t-24 -84.5q0 -41 22.5 -66t61.5 -25q46 0 78.5 33.5zM280 696h41l94 -131h-48
l-70 95l-96 -95h-48z" />
    <glyph glyph-name="Ydieresis" unicode="&#x178;" horiz-adv-x="613" 
d="M133 655q-9 0 -16 -4q-13 -7 -17 -15l-33 18q13 23 33 34q20 10 38 10q20 0 36 -13t25 -36l124 -301l226 338h48l-260 -384l-38 -301h-42l40 299l-134 331q-10 24 -30 24zM240.5 740q-8.5 9 -8.5 23q0 17 10.5 28.5t26.5 11.5q14 0 23.5 -9t9.5 -23q0 -17 -11 -28.5
t-27 -11.5q-15 0 -23.5 9zM455.5 740q-8.5 9 -8.5 23q0 17 10.5 28.5t26.5 11.5q14 0 23.5 -9t9.5 -23q0 -17 -11 -28.5t-27 -11.5q-15 0 -23.5 9z" />
    <glyph glyph-name="Zacute" unicode="&#x179;" horiz-adv-x="573" 
d="M439 644h-334l5 40h402l-427 -603l41 -8q25 -4 84 -22q44 -13 67.5 -18.5t46.5 -5.5q63 0 126 51l25 -30q-41 -34 -76.5 -47.5t-76.5 -13.5q-35 0 -69 8t-80 24q-72 23 -110 30l-43 -60l-32 20zM305 762l169 105l20 -40l-179 -89z" />
    <glyph glyph-name="zacute" unicode="&#x17a;" horiz-adv-x="464" 
d="M326 456h-260l5 39h333v-4l-328 -412l82 -32q51 -20 108 -20q25 0 46 7t53 26l16 -34q-32 -21 -57.5 -29.5t-57.5 -8.5q-54 0 -118 22l-99 34l-48 -60l-30 25zM250 581l131 154l32 -29l-146 -143z" />
    <glyph glyph-name="Zdotaccent" unicode="&#x17b;" horiz-adv-x="573" 
d="M439 644h-334l5 40h402l-427 -603l41 -8q25 -4 84 -22q44 -13 67.5 -18.5t46.5 -5.5q63 0 126 51l25 -30q-41 -34 -76.5 -47.5t-76.5 -13.5q-35 0 -69 8t-80 24q-72 23 -110 30l-43 -60l-32 20zM297.5 746q-8.5 9 -8.5 23q0 17 10.5 28.5t26.5 11.5q14 0 23.5 -9t9.5 -23
q0 -17 -11 -28.5t-27 -11.5q-15 0 -23.5 9z" />
    <glyph glyph-name="zdotaccent" unicode="&#x17c;" horiz-adv-x="464" 
d="M326 456h-260l5 39h333v-4l-328 -412l82 -32q51 -20 108 -20q25 0 46 7t53 26l16 -34q-32 -21 -57.5 -29.5t-57.5 -8.5q-54 0 -118 22l-99 34l-48 -60l-30 25zM245.5 585q-8.5 9 -8.5 23q0 17 10.5 28.5t26.5 11.5q14 0 23.5 -9t9.5 -23q0 -17 -11 -28.5t-27 -11.5
q-15 0 -23.5 9z" />
    <glyph glyph-name="Zcaron" unicode="&#x17d;" horiz-adv-x="573" 
d="M439 644h-334l5 40h402l-427 -603l41 -8q25 -4 84 -22q44 -13 67.5 -18.5t46.5 -5.5q63 0 126 51l25 -30q-41 -34 -76.5 -47.5t-76.5 -13.5q-35 0 -69 8t-80 24q-72 23 -110 30l-43 -60l-32 20zM251 853l72 -85l94 85h55l-132 -121h-42l-100 121h53z" />
    <glyph glyph-name="zcaron" unicode="&#x17e;" horiz-adv-x="464" 
d="M326 456h-260l5 39h333v-4l-328 -412l82 -32q51 -20 108 -20q25 0 46 7t53 26l16 -34q-32 -21 -57.5 -29.5t-57.5 -8.5q-54 0 -118 22l-99 34l-48 -60l-30 25zM150 696h48l70 -95l95 95h50l-128 -131h-43z" />
    <glyph glyph-name="longs" unicode="&#x17f;" horiz-adv-x="238" 
d="M265 703q37 0 62.5 -10t41.5 -32l-33 -29q-20 32 -70 32q-61 0 -90.5 -43t-39.5 -119l-94 -712h-40l93 711q27 202 170 202z" />
    <glyph glyph-name="uni018F" unicode="&#x18f;" horiz-adv-x="663" 
d="M537 631q63 -71 63 -195q0 -31 -5 -73q-14 -104 -58 -189.5t-114.5 -136.5t-159.5 -51q-68 0 -119.5 29t-79 82t-27.5 123q0 17 4 51q4 36 15 82l497 -1l2 14q4 32 4 63q0 95 -45.5 164.5t-165.5 69.5q-57 0 -106.5 -15.5t-112.5 -47.5l-16 31q56 34 117.5 52.5
t123.5 18.5q120 0 183 -71zM382.5 54q56.5 34 100 100t63.5 159l-459 -2q-6 -25 -9 -48q-2 -13 -2 -37q0 -60 24 -107t67.5 -73t97.5 -26q61 0 117.5 34z" />
    <glyph glyph-name="florin" unicode="&#x192;" horiz-adv-x="505" 
d="M3.5 -248.5q-10.5 1.5 -21.5 4.5l3 33l47 -1q20 -1 38 7.5t31 24.5q30 30 41 106l58 442h-113l5 39h113l9 72q8 54 18.5 95.5t30.5 68.5q33 39 91 39q32 0 62 -1t49.5 -2.5t5.5 -1.5l-4 -35q-19 0 -32 1l-67 1q-21 0 -40 -10t-31 -26q-28 -32 -37 -103l-13 -98h170
l-5 -39h-170l-59 -444q-13 -96 -52 -139q-36 -35 -101 -35q-16 0 -26.5 1.5z" />
    <glyph glyph-name="uni0197" unicode="&#x197;" horiz-adv-x="247" 
d="M249 407l-6 -41h-102l-48 -365h-43l48 365h-104l5 41h104l37 278h43l-36 -278h102z" />
    <glyph glyph-name="uni019D" unicode="&#x19d;" horiz-adv-x="738" 
d="M-103 -172q-26 29 -23 70l41 -2q0 -23 15.5 -38.5t36.5 -15.5q25 0 46 19.5t24 42.5l103 781h24l90 -127l281 -425l21 -39l75 590h43l-90 -683h-13l-380 572l-21 41l-91 -712q-6 -50 -41.5 -76.5t-75.5 -26.5q-39 0 -65 29z" />
    <glyph glyph-name="Ohorn" unicode="&#x1a0;" horiz-adv-x="784" 
d="M685.5 551.5q34.5 -66.5 34.5 -149.5q0 -17 -4 -53l-2 -19q-13 -99 -65.5 -177.5t-132.5 -122.5t-173 -44q-86 0 -153 37.5t-104 104t-37 151.5q0 17 4 53l2 19q13 99 66.5 179t134.5 126t173 46q44 0 85 -11h36q30 0 50.5 19.5t24.5 47.5q2 25 -10 41l30 25
q19 -27 19 -59q0 -33 -19.5 -63.5t-54.5 -44.5q61 -39 95.5 -105.5zM676 351q3 24 3 46q0 76 -32 136.5t-89.5 94.5t-130.5 34q-81 0 -152.5 -41.5t-119.5 -113t-60 -158.5l-2 -19q-3 -24 -3 -47q0 -75 31.5 -134t88.5 -92t131 -33q82 0 154 40.5t119.5 111t58.5 156.5z" />
    <glyph glyph-name="ohorn" unicode="&#x1a1;" horiz-adv-x="559" 
d="M480.5 383q16.5 -42 16.5 -93q0 -22 -3 -45q-10 -75 -46.5 -132.5t-94 -89.5t-126.5 -32q-94 0 -149.5 58t-55.5 155q0 22 3 44q10 75 47 133.5t94.5 91t125.5 32.5q43 0 82 -14h31q33 0 54.5 23t21.5 54q0 19 -11 31l31 25q18 -26 18 -57q0 -37 -22.5 -69t-62.5 -45
q30 -28 46.5 -70zM334.5 57q48.5 28 80 79t39.5 117q3 20 3 39q0 80 -45 127.5t-122 47.5q-57 0 -105 -28t-79.5 -78.5t-40.5 -115.5q-3 -21 -3 -39q0 -81 45 -129t122 -48q57 0 105.5 28z" />
    <glyph glyph-name="Uhorn" unicode="&#x1af;" horiz-adv-x="705" 
d="M777 761q0 -28 -13.5 -55t-39.5 -45t-61 -19h-13l-50 -378q-9 -71 -43.5 -133.5t-94 -101.5t-139.5 -39q-103 0 -158.5 63.5t-55.5 163.5q0 24 3 49l44 339q1 6 1 16q0 40 -37 40q-29 0 -45 -26l-28 25q25 41 76 41q34 0 54.5 -19.5t20.5 -57.5q0 -14 -1 -21l-45 -339
q-3 -22 -3 -43q0 -84 45 -137.5t129 -53.5q69 0 119.5 34.5t80 88.5t37.5 113l55 418h48q33 0 54.5 23t21.5 54q0 19 -11 31l31 25q18 -24 18 -56z" />
    <glyph glyph-name="uhorn" unicode="&#x1b0;" horiz-adv-x="562" 
d="M453.5 36.5q10.5 5.5 14.5 12.5l30 -22q-12 -17 -30 -25.5t-35 -8.5q-37 0 -55 21.5t-14 61.5q-74 -83 -184 -83q-73 0 -107 35t-29 108l30 229q3 24 3 42q0 25 -5.5 42t-17.5 35l30 25q16 -20 26 -44.5t10 -50.5q0 -12 -1 -18l-31 -236q-2 -22 -2 -31q0 -98 101 -98
q54 0 95 26t87 79l50 364h43q33 0 54 23t21 54q0 18 -10 31l30 25q18 -24 18 -56q0 -28 -13.5 -55t-39.5 -45t-61 -19h-7l-51 -381q-1 -4 -1 -12q0 -34 31 -34q10 0 20.5 5.5z" />
    <glyph glyph-name="uni01C0" unicode="&#x1c0;" horiz-adv-x="244" 
d="M148 746h41l-109 -822h-40z" />
    <glyph glyph-name="uni01C1" unicode="&#x1c1;" horiz-adv-x="437" 
d="M340 746h41l-109 -822h-40zM148 746h41l-109 -822h-40z" />
    <glyph glyph-name="uni01C4" unicode="&#x1c4;" horiz-adv-x="1332" 
d="M124 -4l-39 4l87 652q-19 0 -30 -3t-20 -10q-16 -11 -21 -38l-37 2q7 44 35 67q25 21 77 21l251 -1q79 -2 138.5 -41t92 -106t32.5 -153q0 -33 -4 -61q-22 -172 -136.5 -254.5t-332.5 -82.5q-47 0 -93 4zM647 335q4 28 4 59q0 114 -61.5 181t-175.5 75h-202l-82 -614
q49 -4 106 -4q371 0 411 303zM1175 644h-334l5 40h402l-427 -603l41 -8q25 -4 84 -22q44 -13 67.5 -18.5t46.5 -5.5q63 0 126 51l25 -30q-41 -34 -76.5 -47.5t-76.5 -13.5q-35 0 -69 8t-80 24q-72 23 -110 30l-43 -60l-32 20zM1018 853l72 -85l94 85h55l-132 -121h-42
l-100 121h53z" />
    <glyph glyph-name="uni01C5" unicode="&#x1c5;" horiz-adv-x="1243" 
d="M124 -4l-39 4l87 652q-19 0 -30 -3t-20 -10q-16 -11 -21 -38l-37 2q7 44 35 67q25 21 77 21l251 -1q79 -2 138.5 -41t92 -106t32.5 -153q0 -33 -4 -61q-22 -172 -136.5 -254.5t-332.5 -82.5q-47 0 -93 4zM647 335q4 28 4 59q0 114 -61.5 181t-175.5 75h-202l-82 -614
q49 -4 106 -4q371 0 411 303zM1082 456h-260l5 39h333v-4l-328 -412l82 -32q51 -20 108 -20q25 0 46 7t53 26l16 -34q-32 -21 -57.5 -29.5t-57.5 -8.5q-54 0 -118 22l-99 34l-48 -60l-30 25zM906 696h48l70 -95l95 95h50l-128 -131h-43z" />
    <glyph glyph-name="uni01C6" unicode="&#x1c6;" horiz-adv-x="1045" 
d="M69.5 49q-45.5 58 -45.5 150q0 25 3 50q15 116 86.5 186t180.5 70q34 0 69.5 -4t54.5 -8l32 235h41l-86 -651q-1 -4 -1 -12q0 -34 31 -34q10 0 20.5 5.5t14.5 12.5l30 -22q-12 -17 -30 -25.5t-35 -8.5q-37 0 -55 21.5t-14 61.5q-24 -35 -69.5 -60t-95.5 -25
q-86 0 -131.5 58zM289 53.5q41 24.5 65 65.5q20 30 25 68l36 267q-41 13 -102 13q-112 0 -172.5 -61.5t-73.5 -160.5q-3 -22 -3 -45q0 -76 35 -123.5t103 -47.5q46 0 87 24.5zM890 456h-260l5 39h333v-4l-328 -412l82 -32q51 -20 108 -20q25 0 46 7t53 26l16 -34
q-32 -21 -57.5 -29.5t-57.5 -8.5q-54 0 -118 22l-99 34l-48 -60l-30 25zM714 696h48l70 -95l95 95h50l-128 -131h-43z" />
    <glyph glyph-name="uni01C7" unicode="&#x1c7;" horiz-adv-x="1043" 
d="M140 685h40l-84 -644h345l-5 -40h-386zM557.5 42.5q-36.5 48.5 -30.5 121.5l39 -6q-1 -6 -1 -17q0 -49 32 -78t89 -29q77 0 116.5 46.5t47.5 108.5l61 454q-24 -22 -66 -22q-23 0 -41 5.5t-40 17.5q-13 5 -27 9.5t-27 4.5q-15 0 -28.5 -4t-27.5 -9.5t-22 -8.5l-15 36
q42 15 59.5 20t35.5 5q30 0 82 -24q35 -13 54 -13q17 0 36 8.5t27 20.5l46 -1l-67 -504q-11 -82 -63 -136t-145 -54q-88 0 -124.5 48.5z" />
    <glyph glyph-name="uni01C8" unicode="&#x1c8;" horiz-adv-x="751" 
d="M140 685h40l-84 -644h345l-5 -40h-386zM411 -223l35 21q15 -22 35 -22q19 0 33.5 15t16.5 37l89 672h41l-89 -674q-5 -40 -31 -65t-61 -25q-45 0 -69 41zM629.5 584q-8.5 9 -8.5 23q0 17 10.5 28.5t26.5 11.5q14 0 23.5 -9t9.5 -23q0 -17 -11 -28.5t-27 -11.5
q-15 0 -23.5 9z" />
    <glyph glyph-name="uni01C9" unicode="&#x1c9;" horiz-adv-x="452" 
d="M76 63q0 -18 9 -26.5t23 -8.5q17 0 32 17l28 -24q-25 -31 -63 -31q-31 0 -50 19t-19 52q0 11 1 17l85 649h41l-86 -652q-1 -4 -1 -12zM121 -223l35 21q15 -22 35 -22q19 0 33.5 15t16.5 37l89 672h41l-89 -674q-5 -40 -31 -65t-61 -25q-45 0 -69 41zM339.5 584
q-8.5 9 -8.5 23q0 17 10.5 28.5t26.5 11.5q14 0 23.5 -9t9.5 -23q0 -17 -11 -28.5t-27 -11.5q-15 0 -23.5 9z" />
    <glyph glyph-name="uni01CA" unicode="&#x1ca;" horiz-adv-x="1298" 
d="M-18 16l39 25q5 -6 13 -10.5t14 -4.5q17 0 31 12.5t17 32.5l81 614h26l91 -125l263 -418l22 -45l75 587h43l-90 -683h-6l-370 572l-24 45l-69 -549q-5 -41 -31.5 -63.5t-61.5 -22.5q-39 0 -63 33zM804.5 42.5q-36.5 48.5 -30.5 121.5l39 -6q-1 -6 -1 -17q0 -49 32 -78
t89 -29q77 0 116.5 46.5t47.5 108.5l61 454q-24 -22 -66 -22q-23 0 -41 5.5t-40 17.5q-13 5 -27 9.5t-27 4.5q-15 0 -28.5 -4t-27.5 -9.5t-22 -8.5l-15 36q42 15 59.5 20t35.5 5q30 0 82 -24q35 -13 54 -13q17 0 36 8.5t27 20.5l46 -1l-67 -504q-11 -82 -63 -136t-145 -54
q-88 0 -124.5 48.5z" />
    <glyph glyph-name="uni01CB" unicode="&#x1cb;" horiz-adv-x="996" 
d="M-18 16l39 25q5 -6 13 -10.5t14 -4.5q17 0 31 12.5t17 32.5l81 614h26l91 -125l263 -418l22 -45l75 587h43l-90 -683h-6l-370 572l-24 45l-69 -549q-5 -41 -31.5 -63.5t-61.5 -22.5q-39 0 -63 33zM648 -223l35 21q15 -22 35 -22q19 0 33.5 15t16.5 37l89 672h41l-89 -674
q-5 -40 -31 -65t-61 -25q-45 0 -69 41zM866.5 584q-8.5 9 -8.5 23q0 17 10.5 28.5t26.5 11.5q14 0 23.5 -9t9.5 -23q0 -17 -11 -28.5t-27 -11.5q-15 0 -23.5 9z" />
    <glyph glyph-name="uni01CC" unicode="&#x1cc;" horiz-adv-x="798" 
d="M504 21q-25 -31 -63 -31q-32 0 -51 19.5t-19 53.5q0 10 1 15l34 260q2 12 2 33q0 96 -99 96q-49 0 -93 -25.5t-94 -84.5l-47 -357h-41l48 361q3 23 3 40q0 25 -5.5 43t-17.5 36l29 25q19 -21 28.5 -48.5t7.5 -55.5q40 55 85 79.5t103 24.5q66 0 101.5 -31.5t35.5 -89.5
q0 -9 -2 -27l-38 -282q-3 -24 6 -35.5t25 -11.5q18 0 33 17zM456 -223l35 21q15 -22 35 -22q19 0 33.5 15t16.5 37l89 672h41l-89 -674q-5 -40 -31 -65t-61 -25q-45 0 -69 41zM674.5 584q-8.5 9 -8.5 23q0 17 10.5 28.5t26.5 11.5q14 0 23.5 -9t9.5 -23q0 -17 -11 -28.5
t-27 -11.5q-15 0 -23.5 9z" />
    <glyph glyph-name="uni01CD" unicode="&#x1cd;" horiz-adv-x="752" 
d="M13 8q-18 17 -23 46l38 4q2 -11 11.5 -19t21.5 -8q13 0 24.5 9t16.5 19l341 633h8l189 -691h-43l-63 233h-295l-101 -193q-13 -25 -33.5 -37.5t-45.5 -12.5q-28 0 -46 17zM521 274l-73 288l-10 63l-27 -65l-150 -286h260zM385 853l72 -85l94 85h55l-132 -121h-42
l-100 121h53z" />
    <glyph glyph-name="uni01CE" unicode="&#x1ce;" horiz-adv-x="581" 
d="M500 27q-12 -17 -30 -25.5t-35 -8.5q-36 0 -54 21t-16 60q-26 -39 -69.5 -61t-95.5 -22q-87 0 -131.5 56.5t-44.5 147.5q0 25 3 52q15 117 86.5 187.5t180.5 70.5q54 0 117 -9h49l-55 -419q-1 -4 -1 -12q0 -34 31 -34q10 0 20.5 5.5t14.5 12.5zM416 460q-16 -1 -71 3
l-57 2q-93 0 -150.5 -62.5t-70.5 -157.5q-3 -21 -3 -41q0 -74 35 -123.5t103 -49.5q48 0 88.5 24.5t63.5 63.5q19 29 25 68zM177 695h48l70 -95l95 95h50l-128 -131h-43z" />
    <glyph glyph-name="uni01CF" unicode="&#x1cf;" horiz-adv-x="255" 
d="M140 685h43l-90 -684h-43zM120 882l51 -95l76 95h50l-109 -131h-42l-72 131h46z" />
    <glyph glyph-name="uni01D0" unicode="&#x1d0;" horiz-adv-x="239" 
d="M75 63q0 -18 9 -26.5t23 -8.5q17 0 32 17l28 -24q-25 -31 -63 -31q-31 0 -50 19t-19 52q0 11 1 17l55 422h41l-56 -425q-1 -4 -1 -12zM73 696l51 -95l76 95h50l-109 -131h-42l-72 131h46z" />
    <glyph glyph-name="uni01D1" unicode="&#x1d1;" horiz-adv-x="808" 
d="M190 23.5q-67 37.5 -104 104t-37 151.5q0 17 4 53l2 19q13 99 66.5 179t134.5 126t173 46q85 0 151 -38.5t103 -107t37 -154.5q0 -17 -4 -53l-2 -19q-13 -99 -65.5 -177.5t-132.5 -122.5t-173 -44q-86 0 -153 37.5zM495 64.5q72 40.5 119.5 111t58.5 156.5l3 19
q3 24 3 46q0 76 -32 136.5t-89.5 94.5t-130.5 34q-81 0 -152.5 -41.5t-119.5 -113t-60 -158.5l-2 -19q-3 -24 -3 -47q0 -75 31.5 -134t88.5 -92t131 -33q82 0 154 40.5zM367 862l72 -85l94 85h55l-132 -121h-42l-100 121h53z" />
    <glyph glyph-name="uni01D2" unicode="&#x1d2;" horiz-adv-x="576" 
d="M77.5 49q-55.5 58 -55.5 155q0 22 3 44q10 75 47 133.5t94.5 91t125.5 32.5q93 0 149 -59t56 -157q0 -21 -3 -44q-10 -75 -46.5 -132.5t-94 -89.5t-126.5 -32q-94 0 -149.5 58zM334.5 57q48.5 28 80 79t39.5 117q3 20 3 39q0 80 -45 127.5t-122 47.5q-57 0 -105 -28
t-79.5 -78.5t-40.5 -115.5q-3 -21 -3 -39q0 -81 45 -129t122 -48q57 0 105.5 28zM188 700h48l70 -95l95 95h50l-128 -131h-43z" />
    <glyph glyph-name="uni01D3" unicode="&#x1d3;" horiz-adv-x="727" 
d="M164.5 53.5q-55.5 63.5 -55.5 163.5q0 24 3 49l44 339q1 6 1 16q0 40 -37 40q-29 0 -45 -26l-28 25q25 41 76 41q34 0 54.5 -19.5t20.5 -57.5q0 -14 -1 -21l-45 -339q-3 -22 -3 -43q0 -84 45 -137.5t129 -53.5q69 0 119.5 34.5t80 88.5t37.5 113l55 418h41l-56 -420
q-9 -71 -43.5 -133.5t-94 -101.5t-139.5 -39q-103 0 -158.5 63.5zM342 853l72 -85l94 85h55l-132 -121h-42l-100 121h53z" />
    <glyph glyph-name="uni01D4" unicode="&#x1d4;" horiz-adv-x="579" 
d="M180 -7q-73 0 -107 35t-29 108l30 229q3 24 3 42q0 25 -5.5 42t-17.5 35l30 25q16 -20 26 -44.5t10 -50.5q0 -12 -1 -18l-31 -236q-2 -22 -2 -31q0 -98 101 -98q54 0 95 26t87 79l50 364h41l-57 -423q-1 -4 -1 -12q0 -34 31 -34q10 0 20.5 5.5t14.5 12.5l30 -22
q-12 -17 -30 -25.5t-35 -8.5q-37 0 -55 21.5t-14 61.5q-74 -83 -184 -83zM164 697h48l70 -95l95 95h50l-128 -131h-43z" />
    <glyph glyph-name="uni01D5" unicode="&#x1d5;" horiz-adv-x="727" 
d="M164.5 53.5q-55.5 63.5 -55.5 163.5q0 24 3 49l44 339q1 6 1 16q0 40 -37 40q-29 0 -45 -26l-28 25q25 41 76 41q34 0 54.5 -19.5t20.5 -57.5q0 -14 -1 -21l-45 -339q-3 -22 -3 -43q0 -84 45 -137.5t129 -53.5q69 0 119.5 34.5t80 88.5t37.5 113l55 418h41l-56 -420
q-9 -71 -43.5 -133.5t-94 -101.5t-139.5 -39q-103 0 -158.5 63.5zM279.5 740q-8.5 9 -8.5 23q0 17 10.5 28.5t26.5 11.5q14 0 23.5 -9t9.5 -23q0 -17 -11 -28.5t-27 -11.5q-15 0 -23.5 9zM494.5 740q-8.5 9 -8.5 23q0 17 10.5 28.5t26.5 11.5q14 0 23.5 -9t9.5 -23
q0 -17 -11 -28.5t-27 -11.5q-15 0 -23.5 9zM306 901h251l-6 -41h-251z" />
    <glyph glyph-name="uni01D6" unicode="&#x1d6;" horiz-adv-x="579" 
d="M180 -7q-73 0 -107 35t-29 108l30 229q3 24 3 42q0 25 -5.5 42t-17.5 35l30 25q16 -20 26 -44.5t10 -50.5q0 -12 -1 -18l-31 -236q-2 -22 -2 -31q0 -98 101 -98q54 0 95 26t87 79l50 364h41l-57 -423q-1 -4 -1 -12q0 -34 31 -34q10 0 20.5 5.5t14.5 12.5l30 -22
q-12 -17 -30 -25.5t-35 -8.5q-37 0 -55 21.5t-14 61.5q-74 -83 -184 -83zM148.5 575q-8.5 9 -8.5 23q0 17 10.5 28.5t26.5 11.5q14 0 23.5 -9t9.5 -23q0 -17 -11 -28.5t-27 -11.5q-15 0 -23.5 9zM363.5 575q-8.5 9 -8.5 23q0 17 10.5 28.5t26.5 11.5q14 0 23.5 -9t9.5 -23
q0 -17 -11 -28.5t-27 -11.5q-15 0 -23.5 9zM175 741h251l-6 -41h-251z" />
    <glyph glyph-name="uni01D7" unicode="&#x1d7;" horiz-adv-x="727" 
d="M164.5 53.5q-55.5 63.5 -55.5 163.5q0 24 3 49l44 339q1 6 1 16q0 40 -37 40q-29 0 -45 -26l-28 25q25 41 76 41q34 0 54.5 -19.5t20.5 -57.5q0 -14 -1 -21l-45 -339q-3 -22 -3 -43q0 -84 45 -137.5t129 -53.5q69 0 119.5 34.5t80 88.5t37.5 113l55 418h41l-56 -420
q-9 -71 -43.5 -133.5t-94 -101.5t-139.5 -39q-103 0 -158.5 63.5zM279.5 740q-8.5 9 -8.5 23q0 17 10.5 28.5t26.5 11.5q14 0 23.5 -9t9.5 -23q0 -17 -11 -28.5t-27 -11.5q-15 0 -23.5 9zM494.5 740q-8.5 9 -8.5 23q0 17 10.5 28.5t26.5 11.5q14 0 23.5 -9t9.5 -23
q0 -17 -11 -28.5t-27 -11.5q-15 0 -23.5 9zM411 878l169 105l20 -40l-179 -89z" />
    <glyph glyph-name="uni01D8" unicode="&#x1d8;" horiz-adv-x="579" 
d="M180 -7q-73 0 -107 35t-29 108l30 229q3 24 3 42q0 25 -5.5 42t-17.5 35l30 25q16 -20 26 -44.5t10 -50.5q0 -12 -1 -18l-31 -236q-2 -22 -2 -31q0 -98 101 -98q54 0 95 26t87 79l50 364h41l-57 -423q-1 -4 -1 -12q0 -34 31 -34q10 0 20.5 5.5t14.5 12.5l30 -22
q-12 -17 -30 -25.5t-35 -8.5q-37 0 -55 21.5t-14 61.5q-74 -83 -184 -83zM148.5 575q-8.5 9 -8.5 23q0 17 10.5 28.5t26.5 11.5q14 0 23.5 -9t9.5 -23q0 -17 -11 -28.5t-27 -11.5q-15 0 -23.5 9zM363.5 575q-8.5 9 -8.5 23q0 17 10.5 28.5t26.5 11.5q14 0 23.5 -9t9.5 -23
q0 -17 -11 -28.5t-27 -11.5q-15 0 -23.5 9zM280 715l131 154l32 -29l-146 -143z" />
    <glyph glyph-name="uni01D9" unicode="&#x1d9;" horiz-adv-x="727" 
d="M164.5 53.5q-55.5 63.5 -55.5 163.5q0 24 3 49l44 339q1 6 1 16q0 40 -37 40q-29 0 -45 -26l-28 25q25 41 76 41q34 0 54.5 -19.5t20.5 -57.5q0 -14 -1 -21l-45 -339q-3 -22 -3 -43q0 -84 45 -137.5t129 -53.5q69 0 119.5 34.5t80 88.5t37.5 113l55 418h41l-56 -420
q-9 -71 -43.5 -133.5t-94 -101.5t-139.5 -39q-103 0 -158.5 63.5zM279.5 740q-8.5 9 -8.5 23q0 17 10.5 28.5t26.5 11.5q14 0 23.5 -9t9.5 -23q0 -17 -11 -28.5t-27 -11.5q-15 0 -23.5 9zM494.5 740q-8.5 9 -8.5 23q0 17 10.5 28.5t26.5 11.5q14 0 23.5 -9t9.5 -23
q0 -17 -11 -28.5t-27 -11.5q-15 0 -23.5 9zM356 969l72 -85l94 85h55l-132 -121h-42l-100 121h53z" />
    <glyph glyph-name="uni01DA" unicode="&#x1da;" horiz-adv-x="579" 
d="M180 -7q-73 0 -107 35t-29 108l30 229q3 24 3 42q0 25 -5.5 42t-17.5 35l30 25q16 -20 26 -44.5t10 -50.5q0 -12 -1 -18l-31 -236q-2 -22 -2 -31q0 -98 101 -98q54 0 95 26t87 79l50 364h41l-57 -423q-1 -4 -1 -12q0 -34 31 -34q10 0 20.5 5.5t14.5 12.5l30 -22
q-12 -17 -30 -25.5t-35 -8.5q-37 0 -55 21.5t-14 61.5q-74 -83 -184 -83zM148.5 575q-8.5 9 -8.5 23q0 17 10.5 28.5t26.5 11.5q14 0 23.5 -9t9.5 -23q0 -17 -11 -28.5t-27 -11.5q-15 0 -23.5 9zM363.5 575q-8.5 9 -8.5 23q0 17 10.5 28.5t26.5 11.5q14 0 23.5 -9t9.5 -23
q0 -17 -11 -28.5t-27 -11.5q-15 0 -23.5 9zM180 830h48l70 -95l95 95h50l-128 -131h-43z" />
    <glyph glyph-name="uni01DB" unicode="&#x1db;" horiz-adv-x="727" 
d="M164.5 53.5q-55.5 63.5 -55.5 163.5q0 24 3 49l44 339q1 6 1 16q0 40 -37 40q-29 0 -45 -26l-28 25q25 41 76 41q34 0 54.5 -19.5t20.5 -57.5q0 -14 -1 -21l-45 -339q-3 -22 -3 -43q0 -84 45 -137.5t129 -53.5q69 0 119.5 34.5t80 88.5t37.5 113l55 418h41l-56 -420
q-9 -71 -43.5 -133.5t-94 -101.5t-139.5 -39q-103 0 -158.5 63.5zM279.5 740q-8.5 9 -8.5 23q0 17 10.5 28.5t26.5 11.5q14 0 23.5 -9t9.5 -23q0 -17 -11 -28.5t-27 -11.5q-15 0 -23.5 9zM494.5 740q-8.5 9 -8.5 23q0 17 10.5 28.5t26.5 11.5q14 0 23.5 -9t9.5 -23
q0 -17 -11 -28.5t-27 -11.5q-15 0 -23.5 9zM269 938l29 39l139 -110l-16 -24z" />
    <glyph glyph-name="uni01DC" unicode="&#x1dc;" horiz-adv-x="579" 
d="M180 -7q-73 0 -107 35t-29 108l30 229q3 24 3 42q0 25 -5.5 42t-17.5 35l30 25q16 -20 26 -44.5t10 -50.5q0 -12 -1 -18l-31 -236q-2 -22 -2 -31q0 -98 101 -98q54 0 95 26t87 79l50 364h41l-57 -423q-1 -4 -1 -12q0 -34 31 -34q10 0 20.5 5.5t14.5 12.5l30 -22
q-12 -17 -30 -25.5t-35 -8.5q-37 0 -55 21.5t-14 61.5q-74 -83 -184 -83zM148.5 575q-8.5 9 -8.5 23q0 17 10.5 28.5t26.5 11.5q14 0 23.5 -9t9.5 -23q0 -17 -11 -28.5t-27 -11.5q-15 0 -23.5 9zM363.5 575q-8.5 9 -8.5 23q0 17 10.5 28.5t26.5 11.5q14 0 23.5 -9t9.5 -23
q0 -17 -11 -28.5t-27 -11.5q-15 0 -23.5 9zM170 827l35 33l106 -144l-19 -20z" />
    <glyph glyph-name="uni01DE" unicode="&#x1de;" horiz-adv-x="752" 
d="M13 8q-18 17 -23 46l38 4q2 -11 11.5 -19t21.5 -8q13 0 24.5 9t16.5 19l341 633h8l189 -691h-43l-63 233h-295l-101 -193q-13 -25 -33.5 -37.5t-45.5 -12.5q-28 0 -46 17zM521 274l-73 288l-10 63l-27 -65l-150 -286h260zM322.5 740q-8.5 9 -8.5 23q0 17 10.5 28.5
t26.5 11.5q14 0 23.5 -9t9.5 -23q0 -17 -11 -28.5t-27 -11.5q-15 0 -23.5 9zM537.5 740q-8.5 9 -8.5 23q0 17 10.5 28.5t26.5 11.5q14 0 23.5 -9t9.5 -23q0 -17 -11 -28.5t-27 -11.5q-15 0 -23.5 9zM348 901h251l-6 -41h-251z" />
    <glyph glyph-name="uni01DF" unicode="&#x1df;" horiz-adv-x="581" 
d="M500 27q-12 -17 -30 -25.5t-35 -8.5q-36 0 -54 21t-16 60q-26 -39 -69.5 -61t-95.5 -22q-87 0 -131.5 56.5t-44.5 147.5q0 25 3 52q15 117 86.5 187.5t180.5 70.5q54 0 117 -9h49l-55 -419q-1 -4 -1 -12q0 -34 31 -34q10 0 20.5 5.5t14.5 12.5zM416 460q-16 -1 -71 3
l-57 2q-93 0 -150.5 -62.5t-70.5 -157.5q-3 -21 -3 -41q0 -74 35 -123.5t103 -49.5q48 0 88.5 24.5t63.5 63.5q19 29 25 68zM161.5 573q-8.5 9 -8.5 23q0 17 10.5 28.5t26.5 11.5q14 0 23.5 -9t9.5 -23q0 -17 -11 -28.5t-27 -11.5q-15 0 -23.5 9zM376.5 573q-8.5 9 -8.5 23
q0 17 10.5 28.5t26.5 11.5q14 0 23.5 -9t9.5 -23q0 -17 -11 -28.5t-27 -11.5q-15 0 -23.5 9zM188 739h251l-6 -41h-251z" />
    <glyph glyph-name="uni01E0" unicode="&#x1e0;" horiz-adv-x="752" 
d="M13 8q-18 17 -23 46l38 4q2 -11 11.5 -19t21.5 -8q13 0 24.5 9t16.5 19l341 633h8l189 -691h-43l-63 233h-295l-101 -193q-13 -25 -33.5 -37.5t-45.5 -12.5q-28 0 -46 17zM521 274l-73 288l-10 63l-27 -65l-150 -286h260zM431.5 746q-8.5 9 -8.5 23q0 17 10.5 28.5
t26.5 11.5q14 0 23.5 -9t9.5 -23q0 -17 -11 -28.5t-27 -11.5q-15 0 -23.5 9zM349 901h251l-6 -41h-251z" />
    <glyph glyph-name="uni01E1" unicode="&#x1e1;" horiz-adv-x="581" 
d="M500 27q-12 -17 -30 -25.5t-35 -8.5q-36 0 -54 21t-16 60q-26 -39 -69.5 -61t-95.5 -22q-87 0 -131.5 56.5t-44.5 147.5q0 25 3 52q15 117 86.5 187.5t180.5 70.5q54 0 117 -9h49l-55 -419q-1 -4 -1 -12q0 -34 31 -34q10 0 20.5 5.5t14.5 12.5zM416 460q-16 -1 -71 3
l-57 2q-93 0 -150.5 -62.5t-70.5 -157.5q-3 -21 -3 -41q0 -74 35 -123.5t103 -49.5q48 0 88.5 24.5t63.5 63.5q19 29 25 68zM272.5 584q-8.5 9 -8.5 23q0 17 10.5 28.5t26.5 11.5q14 0 23.5 -9t9.5 -23q0 -17 -11 -28.5t-27 -11.5q-15 0 -23.5 9zM191 753h251l-6 -41h-251z
" />
    <glyph glyph-name="uni01E2" unicode="&#x1e2;" horiz-adv-x="971" 
d="M2.5 8.5q-17.5 10.5 -27.5 30.5l37 16q5 -7 14.5 -12t19.5 -5q14 0 24 8.5t17.5 19t10.5 13.5l404 606h415l-6 -40h-346l-34 -261h246l-5 -40h-246l-40 -303h365l-5 -40h-406l30 234h-220l-111 -165q-6 -8 -24 -31t-34.5 -32t-37.5 -9q-23 0 -40.5 10.5zM476 275l49 381
l-37 -60l-213 -321h201zM471 793h251l-6 -41h-251z" />
    <glyph glyph-name="uni01E3" unicode="&#x1e3;" horiz-adv-x="791" 
d="M36 20.5q-37 29.5 -37 85.5q0 88 62.5 127t158.5 39h104l9 66q3 21 3 37q0 40 -16 62q-25 30 -75 30q-38 0 -79.5 -14.5t-75.5 -39.5l-17 33q34 27 80.5 43t89.5 16q35 0 55.5 -7t36.5 -23q19 -17 27.5 -40t9.5 -55q37 65 86 97q23 15 46.5 21.5t52.5 6.5
q70 0 113.5 -35.5t43.5 -95.5q0 -14 -1 -21q-10 -74 -73.5 -111t-156.5 -37l-125 -1q-3 -87 32.5 -131t114.5 -44q41 0 75 11t86 36l16 -32q-86 -53 -179 -53q-87 0 -129 44q-36 34 -48 97q-3 -7 -8.5 -27.5t-20.5 -42t-42 -39.5q-51 -32 -117 -32q-65 0 -102 29.5zM614 270
q51 26 59 88q1 6 1 17q0 46 -32.5 69t-79.5 23q-42 0 -76 -19.5t-59 -50.5q-28 -33 -45 -73.5t-21 -80.5l125 1q77 0 128 26zM254.5 69q48.5 40 56.5 107l8 59h-102q-76 0 -122 -25t-54 -86q-1 -7 -1 -19q0 -76 93 -76q73 0 121.5 40zM286 612h251l-6 -41h-251z" />
    <glyph glyph-name="Gcaron" unicode="&#x1e6;" horiz-adv-x="735" 
d="M649 335l-10 -83q-11 -81 -58 -143t-115 -95.5t-139 -33.5q-84 0 -147.5 39t-98 107t-34.5 152q0 18 4 54q13 99 66.5 183t135 133.5t174.5 49.5q46 0 93 -11.5t79.5 -39t32.5 -71.5q0 -45 -26 -74t-64 -29q-16 0 -28 5.5t-18 13.5l28 31q6 -9 20 -9q19 0 33.5 18.5
t14.5 41.5q0 44 -54 64t-112 20q-81 0 -154 -45.5t-121.5 -122t-59.5 -163.5q-3 -24 -3 -47q0 -74 30.5 -133t85 -93t125.5 -34q63 0 122 31.5t99 85t48 115.5l5 41h-241l5 42h282zM366 852l72 -85l94 85h55l-132 -121h-42l-100 121h53z" />
    <glyph glyph-name="gcaron" unicode="&#x1e7;" horiz-adv-x="547" 
d="M128.5 -249q-33.5 36 -33.5 93q0 15 1 23q11 84 78 126q-68 9 -110 67.5t-42 143.5q0 23 3 45q10 73 48 131.5t95.5 92t124.5 33.5q37 0 60 -3l61 -7h48l-83 -629q-9 -68 -54 -110t-108 -42q-55 0 -88.5 36zM250 41.5q28 11.5 54 32.5q31 24 51.5 52.5t23.5 51.5l38 284
l-100 6h-31q-53 0 -101 -29t-80 -80t-40 -114q-2 -12 -2 -36q0 -50 17 -91t47.5 -64.5t69.5 -23.5q25 0 53 11.5zM298 -214.5q31 32.5 42 91.5l29 216q-24 -35 -65 -67q-16 -12 -64 -38q-29 -15 -32 -18q-34 -22 -51.5 -46.5t-21.5 -58.5q-1 -6 -1 -18q0 -41 25 -67.5
t64 -26.5q44 0 75 32.5zM185 708h48l70 -95l95 95h50l-128 -131h-43z" />
    <glyph glyph-name="uni01E8" unicode="&#x1e8;" horiz-adv-x="690" 
d="M158 621q0 40 -37 40q-29 0 -45 -26l-28 25q25 41 76 41q35 0 55 -20t20 -59q0 -12 -1 -19l-32 -240h54q37 0 69 16q18 7 31 17t25 26q48 52 85 111q40 57 96 153l51 -2q-62 -96 -106 -161l-13 -20q-36 -52 -63 -88q-6 -6 -19.5 -22.5t-23.5 -25t-22 -17.5l164 -298
q4 -8 12.5 -13.5t18.5 -5.5q17 0 32 13l30 -25q-13 -14 -31 -21t-35 -7q-39 0 -60 38l-171 307q-50 -15 -86 -15q-12 0 -22 1t-18 1l-43 -323h-43l79 603q1 6 1 16zM284 853l72 -85l94 85h55l-132 -121h-42l-100 121h53z" />
    <glyph glyph-name="uni01E9" unicode="&#x1e9;" horiz-adv-x="550" 
d="M166 728l-47 -349q31 63 78.5 96t104.5 33q60 0 94.5 -34t34.5 -91q0 -117 -116 -166l68 -159q9 -27 30 -27q18 0 30 14l26 -27q-16 -14 -28.5 -20t-29.5 -6q-22 0 -37.5 9.5t-24.5 31.5l-75 173h-177l-27 -206h-41l96 728h41zM307 260q40 15 63.5 47t23.5 74
q0 39 -25 64t-70 25q-54 0 -99.5 -37.5t-72.5 -103.5q-19 -47 -23 -85l121 1q52 0 82 15zM83 897l72 -85l94 85h55l-132 -121h-42l-100 121h53z" />
    <glyph glyph-name="uni01EA" unicode="&#x1ea;" horiz-adv-x="784" 
d="M656.5 164.5q-45.5 -74.5 -115.5 -120.5q-50 -47 -68 -69.5t-18 -45.5q0 -20 13 -29.5t29 -9.5q22 0 51 19l15 -35q-17 -11 -39.5 -17.5t-41.5 -6.5q-33 0 -51.5 19t-18.5 51q0 25 8.5 44t28.5 38q-54 -16 -106 -16q-86 0 -153 37.5t-104 104t-37 151.5q0 17 4 53l2 19
q13 99 66.5 179t134.5 126t173 46q85 0 151 -38.5t103 -107t37 -154.5q0 -17 -4 -53l-2 -19q-12 -91 -57.5 -165.5zM495 64.5q72 40.5 119.5 111t58.5 156.5l3 19q3 24 3 46q0 76 -32 136.5t-89.5 94.5t-130.5 34q-81 0 -152.5 -41.5t-119.5 -113t-60 -158.5l-2 -19
q-3 -24 -3 -47q0 -75 31.5 -134t88.5 -92t131 -33q82 0 154 40.5z" />
    <glyph glyph-name="uni01EB" unicode="&#x1eb;" horiz-adv-x="559" 
d="M388 -95l16 -35q-18 -11 -40.5 -17.5t-41.5 -6.5q-33 0 -51.5 19t-18.5 52q0 24 8.5 43t28.5 40q-28 -9 -62 -9q-94 0 -149.5 58t-55.5 155q0 22 3 44q10 75 47 133.5t94.5 91t125.5 32.5q93 0 149 -59t56 -157q0 -21 -3 -44q-9 -66 -38 -118.5t-75 -86.5
q-51 -47 -68.5 -70t-17.5 -46q0 -20 13.5 -29t28.5 -9q22 0 51 19zM62 206q0 -81 45 -129t122 -48q57 0 105.5 28t80 79t39.5 117q3 20 3 39q0 80 -45 127.5t-122 47.5q-57 0 -105 -28t-79.5 -78.5t-40.5 -115.5q-3 -21 -3 -39z" />
    <glyph glyph-name="uni01EC" unicode="&#x1ec;" horiz-adv-x="784" 
d="M567 794l-5 -41h-251l5 41h251zM656.5 164.5q-45.5 -74.5 -115.5 -120.5q-50 -47 -68 -69.5t-18 -45.5q0 -20 13 -29.5t29 -9.5q22 0 51 19l15 -35q-17 -11 -39.5 -17.5t-41.5 -6.5q-33 0 -51.5 19t-18.5 51q0 25 8.5 44t28.5 38q-54 -16 -106 -16q-86 0 -153 37.5
t-104 104t-37 151.5q0 17 4 53l2 19q13 99 66.5 179t134.5 126t173 46q85 0 151 -38.5t103 -107t37 -154.5q0 -17 -4 -53l-2 -19q-12 -91 -57.5 -165.5zM495 64.5q72 40.5 119.5 111t58.5 156.5l3 19q3 24 3 46q0 76 -32 136.5t-89.5 94.5t-130.5 34q-81 0 -152.5 -41.5
t-119.5 -113t-60 -158.5l-2 -19q-3 -24 -3 -47q0 -75 31.5 -134t88.5 -92t131 -33q82 0 154 40.5z" />
    <glyph glyph-name="uni01ED" unicode="&#x1ed;" horiz-adv-x="559" 
d="M433 611l-6 -41h-251l5 41h252zM388 -95l16 -35q-18 -11 -40.5 -17.5t-41.5 -6.5q-33 0 -51.5 19t-18.5 52q0 24 8.5 43t28.5 40q-28 -9 -62 -9q-94 0 -149.5 58t-55.5 155q0 22 3 44q10 75 47 133.5t94.5 91t125.5 32.5q93 0 149 -59t56 -157q0 -21 -3 -44
q-9 -66 -38 -118.5t-75 -86.5q-51 -47 -68.5 -70t-17.5 -46q0 -20 13.5 -29t28.5 -9q22 0 51 19zM62 206q0 -81 45 -129t122 -48q57 0 105.5 28t80 79t39.5 117q3 20 3 39q0 80 -45 127.5t-122 47.5q-57 0 -105 -28t-79.5 -78.5t-40.5 -115.5q-3 -21 -3 -39z" />
    <glyph glyph-name="uni01F0" unicode="&#x1f0;" horiz-adv-x="212" 
d="M-112 -223l35 21q15 -22 35 -22q19 0 33.5 15t16.5 37l89 672h41l-89 -674q-5 -40 -31 -65t-61 -25q-45 0 -69 41zM11 695h48l70 -95l95 95h50l-128 -131h-43z" />
    <glyph glyph-name="uni01F1" unicode="&#x1f1;" horiz-adv-x="1332" 
d="M124 -4l-39 4l87 652q-19 0 -30 -3t-20 -10q-16 -11 -21 -38l-37 2q7 44 35 67q25 21 77 21l251 -1q79 -2 138.5 -41t92 -106t32.5 -153q0 -33 -4 -61q-22 -172 -136.5 -254.5t-332.5 -82.5q-47 0 -93 4zM647 335q4 28 4 59q0 114 -61.5 181t-175.5 75h-202l-82 -614
q49 -4 106 -4q371 0 411 303zM1175 644h-334l5 40h402l-427 -603l41 -8q25 -4 84 -22q44 -13 67.5 -18.5t46.5 -5.5q63 0 126 51l25 -30q-41 -34 -76.5 -47.5t-76.5 -13.5q-35 0 -69 8t-80 24q-72 23 -110 30l-43 -60l-32 20z" />
    <glyph glyph-name="uni01F2" unicode="&#x1f2;" horiz-adv-x="1243" 
d="M124 -4l-39 4l87 652q-19 0 -30 -3t-20 -10q-16 -11 -21 -38l-37 2q7 44 35 67q25 21 77 21l251 -1q79 -2 138.5 -41t92 -106t32.5 -153q0 -33 -4 -61q-22 -172 -136.5 -254.5t-332.5 -82.5q-47 0 -93 4zM647 335q4 28 4 59q0 114 -61.5 181t-175.5 75h-202l-82 -614
q49 -4 106 -4q371 0 411 303zM1082 456h-260l5 39h333v-4l-328 -412l82 -32q51 -20 108 -20q25 0 46 7t53 26l16 -34q-32 -21 -57.5 -29.5t-57.5 -8.5q-54 0 -118 22l-99 34l-48 -60l-30 25z" />
    <glyph glyph-name="uni01F3" unicode="&#x1f3;" horiz-adv-x="1045" 
d="M69.5 49q-45.5 58 -45.5 150q0 25 3 50q15 116 86.5 186t180.5 70q34 0 69.5 -4t54.5 -8l32 235h41l-86 -651q-1 -4 -1 -12q0 -34 31 -34q10 0 20.5 5.5t14.5 12.5l30 -22q-12 -17 -30 -25.5t-35 -8.5q-37 0 -55 21.5t-14 61.5q-24 -35 -69.5 -60t-95.5 -25
q-86 0 -131.5 58zM289 53.5q41 24.5 65 65.5q20 30 25 68l36 267q-41 13 -102 13q-112 0 -172.5 -61.5t-73.5 -160.5q-3 -22 -3 -45q0 -76 35 -123.5t103 -47.5q46 0 87 24.5zM890 456h-260l5 39h333v-4l-328 -412l82 -32q51 -20 108 -20q25 0 46 7t53 26l16 -34
q-32 -21 -57.5 -29.5t-57.5 -8.5q-54 0 -118 22l-99 34l-48 -60l-30 25z" />
    <glyph glyph-name="uni01F4" unicode="&#x1f4;" horiz-adv-x="735" 
d="M649 335l-10 -83q-11 -81 -58 -143t-115 -95.5t-139 -33.5q-84 0 -147.5 39t-98 107t-34.5 152q0 18 4 54q13 99 66.5 183t135 133.5t174.5 49.5q46 0 93 -11.5t79.5 -39t32.5 -71.5q0 -45 -26 -74t-64 -29q-16 0 -28 5.5t-18 13.5l28 31q6 -9 20 -9q19 0 33.5 18.5
t14.5 41.5q0 44 -54 64t-112 20q-81 0 -154 -45.5t-121.5 -122t-59.5 -163.5q-3 -24 -3 -47q0 -74 30.5 -133t85 -93t125.5 -34q63 0 122 31.5t99 85t48 115.5l5 41h-241l5 42h282zM421 761l169 105l20 -40l-179 -89z" />
    <glyph glyph-name="uni01F5" unicode="&#x1f5;" horiz-adv-x="547" 
d="M128.5 -249q-33.5 36 -33.5 93q0 15 1 23q11 84 78 126q-68 9 -110 67.5t-42 143.5q0 23 3 45q10 73 48 131.5t95.5 92t124.5 33.5q37 0 60 -3l61 -7h48l-83 -629q-9 -68 -54 -110t-108 -42q-55 0 -88.5 36zM250 41.5q28 11.5 54 32.5q31 24 51.5 52.5t23.5 51.5l38 284
l-100 6h-31q-53 0 -101 -29t-80 -80t-40 -114q-2 -12 -2 -36q0 -50 17 -91t47.5 -64.5t69.5 -23.5q25 0 53 11.5zM298 -214.5q31 32.5 42 91.5l29 216q-24 -35 -65 -67q-16 -12 -64 -38q-29 -15 -32 -18q-34 -22 -51.5 -46.5t-21.5 -58.5q-1 -6 -1 -18q0 -41 25 -67.5
t64 -26.5q44 0 75 32.5zM285 593l131 154l32 -29l-146 -143z" />
    <glyph glyph-name="uni01F8" unicode="&#x1f8;" horiz-adv-x="784" 
d="M-18 16l39 25q5 -6 13 -10.5t14 -4.5q17 0 31 12.5t17 32.5l81 614h26l91 -125l263 -418l22 -45l75 587h43l-90 -683h-6l-370 572l-24 45l-69 -549q-5 -41 -31.5 -63.5t-61.5 -22.5q-39 0 -63 33zM301 831l29 39l139 -110l-16 -24z" />
    <glyph glyph-name="uni01F9" unicode="&#x1f9;" horiz-adv-x="586" 
d="M504 21q-25 -31 -63 -31q-32 0 -51 19.5t-19 53.5q0 10 1 15l34 260q2 12 2 33q0 96 -99 96q-49 0 -93 -25.5t-94 -84.5l-47 -357h-41l48 361q3 23 3 40q0 25 -5.5 43t-17.5 36l29 25q19 -21 28.5 -48.5t7.5 -55.5q40 55 85 79.5t103 24.5q66 0 101.5 -31.5t35.5 -89.5
q0 -9 -2 -27l-38 -282q-3 -24 6 -35.5t25 -11.5q18 0 33 17zM191 697l35 33l106 -144l-19 -20z" />
    <glyph glyph-name="Aringacute" unicode="&#x1fa;" horiz-adv-x="752" 
d="M13 8q-18 17 -23 46l38 4q2 -11 11.5 -19t21.5 -8q13 0 24.5 9t16.5 19l341 633h8l189 -691h-43l-63 233h-295l-101 -193q-13 -25 -33.5 -37.5t-45.5 -12.5q-28 0 -46 17zM521 274l-73 288l-10 63l-27 -65l-150 -286h260zM395 759q-22 22 -22 58q0 46 29.5 76t73.5 30
q37 0 59 -21.5t22 -56.5q0 -48 -30.5 -78t-73.5 -30q-36 0 -58 22zM501 790q22 23 22 50q0 22 -14 37t-34 15q-26 0 -46.5 -22.5t-20.5 -51.5q0 -23 13.5 -37t32.5 -14q25 0 47 23zM471 1001l169 105l20 -40l-179 -89z" />
    <glyph glyph-name="aringacute" unicode="&#x1fb;" horiz-adv-x="581" 
d="M500 27q-12 -17 -30 -25.5t-35 -8.5q-36 0 -54 21t-16 60q-26 -39 -69.5 -61t-95.5 -22q-87 0 -131.5 56.5t-44.5 147.5q0 25 3 52q15 117 86.5 187.5t180.5 70.5q54 0 117 -9h49l-55 -419q-1 -4 -1 -12q0 -34 31 -34q10 0 20.5 5.5t14.5 12.5zM416 460q-16 -1 -71 3
l-57 2q-93 0 -150.5 -62.5t-70.5 -157.5q-3 -21 -3 -41q0 -74 35 -123.5t103 -49.5q48 0 88.5 24.5t63.5 63.5q19 29 25 68zM243.5 584.5q-21.5 22.5 -21.5 59.5q0 49 29.5 81.5t75.5 32.5q39 0 61 -23t22 -60q0 -49 -31 -81t-76 -32q-38 0 -59.5 22.5zM354 617.5
q22 25.5 22 55.5q0 23 -14 38.5t-35 15.5q-28 0 -49.5 -24.5t-21.5 -56.5q0 -24 13.5 -39t34.5 -15q28 0 50 25.5zM310 830l131 154l32 -29l-146 -143z" />
    <glyph glyph-name="AEacute" unicode="&#x1fc;" horiz-adv-x="971" 
d="M2.5 8.5q-17.5 10.5 -27.5 30.5l37 16q5 -7 14.5 -12t19.5 -5q14 0 24 8.5t17.5 19t10.5 13.5l404 606h415l-6 -40h-346l-34 -261h246l-5 -40h-246l-40 -303h365l-5 -40h-406l30 234h-220l-111 -165q-6 -8 -24 -31t-34.5 -32t-37.5 -9q-23 0 -40.5 10.5zM476 275l49 381
l-37 -60l-213 -321h201zM576 770l169 105l20 -40l-179 -89z" />
    <glyph glyph-name="aeacute" unicode="&#x1fd;" horiz-adv-x="791" 
d="M36 20.5q-37 29.5 -37 85.5q0 88 62.5 127t158.5 39h104l9 66q3 21 3 37q0 40 -16 62q-25 30 -75 30q-38 0 -79.5 -14.5t-75.5 -39.5l-17 33q34 27 80.5 43t89.5 16q35 0 55.5 -7t36.5 -23q19 -17 27.5 -40t9.5 -55q37 65 86 97q23 15 46.5 21.5t52.5 6.5
q70 0 113.5 -35.5t43.5 -95.5q0 -14 -1 -21q-10 -74 -73.5 -111t-156.5 -37l-125 -1q-3 -87 32.5 -131t114.5 -44q41 0 75 11t86 36l16 -32q-86 -53 -179 -53q-87 0 -129 44q-36 34 -48 97q-3 -7 -8.5 -27.5t-20.5 -42t-42 -39.5q-51 -32 -117 -32q-65 0 -102 29.5zM614 270
q51 26 59 88q1 6 1 17q0 46 -32.5 69t-79.5 23q-42 0 -76 -19.5t-59 -50.5q-28 -33 -45 -73.5t-21 -80.5l125 1q77 0 128 26zM254.5 69q48.5 40 56.5 107l8 59h-102q-76 0 -122 -25t-54 -86q-1 -7 -1 -19q0 -76 93 -76q73 0 121.5 40zM391 586l131 154l32 -29l-146 -143z
" />
    <glyph glyph-name="Oslashacute" unicode="&#x1fe;" horiz-adv-x="808" 
d="M682 559q38 -69 38 -157q0 -17 -4 -53l-2 -19q-13 -99 -65.5 -177.5t-132.5 -122.5t-173 -44q-61 0 -111 18l-18 -32h-53l28 52q-65 36 -102.5 103t-37.5 152q0 17 4 53l2 19q13 99 66.5 179t134.5 126t173 46q56 0 104 -17l31 56h53l-40 -75q67 -38 105 -107zM90 282
q0 -74 30.5 -132t85.5 -90l310 587q-42 15 -89 15q-81 0 -152.5 -41.5t-119.5 -113t-60 -158.5l-2 -19q-3 -24 -3 -48zM676 351q3 24 3 46q0 76 -32 136.5t-89 93.5l-310 -587q41 -16 93 -16q82 0 154 40.5t119.5 111t58.5 156.5zM422 771l169 105l20 -40l-179 -89z" />
    <glyph glyph-name="oslashacute" unicode="&#x1ff;" horiz-adv-x="587" 
d="M86 43q-31 28 -47 69t-16 90q0 23 3 45q9 73 46.5 132t95.5 92.5t128 33.5q33 0 63.5 -8t52.5 -23l29 40l33 -23l-32 -39q65 -58 65 -159q0 -21 -3 -45q-11 -83 -52.5 -141t-99.5 -87.5t-120 -29.5q-66 0 -115 32l-29 -40l-33 23zM304 466q-94 0 -158.5 -61t-77.5 -163
q-3 -21 -3 -42q0 -78 42 -125l280 364q-25 27 -83 27zM336 56q49 27 83 79t44 123q3 21 3 40q0 79 -44 123l-282 -370q44 -22 94 -22q53 0 102 27zM286 584l131 154l32 -29l-146 -143z" />
    <glyph glyph-name="uni0200" unicode="&#x200;" horiz-adv-x="752" 
d="M13 8q-18 17 -23 46l38 4q2 -11 11.5 -19t21.5 -8q13 0 24.5 9t16.5 19l341 633h8l189 -691h-43l-63 233h-295l-101 -193q-13 -25 -33.5 -37.5t-45.5 -12.5q-28 0 -46 17zM521 274l-73 288l-10 63l-27 -65l-150 -286h260zM232 824l29 39l139 -110l-16 -24zM386 825l29 39
l139 -110l-16 -24z" />
    <glyph glyph-name="uni0201" unicode="&#x201;" horiz-adv-x="581" 
d="M500 27q-12 -17 -30 -25.5t-35 -8.5q-36 0 -54 21t-16 60q-26 -39 -69.5 -61t-95.5 -22q-87 0 -131.5 56.5t-44.5 147.5q0 25 3 52q15 117 86.5 187.5t180.5 70.5q54 0 117 -9h49l-55 -419q-1 -4 -1 -12q0 -34 31 -34q10 0 20.5 5.5t14.5 12.5zM416 460q-16 -1 -71 3
l-57 2q-93 0 -150.5 -62.5t-70.5 -157.5q-3 -21 -3 -41q0 -74 35 -123.5t103 -49.5q48 0 88.5 24.5t63.5 63.5q19 29 25 68zM100 682l35 33l106 -144l-19 -20zM258 684l35 33l106 -144l-19 -20z" />
    <glyph glyph-name="uni0202" unicode="&#x202;" horiz-adv-x="752" 
d="M13 8q-18 17 -23 46l38 4q2 -11 11.5 -19t21.5 -8q13 0 24.5 9t16.5 19l341 633h8l189 -691h-43l-63 233h-295l-101 -193q-13 -25 -33.5 -37.5t-45.5 -12.5q-28 0 -46 17zM521 274l-73 288l-10 63l-27 -65l-150 -286h260zM557 818q29 -30 25 -86l-42 2q2 34 -16 54.5
t-57 20.5q-41 0 -66.5 -22t-33.5 -55l-42 2q10 52 45.5 83t97.5 31q60 0 89 -30z" />
    <glyph glyph-name="uni0203" unicode="&#x203;" horiz-adv-x="581" 
d="M500 27q-12 -17 -30 -25.5t-35 -8.5q-36 0 -54 21t-16 60q-26 -39 -69.5 -61t-95.5 -22q-87 0 -131.5 56.5t-44.5 147.5q0 25 3 52q15 117 86.5 187.5t180.5 70.5q54 0 117 -9h49l-55 -419q-1 -4 -1 -12q0 -34 31 -34q10 0 20.5 5.5t14.5 12.5zM416 460q-16 -1 -71 3
l-57 2q-93 0 -150.5 -62.5t-70.5 -157.5q-3 -21 -3 -41q0 -74 35 -123.5t103 -49.5q48 0 88.5 24.5t63.5 63.5q19 29 25 68zM404 661q29 -32 25 -94l-42 2q3 40 -15 62.5t-56 22.5q-40 0 -66.5 -24t-35.5 -63l-41 2q12 59 48 91.5t95 32.5t88 -32z" />
    <glyph glyph-name="uni0204" unicode="&#x204;" horiz-adv-x="619" 
d="M142 642q-11 -3 -20 -10q-16 -11 -21 -38l-37 2q7 44 35 67q25 21 77 21l416 1l-6 -40h-374l-34 -261h255l-5 -40h-256l-39 -303h374l-5 -40h-415l85 644q-19 0 -30 -3zM172 833l29 39l139 -110l-16 -24zM326 834l29 39l139 -110l-16 -24z" />
    <glyph glyph-name="uni0205" unicode="&#x205;" horiz-adv-x="495" 
d="M70 42.5q-48 51.5 -48 139.5q0 24 3 49q9 69 40 131.5t84 102.5t124 40q68 0 112 -36t44 -96q0 -13 -1 -20q-10 -72 -72 -110t-161 -38l-130 -1q-3 -84 34.5 -129.5t114.5 -45.5q44 0 82.5 13.5t80.5 38.5l18 -31q-88 -59 -182 -59q-95 0 -143 51.5zM335 275q54 32 54 99
q0 46 -33.5 69.5t-80.5 23.5q-60 0 -105.5 -37t-71.5 -89.5t-30 -98.5l130 1q83 0 137 32zM90 694l35 33l106 -144l-19 -20zM248 696l35 33l106 -144l-19 -20z" />
    <glyph glyph-name="uni0206" unicode="&#x206;" horiz-adv-x="619" 
d="M142 642q-11 -3 -20 -10q-16 -11 -21 -38l-37 2q7 44 35 67q25 21 77 21l416 1l-6 -40h-374l-34 -261h255l-5 -40h-256l-39 -303h374l-5 -40h-415l85 644q-19 0 -30 -3zM497 827q29 -30 25 -86l-42 2q2 34 -16 54.5t-57 20.5q-41 0 -66.5 -22t-33.5 -55l-42 2
q10 52 45.5 83t97.5 31q60 0 89 -30z" />
    <glyph glyph-name="uni0207" unicode="&#x207;" horiz-adv-x="495" 
d="M70 42.5q-48 51.5 -48 139.5q0 24 3 49q9 69 40 131.5t84 102.5t124 40q68 0 112 -36t44 -96q0 -13 -1 -20q-10 -72 -72 -110t-161 -38l-130 -1q-3 -84 34.5 -129.5t114.5 -45.5q44 0 82.5 13.5t80.5 38.5l18 -31q-88 -59 -182 -59q-95 0 -143 51.5zM335 275q54 32 54 99
q0 46 -33.5 69.5t-80.5 23.5q-60 0 -105.5 -37t-71.5 -89.5t-30 -98.5l130 1q83 0 137 32zM394 673q29 -32 25 -94l-42 2q3 40 -15 62.5t-56 22.5q-40 0 -66.5 -24t-35.5 -63l-41 2q12 59 48 91.5t95 32.5t88 -32z" />
    <glyph glyph-name="uni0208" unicode="&#x208;" horiz-adv-x="255" 
d="M140 685h43l-90 -684h-43zM-24 868l35 33l106 -144l-19 -20zM134 870l35 33l106 -144l-19 -20z" />
    <glyph glyph-name="uni0209" unicode="&#x209;" horiz-adv-x="239" 
d="M75 63q0 -18 9 -26.5t23 -8.5q17 0 32 17l28 -24q-25 -31 -63 -31q-31 0 -50 19t-19 52q0 11 1 17l55 422h41l-56 -425q-1 -4 -1 -12zM-71 682l35 33l106 -144l-19 -20zM87 684l35 33l106 -144l-19 -20z" />
    <glyph glyph-name="uni020A" unicode="&#x20a;" horiz-adv-x="255" 
d="M140 685h43l-90 -684h-43zM258.5 847q23.5 -32 19.5 -94l-46 2l1 18q0 67 -48 67q-24 0 -41 -23.5t-27 -63.5l-46 2q12 59 40.5 91.5t73.5 32.5q50 0 73.5 -32z" />
    <glyph glyph-name="uni020B" unicode="&#x20b;" horiz-adv-x="239" 
d="M75 63q0 -18 9 -26.5t23 -8.5q17 0 32 17l28 -24q-25 -31 -63 -31q-31 0 -50 19t-19 52q0 11 1 17l55 422h41l-56 -425q-1 -4 -1 -12zM210.5 661q23.5 -32 19.5 -94l-46 2l1 18q0 67 -48 67q-24 0 -41 -23.5t-27 -63.5l-46 2q12 59 40.5 91.5t73.5 32.5q50 0 73.5 -32z
" />
    <glyph glyph-name="uni020C" unicode="&#x20c;" horiz-adv-x="808" 
d="M190 23.5q-67 37.5 -104 104t-37 151.5q0 17 4 53l2 19q13 99 66.5 179t134.5 126t173 46q85 0 151 -38.5t103 -107t37 -154.5q0 -17 -4 -53l-2 -19q-13 -99 -65.5 -177.5t-132.5 -122.5t-173 -44q-86 0 -153 37.5zM495 64.5q72 40.5 119.5 111t58.5 156.5l3 19
q3 24 3 46q0 76 -32 136.5t-89.5 94.5t-130.5 34q-81 0 -152.5 -41.5t-119.5 -113t-60 -158.5l-2 -19q-3 -24 -3 -47q0 -75 31.5 -134t88.5 -92t131 -33q82 0 154 40.5zM215 833l29 39l139 -110l-16 -24zM369 834l29 39l139 -110l-16 -24z" />
    <glyph glyph-name="uni020D" unicode="&#x20d;" horiz-adv-x="576" 
d="M77.5 49q-55.5 58 -55.5 155q0 22 3 44q10 75 47 133.5t94.5 91t125.5 32.5q93 0 149 -59t56 -157q0 -21 -3 -44q-10 -75 -46.5 -132.5t-94 -89.5t-126.5 -32q-94 0 -149.5 58zM334.5 57q48.5 28 80 79t39.5 117q3 20 3 39q0 80 -45 127.5t-122 47.5q-57 0 -105 -28
t-79.5 -78.5t-40.5 -115.5q-3 -21 -3 -39q0 -81 45 -129t122 -48q57 0 105.5 28zM111 687l35 33l106 -144l-19 -20zM269 689l35 33l106 -144l-19 -20z" />
    <glyph glyph-name="uni020E" unicode="&#x20e;" horiz-adv-x="808" 
d="M190 23.5q-67 37.5 -104 104t-37 151.5q0 17 4 53l2 19q13 99 66.5 179t134.5 126t173 46q85 0 151 -38.5t103 -107t37 -154.5q0 -17 -4 -53l-2 -19q-13 -99 -65.5 -177.5t-132.5 -122.5t-173 -44q-86 0 -153 37.5zM495 64.5q72 40.5 119.5 111t58.5 156.5l3 19
q3 24 3 46q0 76 -32 136.5t-89.5 94.5t-130.5 34q-81 0 -152.5 -41.5t-119.5 -113t-60 -158.5l-2 -19q-3 -24 -3 -47q0 -75 31.5 -134t88.5 -92t131 -33q82 0 154 40.5zM540 827q29 -30 25 -86l-42 2q2 34 -16 54.5t-57 20.5q-41 0 -66.5 -22t-33.5 -55l-42 2q10 52 45.5 83
t97.5 31q60 0 89 -30z" />
    <glyph glyph-name="uni020F" unicode="&#x20f;" horiz-adv-x="576" 
d="M77.5 49q-55.5 58 -55.5 155q0 22 3 44q10 75 47 133.5t94.5 91t125.5 32.5q93 0 149 -59t56 -157q0 -21 -3 -44q-10 -75 -46.5 -132.5t-94 -89.5t-126.5 -32q-94 0 -149.5 58zM334.5 57q48.5 28 80 79t39.5 117q3 20 3 39q0 80 -45 127.5t-122 47.5q-57 0 -105 -28
t-79.5 -78.5t-40.5 -115.5q-3 -21 -3 -39q0 -81 45 -129t122 -48q57 0 105.5 28zM414 666q29 -32 25 -94l-42 2q3 40 -15 62.5t-56 22.5q-40 0 -66.5 -24t-35.5 -63l-41 2q12 59 48 91.5t95 32.5t88 -32z" />
    <glyph glyph-name="uni0210" unicode="&#x210;" horiz-adv-x="696" 
d="M142 642q-11 -3 -20 -10q-16 -11 -21 -38l-37 2q7 44 35 67q25 21 77 21l212 1q45 0 74 -18q38 -20 59.5 -60t21.5 -92q0 -17 -3 -35q-6 -52 -31 -94.5t-63 -67t-80 -24.5h-40q15 -7 18 -10q15 -5 33 -35l118 -200q12 -19 30 -19q10 0 21 4.5t19 11.5l28 -23
q-13 -16 -30.5 -24t-37.5 -8q-42 0 -63 38l-98 168q-22 38 -46.5 59t-73.5 28l4 39h78q49 0 89.5 24t63.5 67t23 97q0 59 -33.5 96.5t-87.5 37.5h-169l-85 -644h-40l85 644q-19 0 -30 -3zM100 824l29 39l139 -110l-16 -24zM254 825l29 39l139 -110l-16 -24z" />
    <glyph glyph-name="uni0211" unicode="&#x211;" horiz-adv-x="350" 
d="M334 498l-3 -38q-28 5 -47 5q-55 0 -93 -29q-17 -13 -36.5 -33.5t-33.5 -43.5l-48 -358h-41l48 362q3 24 3 42q0 25 -5.5 42t-17.5 35l29 25q19 -21 28.5 -47.5t8.5 -54.5q16 27 36 48t38 32q35 20 84 20q14 0 50 -7zM40 687l35 33l106 -144l-19 -20zM198 689l35 33
l106 -144l-19 -20z" />
    <glyph glyph-name="uni0212" unicode="&#x212;" horiz-adv-x="696" 
d="M142 642q-11 -3 -20 -10q-16 -11 -21 -38l-37 2q7 44 35 67q25 21 77 21l212 1q45 0 74 -18q38 -20 59.5 -60t21.5 -92q0 -17 -3 -35q-6 -52 -31 -94.5t-63 -67t-80 -24.5h-40q15 -7 18 -10q15 -5 33 -35l118 -200q12 -19 30 -19q10 0 21 4.5t19 11.5l28 -23
q-13 -16 -30.5 -24t-37.5 -8q-42 0 -63 38l-98 168q-22 38 -46.5 59t-73.5 28l4 39h78q49 0 89.5 24t63.5 67t23 97q0 59 -33.5 96.5t-87.5 37.5h-169l-85 -644h-40l85 644q-19 0 -30 -3zM425 818q29 -30 25 -86l-42 2q2 34 -16 54.5t-57 20.5q-41 0 -66.5 -22t-33.5 -55
l-42 2q10 52 45.5 83t97.5 31q60 0 89 -30z" />
    <glyph glyph-name="uni0213" unicode="&#x213;" horiz-adv-x="350" 
d="M334 498l-3 -38q-28 5 -47 5q-55 0 -93 -29q-17 -13 -36.5 -33.5t-33.5 -43.5l-48 -358h-41l48 362q3 24 3 42q0 25 -5.5 42t-17.5 35l29 25q19 -21 28.5 -47.5t8.5 -54.5q16 27 36 48t38 32q35 20 84 20q14 0 50 -7zM344 666q29 -32 25 -94l-42 2q3 40 -15 62.5
t-56 22.5q-40 0 -66.5 -24t-35.5 -63l-41 2q12 59 48 91.5t95 32.5t88 -32z" />
    <glyph glyph-name="uni0214" unicode="&#x214;" horiz-adv-x="727" 
d="M164.5 53.5q-55.5 63.5 -55.5 163.5q0 24 3 49l44 339q1 6 1 16q0 40 -37 40q-29 0 -45 -26l-28 25q25 41 76 41q34 0 54.5 -19.5t20.5 -57.5q0 -14 -1 -21l-45 -339q-3 -22 -3 -43q0 -84 45 -137.5t129 -53.5q69 0 119.5 34.5t80 88.5t37.5 113l55 418h41l-56 -420
q-9 -71 -43.5 -133.5t-94 -101.5t-139.5 -39q-103 0 -158.5 63.5zM189 824l29 39l139 -110l-16 -24zM343 825l29 39l139 -110l-16 -24z" />
    <glyph glyph-name="uni0215" unicode="&#x215;" horiz-adv-x="579" 
d="M180 -7q-73 0 -107 35t-29 108l30 229q3 24 3 42q0 25 -5.5 42t-17.5 35l30 25q16 -20 26 -44.5t10 -50.5q0 -12 -1 -18l-31 -236q-2 -22 -2 -31q0 -98 101 -98q54 0 95 26t87 79l50 364h41l-57 -423q-1 -4 -1 -12q0 -34 31 -34q10 0 20.5 5.5t14.5 12.5l30 -22
q-12 -17 -30 -25.5t-35 -8.5q-37 0 -55 21.5t-14 61.5q-74 -83 -184 -83zM87 684l35 33l106 -144l-19 -20zM245 686l35 33l106 -144l-19 -20z" />
    <glyph glyph-name="uni0216" unicode="&#x216;" horiz-adv-x="727" 
d="M164.5 53.5q-55.5 63.5 -55.5 163.5q0 24 3 49l44 339q1 6 1 16q0 40 -37 40q-29 0 -45 -26l-28 25q25 41 76 41q34 0 54.5 -19.5t20.5 -57.5q0 -14 -1 -21l-45 -339q-3 -22 -3 -43q0 -84 45 -137.5t129 -53.5q69 0 119.5 34.5t80 88.5t37.5 113l55 418h41l-56 -420
q-9 -71 -43.5 -133.5t-94 -101.5t-139.5 -39q-103 0 -158.5 63.5zM514 818q29 -30 25 -86l-42 2q2 34 -16 54.5t-57 20.5q-41 0 -66.5 -22t-33.5 -55l-42 2q10 52 45.5 83t97.5 31q60 0 89 -30z" />
    <glyph glyph-name="uni0217" unicode="&#x217;" horiz-adv-x="579" 
d="M180 -7q-73 0 -107 35t-29 108l30 229q3 24 3 42q0 25 -5.5 42t-17.5 35l30 25q16 -20 26 -44.5t10 -50.5q0 -12 -1 -18l-31 -236q-2 -22 -2 -31q0 -98 101 -98q54 0 95 26t87 79l50 364h41l-57 -423q-1 -4 -1 -12q0 -34 31 -34q10 0 20.5 5.5t14.5 12.5l30 -22
q-12 -17 -30 -25.5t-35 -8.5q-37 0 -55 21.5t-14 61.5q-74 -83 -184 -83zM391 663q29 -32 25 -94l-42 2q3 40 -15 62.5t-56 22.5q-40 0 -66.5 -24t-35.5 -63l-41 2q12 59 48 91.5t95 32.5t88 -32z" />
    <glyph glyph-name="uni0218" unicode="&#x218;" horiz-adv-x="561" 
d="M76.5 30q-57.5 46 -71.5 120l39 13q10 -63 58.5 -101t116.5 -38q52 0 97 23t74.5 63t35.5 89q2 14 2 21q0 45 -36 79.5t-126 76.5q-79 35 -111.5 67t-32.5 77q0 50 27 91.5t73 65.5t100 24q62 0 99.5 -28.5t37.5 -75.5q0 -29 -13.5 -51.5t-35.5 -34.5t-45 -10l6 38
q19 -2 33 13.5t14 39.5q0 31 -26 50t-69 19q-37 0 -72.5 -16.5t-59 -44.5t-27.5 -59q-1 -6 -1 -17q0 -32 26 -55.5t99 -58.5q99 -45 140 -86.5t41 -98.5q0 -68 -34 -123t-92 -86.5t-127 -31.5q-82 0 -139.5 46zM189 -85h49l-71 -197h-41z" />
    <glyph glyph-name="uni0219" unicode="&#x219;" horiz-adv-x="422" 
d="M65.5 7.5q-40.5 18.5 -76.5 56.5l26 27q61 -64 143 -64q61 0 102.5 34t41.5 90q0 24 -13.5 41t-37 30t-71.5 35q-44 19 -68.5 33t-40 34.5t-15.5 50.5q0 10 1 16q8 55 52 88.5t110 33.5q62 0 112 -36l-22 -30q-43 28 -90 28q-52 0 -86.5 -28t-34.5 -71q0 -16 10.5 -28.5
t33.5 -26t72 -37.5q50 -23 76 -38.5t40.5 -36t14.5 -51.5q0 -7 -2 -21q-9 -68 -60 -108t-127 -40q-50 0 -90.5 18.5zM129 -99h49l-71 -197h-41z" />
    <glyph glyph-name="uni021A" unicode="&#x21a;" horiz-adv-x="608" 
d="M151 645q-15 0 -28.5 -10.5t-18.5 -25.5l-40 2q6 28 29 51q28 23 58 23h441l-6 -40h-231l-85 -644h-41l85 644h-163zM215 -93h49l-71 -197h-41z" />
    <glyph glyph-name="uni021B" unicode="&#x21b;" horiz-adv-x="349" 
d="M38 103q0 19 3 38l63 482h41l-16 -123h156l-5 -40h-156l-43 -321q-2 -24 -2 -33q0 -37 15.5 -57t51.5 -20q29 0 54.5 15t45.5 43l28 -24q-28 -37 -58 -54.5t-71 -17.5q-107 0 -107 112zM103 -102h49l-71 -197h-41z" />
    <glyph glyph-name="uni021E" unicode="&#x21e;" horiz-adv-x="721" 
d="M162 621q0 40 -37 40q-29 0 -45 -26l-28 25q25 41 76 41q35 0 55 -20t20 -59q0 -12 -1 -19l-30 -225h383l41 307h40l-90 -684h-40l44 337h-383l-45 -337h-40l79 604q1 6 1 16zM341 853l72 -85l94 85h55l-132 -121h-42l-100 121h53z" />
    <glyph glyph-name="uni021F" unicode="&#x21f;" horiz-adv-x="581" 
d="M407 63q0 -18 8.5 -26.5t22.5 -8.5q18 0 33 17l28 -24q-25 -31 -63 -31q-32 0 -51 19.5t-19 53.5q0 10 1 15l36 271q2 18 2 26q0 48 -27 71.5t-78 23.5q-53 0 -94 -27.5t-88 -82.5l-48 -356h-40l95 726h41l-44 -328q40 55 84.5 80.5t101.5 25.5q139 0 139 -122
q0 -16 -3 -36l-36 -275q-1 -4 -1 -12zM84 900l72 -85l94 85h55l-132 -121h-42l-100 121h53z" />
    <glyph glyph-name="uni0226" unicode="&#x226;" horiz-adv-x="752" 
d="M13 8q-18 17 -23 46l38 4q2 -11 11.5 -19t21.5 -8q13 0 24.5 9t16.5 19l341 633h8l189 -691h-43l-63 233h-295l-101 -193q-13 -25 -33.5 -37.5t-45.5 -12.5q-28 0 -46 17zM521 274l-73 288l-10 63l-27 -65l-150 -286h260zM431.5 746q-8.5 9 -8.5 23q0 17 10.5 28.5
t26.5 11.5q14 0 23.5 -9t9.5 -23q0 -17 -11 -28.5t-27 -11.5q-15 0 -23.5 9z" />
    <glyph glyph-name="uni0227" unicode="&#x227;" horiz-adv-x="581" 
d="M500 27q-12 -17 -30 -25.5t-35 -8.5q-36 0 -54 21t-16 60q-26 -39 -69.5 -61t-95.5 -22q-87 0 -131.5 56.5t-44.5 147.5q0 25 3 52q15 117 86.5 187.5t180.5 70.5q54 0 117 -9h49l-55 -419q-1 -4 -1 -12q0 -34 31 -34q10 0 20.5 5.5t14.5 12.5zM416 460q-16 -1 -71 3
l-57 2q-93 0 -150.5 -62.5t-70.5 -157.5q-3 -21 -3 -41q0 -74 35 -123.5t103 -49.5q48 0 88.5 24.5t63.5 63.5q19 29 25 68zM272.5 584q-8.5 9 -8.5 23q0 17 10.5 28.5t26.5 11.5q14 0 23.5 -9t9.5 -23q0 -17 -11 -28.5t-27 -11.5q-15 0 -23.5 9z" />
    <glyph glyph-name="uni0228" unicode="&#x228;" horiz-adv-x="600" 
d="M212 645l-34 -261h255l-5 -40h-256l-39 -303h374l-5 -40h-174l-19 -55q31 -2 46.5 -22t15.5 -50q0 -25 -13 -51.5t-37 -43t-55 -14.5l10 38q24 3 40.5 25t16.5 45q0 18 -12.5 28.5t-35.5 10.5h-24l21 89h-195l85 644q-19 0 -30 -3t-20 -10q-16 -11 -21 -38l-37 2
q7 44 35 67q25 21 77 21l416 1l-6 -40h-374z" />
    <glyph glyph-name="uni0229" unicode="&#x229;" horiz-adv-x="480" 
d="M258.5 -73q15.5 -19 15.5 -49q0 -25 -13 -52t-36.5 -44t-55.5 -15l10 38q24 3 41 25t17 45q0 18 -12.5 28.5t-35.5 10.5h-25l20 78q-81 7 -121.5 58t-40.5 133q0 24 3 48q9 69 40 131.5t84 102.5t124 40q68 0 112 -36t44 -96q0 -13 -1 -20q-10 -72 -72 -110t-161 -38
l-130 -1q-3 -84 34.5 -129.5t114.5 -45.5q44 0 82.5 13.5t80.5 38.5l18 -31q-79 -53 -166 -59l-17 -43q31 -2 46.5 -21zM169.5 430q-45.5 -37 -71.5 -89.5t-30 -98.5l130 1q83 0 137 32t54 99q0 46 -33.5 69.5t-80.5 23.5q-60 0 -105.5 -37z" />
    <glyph glyph-name="uni022A" unicode="&#x22a;" horiz-adv-x="808" 
d="M190 23.5q-67 37.5 -104 104t-37 151.5q0 17 4 53l2 19q13 99 66.5 179t134.5 126t173 46q85 0 151 -38.5t103 -107t37 -154.5q0 -17 -4 -53l-2 -19q-13 -99 -65.5 -177.5t-132.5 -122.5t-173 -44q-86 0 -153 37.5zM495 64.5q72 40.5 119.5 111t58.5 156.5l3 19
q3 24 3 46q0 76 -32 136.5t-89.5 94.5t-130.5 34q-81 0 -152.5 -41.5t-119.5 -113t-60 -158.5l-2 -19q-3 -24 -3 -47q0 -75 31.5 -134t88.5 -92t131 -33q82 0 154 40.5zM305.5 749q-8.5 9 -8.5 23q0 17 10.5 28.5t26.5 11.5q14 0 23.5 -9t9.5 -23q0 -17 -11 -28.5t-27 -11.5
q-15 0 -23.5 9zM520.5 749q-8.5 9 -8.5 23q0 17 10.5 28.5t26.5 11.5q14 0 23.5 -9t9.5 -23q0 -17 -11 -28.5t-27 -11.5q-15 0 -23.5 9zM331 910h251l-6 -41h-251z" />
    <glyph glyph-name="uni022B" unicode="&#x22b;" horiz-adv-x="576" 
d="M77.5 49q-55.5 58 -55.5 155q0 22 3 44q10 75 47 133.5t94.5 91t125.5 32.5q93 0 149 -59t56 -157q0 -21 -3 -44q-10 -75 -46.5 -132.5t-94 -89.5t-126.5 -32q-94 0 -149.5 58zM334.5 57q48.5 28 80 79t39.5 117q3 20 3 39q0 80 -45 127.5t-122 47.5q-57 0 -105 -28
t-79.5 -78.5t-40.5 -115.5q-3 -21 -3 -39q0 -81 45 -129t122 -48q57 0 105.5 28zM171.5 578q-8.5 9 -8.5 23q0 17 10.5 28.5t26.5 11.5q14 0 23.5 -9t9.5 -23q0 -17 -11 -28.5t-27 -11.5q-15 0 -23.5 9zM386.5 578q-8.5 9 -8.5 23q0 17 10.5 28.5t26.5 11.5q14 0 23.5 -9
t9.5 -23q0 -17 -11 -28.5t-27 -11.5q-15 0 -23.5 9zM198 744h251l-6 -41h-251z" />
    <glyph glyph-name="uni022C" unicode="&#x22c;" horiz-adv-x="808" 
d="M190 23.5q-67 37.5 -104 104t-37 151.5q0 17 4 53l2 19q13 99 66.5 179t134.5 126t173 46q85 0 151 -38.5t103 -107t37 -154.5q0 -17 -4 -53l-2 -19q-13 -99 -65.5 -177.5t-132.5 -122.5t-173 -44q-86 0 -153 37.5zM495 64.5q72 40.5 119.5 111t58.5 156.5l3 19
q3 24 3 46q0 76 -32 136.5t-89.5 94.5t-130.5 34q-81 0 -152.5 -41.5t-119.5 -113t-60 -158.5l-2 -19q-3 -24 -3 -47q0 -75 31.5 -134t88.5 -92t131 -33q82 0 154 40.5zM356.5 811q23.5 8 45.5 8q20 0 32 -5t27 -14q11 -8 21 -12.5t25 -4.5q33 0 76 32l22 -33
q-28 -21 -48.5 -29t-53.5 -8q-18 0 -30 4.5t-26 13.5q-13 8 -23 12t-23 4q-18 0 -35 -6.5t-42 -25.5l-22 33q31 23 54.5 31zM332 910h251l-6 -41h-251z" />
    <glyph glyph-name="uni022D" unicode="&#x22d;" horiz-adv-x="576" 
d="M77.5 49q-55.5 58 -55.5 155q0 22 3 44q10 75 47 133.5t94.5 91t125.5 32.5q93 0 149 -59t56 -157q0 -21 -3 -44q-10 -75 -46.5 -132.5t-94 -89.5t-126.5 -32q-94 0 -149.5 58zM334.5 57q48.5 28 80 79t39.5 117q3 20 3 39q0 80 -45 127.5t-122 47.5q-57 0 -105 -28
t-79.5 -78.5t-40.5 -115.5q-3 -21 -3 -39q0 -81 45 -129t122 -48q57 0 105.5 28zM208.5 633q23.5 8 45.5 8q20 0 32 -5t27 -14q11 -8 21 -12.5t25 -4.5q33 0 76 32l22 -33q-28 -21 -48.5 -29t-53.5 -8q-18 0 -30 4.5t-26 13.5q-13 8 -23 12t-23 4q-18 0 -35 -6.5t-42 -25.5
l-22 33q31 23 54.5 31zM206 795h251l-6 -41h-251z" />
    <glyph glyph-name="uni0230" unicode="&#x230;" horiz-adv-x="808" 
d="M190 23.5q-67 37.5 -104 104t-37 151.5q0 17 4 53l2 19q13 99 66.5 179t134.5 126t173 46q85 0 151 -38.5t103 -107t37 -154.5q0 -17 -4 -53l-2 -19q-13 -99 -65.5 -177.5t-132.5 -122.5t-173 -44q-86 0 -153 37.5zM495 64.5q72 40.5 119.5 111t58.5 156.5l3 19
q3 24 3 46q0 76 -32 136.5t-89.5 94.5t-130.5 34q-81 0 -152.5 -41.5t-119.5 -113t-60 -158.5l-2 -19q-3 -24 -3 -47q0 -75 31.5 -134t88.5 -92t131 -33q82 0 154 40.5zM414.5 755q-8.5 9 -8.5 23q0 17 10.5 28.5t26.5 11.5q14 0 23.5 -9t9.5 -23q0 -17 -11 -28.5t-27 -11.5
q-15 0 -23.5 9zM332 910h251l-6 -41h-251z" />
    <glyph glyph-name="uni0231" unicode="&#x231;" horiz-adv-x="576" 
d="M77.5 49q-55.5 58 -55.5 155q0 22 3 44q10 75 47 133.5t94.5 91t125.5 32.5q93 0 149 -59t56 -157q0 -21 -3 -44q-10 -75 -46.5 -132.5t-94 -89.5t-126.5 -32q-94 0 -149.5 58zM334.5 57q48.5 28 80 79t39.5 117q3 20 3 39q0 80 -45 127.5t-122 47.5q-57 0 -105 -28
t-79.5 -78.5t-40.5 -115.5q-3 -21 -3 -39q0 -81 45 -129t122 -48q57 0 105.5 28zM282.5 589q-8.5 9 -8.5 23q0 17 10.5 28.5t26.5 11.5q14 0 23.5 -9t9.5 -23q0 -17 -11 -28.5t-27 -11.5q-15 0 -23.5 9zM201 758h251l-6 -41h-251z" />
    <glyph glyph-name="uni0232" unicode="&#x232;" horiz-adv-x="613" 
d="M133 655q-9 0 -16 -4q-13 -7 -17 -15l-33 18q13 23 33 34q20 10 38 10q20 0 36 -13t25 -36l124 -301l226 338h48l-260 -384l-38 -301h-42l40 299l-134 331q-10 24 -30 24zM252 785h251l-6 -41h-251z" />
    <glyph glyph-name="uni0233" unicode="&#x233;" horiz-adv-x="546" 
d="M128.5 -254q-34.5 36 -34.5 93q0 50 26.5 93t70.5 62q-73 0 -110 29.5t-37 86.5q0 8 2 26l30 228q3 24 3 42q0 25 -5.5 42t-17.5 35l30 25q16 -20 26 -44.5t10 -50.5q0 -12 -1 -18l-32 -240q-2 -12 -2 -33q0 -47 24 -68.5t76 -21.5q46 0 85.5 20.5t81.5 67.5
q11 15 16 25.5t6 23.5l45 331h41l-50 -366l-34 -260q-10 -76 -52.5 -120t-106.5 -44q-56 0 -90.5 36zM297.5 -216.5q32.5 33.5 39.5 88.5l28 206q-32 -36 -73 -63l-59 -31q-50 -24 -74 -58.5t-24 -84.5q0 -41 22.5 -66t61.5 -25q46 0 78.5 33.5zM162 608h251l-6 -41h-251z
" />
    <glyph glyph-name="uni0237" unicode="&#x237;" horiz-adv-x="206" 
d="M-112 -223l35 21q15 -22 35 -22q19 0 33.5 15t16.5 37l89 672h41l-89 -674q-5 -40 -31 -65t-61 -25q-45 0 -69 41z" />
    <glyph glyph-name="uni0244" unicode="&#x244;" horiz-adv-x="705" 
d="M626 321h-18l-8 -57q-9 -71 -43.5 -133.5t-94 -101.5t-139.5 -39q-103 0 -158.5 63.5t-55.5 163.5q0 24 3 49l7 55h-24l5 41h24l32 243q1 6 1 16q0 40 -37 40q-29 0 -45 -26l-28 25q25 41 76 41q34 0 54.5 -19.5t20.5 -57.5q0 -14 -1 -21l-32 -241h407l43 322h41
l-43 -322h19zM567 321h-407l-8 -57q-3 -22 -3 -43q0 -84 45 -137.5t129 -53.5q69 0 119.5 34.5t80 88.5t37.5 113z" />
    <glyph glyph-name="uni0259" unicode="&#x259;" horiz-adv-x="499" 
d="M389.5 457.5q47.5 -52.5 47.5 -143.5q0 -23 -3 -49q-10 -79 -44 -140.5t-86.5 -95.5t-116.5 -34q-78 1 -124.5 48.5t-46.5 125.5q0 22 2 34q2 16 12 63h363q3 18 3 46q0 65 -32.5 112.5t-118.5 47.5q-41 0 -77 -12t-84 -37l-16 33q41 25 88.5 39.5t95.5 14.5
q90 0 137.5 -52.5zM311 85.5q55 54.5 75 142.5l-322 -2q-5 -17 -6 -29q-2 -18 -2 -26q0 -62 37.5 -101t93.5 -39q69 0 124 54.5z" />
    <glyph glyph-name="uni0268" unicode="&#x268;" horiz-adv-x="232" 
d="M99.5 584.5q-8.5 9.5 -8.5 24.5q0 16 11.5 27t26.5 11q14 0 23.5 -9t9.5 -23q0 -17 -11 -28.5t-28 -11.5q-15 0 -23.5 9.5zM167 21q-25 -31 -63 -31q-31 0 -50 19t-19 52q0 11 1 17l23 181h-81l5 41h82l26 200h41l-26 -200h85l-6 -41h-85l-24 -184q-1 -4 -1 -12
q0 -18 9 -26.5t23 -8.5q17 0 32 17z" />
    <glyph glyph-name="uni0272" unicode="&#x272;" horiz-adv-x="570" 
d="M504 21q-25 -31 -63 -31q-32 0 -51 19.5t-19 53.5q0 10 1 15l34 260q2 12 2 33q0 96 -99 96q-49 0 -93 -25.5t-94 -84.5l-47 -357h-1l-16 -120q-5 -36 -30.5 -60t-61.5 -24q-39 0 -60 33l36 21q8 -12 26 -12t32.5 13t17.5 31l29 226h1l34 253q3 23 3 40q0 25 -5.5 43
t-17.5 36l29 25q19 -21 28.5 -48.5t7.5 -55.5q40 55 85 79.5t103 24.5q66 0 101.5 -31.5t35.5 -89.5q0 -9 -2 -27l-38 -282q-3 -24 6 -35.5t25 -11.5q18 0 33 17z" />
    <glyph glyph-name="uni0289" unicode="&#x289;" horiz-adv-x="562" 
d="M498 27q-12 -17 -30 -25.5t-35 -8.5q-37 0 -55 21.5t-14 61.5q-74 -83 -184 -83q-73 0 -107 35t-29 108l15 111h-12l6 41h11l10 77q3 24 3 42q0 25 -5.5 42t-17.5 35l30 25q16 -20 26 -44.5t10 -50.5q0 -12 -1 -18l-14 -108h285l29 212h41l-29 -212h15l-5 -41h-16
l-22 -170q-1 -4 -1 -12q0 -34 31 -34q10 0 20.5 5.5t14.5 12.5zM282 57q41 26 87 79l16 111h-285l-12 -87q-2 -22 -2 -31q0 -98 101 -98q54 0 95 26z" />
    <glyph glyph-name="uni02B9" unicode="&#x2b9;" horiz-adv-x="189" 
d="M115 684h57l-33 -182h-38z" />
    <glyph glyph-name="uni02BA" unicode="&#x2ba;" horiz-adv-x="299" 
d="M115 679h56l-33 -182h-38zM224 679h56l-33 -182h-39z" />
    <glyph glyph-name="uni02BC" unicode="&#x2bc;" horiz-adv-x="204" 
d="M116 609l8 61q2 12 8.5 19t17.5 7t18 -8.5t5 -19.5l-8 -61q-4 -39 -26 -84q-20 -37 -54 -62l-22 27q42 42 53 121z" />
    <glyph glyph-name="circumflex" unicode="&#x2c6;" horiz-adv-x="324" 
d="M179 689h41l94 -131h-48l-70 95l-96 -95h-48z" />
    <glyph glyph-name="caron" unicode="&#x2c7;" horiz-adv-x="327" 
d="M72 699h48l70 -95l95 95h50l-128 -131h-43z" />
    <glyph glyph-name="breve" unicode="&#x2d8;" horiz-adv-x="367" 
d="M117 594.5q-29 33.5 -24 92.5l41 -2q-2 -39 17 -62t58 -23t64.5 23.5t33.5 63.5l41 -2q-11 -61 -47.5 -92.5t-93.5 -31.5q-61 0 -90 33.5z" />
    <glyph glyph-name="dotaccent" unicode="&#x2d9;" horiz-adv-x="183" 
d="M99.5 600q-8.5 9 -8.5 23q0 17 10.5 28.5t26.5 11.5q14 0 23.5 -9t9.5 -23q0 -17 -11 -28.5t-27 -11.5q-15 0 -23.5 9z" />
    <glyph glyph-name="ring" unicode="&#x2da;" horiz-adv-x="303" 
d="M113.5 584.5q-21.5 22.5 -21.5 59.5q0 49 29.5 81.5t75.5 32.5q39 0 61 -23t22 -60q0 -49 -31 -81t-76 -32q-38 0 -59.5 22.5zM224 617.5q22 25.5 22 55.5q0 23 -14 38.5t-35 15.5q-28 0 -49.5 -24.5t-21.5 -56.5q0 -24 13.5 -39t34.5 -15q28 0 50 25.5z" />
    <glyph glyph-name="ogonek" unicode="&#x2db;" horiz-adv-x="247" 
d="M3.5 -188q-18.5 19 -18.5 52q0 36 18.5 61t71.5 70l40 -7q-51 -48 -69 -71t-18 -46q0 -20 13.5 -29t28.5 -9q22 0 51 19l16 -35q-18 -12 -40 -18t-42 -6q-33 0 -51.5 19z" />
    <glyph glyph-name="tilde" unicode="&#x2dc;" horiz-adv-x="420" 
d="M139.5 628q23.5 8 45.5 8q20 0 32 -5t27 -14q11 -8 21 -12.5t25 -4.5q33 0 76 32l22 -33q-28 -21 -48.5 -29t-53.5 -8q-18 0 -30 4.5t-26 13.5q-13 8 -23 12t-23 4q-18 0 -35 -6.5t-42 -25.5l-22 33q31 23 54.5 31z" />
    <glyph glyph-name="hungarumlaut" unicode="&#x2dd;" horiz-adv-x="372" 
d="M58 579l131 154l32 -29l-146 -143zM231 580l131 154l32 -29l-146 -143z" />
    <glyph glyph-name="gravecomb" unicode="&#x300;" 
d="M-157 682l35 33l106 -144l-19 -20z" />
    <glyph glyph-name="acutecomb" unicode="&#x301;" 
d="M-142 580l131 154l32 -29l-146 -143z" />
    <glyph glyph-name="uni0302" unicode="&#x302;" 
d="M-134 696h41l94 -131h-48l-70 95l-96 -95h-48z" />
    <glyph glyph-name="tildecomb" unicode="&#x303;" 
d="M-264.5 628q23.5 8 45.5 8q20 0 32 -5t27 -14q11 -8 21 -12.5t25 -4.5q33 0 76 32l22 -33q-28 -21 -48.5 -29t-53.5 -8q-18 0 -30 4.5t-26 13.5q-13 8 -23 12t-23 4q-18 0 -35 -6.5t-42 -25.5l-22 33q31 23 54.5 31z" />
    <glyph glyph-name="uni0304" unicode="&#x304;" 
d="M-277 610h251l-6 -41h-251z" />
    <glyph glyph-name="uni0306" unicode="&#x306;" 
d="M-235 594.5q-29 33.5 -24 92.5l41 -2q-2 -39 17 -62t58 -23t64.5 23.5t33.5 63.5l41 -2q-11 -61 -47.5 -92.5t-93.5 -31.5q-61 0 -90 33.5z" />
    <glyph glyph-name="uni0307" unicode="&#x307;" 
d="M-76.5 584q-8.5 9 -8.5 23q0 17 10.5 28.5t26.5 11.5q14 0 23.5 -9t9.5 -23q0 -17 -11 -28.5t-27 -11.5q-15 0 -23.5 9z" />
    <glyph glyph-name="uni0308" unicode="&#x308;" 
d="M-335.5 573q-8.5 9 -8.5 23q0 17 10.5 28.5t26.5 11.5q14 0 23.5 -9t9.5 -23q0 -17 -11 -28.5t-27 -11.5q-15 0 -23.5 9zM-120.5 573q-8.5 9 -8.5 23q0 17 10.5 28.5t26.5 11.5q14 0 23.5 -9t9.5 -23q0 -17 -11 -28.5t-27 -11.5q-15 0 -23.5 9z" />
    <glyph glyph-name="hookabovecomb" unicode="&#x309;" 
d="M-79 643.5q17 24.5 17 45.5q0 19 -11.5 29t-22.5 10q-25 0 -57 -28l-19 34q44 35 84 35q32 0 50 -19.5t18 -52.5t-15.5 -60t-58.5 -69l-47 2q45 49 62 73.5z" />
    <glyph glyph-name="uni030A" unicode="&#x30a;" 
d="M-165.5 584.5q-21.5 22.5 -21.5 59.5q0 49 29.5 81.5t75.5 32.5q39 0 61 -23t22 -60q0 -49 -31 -81t-76 -32q-38 0 -59.5 22.5zM-55 617.5q22 25.5 22 55.5q0 23 -14 38.5t-35 15.5q-28 0 -49.5 -24.5t-21.5 -56.5q0 -24 13.5 -39t34.5 -15q28 0 50 25.5z" />
    <glyph glyph-name="uni030B" unicode="&#x30b;" 
d="M-322 579l131 154l32 -29l-146 -143zM-149 580l131 154l32 -29l-146 -143z" />
    <glyph glyph-name="uni030C" unicode="&#x30c;" 
d="M-244 699h48l70 -95l95 95h50l-128 -131h-43z" />
    <glyph glyph-name="uni030F" unicode="&#x30f;" 
d="M-343 682l35 33l106 -144l-19 -20zM-185 684l35 33l106 -144l-19 -20z" />
    <glyph glyph-name="uni0311" unicode="&#x311;" 
d="M-44 661q29 -32 25 -94l-42 2q3 40 -15 62.5t-56 22.5q-40 0 -66.5 -24t-35.5 -63l-41 2q12 59 48 91.5t95 32.5t88 -32z" />
    <glyph glyph-name="uni0312" unicode="&#x312;" 
d="M-40 645q-4 -15 -4.5 -30.5t-0.5 -19.5q-3 -25 -28 -25q-13 0 -18.5 8.5t-3.5 20.5q6 52 22 83q13 26 48 52l22 -27q-29 -28 -37 -62z" />
    <glyph glyph-name="uni031B" unicode="&#x31b;" 
d="M-11 635q0 -28 -13.5 -55t-39.5 -45t-61 -19h-17l-21 42h38q33 0 54.5 23t21.5 54q0 19 -11 31l31 25q18 -24 18 -56z" />
    <glyph glyph-name="dotbelowcomb" unicode="&#x323;" 
d="M-185.5 -147q-8.5 9 -8.5 23q0 17 10.5 28.5t26.5 11.5q14 0 23.5 -9t9.5 -23q0 -17 -11 -28.5t-27 -11.5q-15 0 -23.5 9z" />
    <glyph glyph-name="uni0324" unicode="&#x324;" 
d="M-416.5 -148q-8.5 9 -8.5 23q0 17 10.5 28.5t26.5 11.5q14 0 23.5 -9t9.5 -23q0 -17 -11 -28.5t-27 -11.5q-15 0 -23.5 9zM-201.5 -148q-8.5 9 -8.5 23q0 17 10.5 28.5t26.5 11.5q14 0 23.5 -9t9.5 -23q0 -17 -11 -28.5t-27 -11.5q-15 0 -23.5 9z" />
    <glyph glyph-name="uni0326" unicode="&#x326;" 
d="M-172 -93h49l-71 -197h-41z" />
    <glyph glyph-name="uni0327" unicode="&#x327;" 
d="M-155 -170q17 22 17 45q0 18 -12.5 28.5t-35.5 10.5h-25l24 95h46l-21 -61q31 -2 46 -21t15 -49q0 -25 -13 -52t-36.5 -44t-55.5 -15l10 38q24 3 41 25z" />
    <glyph glyph-name="uni0328" unicode="&#x328;" 
d="M-223.5 -194q-18.5 19 -18.5 52q0 36 18.5 61t71.5 70l40 -7q-51 -48 -69 -71t-18 -46q0 -20 13.5 -29t28.5 -9q22 0 51 19l16 -35q-18 -12 -40 -18t-42 -6q-33 0 -51.5 19z" />
    <glyph glyph-name="uni032D" unicode="&#x32d;" 
d="M-236 -81h41l94 -131h-48l-70 95l-96 -95h-48z" />
    <glyph glyph-name="uni032E" unicode="&#x32e;" 
d="M-336 -176.5q-29 33.5 -24 92.5l41 -2q-2 -39 17 -62t58 -23t64.5 23.5t33.5 63.5l41 -2q-11 -61 -47.5 -92.5t-93.5 -31.5q-61 0 -90 33.5z" />
    <glyph glyph-name="uni0331" unicode="&#x331;" 
d="M-370 -94h251l-6 -41h-251z" />
    <glyph glyph-name="uni0335" unicode="&#x335;" 
d="M-308 265h249l-5 -41h-250z" />
    <glyph glyph-name="uni0336" unicode="&#x336;" 
d="M-488 272h394l-5 -41h-394z" />
    <glyph glyph-name="uni0337" unicode="&#x337;" 
d="M-262 361l215 119l17 -39l-215 -119z" />
    <glyph glyph-name="uni0338" unicode="&#x338;" 
d="M-34 594h50l-360 -666h-49z" />
    <glyph glyph-name="uni0340" unicode="&#x340;" 
d="M-64 676l35 33l106 -144l-19 -20z" />
    <glyph glyph-name="uni0341" unicode="&#x341;" 
d="M-143 574l131 154l32 -29l-146 -143z" />
    <glyph glyph-name="uni0344" unicode="&#x344;" 
d="M-179 585l131 154l32 -29l-146 -143zM-262.5 787q-8.5 9 -8.5 23q0 17 10.5 28.5t26.5 11.5q14 0 23.5 -9t9.5 -23q0 -17 -11 -28.5t-27 -11.5q-15 0 -23.5 9zM-47.5 787q-8.5 9 -8.5 23q0 17 10.5 28.5t26.5 11.5q14 0 23.5 -9t9.5 -23q0 -17 -11 -28.5t-27 -11.5
q-15 0 -23.5 9z" />
    <glyph glyph-name="uni0374" unicode="&#x374;" horiz-adv-x="290" 
d="M153 678h57l-33 -182h-38z" />
    <glyph glyph-name="uni037E" unicode="&#x37e;" horiz-adv-x="234" 
d="M97.5 396q-8.5 9 -8.5 23q0 17 10.5 28.5t26.5 11.5q14 0 23.5 -9t9.5 -23q0 -17 -11 -28.5t-27 -11.5q-15 0 -23.5 9zM40 -23q4 15 4.5 30.5t0.5 19.5q1 12 8.5 18.5t18.5 6.5q13 0 19 -8.5t4 -20.5q-8 -53 -22 -83q-16 -28 -48 -52l-23 27q28 27 38 62z" />
    <glyph glyph-name="anoteleia" unicode="&#x387;" horiz-adv-x="267" 
d="M83.5 281q-13.5 14 -13.5 34q0 24 17.5 42t40.5 18q21 0 34.5 -14t13.5 -34q0 -25 -17 -42.5t-42 -17.5q-20 0 -33.5 14z" />
    <glyph glyph-name="uni0394" unicode="&#x394;" horiz-adv-x="557" 
d="M-4 36l262 595h100l106 -596l-4 -40h-467zM417 38l-98 550h-33l-242 -550h373z" />
    <glyph glyph-name="uni03A9" unicode="&#x3a9;" horiz-adv-x="612" 
d="M148 34q-16 30 -27 63q-46 118 -46 226q0 44 5 76q18 138 80.5 213t182.5 75q194 0 194 -212q0 -38 -6 -80q-17 -134 -108 -288q-28 -43 -54 -75l135 1l-5 -39h-178l5 34l45 72q94 146 112 286q5 45 5 76q0 178 -147 178q-100 0 -149.5 -67t-65.5 -191q-4 -31 -4 -68
q0 -105 44 -234q16 -40 23 -53l-4 -33h-178l5 39z" />
    <glyph glyph-name="uni03BC" unicode="&#x3bc;" horiz-adv-x="528" 
d="M134 489l-46 -343l1 -1q-1 -10 -1 -28q0 -42 15 -64q23 -29 82 -29q56 0 97 30q42 30 84 81l47 354h41l-47 -355q-3 -19 -3 -37q0 -50 23 -84l-26 -23q-19 16 -25 38q-14 32 -11 70q-40 -58 -84 -85.5t-97 -27.5q-39 0 -59 8q-30 7 -52 29l-38 -282h-41l99 749h41z" />
    <glyph glyph-name="omicron" unicode="&#x3bf;" horiz-adv-x="576" 
d="M77.5 49q-55.5 58 -55.5 155q0 22 3 44q10 75 47 133.5t94.5 91t125.5 32.5q93 0 149 -59t56 -157q0 -21 -3 -44q-10 -75 -46.5 -132.5t-94 -89.5t-126.5 -32q-94 0 -149.5 58zM334.5 57q48.5 28 80 79t39.5 117q3 20 3 39q0 80 -45 127.5t-122 47.5q-57 0 -105 -28
t-79.5 -78.5t-40.5 -115.5q-3 -21 -3 -39q0 -81 45 -129t122 -48q57 0 105.5 28z" />
    <glyph glyph-name="pi" unicode="&#x3c0;" horiz-adv-x="538" 
d="M89 444l-40 -5l-24 -6l6 51q21 5 43 6l51 4l54 3h200q38 0 71 4q35 3 72 14l-7 -47q-6 -3 -13 -5.5t-15 -5.5q-34 -6 -68 -6l-40 -296q-3 -21 -3 -38q0 -12 1 -17q2 -19 11 -33q10 -12 29 -15q24 -4 40 -4l-3 -47q-40 2 -62 7q-28 7 -42 24q-16 16 -19 47q-2 16 -2 26
q0 14 4 52l39 292h-177l-85 -448h-47l85 449z" />
    <glyph glyph-name="uni03D6" unicode="&#x3d6;" horiz-adv-x="555" 
d="M89 444l-40 -5l-24 -6l6 51q21 5 43 6l51 4l54 3h200q38 0 71 4q35 3 72 14l-7 -47q-6 -3 -13 -5.5t-15 -5.5q-34 -6 -68 -6l-40 -296q-3 -21 -3 -38q0 -12 1 -17q2 -19 11 -33q10 -12 29 -15q24 -4 40 -4l-3 -47q-40 2 -62 7q-28 7 -42 24q-16 16 -19 47q-2 16 -2 26
q0 14 4 52l39 292h-177l-85 -448h-47l85 449z" />
    <glyph glyph-name="uni0400" unicode="&#x400;" horiz-adv-x="619" 
d="M142 642q-11 -3 -20 -10q-16 -11 -21 -38l-37 2q7 44 35 67q25 21 77 21l416 1l-6 -40h-374l-34 -261h255l-5 -40h-256l-39 -303h374l-5 -40h-415l85 644q-19 0 -30 -3zM175 822l29 39l139 -110l-16 -24z" />
    <glyph glyph-name="uni0401" unicode="&#x401;" horiz-adv-x="619" 
d="M142 642q-11 -3 -20 -10q-16 -11 -21 -38l-37 2q7 44 35 67q25 21 77 21l416 1l-6 -40h-374l-34 -261h255l-5 -40h-256l-39 -303h374l-5 -40h-415l85 644q-19 0 -30 -3zM202.5 757q-8.5 9 -8.5 23q0 17 10.5 28.5t26.5 11.5q14 0 23.5 -9t9.5 -23q0 -17 -11 -28.5
t-27 -11.5q-15 0 -23.5 9zM417.5 757q-8.5 9 -8.5 23q0 17 10.5 28.5t26.5 11.5q14 0 23.5 -9t9.5 -23q0 -17 -11 -28.5t-27 -11.5q-15 0 -23.5 9z" />
    <glyph glyph-name="uni040D" unicode="&#x45d;" horiz-adv-x="784" 
d="M193.5 678q21.5 -23 16.5 -65l-76 -547l35 45l521 572h7l-90 -683h-43l80 587l-33 -45l-373 -418l-124 -125h-28l81 616q3 20 -6.5 31.5t-25.5 11.5q-7 0 -16.5 -5t-16.5 -12l-35 29q30 31 69 31q36 0 57.5 -23zM266 822l29 39l139 -110l-16 -24z" />
    <glyph glyph-name="uni040D" unicode="&#x40d;" horiz-adv-x="784" 
d="M193.5 678q21.5 -23 16.5 -65l-76 -547l35 45l521 572h7l-90 -683h-43l80 587l-33 -45l-373 -418l-124 -125h-28l81 616q3 20 -6.5 31.5t-25.5 11.5q-7 0 -16.5 -5t-16.5 -12l-35 29q30 31 69 31q36 0 57.5 -23zM266 822l29 39l139 -110l-16 -24z" />
    <glyph glyph-name="uni0410" unicode="&#x410;" horiz-adv-x="752" 
d="M13 8q-18 17 -23 46l38 4q2 -11 11.5 -19t21.5 -8q13 0 24.5 9t16.5 19l341 633h8l189 -691h-43l-63 233h-295l-101 -193q-13 -25 -33.5 -37.5t-45.5 -12.5q-28 0 -46 17zM521 274l-73 288l-10 63l-27 -65l-150 -286h260z" />
    <glyph glyph-name="uni0411" unicode="&#x411;" horiz-adv-x="568" 
d="M392.5 362q43.5 -23 69 -64t25.5 -91q0 -68 -39.5 -123.5t-111.5 -79.5q-46 -13 -115 -13q-84 0 -128 5l-43 5l90 685h383l-4 -40h-344l-34 -261h156q52 0 95.5 -23zM387 77q60 47 60 131q0 61 -41 99t-116 38h-154l-41 -310l71 -3l66 -2q95 0 155 47z" />
    <glyph glyph-name="uni0412" unicode="&#x412;" horiz-adv-x="647" 
d="M122 644q-9 -7 -13 -16t-8 -22l-36 2q7 44 34 67q25 21 78 21h208q76 0 123.5 -41.5t47.5 -110.5q0 -52 -24.5 -93.5t-63.5 -66.5q-20 -13 -61 -18q32 -5 55 -20q80 -50 80 -139q0 -9 -2 -29q-13 -96 -85 -141.5t-191 -45.5q-96 0 -135 5l-43 5l87 656q-33 0 -51 -13z
M427 66.5q61 36.5 72 116.5q2 16 2 23q0 64 -44 101.5t-111 37.5h-87l5 39h79q31 0 61 9.5t51 26.5q29 22 44 54t15 71q0 52 -33 80.5t-86 31.5h-182l-83 -622l104 -4l35 -1q97 0 158 36.5z" />
    <glyph glyph-name="uni0413" unicode="&#x413;" horiz-adv-x="523" 
d="M139 683h387l-6 -40h-345l-85 -644h-41z" />
    <glyph glyph-name="uni0414" unicode="&#x414;" horiz-adv-x="691" 
d="M540 -168l22 168h-539l-22 -168h-41l28 208l49 2q116 173 188.5 330t92.5 313l293 -1l-86 -644h84l-29 -208h-40zM252.5 334q-59.5 -131 -169.5 -295l402 1l79 604l-210 -1q-42 -178 -101.5 -309z" />
    <glyph glyph-name="uni0415" unicode="&#x415;" horiz-adv-x="619" 
d="M142 642q-11 -3 -20 -10q-16 -11 -21 -38l-37 2q7 44 35 67q25 21 77 21l416 1l-6 -40h-374l-34 -261h255l-5 -40h-256l-39 -303h374l-5 -40h-415l85 644q-19 0 -30 -3z" />
    <glyph glyph-name="uni0416" unicode="&#x416;" horiz-adv-x="883" 
d="M331 348q-28 0 -34 -1q-46 -5 -86.5 -48t-67.5 -104l-13 -29q-32 -72 -57 -113.5t-60 -57.5l-19 35q24 10 58 69.5t59 121.5q22 54 55 88.5t87 61.5q-29 18 -43.5 45t-19.5 55t-8 73q-2 20 -2 24q-1 24 -5 40q-5 22 -11.5 28.5t-22.5 6.5q-19 0 -45 -14l-16 38
q12 7 29.5 11t33.5 4q45 0 59.5 -33.5t17.5 -96.5q3 -45 9 -76t25 -54.5t56 -29.5q28 -4 107 -4l40 296h41l-40 -296q94 0 122 9q57 13 85 67q16 30 41 104l18 49q15 34 34.5 49.5t51.5 15.5q30 0 60 -16l-22 -36q-24 14 -40 14q-17 0 -27 -8.5t-16 -23t-20 -56.5
q-24 -64 -38 -95t-36 -55t-57 -38q14 -4 22.5 -8.5t22.5 -17.5q32 -30 48.5 -68t22 -71.5t3.5 -31.5q8 -49 22 -89t35 -51l-22 -35q-24 12 -39.5 43t-23 65t-18.5 94q-1 6 -4 21t-8 29t-14 29q-28 43 -64 57t-101 16l-42 1l-47 -351h-40l46 347z" />
    <glyph glyph-name="uni0417" unicode="&#x417;" horiz-adv-x="547" 
d="M88 8q-59 22 -91 61l23 33q29 -37 83 -56.5t110 -19.5q64 0 111.5 25.5t73.5 69t26 94.5q0 65 -43.5 108t-113.5 47h-130l5 40h127q41 0 78 23.5t60 59.5t23 70q0 42 -38 69t-115 27q-49 0 -93.5 -11.5t-72.5 -30.5l-7 40q32 19 77 30.5t97 11.5q93 0 143 -36t50 -98
q0 -49 -24.5 -88t-59.5 -62t-66 -25q29 -3 62 -23t56.5 -58t23.5 -93q0 -70 -32.5 -122t-89.5 -80t-129 -28q-65 0 -124 22z" />
    <glyph glyph-name="uni0418" unicode="&#x418;" horiz-adv-x="760" 
d="M193.5 678q21.5 -23 16.5 -65l-76 -547l35 45l521 572h7l-90 -683h-43l80 587l-33 -45l-373 -418l-124 -125h-28l81 616q3 20 -6.5 31.5t-25.5 11.5q-7 0 -16.5 -5t-16.5 -12l-35 29q30 31 69 31q36 0 57.5 -23z" />
    <glyph glyph-name="uni0419" unicode="&#x419;" horiz-adv-x="784" 
d="M193.5 678q21.5 -23 16.5 -65l-76 -547l35 45l521 572h7l-90 -683h-43l80 587l-33 -45l-373 -418l-124 -125h-28l81 616q3 20 -6.5 31.5t-25.5 11.5q-7 0 -16.5 -5t-16.5 -12l-35 29q30 31 69 31q36 0 57.5 -23zM342 778.5q-29 33.5 -24 92.5l41 -2q-2 -39 17 -62t58 -23
t64.5 23.5t33.5 63.5l41 -2q-11 -61 -47.5 -92.5t-93.5 -31.5q-61 0 -90 33.5z" />
    <glyph glyph-name="uni041A" unicode="&#x41a;" horiz-adv-x="633" 
d="M180 684l-41 -306q84 1 130 10t81 42t62 104l11 29q27 67 33 80q29 59 99 59q19 0 39.5 -4.5t35.5 -12.5l-22 -38q-30 13 -54 13q-37 0 -52 -23q-7 -9 -14 -25t-14 -35q-28 -74 -51 -119q-32 -57 -105 -95q50 -23 78 -54t39.5 -61.5t21.5 -77.5q1 -5 6.5 -28t13 -41
t17.5 -31q33 -42 45 -46l-14 -39q-30 11 -51 41.5t-32.5 65t-25.5 87.5q-15 58 -23 72q-24 38 -70 63t-84 25h-104l-45 -339h-40l90 684h40z" />
    <glyph glyph-name="uni041B" unicode="&#x41b;" horiz-adv-x="695" 
d="M-15 27l34 23q13 -22 41 -22q26 0 43 17t32 51q16 34 36 118q22 92 43 220t37 251l379 -1l-90 -686h-43l85 642l-296 -1q-19 -139 -50 -313.5t-59 -239.5q-24 -50 -50.5 -75t-70.5 -25q-46 0 -71 41z" />
    <glyph glyph-name="uni041C" unicode="&#x41c;" horiz-adv-x="1028" 
d="M11.5 2q-17.5 13 -25.5 33l41 15q8 -18 29 -18q12 0 23 7.5t17 20.5l211 625h48l129 -578l9 -64l26 64l283 578h50l45 -684h-43l-36 568l-2 71l-29 -71l-273 -568h-51l-123 567l-10 73l-20 -73l-172 -513q-9 -29 -32 -47.5t-52 -18.5q-25 0 -42.5 13z" />
    <glyph glyph-name="uni041D" unicode="&#x41d;" horiz-adv-x="721" 
d="M162 621q0 40 -37 40q-29 0 -45 -26l-28 25q25 41 76 41q35 0 55 -20t20 -59q0 -12 -1 -19l-30 -225h383l41 307h40l-90 -684h-40l44 337h-383l-45 -337h-40l79 604q1 6 1 16z" />
    <glyph glyph-name="uni041E" unicode="&#x41e;" horiz-adv-x="808" 
d="M190 23.5q-67 37.5 -104 104t-37 151.5q0 17 4 53l2 19q13 99 66.5 179t134.5 126t173 46q85 0 151 -38.5t103 -107t37 -154.5q0 -17 -4 -53l-2 -19q-13 -99 -65.5 -177.5t-132.5 -122.5t-173 -44q-86 0 -153 37.5zM495 64.5q72 40.5 119.5 111t58.5 156.5l3 19
q3 24 3 46q0 76 -32 136.5t-89.5 94.5t-130.5 34q-81 0 -152.5 -41.5t-119.5 -113t-60 -158.5l-2 -19q-3 -24 -3 -47q0 -75 31.5 -134t88.5 -92t131 -33q82 0 154 40.5z" />
    <glyph glyph-name="uni041F" unicode="&#x41f;" horiz-adv-x="661" 
d="M140 686h457l-91 -686h-40l85 646h-376l-85 -646h-40z" />
    <glyph glyph-name="uni0420" unicode="&#x420;" horiz-adv-x="594" 
d="M141 642q-11 -3 -20 -10q-16 -11 -21 -38l-37 2q7 43 35 67q26 21 77 21l204 1q77 1 118 -45.5t41 -124.5q0 -20 -3 -41q-13 -104 -79.5 -156.5t-157.5 -52.5q-32 0 -67 5l3 38l60 -3q81 0 135 41.5t66 130.5q2 12 2 34q0 66 -36.5 100t-98.5 34h-151l-85 -645h-41
l86 645q-19 0 -30 -3z" />
    <glyph glyph-name="uni0421" unicode="&#x421;" horiz-adv-x="720" 
d="M185 18.5q-66 40.5 -102 110t-36 155.5q0 30 4 55q12 97 68 181.5t139.5 135t175.5 50.5q85 0 144.5 -33.5t59.5 -96.5q0 -43 -24.5 -73.5t-62.5 -30.5q-26 0 -44 15l27 31q12 -6 19 -6q19 0 34.5 18.5t15.5 40.5q0 29 -26.5 50t-66 32.5t-76.5 11.5q-83 0 -158 -46
t-124.5 -122t-60.5 -162q-3 -24 -3 -48q0 -75 30.5 -136.5t88 -97t132.5 -35.5q71 0 139 33t115 90l29 -24q-57 -70 -132 -104.5t-153 -34.5q-86 0 -152 40.5z" />
    <glyph glyph-name="uni0422" unicode="&#x422;" horiz-adv-x="608" 
d="M151 645q-15 0 -28.5 -10.5t-18.5 -25.5l-40 2q6 28 29 51q28 23 58 23h441l-6 -40h-231l-85 -644h-41l85 644h-163z" />
    <glyph glyph-name="uni0423" unicode="&#x423;" horiz-adv-x="651" 
d="M52 14l21 37q41 -20 74 -20q49 0 86 39.5t87 123.5l-158 434q-10 25 -28 25q-7 0 -17 -5q-13 -7 -17 -15l-33 18q8 21 33 34q23 10 38 10q21 0 37 -13t24 -37l149 -405l258 444l45 -1q-184 -321 -306 -527l-17 -29q-20 -33 -50.5 -68.5t-55.5 -49.5q-35 -19 -75 -19
q-45 0 -95 24z" />
    <glyph glyph-name="uni0424" unicode="&#x424;" horiz-adv-x="766" 
d="M166.5 84q-61.5 37 -92 95t-30.5 125q0 20 3 39q10 74 53.5 140t118.5 108.5t175 47.5l10 75h41l-11 -75q89 -5 150.5 -41.5t92 -94t30.5 -124.5q0 -20 -3 -40q-9 -73 -53 -139t-119 -109t-174 -48l-11 -75h-41l11 75q-89 4 -150.5 41zM238.5 552q-65.5 -37 -104 -93.5
t-47.5 -119.5q-2 -20 -2 -30q0 -56 26.5 -105t79.5 -80t130 -35l68 504q-85 -4 -150.5 -41zM513 130q66 37 104.5 94t46.5 120q2 22 2 32q0 56 -26 104t-79.5 78.5t-130.5 34.5l-68 -505q85 5 151 42z" />
    <glyph glyph-name="uni0425" unicode="&#x425;" horiz-adv-x="615" 
d="M277 393l221 292h52l-253 -332l130 -298q3 -7 11 -12t17 -5t23 9l36 -30q-27 -24 -65 -24q-29 0 -44.5 17t-31.5 55l-107 256l-220 -320h-52l251 361l-164 323h51z" />
    <glyph glyph-name="uni0426" unicode="&#x426;" horiz-adv-x="708" 
d="M79 -1l74 570l4 36q1 6 1 16q0 40 -37 40q-29 0 -45 -26l-28 25q25 41 76 41q35 0 55 -20t20 -59q0 -12 -1 -19l-74 -564h362l85 645h41l-85 -645h99l-26 -197h-41l21 157h-501z" />
    <glyph glyph-name="uni0427" unicode="&#x427;" horiz-adv-x="702" 
d="M442.5 281q-68.5 -32 -144.5 -32q-77 0 -114.5 37t-37.5 117q0 26 5 64q1 13 7 49l8 56l2 35q5 54 -35 54q-31 0 -48 -28l-29 23q25 45 80 45q37 0 57 -24t16 -70l-3 -35l-7 -59l-10 -76q-2 -22 -2 -32q0 -116 130 -116q70 0 130 34t116 104l34 257h41l-89 -677h-41
l49 362q-46 -56 -114.5 -88z" />
    <glyph glyph-name="uni0428" unicode="&#x428;" horiz-adv-x="947" 
d="M153 570l4 36q1 6 1 16q0 40 -37 40q-29 0 -45 -26l-28 25q25 41 77 41q34 0 54 -19.5t20 -57.5q0 -14 -1 -21l-74 -564h296l85 644h41l-85 -644h297l85 644h41l-91 -684l-714 -1z" />
    <glyph glyph-name="uni0429" unicode="&#x429;" horiz-adv-x="947" 
d="M899 40l-27 -205h-41l22 165l-774 -1l74 571l4 36q1 6 1 16q0 40 -37 40q-29 0 -45 -26l-28 25q25 41 77 41q34 0 54 -19.5t20 -57.5q0 -14 -1 -21l-74 -564h296l85 644h41l-85 -644h297l85 644h41l-86 -644h101z" />
    <glyph glyph-name="uni042A" unicode="&#x42a;" horiz-adv-x="685" 
d="M516 365.5q43 -21.5 68.5 -61t25.5 -92.5q0 -68 -39.5 -125.5t-112.5 -82.5q-46 -13 -115 -13q-84 0 -128 5l-45 5l85 643h-187l6 40h186v1h41l-86 -650l73 -3l66 -2q88 0 146 41t68 116q1 8 1 23q0 60 -40.5 98.5t-116.5 38.5h-155l5 40h160q51 0 94 -21.5z" />
    <glyph glyph-name="uni042B" unicode="&#x42b;" horiz-adv-x="837" 
d="M396 365.5q43 -21.5 68.5 -61.5t25.5 -93q0 -68 -40 -125t-112 -82q-46 -13 -115 -13q-84 0 -128 5l-45 5l90 684h40l-85 -650l73 -3l66 -2q87 0 145.5 41t68.5 116q1 8 1 23q0 60 -40.5 98.5t-116.5 38.5h-155l5 40h159q52 0 95 -21.5zM705 685h43l-90 -684h-43z" />
    <glyph glyph-name="uni042C" unicode="&#x42c;" horiz-adv-x="565" 
d="M396 365.5q43 -21.5 68.5 -61.5t25.5 -93q0 -68 -40 -125t-112 -82q-46 -13 -115 -13q-84 0 -128 5l-45 5l90 684h40l-85 -650l73 -3l66 -2q87 0 145.5 41t68.5 116q1 8 1 23q0 60 -40.5 98.5t-116.5 38.5h-155l5 40h159q52 0 95 -21.5z" />
    <glyph glyph-name="uni042D" unicode="&#x42d;" horiz-adv-x="598" 
d="M469 168.5q-49 -79.5 -125.5 -124t-168.5 -44.5q-103 0 -176 58l28 32q30 -24 69.5 -37t81.5 -13q65 0 129.5 32t113 98t65.5 163l-300 -1l5 38l300 1q2 30 2 42q0 85 -32 141t-84 82t-113 26q-44 0 -87.5 -13t-78.5 -36l-22 34q43 28 91.5 41.5t93.5 13.5q85 0 147 -36
t94.5 -101t32.5 -151q0 -34 -4 -63q-13 -103 -62 -182.5z" />
    <glyph glyph-name="uni042E" unicode="&#x42e;" horiz-adv-x="918" 
d="M180 685l-42 -325l129 1q17 104 68.5 178t122 111.5t143.5 37.5q77 0 134.5 -38t88 -104.5t30.5 -148.5q0 -31 -4 -58q-12 -95 -60 -173.5t-120.5 -124.5t-156.5 -46q-68 0 -126 33.5t-92.5 98t-34.5 153.5q0 13 2 43l-129 -1l-43 -324h-41l91 687h40zM814 396
q0 71 -26.5 128.5t-75.5 90.5t-114 33q-74 0 -137.5 -42.5t-104.5 -113.5t-52 -153q-4 -36 -4 -53q0 -70 25.5 -127t74 -90.5t114.5 -33.5q75 0 139 42.5t105.5 113.5t52.5 154q3 26 3 51z" />
    <glyph glyph-name="uni042F" unicode="&#x42f;" horiz-adv-x="634" 
d="M524 645h-157q-44 0 -82.5 -26t-61 -69.5t-22.5 -95.5q0 -59 35 -95t98 -36h79l-4 -39q-36 -5 -61.5 -18t-40.5 -27t-42 -44l-147 -168q-32 -36 -71 -36q-21 0 -37.5 9t-25.5 25l32 19q6 -7 15.5 -10.5t18.5 -3.5q19 0 37 21l176 200q25 27 41 34l24 9h-37
q-57 0 -93.5 43t-36.5 113q0 22 2 34q8 61 41.5 110.5t82.5 74.5q38 16 80 16h203l-90 -684h-40z" />
    </font>
</defs>
</svg>
