<?xml version="1.0" standalone="no"?>
<!DOCTYPE svg PUBLIC "-//W3C//DTD SVG 1.1//EN" "http://www.w3.org/Graphics/SVG/1.1/DTD/svg11.dtd" >
<svg xmlns="http://www.w3.org/2000/svg" xmlns:xlink="http://www.w3.org/1999/xlink" version="1.1">
<metadata>
Created by FontForge 20170731 at Thu Jan 16 16:35:19 2020
 By Aleksey,,,
Copyright 2019 The Bellota Project Authors (https://github.com/kemie/Bellota-Font)
</metadata>
<defs>
<font id="Bellota-Light" horiz-adv-x="0" >
  <font-face 
    font-family="Bellota Light"
    font-weight="300"
    font-stretch="normal"
    units-per-em="1000"
    panose-1="0 0 4 0 0 0 0 0 0 0"
    ascent="800"
    descent="-200"
    x-height="495"
    cap-height="686"
    bbox="-486 -325 1295 1106"
    underline-thickness="50"
    underline-position="-100"
    unicode-range="U+000D-1F330"
  />
<missing-glyph horiz-adv-x="600" 
 />
    <glyph glyph-name="fi" unicode="fi" horiz-adv-x="528" 
d="M118 636q20 35 49 52.5t70 17.5q71 0 108 -43l-31 -32q-27 36 -77 36q-31 0 -54.5 -17.5t-35.5 -44.5q-14 -31 -17.5 -64.5t-3.5 -72.5v-23h285v-369q0 -24 11 -36t29 -12q17 0 30 16l31 -22q-23 -32 -62 -32q-36 0 -58.5 23.5t-22.5 63.5v329h-243v-670h-42v729
q0 112 34 171z" />
    <glyph glyph-name="fl" unicode="fl" horiz-adv-x="510" 
d="M111 634q40 70 132 70q52 0 88 -21.5t50 -60.5q9 -24 10 -51v-494q0 -19 13 -31t29 -12q20 0 30 13l36 -23q-24 -32 -66 -32q-38 0 -61 24.5t-23 60.5v494q-1 47 -28.5 70.5t-75.5 23.5q-34 0 -56 -10.5t-37 -31.5q-31 -43 -31 -115l-2 -265h151v-39h-151v-470h-42v729
q0 110 34 171z" />
    <glyph glyph-name="f_f" unicode="ff" horiz-adv-x="643" 
d="M368 371v-128h151v-38h-151v-471h-42v471h-207v-471h-42v766q0 89 41 150t125 61q39 0 70 -13.5t59 -41.5q17 20 46.5 32.5t61.5 12.5q67 0 104 -38.5t37 -106.5q0 -85 -53.5 -135t-143.5 -50h-56zM326 463q0 61 3.5 89.5t17.5 59.5q-13 28 -41.5 44.5t-61.5 16.5
q-125 0 -125 -207v-223h207v220zM368 466v-56h56q70 0 111.5 41t41.5 107q0 50 -27 77.5t-70 27.5q-64 0 -91 -60q-21 -45 -21 -137z" />
    <glyph glyph-name="f_f_i" unicode="ffi" horiz-adv-x="772" 
d="M756 22q-23 -32 -62 -32q-36 0 -58.5 23.5t-22.5 63.5v329h-232v-670h-42v670h-213v-670h-42v729q0 113 34 171q21 36 57 53t79 17q33 0 69 -19t52 -44q41 63 119 63q31 0 59 -12.5t46 -31.5l-31 -31q-13 16 -34 26t-42 10q-30 0 -53.5 -17.5t-36.5 -45.5
q-21 -44 -21 -137v-23l274 1v-369q0 -24 11 -36t29 -12q17 0 30 16zM345 541l2 20q2 19 7 35q-9 27 -40.5 49t-61.5 22q-35 0 -63.5 -17.5t-41.5 -45.5q-21 -44 -21 -137v-23h213v20q0 29 6 77z" />
    <glyph glyph-name="f_f_l" unicode="ffl" horiz-adv-x="768" 
d="M126 204v-468h-42v729q0 110 34 171q19 34 47.5 50.5t72.5 16.5q70 0 107 -41l-31 -31q-26 33 -74 33q-34 0 -58 -17.5t-36 -48.5q-20 -48 -20 -140v-215h232v230q0 114 31 166q38 62 122 62q64 0 103 -39q37 -37 37 -91v-494q0 -24 11 -36t29 -12q17 0 30 16l31 -22
q-23 -32 -62 -32q-36 0 -58.5 23.5t-22.5 63.5l-1 493q-2 42 -29 66.5t-68 24.5q-53 0 -81 -36.5t-29 -98.5l-2 -284h151v-39h-151v-470h-41v470h-232z" />
    <glyph glyph-name=".notdef" horiz-adv-x="600" 
 />
    <glyph glyph-name=".null" 
 />
    <glyph glyph-name="nonmarkingreturn" unicode="&#xd;" horiz-adv-x="270" 
 />
    <glyph glyph-name="NULL" 
 />
    <glyph glyph-name="space" unicode=" " horiz-adv-x="270" 
 />
    <glyph glyph-name="exclam" unicode="!" horiz-adv-x="249" 
d="M96 705h57l-9 -562h-39zM99 -7q-10 10 -10 26t10 26t26 10t26.5 -10t10.5 -26t-10.5 -26t-26.5 -10t-26 10z" />
    <glyph glyph-name="quotedbl" unicode="&#x22;" horiz-adv-x="360" 
d="M95 685h58l-10 -182h-39zM207 685h58l-9 -182h-40z" />
    <glyph glyph-name="numbersign" unicode="#" horiz-adv-x="603" 
d="M169 189h-118v39h116v194h-116v39h116v156h42v-156h184v156h42v-156h117v-39h-117v-194h117v-39h-117v-157h-39v157h-187v-157h-40v157zM393 228v194h-184v-194h184z" />
    <glyph glyph-name="dollar" unicode="$" horiz-adv-x="604" 
d="M72 61l26 38q93 -57 178 -65v291q-42 13 -70 26t-51 35q-50 47 -50 115q0 61 44 102q46 42 127 51v89h45v-89q60 -5 113 -26q47 -18 83 -43l-26 -38q-32 21 -68 36q-30 12 -49.5 18t-52.5 10v-254q56 -17 84.5 -29.5t54.5 -32.5q33 -25 47.5 -55t14.5 -72q0 -81 -59 -129
q-51 -40 -142 -47v-62h-45v61q-120 8 -204 70zM184 578q-30 -31 -30 -74q0 -46 33 -79q28 -28 89 -53v241q-62 -4 -92 -35zM380.5 42.5q28.5 8.5 48.5 24.5q44 34 44 98q0 59 -44 94q-19 14 -49.5 28t-58.5 23v-277q31 1 59.5 9.5z" />
    <glyph glyph-name="percent" unicode="%" horiz-adv-x="781" 
d="M484 47q-34 35 -34 96q0 64 37.5 96t92.5 32q57 0 91.5 -35t34.5 -95q0 -64 -38 -96.5t-92 -32.5q-58 0 -92 35zM641 74.5q24 26.5 24 67.5t-23.5 67t-62.5 26q-41 0 -64.5 -27t-23.5 -67q0 -41 23.5 -67t63.5 -26q39 0 63 26.5zM460 508h44l-216 -496h-45zM109 290
q-34 35 -34 96q0 64 37.5 96t92.5 32q57 0 91.5 -35t34.5 -95q0 -64 -38 -96.5t-92 -32.5q-58 0 -92 35zM266 317.5q24 26.5 24 67.5t-23.5 67t-62.5 26q-41 0 -64.5 -27t-23.5 -67q0 -41 23.5 -67t63.5 -26q39 0 63 26.5z" />
    <glyph glyph-name="ampersand" unicode="&#x26;" horiz-adv-x="705" 
d="M106.5 273.5q31.5 50.5 87.5 77.5q-30 32 -44 64.5t-14 68.5q0 66 44 108t114 42q53 0 94 -24.5t41 -70.5q0 -27 -17.5 -47.5t-47.5 -20.5q-19 0 -35.5 9.5t-25.5 28.5l36 18q7 -16 24 -16q26 0 26 29q0 30 -26 43t-67 13q-53 0 -85.5 -28.5t-32.5 -75.5q0 -40 22.5 -77
t72.5 -81l211 -192q47 77 47 175v33h37v-35q0 -52 -14.5 -103t-41.5 -95l68 -64l8 -8t10 -7.5t11 -2.5q12 0 18 3l22 -35q-10 -5 -18 -7t-21 -2q-17 0 -30 8.5t-33 27.5l-61 56q-76 -95 -203 -95q-60 0 -107.5 21t-74 59t-26.5 89q0 63 31.5 113.5zM163.5 65
q46.5 -36 119.5 -36q53 0 98.5 21.5t77.5 59.5l-238 215q-50 -23 -77 -65t-27 -100q0 -59 46.5 -95z" />
    <glyph glyph-name="quotesingle" unicode="'" horiz-adv-x="249" 
d="M95 685h59l-10 -182h-39z" />
    <glyph glyph-name="parenleft" unicode="(" horiz-adv-x="361" 
d="M118 34q-63 119 -63 259q0 144 63 263q32 59 80 109t110 84l18 -31q-47 -29 -88.5 -75.5t-70.5 -100.5q-30 -56 -47 -121t-17 -127q0 -64 17.5 -129t46.5 -118q28 -53 69 -99t90 -77l-18 -32q-124 71 -190 195z" />
    <glyph glyph-name="parenright" unicode=")" horiz-adv-x="361" 
d="M35 -135q49 31 90 77t69 99q29 53 46.5 118t17.5 129q0 62 -17 127t-47 121q-29 54 -70.5 100.5t-88.5 75.5l18 31q62 -34 110 -84t80 -109q63 -119 63 -263q0 -140 -63 -259q-66 -124 -190 -195z" />
    <glyph glyph-name="asterisk" unicode="*" horiz-adv-x="393" 
d="M95 456l71 87l-111 29l14 44l111 -43l-7 122h47l-8 -123l112 44l14 -44l-110 -30l70 -86l-37 -26l-65 99l-65 -100z" />
    <glyph glyph-name="plus" unicode="+" horiz-adv-x="506" 
d="M232 274h-162v38h162v163h42v-163h162v-38h-162v-164h-42v164z" />
    <glyph glyph-name="comma" unicode="," horiz-adv-x="239" 
d="M98 -38q8 20 8 40q0 10 -1.5 20.5t-1.5 14.5q0 13 7 20t20 7t19 -7.5t6 -19.5q0 -53 -12 -83q-10 -28 -43 -53l-25 25q15 16 23 36z" />
    <glyph glyph-name="hyphen" unicode="-" horiz-adv-x="451" 
d="M81 326h289v-40h-289v40z" />
    <glyph glyph-name="period" unicode="." horiz-adv-x="247" 
d="M97 7q-10 10 -10 26t10 26t26 10t26.5 -10t10.5 -26t-10.5 -26t-26.5 -10t-26 10z" />
    <glyph glyph-name="slash" unicode="/" horiz-adv-x="309" 
d="M239 752h50l-219 -822h-50z" />
    <glyph glyph-name="zero" unicode="0" horiz-adv-x="658" 
d="M184 37q-61 46 -92 121.5t-31 164.5t31.5 164t92.5 120t144 45q84 0 145 -46t92.5 -122t31.5 -165q0 -90 -32 -164.5t-93 -119t-144 -44.5q-84 0 -145 46zM456 71.5q51 42.5 75.5 110t24.5 142.5q0 77 -26.5 143t-77.5 106.5t-122 40.5q-72 0 -123.5 -41t-77.5 -107.5
t-26 -142.5q0 -77 26.5 -144.5t78 -108.5t123.5 -41q74 0 125 42.5z" />
    <glyph glyph-name="one" unicode="1" horiz-adv-x="343" 
d="M123 539q-37 -19 -81 -21l-9 33q40 5 81.5 27.5t127.5 78.5v-657h-42v596q-40 -38 -77 -57z" />
    <glyph glyph-name="two" unicode="2" horiz-adv-x="521" 
d="M89.5 131.5q40.5 56.5 132.5 126.5l33 24q49 36 78.5 62t50 61.5t20.5 79.5q0 59 -43 97t-110 38q-60 0 -104 -31t-63 -89l-31 16q26 70 76 104t127 34q92 0 140 -44.5t48 -125.5q0 -54 -21.5 -94.5t-55 -71t-93.5 -73.5l-66 -50q-50 -40 -78 -76t-36 -81h383v-38h-428v4
q0 71 40.5 127.5z" />
    <glyph glyph-name="three" unicode="3" horiz-adv-x="536" 
d="M131.5 14q-54.5 25 -99.5 64l22 30q45 -40 88 -60t100 -20q83 0 140 40t57 114q0 49 -26.5 84.5t-68.5 54.5t-87 19h-103v38h102q34 0 68 18t55.5 48t21.5 65q0 34 -22 59t-56.5 38t-70.5 13q-37 0 -75.5 -11.5t-67.5 -33.5l-18 33q74 52 160 52q54 0 97.5 -18t69 -50.5
t25.5 -74.5q0 -37 -17.5 -73t-48.5 -59t-69 -25q79 -4 126 -55t47 -127q0 -61 -30.5 -103.5t-81.5 -63.5t-112 -21q-71 0 -125.5 25z" />
    <glyph glyph-name="four" unicode="4" horiz-adv-x="530" 
d="M366 131h-325v40l205 479h44l-205 -479h281v228h42v-228h87v-40h-87v-133h-42v133z" />
    <glyph glyph-name="five" unicode="5" horiz-adv-x="517" 
d="M141 11.5q-54 18.5 -85 46.5l24 29q33 -25 73.5 -39.5t82.5 -14.5q84 0 135 51.5t51 136.5q0 82 -53.5 122t-162.5 40q-72 0 -125 -19v277h322v-40h-280v-189l23 3q53 7 75 7q113 0 179.5 -56.5t66.5 -152.5q0 -62 -29 -112.5t-79.5 -79t-113.5 -28.5q-50 0 -104 18.5z
" />
    <glyph glyph-name="six" unicode="6" horiz-adv-x="572" 
d="M171 21.5q-54 34.5 -84.5 95.5t-30.5 139q0 80 35.5 157t99.5 134q54 49 120.5 76t132.5 27v-39q-64 -1 -123.5 -26t-109.5 -71q-47 -44 -78 -105t-38 -122q25 67 79 105t124 38q61 0 112.5 -30t82 -81t30.5 -111q0 -61 -30.5 -111.5t-83.5 -80t-116 -29.5
q-68 0 -122 34.5zM387 51.5q43 24.5 68.5 66.5t25.5 91t-25 90.5t-67.5 66t-91.5 24.5q-50 0 -93.5 -25.5t-70 -67.5t-26.5 -90t25.5 -89.5t68.5 -66t93 -24.5t93 24.5z" />
    <glyph glyph-name="seven" unicode="7" horiz-adv-x="477" 
d="M383 601l-350 1v39h406v-15l-256 -625h-45z" />
    <glyph glyph-name="eight" unicode="8" horiz-adv-x="548" 
d="M115.5 36q-59.5 51 -59.5 140q0 61 33 106t95 87q-90 43 -90 133q0 44 23 79.5t63.5 55t91.5 19.5q52 0 93.5 -19.5t65.5 -54t24 -76.5q0 -54 -32 -91.5t-74 -58.5q67 -24 105.5 -69.5t38.5 -112.5q0 -89 -60 -139t-158 -50q-100 0 -159.5 51zM388.5 430.5
q24.5 29.5 24.5 71.5q0 32 -18 58.5t-50 42t-71 15.5q-59 0 -98.5 -33.5t-39.5 -82.5q0 -80 94 -109l69 -21l18 -4q47 33 71.5 62.5zM403.5 65.5q47.5 42.5 47.5 112.5q0 51 -27 83.5t-69.5 51t-106.5 35.5l-27 7l-8 -7q-68 -60 -91.5 -93t-23.5 -76q0 -72 48 -114t129 -42
t128.5 42.5z" />
    <glyph glyph-name="nine" unicode="9" horiz-adv-x="572" 
d="M401 613.5q54 -34.5 84.5 -95.5t30.5 -139q0 -80 -35.5 -157t-99.5 -134q-54 -49 -120.5 -76t-132.5 -27v39q64 1 123.5 26t109.5 71q47 44 78 105t38 122q-25 -67 -79 -105t-124 -38q-61 0 -112.5 30t-82 81t-30.5 111q0 61 30.5 111.5t83.5 80t116 29.5q68 0 122 -34.5
zM185 583.5q-43 -24.5 -68.5 -66.5t-25.5 -91t25 -90.5t67.5 -66t91.5 -24.5q50 0 93.5 25.5t70 67.5t26.5 90t-25.5 89.5t-68.5 66t-93 24.5t-93 -24.5z" />
    <glyph glyph-name="colon" unicode=":" horiz-adv-x="245" 
d="M96 1q-10 10 -10 26t10 26t26 10t26.5 -10t10.5 -26t-10.5 -26t-26.5 -10t-26 10zM96 403q-10 10 -10 26t10 26t26 10t26.5 -10t10.5 -26t-10.5 -26t-26.5 -10t-26 10z" />
    <glyph glyph-name="semicolon" unicode=";" horiz-adv-x="241" 
d="M98 403q-10 10 -10 26t10 26t26 10t26.5 -10t10.5 -26t-10.5 -26t-26.5 -10t-26 10zM92 -44q8 20 8 40q0 10 -1.5 20.5t-1.5 14.5q0 13 7 20t20 7t19 -7.5t6 -19.5q0 -53 -12 -83q-10 -28 -43 -53l-25 25q15 16 23 36z" />
    <glyph glyph-name="less" unicode="&#x3c;" horiz-adv-x="499" 
d="M75 235v64l336 149v-50l-303 -129l303 -138v-52z" />
    <glyph glyph-name="equal" unicode="=" horiz-adv-x="595" 
d="M125 394h345v-39h-345v39zM125 231h345v-39h-345v39z" />
    <glyph glyph-name="greater" unicode="&#x3e;" horiz-adv-x="503" 
d="M88 131l306 138l-306 129v50l340 -149v-64l-340 -156v52z" />
    <glyph glyph-name="question" unicode="?" horiz-adv-x="473" 
d="M120 175q0 52 20 81q29 44 108 82q71 35 104 76.5t33 99.5q0 45 -21 82t-58.5 58t-84.5 21q-34 0 -67 -13.5t-54 -35t-21 -43.5q0 -16 10.5 -25.5t27.5 -11.5l-14 -39q-28 1 -47 22t-19 50q0 37 25 68t67.5 49.5t90.5 18.5q61 0 108 -25.5t73 -72t26 -105.5
q0 -47 -15.5 -81.5t-49.5 -63.5t-95 -65l-21 -12q-22 -11 -35 -21t-27 -27q-13 -17 -18.5 -32t-5.5 -36q0 -7 2 -29l-39 -8q-3 18 -3 38zM136 -2q-10 10 -10 26t10 26t26 10t26.5 -10t10.5 -26t-10.5 -26t-26.5 -10t-26 10z" />
    <glyph glyph-name="at" unicode="@" horiz-adv-x="759" 
d="M230.5 -26q-68.5 34 -107 100t-38.5 160q0 91 37 162t104.5 110.5t157.5 39.5q87 0 154.5 -37t104.5 -101.5t37 -145.5q0 -78 -36 -125t-101 -47q-36 0 -61 21t-32 54q-12 -27 -39 -44t-56 -17q-54 0 -90.5 40.5t-36.5 108.5q0 47 21 80.5t53.5 50.5t65.5 17q8 0 32 -3
l34 -2h41v-205q5 -33 23 -51t46 -18q43 0 68.5 40t25.5 103q0 71 -32.5 126t-90 86t-131.5 31q-78 0 -136 -34.5t-89.5 -96t-31.5 -141.5q0 -121 70.5 -189.5t196.5 -68.5q50 0 99 10.5t84 28.5l10 -34q-92 -43 -200 -43q-88 0 -156.5 34zM428 195l7 15v154h-65
q-45 0 -72.5 -31t-27.5 -78t19.5 -80.5t62.5 -33.5q50 0 76 54z" />
    <glyph glyph-name="A" unicode="A" horiz-adv-x="752" 
d="M65 7.5q-21 16.5 -29 45.5l39 6q4 -11 15 -19.5t25 -8.5q12 0 22.5 8.5t14.5 18.5l265 634h8l289 -691h-45l-97 233h-304l-78 -192q-10 -25 -30 -38t-46 -13q-28 0 -49 16.5zM554 274l-115 288l-19 63l-19 -65l-116 -286h269z" />
    <glyph glyph-name="B" unicode="B" horiz-adv-x="647" 
d="M111 654q-11 -3 -20 -9q-8 -7 -11 -16t-4 -22h-38q2 43 28 67q24 22 77 22h214q57 0 102 -22t70.5 -62t25.5 -92q0 -44 -20 -78.5t-52 -56.5q-20 -14 -59 -19q36 -5 61 -19q49 -27 75 -67.5t26 -99.5q0 -97 -69 -143t-192 -46q-98 0 -139 5l-44 5v656q-20 0 -31 -3z
M486 66q57 36 57 115q0 50 -24.5 87t-65.5 57t-90 20h-89v39h82q33 0 62 9t49 26q44 38 44 101q0 64 -39.5 99t-100.5 38h-187v-622l107 -4l38 -1q100 0 157 36z" />
    <glyph glyph-name="C" unicode="C" horiz-adv-x="720" 
d="M227 26.5q-78 48.5 -122.5 130.5t-44.5 180t46.5 183t126.5 135.5t175 50.5q93 0 160 -37.5t67 -108.5q0 -37 -22 -62.5t-57 -25.5q-26 0 -46 14l25 32q14 -6 22 -6q17 0 29 15t12 34q0 31 -30 55t-74 36.5t-85 12.5q-85 0 -155.5 -46t-111 -121.5t-40.5 -160.5
t38.5 -158.5t107.5 -117t155 -43.5q73 0 138 33t106 89l32 -22q-50 -70 -123 -105t-154 -35q-97 0 -175 48.5z" />
    <glyph glyph-name="D" unicode="D" horiz-adv-x="779" 
d="M181 -4l-39 4v652q-20 0 -31 -3t-20 -9q-8 -7 -11 -16t-4 -22h-38q2 43 28 67q24 22 77 22l259 -1q91 -3 162.5 -50t112 -127.5t40.5 -181.5q0 -173 -107.5 -256t-332.5 -83q-48 0 -96 4zM675 333q0 140 -75 224t-208 93h-208v-614q52 -4 111 -4q380 0 380 301z" />
    <glyph glyph-name="E" unicode="E" horiz-adv-x="619" 
d="M112 642q-11 -3 -20 -9q-8 -7 -11 -16t-4 -22h-38q2 43 28 67q24 22 77 22l427 1v-40h-386v-261h263v-40h-263v-303h386v-40h-428v644q-20 0 -31 -3z" />
    <glyph glyph-name="F" unicode="F" horiz-adv-x="609" 
d="M111 642q-11 -3 -20 -9q-8 -7 -11 -16t-4 -22h-38q2 43 28 67q24 22 77 22h429v-40h-388v-261h266v-40h-266v-343h-42v645q-20 0 -31 -3z" />
    <glyph glyph-name="G" unicode="G" horiz-adv-x="735" 
d="M678 335v-82q0 -81 -40.5 -143t-106 -96t-139.5 -34q-95 0 -170.5 47t-118 127t-42.5 176q0 100 44 184.5t121.5 134t174.5 49.5q50 0 102 -12.5t88.5 -43t36.5 -79.5q0 -40 -23 -65t-59 -25q-16 0 -28.5 5.5t-19.5 12.5l26 33q8 -10 23 -10q17 0 28.5 14.5t11.5 34.5
q0 34 -30.5 55.5t-73.5 30.5t-81 9q-83 0 -151.5 -45.5t-108 -121t-39.5 -162.5q0 -85 38 -156t104 -112t147 -41q65 0 121 31.5t89.5 84.5t33.5 115v42h-249v42h291z" />
    <glyph glyph-name="H" unicode="H" horiz-adv-x="721" 
d="M91 661q-18 0 -27 -7.5t-15 -17.5l-31 23q22 42 75 42q39 0 63 -24.5t24 -72.5v-226h395v307h42v-684h-42v337h-395v-337h-42v603q0 57 -47 57z" />
    <glyph glyph-name="I" unicode="I" horiz-adv-x="255" 
d="M105 685h45v-684h-45v684z" />
    <glyph glyph-name="J" unicode="J" horiz-adv-x="514" 
d="M93.5 41.5q-43.5 47.5 -47.5 121.5l41 -4q2 -56 40 -90.5t103 -34.5q79 0 112.5 46t33.5 108v456q-23 -23 -66 -23q-23 0 -42 5.5t-45 16.5q-34 15 -57 15q-14 0 -27.5 -4t-27 -9.5t-22.5 -8.5l-18 36q41 15 58.5 20t36.5 5q30 0 88 -23q35 -14 58 -14q17 0 34.5 8
t24.5 20h47v-503q0 -82 -47.5 -136.5t-143.5 -54.5q-90 0 -133.5 47.5z" />
    <glyph glyph-name="K" unicode="K" horiz-adv-x="690" 
d="M87 661q-18 0 -27 -7.5t-15 -17.5l-31 23q22 42 75 42q39 0 63 -24.5t24 -72.5v-241h56q36 0 70 15q18 8 29 17.5t23 24.5q41 52 72 111q40 74 78 154h51q-60 -114 -98 -180q-33 -59 -53 -88q-4 -5 -16 -22t-21 -26t-21 -18l211 -298q5 -8 15 -14t21 -6q16 0 30 12
l33 -23q-12 -14 -30 -21.5t-36 -7.5q-40 0 -66 37l-218 308q-50 -15 -86 -15q-13 0 -23 1t-19 1v-323h-44v602q0 57 -47 57z" />
    <glyph glyph-name="L" unicode="L" horiz-adv-x="539" 
d="M105 685h42v-644h356v-40h-398v684z" />
    <glyph glyph-name="M" unicode="M" horiz-adv-x="1028" 
d="M64.5 1.5q-19.5 12.5 -30.5 32.5l41 17q12 -19 34 -19q12 0 22 7t14 20l133 626h49l212 -578l18 -64l18 64l213 578h51l140 -684h-45l-114 568l-12 71l-20 -71l-205 -568h-52l-204 567l-20 73l-11 -73l-107 -512q-6 -29 -28 -48t-52 -19q-25 0 -44.5 12.5z" />
    <glyph glyph-name="N" unicode="N" horiz-adv-x="784" 
d="M33 15l38 27q6 -7 15.5 -11.5t15.5 -4.5q17 0 29 12t12 32v615h28l111 -125l328 -418l28 -45l-3 587h45v-683h-7l-459 572l-31 45l4 -548q0 -42 -24.5 -64.5t-61.5 -22.5q-41 0 -68 32z" />
    <glyph glyph-name="O" unicode="O" horiz-adv-x="808" 
d="M231.5 31q-78.5 45 -123.5 123.5t-45 176.5v19q0 99 44.5 179.5t122 126.5t173.5 46t174 -46t123 -126.5t45 -179.5v-19q0 -99 -43.5 -177.5t-120.5 -123t-174 -44.5t-175.5 45zM556.5 64q68.5 40 107.5 110.5t39 156.5v19q0 87 -40 158.5t-109 112.5t-152 41t-151 -41
t-107 -112.5t-39 -158.5v-19q0 -86 39 -156.5t107.5 -110.5t152.5 -40t152.5 40z" />
    <glyph glyph-name="P" unicode="P" horiz-adv-x="594" 
d="M111 642q-11 -3 -20 -9q-8 -7 -11 -16t-4 -22h-38q2 43 28 67q24 22 77 22l210 1q89 1 138.5 -57t49.5 -152q0 -105 -61.5 -158t-156.5 -53q-31 0 -69 5v38q51 -3 64 -3q83 0 132 41t49 129q0 83 -44 126.5t-116 43.5h-155v-645h-42v645q-20 0 -31 -3z" />
    <glyph glyph-name="Q" unicode="Q" horiz-adv-x="788" 
d="M323 -1q-126 25 -193.5 118.5t-67.5 225.5q0 102 41 182t116.5 125t174.5 45t174.5 -45.5t116.5 -126t41 -181.5t-41.5 -181t-116.5 -124.5t-173 -44.5h-34l-69 -101l92 -31q63 -21 117 -21q25 0 46.5 6.5t49.5 25.5l18 -30q-34 -24 -56.5 -31t-50.5 -7q-35 0 -65 5.5
t-66 17.5l-108 36l-40 -61l-31 23zM547.5 71q65.5 41 101 112.5t35.5 160.5t-35.5 160.5t-101 112t-152.5 40.5q-88 0 -154 -40.5t-101.5 -112t-35.5 -160.5q0 -88 35 -159.5t101 -113t154 -41.5t153.5 41z" />
    <glyph glyph-name="R" unicode="R" horiz-adv-x="696" 
d="M112 642q-11 -3 -20 -9q-8 -7 -11 -16t-4 -22h-38q2 43 28 67q24 22 77 22l218 1q45 0 79 -17q49 -24 77 -74t28 -112q0 -53 -20.5 -96t-56 -67.5t-79.5 -24.5h-39l21 -9q16 -6 38 -35l148 -200q15 -20 35 -20q10 0 20.5 4t17.5 11l31 -21q-11 -16 -29 -24.5t-39 -8.5
q-41 0 -69 37l-123 168q-28 38 -56 59.5t-80 28.5v39h81q70 0 113.5 44t43.5 115q0 46 -19 83t-52.5 58.5t-74.5 21.5h-173v-644h-42v644q-20 0 -31 -3z" />
    <glyph glyph-name="S" unicode="S" horiz-adv-x="561" 
d="M127.5 29.5q-65.5 45.5 -88.5 119.5l38 15q19 -63 74.5 -101.5t126.5 -38.5q53 0 96 22.5t67.5 62t24.5 88.5q0 38 -17.5 66.5t-58.5 54.5t-115 57q-65 27 -100.5 51t-51 51t-15.5 64q0 45 24 81.5t66.5 57.5t94.5 21q68 0 111 -32t43 -84q0 -39 -26 -63.5t-60 -20.5
l3 38q18 -2 29.5 10.5t11.5 33.5q0 34 -31.5 56t-78.5 22q-38 0 -71.5 -16.5t-53.5 -43.5t-20 -58q0 -29 12 -48.5t43 -38.5t92 -45q81 -34 126.5 -65t65.5 -66t20 -82q0 -62 -30 -110.5t-82.5 -76t-119.5 -27.5q-84 0 -149.5 45.5z" />
    <glyph glyph-name="T" unicode="T" horiz-adv-x="608" 
d="M121 645q-16 0 -27.5 -10t-15.5 -25h-41q1 27 24 50q25 25 57 25h453v-40h-239v-644h-42v644h-169z" />
    <glyph glyph-name="U" unicode="U" horiz-adv-x="727" 
d="M249 27q-57 37 -86.5 99.5t-29.5 138.5v339q0 57 -47 57q-18 0 -27 -7.5t-15 -17.5l-31 23q22 42 75 42q39 0 63 -24.5t24 -72.5v-339q0 -65 24.5 -118.5t72 -85t113.5 -31.5q70 0 117.5 34.5t70 88t22.5 112.5v419h42v-419q0 -71 -27 -134t-83.5 -102t-140.5 -39
q-80 0 -137 37z" />
    <glyph glyph-name="V" unicode="V" horiz-adv-x="655" 
d="M72 649q-5 0 -13 -3q-11 -4 -17 -12l-32 21q9 20 35 29q15 6 30 6q24 0 42 -15.5t28 -43.5l195 -534l11 -44l11 45l205 588h47l-241 -685h-47l-221 618q-11 30 -33 30z" />
    <glyph glyph-name="W" unicode="W" horiz-adv-x="1097" 
d="M93 657q-3 0 -11 -2q-11 -4 -17 -12l-31 22q3 8 12.5 15.5t23.5 12.5q17 5 27 5q25 0 43.5 -16t27.5 -46l175 -542l11 -53l12 53l190 592h50l190 -592l12 -56l11 56l190 592h46l-222 -685h-50l-202 619l-201 -619h-50l-202 623q-10 33 -35 33z" />
    <glyph glyph-name="X" unicode="X" horiz-adv-x="615" 
d="M287 393l188 292h53l-216 -332l175 -297q4 -7 13 -12.5t20 -5.5q10 0 22 8l39 -28q-27 -25 -65 -25q-29 0 -47 16.5t-40 54.5l-145 257l-183 -320h-53l209 361l-213 323h53z" />
    <glyph glyph-name="Y" unicode="Y" horiz-adv-x="613" 
d="M100 656q-8 0 -15 -4q-11 -7 -15 -15l-35 16q7 21 30 34q20 11 39 11q20 0 38 -12.5t30 -35.5l168 -302l187 338h49l-216 -384l2 -301h-43v299l-183 330q-14 26 -36 26z" />
    <glyph glyph-name="Z" unicode="Z" horiz-adv-x="573" 
d="M419 644h-344v40h414l-359 -603l45 -8q23 -4 89 -22q46 -13 72 -18.5t50 -5.5q66 0 122 50l28 -28q-37 -34 -72.5 -48t-77.5 -14q-35 0 -70 8t-86 23q-75 24 -119 31l-36 -60l-34 20z" />
    <glyph glyph-name="bracketleft" unicode="[" horiz-adv-x="362" 
d="M101 752h224v-40h-182v-850h182v-39h-224v929z" />
    <glyph glyph-name="backslash" unicode="\" horiz-adv-x="310" 
d="M21 752h49l220 -822h-51z" />
    <glyph glyph-name="bracketright" unicode="]" horiz-adv-x="362" 
d="M261 -177h-224v39h182v850h-182v40h224v-929z" />
    <glyph glyph-name="asciicircum" unicode="^" horiz-adv-x="499" 
d="M247 541l-139 -201l-38 26l173 248h13l172 -248l-39 -28z" />
    <glyph glyph-name="underscore" unicode="_" horiz-adv-x="597" 
d="M81 -93h435v-40h-435v40z" />
    <glyph glyph-name="grave" unicode="`" horiz-adv-x="225" 
d="M32 692l33 33l128 -144l-18 -20z" />
    <glyph glyph-name="a" unicode="a" horiz-adv-x="581" 
d="M565 28q-10 -17 -27.5 -26t-36.5 -9q-36 0 -57 20.5t-24 60.5q-21 -38 -64 -60.5t-97 -22.5q-69 0 -116.5 34.5t-71 92t-23.5 127.5q0 78 29 136.5t83.5 91t129.5 32.5q23 0 58.5 -2.5t62.5 -6.5h50v-418q0 -24 11 -35.5t29 -11.5q9 0 18.5 5t13.5 12zM419 460
q-16 -1 -72 3l-61 2q-95 0 -145.5 -62t-50.5 -156q0 -56 19.5 -105.5t58 -80t92.5 -30.5q49 0 87 24t57 62q15 30 15 69v274z" />
    <glyph glyph-name="b" unicode="b" horiz-adv-x="544" 
d="M147 -3q-39 6 -64 13v717h42v-319q23 49 66 73t96 24q63 0 110 -32t72.5 -90.5t25.5 -134.5q0 -114 -60.5 -185.5t-189.5 -71.5q-50 0 -98 6zM403.5 90.5q49.5 61.5 49.5 156.5q0 69 -22.5 118.5t-61 75.5t-85.5 26q-26 0 -52.5 -9.5t-48.5 -25.5q-53 -39 -58 -103v-289
l60 -8q19 -3 59 -3q110 0 159.5 61.5z" />
    <glyph glyph-name="c" unicode="c" horiz-adv-x="491" 
d="M109 58.5q-61 63.5 -61 178.5q0 81 28 142.5t79 95.5t118 34q74 0 122 -39t51 -102h-39q-3 47 -39 75t-93 28q-53 0 -95 -30.5t-66 -84t-24 -120.5q0 -95 51 -149t140 -54q37 0 72.5 10.5t86.5 36.5l19 -31q-43 -28 -86 -41t-92 -13q-111 0 -172 63.5z" />
    <glyph glyph-name="d" unicode="d" horiz-adv-x="581" 
d="M144.5 25.5q-47.5 34.5 -72 92.5t-24.5 129q0 77 29 135t83.5 90.5t129.5 32.5q34 0 71.5 -4t57.5 -8v235h42v-650q0 -24 11 -35.5t29 -11.5q9 0 18.5 5t13.5 12l32 -20q-10 -17 -27.5 -26t-36.5 -9q-37 0 -58 21.5t-23 61.5q-19 -35 -63.5 -60t-96.5 -25
q-68 0 -115.5 34.5zM345.5 52.5q38.5 23.5 58.5 64.5q15 32 15 69v268q-43 13 -108 13q-114 0 -167.5 -61t-53.5 -159q0 -93 44.5 -155.5t125.5 -62.5q47 0 85.5 23.5z" />
    <glyph glyph-name="e" unicode="e" horiz-adv-x="495" 
d="M105 56.5q-57 65.5 -57 172.5q0 69 24 132t74 103.5t123 40.5q76 0 127 -41t51 -109q0 -72 -59.5 -111t-161.5 -39h-133q8 -84 54 -130t126 -46q45 0 82.5 13t77.5 38l21 -29q-85 -60 -181 -60q-111 0 -168 65.5zM355.5 270q49.5 27 49.5 86q0 54 -40 82.5t-93 28.5
q-61 0 -102.5 -36.5t-61 -89t-17.5 -98.5h135q80 0 129.5 27z" />
    <glyph glyph-name="f" unicode="f" horiz-adv-x="375" 
d="M121 687.5q37 56.5 119 56.5q67 0 103 -38t36 -108q0 -85 -52.5 -131t-144.5 -43l-56 2v-182h151v-38h-151v-470h-42v770q0 125 37 181.5zM295 499q42 37 42 100q0 49 -27 78t-72 29q-112 0 -112 -197v-47h56q71 0 113 37z" />
    <glyph glyph-name="g" unicode="g" horiz-adv-x="547" 
d="M212 -242.5q-41 42.5 -41 107.5q0 84 63 127q-54 7 -97 42t-67 91t-24 122q0 74 31.5 133t87 92.5t124.5 33.5q38 0 62 -3l62 -7h50v-628q0 -68 -41.5 -110.5t-107.5 -42.5q-61 0 -102 42.5zM307.5 41.5q27.5 11.5 51.5 31.5q28 24 45 52.5t17 51.5v285l-104 6h-33
q-55 0 -99.5 -29t-70.5 -79.5t-26 -112.5q0 -59 22.5 -108.5t61 -79t83.5 -29.5q25 0 52.5 11.5zM390.5 -215q26.5 32 30.5 91v218q-19 -35 -59 -67q-11 -10 -35 -23.5t-30 -17.5q-6 -3 -26 -15q-32 -22 -46 -46.5t-14 -57.5q0 -48 31 -81t77 -33q45 0 71.5 32z" />
    <glyph glyph-name="h" unicode="h" horiz-adv-x="581" 
d="M475 40q11 -12 29 -12q17 0 30 16l31 -22q-23 -32 -62 -32q-36 0 -58.5 23.5t-22.5 63.5v271q0 61 -32.5 91.5t-92.5 30.5q-54 0 -92.5 -27t-78.5 -82v-357h-42v726h42v-329q33 55 76.5 81t102.5 26q81 0 120 -39t39 -118v-275q0 -24 11 -36z" />
    <glyph glyph-name="i" unicode="i" horiz-adv-x="239" 
d="M133 40q11 -12 29 -12q17 0 30 16l31 -22q-23 -32 -62 -32q-36 0 -58.5 23.5t-22.5 63.5v423h42v-424q0 -24 11 -36zM75 585q-10 10 -10 26t10 26t26 10t26.5 -10t10.5 -26t-10.5 -26t-26.5 -10t-26 10z" />
    <glyph glyph-name="j" unicode="j" horiz-adv-x="212" 
d="M-32 -224l35 23q18 -23 40 -23q19 0 31 14.5t12 36.5v673h42v-673q0 -40 -23.5 -65.5t-61.5 -25.5q-44 0 -75 40zM81 585q-10 10 -10 26t10 26t26 10t26.5 -10t10.5 -26t-10.5 -26t-26.5 -10t-26 10z" />
    <glyph glyph-name="k" unicode="k" horiz-adv-x="550" 
d="M126 728v-350q23 63 68 96.5t104 33.5q68 0 109 -40.5t41 -108.5q0 -97 -99 -142l92 -158q15 -28 37 -28q17 0 28 13l28 -25q-14 -14 -26.5 -20.5t-30.5 -6.5q-23 0 -39.5 9t-29.5 31l-100 174h-182v-206h-42v728h42zM337 259q34 14 53.5 41.5t19.5 62.5q0 46 -31.5 76.5
t-82.5 30.5q-55 0 -96 -36.5t-60 -102.5q-13 -47 -12 -86h126q52 0 83 14z" />
    <glyph glyph-name="l" unicode="l" horiz-adv-x="240" 
d="M134 40q11 -12 29 -12q17 0 30 16l31 -22q-23 -32 -62 -32q-36 0 -58.5 23.5t-22.5 63.5v650h42v-651q0 -24 11 -36z" />
    <glyph glyph-name="m" unicode="m" horiz-adv-x="860" 
d="M844 22q-23 -32 -62 -32q-36 0 -58.5 23.5t-22.5 63.5v274q-6 115 -109 115q-102 0 -156 -106v-359h-42v336q0 60 -27.5 94.5t-80.5 34.5q-51 0 -95 -30.5t-61 -74.5v-360h-42v359q0 44 -9 69.5t-28 49.5l28 27q21 -20 34.5 -46.5t15.5 -54.5q51 100 162 100
q108 0 139 -105q57 105 163 105q70 0 110 -41t40 -112v-276q0 -24 11 -36t29 -12q17 0 30 16z" />
    <glyph glyph-name="n" unicode="n" horiz-adv-x="586" 
d="M570 22q-23 -32 -62 -32q-36 0 -58.5 23.5t-22.5 63.5v260q0 130 -120 130q-50 0 -91.5 -25.5t-84.5 -83.5v-358h-42v360q0 44 -9 69.5t-28 49.5l28 27q22 -21 35.5 -48.5t15.5 -56.5q34 55 77.5 79.5t103.5 24.5q75 0 116 -38t41 -109v-282q0 -24 11 -36t29 -12
q17 0 30 16z" />
    <glyph glyph-name="o" unicode="o" horiz-adv-x="576" 
d="M161.5 23q-54.5 32 -85 90t-30.5 133q0 76 30.5 134.5t85.5 91.5t126 33t126 -32.5t85.5 -91t30.5 -134.5q0 -75 -30.5 -133.5t-85.5 -90.5t-127 -32q-71 0 -125.5 32zM392.5 57q45.5 28 70.5 78.5t25 115.5q0 64 -25 113t-70.5 76t-104.5 27t-104.5 -27.5t-70.5 -77.5
t-25 -115q0 -64 25 -113.5t70.5 -77t104.5 -27.5t104.5 28z" />
    <glyph glyph-name="p" unicode="p" horiz-adv-x="551" 
d="M407 471q48 -34 72 -91.5t24 -128.5q0 -77 -28.5 -135.5t-83 -91.5t-130.5 -33q-40 0 -129 12v-263h-42v621q0 44 -9 69.5t-28 49.5l28 27q21 -20 34.5 -46t15.5 -54q21 51 62.5 74.5t96.5 23.5q69 0 117 -34zM408 88.5q53 59.5 53 156.5q0 60 -20 110.5t-58.5 81
t-89.5 30.5q-39 0 -74.5 -17.5t-59.5 -49t-27 -71.5v-290q100 -10 124 -10q99 0 152 59.5z" />
    <glyph glyph-name="q" unicode="q" horiz-adv-x="544" 
d="M356 15.5q-42 -24.5 -98 -24.5q-67 0 -114.5 33.5t-71.5 91.5t-24 131q0 119 65 188.5t192 69.5q33 0 76.5 -5t78.5 -14v-746h-42v349q-20 -49 -62 -73.5zM332.5 46.5q35.5 17.5 58.5 49t27 71.5v288q-53 10 -109 10q-115 0 -167 -57t-52 -155q0 -97 44.5 -160.5
t122.5 -63.5q40 0 75.5 17.5z" />
    <glyph glyph-name="r" unicode="r" horiz-adv-x="350" 
d="M332 498v-38q-29 5 -50 5q-57 0 -92 -28q-15 -13 -32 -33.5t-29 -43.5v-359h-42v361q0 44 -9 69.5t-28 49.5l28 27q22 -21 35.5 -47.5t15.5 -55.5q13 26 31 47t36 32q34 21 84 21q14 0 52 -7z" />
    <glyph glyph-name="s" unicode="s" horiz-adv-x="422" 
d="M119 7q-44 18 -85 56l24 29q73 -65 157 -65q57 0 94 29t37 78q0 31 -16 51t-43.5 34t-83.5 37q-52 21 -80 36t-45.5 38.5t-17.5 58.5q0 56 41.5 90t110.5 34q64 0 119 -35l-20 -32q-49 29 -98 29t-79.5 -24t-30.5 -62q0 -21 11.5 -35.5t38.5 -29t85 -39.5q60 -26 89 -43
t45.5 -41t16.5 -62q0 -69 -48 -109.5t-127 -40.5q-51 0 -95 18z" />
    <glyph glyph-name="t" unicode="t" horiz-adv-x="349" 
d="M77 140v483h42v-123h161v-40h-161v-320q0 -53 19.5 -82t64.5 -29q59 0 94 57l30 -22q-23 -37 -52 -55t-72 -18q-126 0 -126 149z" />
    <glyph glyph-name="u" unicode="u" horiz-adv-x="579" 
d="M238 -7q-75 0 -114 34.5t-43 107.5v229q0 44 -9 69.5t-28 49.5l28 27q23 -23 37 -52.5t14 -60.5v-236q0 -130 121 -130q55 0 94 25.5t79 78.5l1 365h42l-1 -422q0 -24 11 -35.5t29 -11.5q9 0 18.5 5t13.5 12l32 -20q-10 -17 -27.5 -26t-36.5 -9q-37 0 -58 21.5t-23 61.5
q-66 -83 -180 -83z" />
    <glyph glyph-name="v" unicode="v" horiz-adv-x="480" 
d="M46 451q-13 16 -28 26l24 33q26 -18 42.5 -43t29.5 -59l135 -351l164 439h44l-184 -495h-47l-161 419q-6 15 -19 31z" />
    <glyph glyph-name="w" unicode="w" horiz-adv-x="769" 
d="M48 451.5q-13 15.5 -29 26.5l21 33q25 -15 40 -35.5t24 -48.5l122 -367l143 437h47l142 -437l143 437h42l-161 -495h-47l-143 437l-143 -437h-48l-136 419q-4 15 -17 30.5z" />
    <glyph glyph-name="x" unicode="x" horiz-adv-x="472" 
d="M216 280l131 217h51l-152 -246l121 -195q13 -21 33 -21q14 0 23 9l39 -25q-25 -27 -62 -27q-45 0 -70 40l-114 186l-136 -217h-49l156 248l-158 248h51z" />
    <glyph glyph-name="y" unicode="y" horiz-adv-x="546" 
d="M212 -247q-41 43 -41 109q0 43 21.5 79t58.5 53q-83 0 -125.5 35.5t-42.5 105.5v228q0 44 -9 69.5t-28 49.5l28 27q23 -23 37 -52.5t14 -60.5v-240q0 -65 28 -94.5t91 -29.5q47 0 85 20t75 66q8 15 11.5 26t3.5 24l1 332h42l-1 -366v-259q0 -76 -38.5 -120.5
t-105.5 -44.5q-64 0 -105 43zM391 -217q28 33 28 88v208q-28 -36 -68 -63q-35 -20 -56 -31q-43 -22 -62.5 -51t-19.5 -70q0 -50 28.5 -82t74.5 -32q47 0 75 33z" />
    <glyph glyph-name="z" unicode="z" horiz-adv-x="464" 
d="M328 456h-268v39h343v-4l-282 -412l90 -32q56 -20 115 -20q25 0 46 6.5t51 25.5l19 -32q-30 -21 -55.5 -30t-58.5 -9q-55 0 -124 22l-106 34l-42 -60l-33 25z" />
    <glyph glyph-name="braceleft" unicode="{" horiz-adv-x="304" 
d="M172.5 -155q-35.5 15 -56.5 47q-16 25 -16 65q0 30 5.5 80t6.5 65q8 74 8 84q0 64 -84 75v41q51 7 74 34q10 13 10 48q0 30 -10 110q-10 76 -10 104q0 41 11.5 67t44.5 44q41 22 104 36l9 -29q-57 -13 -89 -35q-36 -25 -36 -75q0 -7 8 -87q2 -17 7 -70t5 -76
q0 -39 -24.5 -61.5t-75.5 -30.5q52 -9 76.5 -29t24.5 -68q0 -23 -9 -93q-12 -96 -12 -136q0 -27 9 -43q14 -26 44.5 -41t71.5 -23l-9 -28q-52 10 -87.5 25z" />
    <glyph glyph-name="bar" unicode="|" horiz-adv-x="294" 
d="M126 752h42v-822h-42v822z" />
    <glyph glyph-name="braceright" unicode="}" horiz-adv-x="304" 
d="M106.5 -123q30.5 15 44.5 41q9 16 9 43q0 40 -12 136q-9 70 -9 93q0 48 24.5 68t76.5 29q-51 8 -75.5 30.5t-24.5 61.5q0 23 5 76t7 70q8 80 8 87q0 50 -36 75q-32 22 -89 35l9 29q63 -14 104 -36q33 -18 44.5 -44t11.5 -67q0 -28 -10 -104q-10 -80 -10 -110
q0 -35 10 -48q23 -27 74 -34v-41q-84 -11 -84 -75q0 -10 8 -84q1 -15 6.5 -65t5.5 -80q0 -40 -16 -65q-21 -32 -56.5 -47t-87.5 -25l-9 28q41 8 71.5 23z" />
    <glyph glyph-name="asciitilde" unicode="~" horiz-adv-x="577" 
d="M153 321q24 9 56 9q25 0 43.5 -4.5t42.5 -13.5q23 -9 37 -12.5t33 -3.5q45 0 84 30l26 -31q-28 -22 -50 -29.5t-58 -9.5q-21 0 -39.5 4.5t-42.5 13.5q-45 17 -75 17q-42 0 -82 -30l-26 31q27 20 51 29z" />
    <glyph glyph-name="uni00A0" unicode="&#xa0;" horiz-adv-x="270" 
 />
    <glyph glyph-name="exclamdown" unicode="&#xa1;" horiz-adv-x="249" 
d="M151.5 521q10.5 -10 10.5 -26t-10.5 -26t-26.5 -10t-26 10t-10 26t10 26t26 10t26.5 -10zM105 371h39l9 -562h-57z" />
    <glyph glyph-name="cent" unicode="&#xa2;" horiz-adv-x="557" 
d="M131 146q-44 64 -44 169t49 175q57 78 138 88v106h42v-105q35 -3 64.5 -16t49.5 -31q41 -38 42 -92h-44q-2 41 -28 67q-13 13 -35.5 23.5t-48.5 13.5v-439q41 2 70 12t50 21t27 14l19 -32q-36 -24 -68 -35q-54 -18 -98 -19v-116h-42v118q-97 12 -143 78zM209 510.5
q-29 -25.5 -46 -58.5q-33 -63 -33 -149q0 -81 38 -131q39 -51 106 -64v434q-36 -6 -65 -31.5z" />
    <glyph glyph-name="sterling" unicode="&#xa3;" horiz-adv-x="541" 
d="M507 25q-56 -37 -126 -37q-30 0 -68 6q-18 3 -45.5 10.5t-36.5 10.5l-74 22q-2 -5 -10 -22t-14 -25l-33 17q27 60 27 111v167h-48v41h48v134q0 96 52 145t153 49q36 0 82.5 -15t75.5 -37l-20 -29q-29 18 -72.5 30.5t-73.5 12.5q-79 0 -117 -39t-38 -120v-131h167v-41
h-167v-166l-4 -43l38 -13q45 -15 70 -22.5t42 -9.5q42 -5 66 -5q32 0 57.5 7t52.5 24z" />
    <glyph glyph-name="currency" unicode="&#xa4;" horiz-adv-x="722" 
d="M186 132q-51 60 -51 155q0 49 13 84q14 42 39 70l-105 106l34 35l107 -108q31 22 65 33q29 11 73 11t74 -11q34 -11 65 -33l107 108l34 -35l-104 -106q49 -58 49 -153q0 -48 -12 -84q-11 -36 -38 -70l105 -105l-34 -35l-108 108q-31 -20 -65 -33q-31 -12 -73 -12
q-41 0 -74 11q-32 11 -65 32l-106 -106l-34 35zM434 111q35 16 56 40q23 25 36 61q12 36 12 78q0 85 -48 136q-46 51 -128 51q-27 0 -40.5 -3t-32.5 -10q-30 -13 -56 -39q-25 -26 -36 -60q-12 -34 -12 -77q0 -41 13 -78t36 -60q22 -25 55 -39q34 -14 73 -14t72 14z" />
    <glyph glyph-name="yen" unicode="&#xa5;" horiz-adv-x="648" 
d="M303 174h-198v39h196v90l-14 22h-183v41h162l-187 275h53l193 -285l190 285h54l-184 -275h158v-41h-180l-13 -22v-90h194v-39h-194v-173h-47v173z" />
    <glyph glyph-name="brokenbar" unicode="&#xa6;" horiz-adv-x="300" 
d="M126 752h48v-363h-48v363zM126 293h48v-363h-48v363z" />
    <glyph glyph-name="section" unicode="&#xa7;" horiz-adv-x="431" 
d="M230 9q41 22 41 65q0 27 -14.5 47t-38.5 39q-16 12 -38 27q-35 22 -55 41q-26 23 -37 46t-11 56q0 49 25 82q11 15 23.5 21.5t19.5 4.5q-37 42 -37 94q0 30 12 52t39 39q48 34 143 49l10 -40q-77 -16 -112 -35q-20 -11 -30 -28t-10 -36q0 -26 14 -47t38 -40q7 -5 38 -26
q38 -26 56 -42q25 -22 36.5 -44.5t11.5 -53.5q0 -24 -6.5 -47t-18.5 -39q-11 -12 -43 -31q37 -39 37 -89q0 -59 -51 -91q-49 -34 -144 -49l-10 40q78 17 112 35zM292 229q13 24 13 48t-11.5 41.5t-31.5 33.5q-4 3 -43 31q-36 25 -41 30q-24 -12 -38 -34.5t-14 -48.5
q0 -24 11 -42t31 -35q22 -18 46 -32q33 -23 38 -27q27 11 40 35z" />
    <glyph glyph-name="dieresis" unicode="&#xa8;" horiz-adv-x="411" 
d="M67 574q-10 10 -10 26t10 26t26 10t26.5 -10t10.5 -26t-10.5 -26t-26.5 -10t-26 10zM289 574q-10 10 -10 26t10 26t26 10t26.5 -10t10.5 -26t-10.5 -26t-26.5 -10t-26 10z" />
    <glyph glyph-name="copyright" unicode="&#xa9;" horiz-adv-x="772" 
d="M168 35q-42 42 -63 97.5t-21 119.5q0 65 22 121.5t62 97.5q42 43 98.5 64.5t120.5 21.5q65 0 120.5 -22t96.5 -64t62.5 -98t21.5 -119q0 -67 -22.5 -122.5t-61.5 -95.5q-40 -41 -95.5 -63.5t-123.5 -22.5q-132 0 -217 85zM492.5 5q48.5 21 82.5 55q35 36 53.5 87.5
t18.5 109.5q0 56 -18.5 107t-53.5 86t-84 53.5t-104 18.5q-56 0 -105.5 -19t-84.5 -55q-36 -36 -54 -86t-18 -108q0 -59 18 -109.5t54 -86.5q35 -36 84.5 -55t104.5 -19q58 0 106.5 21zM282 130q-39 45 -39 118q0 76 41 126t110 50q26 0 45.5 -7.5t27 -13.5t22.5 -19
l-26 -24q-15 15 -31 21.5t-38 6.5q-56 0 -83.5 -42t-27.5 -100t28.5 -91.5t80.5 -33.5q46 0 103 31l17 -28q-25 -18 -58 -28.5t-65 -10.5q-68 0 -107 45z" />
    <glyph glyph-name="ordfeminine" unicode="&#xaa;" horiz-adv-x="471" 
d="M110.5 413.5q-37.5 44.5 -37.5 109.5q0 70 44 113.5t117 43.5q40 0 78 -5h40v-251q0 -9 6.5 -14.5t15.5 -5.5q12 0 19 10l29 -20q-8 -12 -22.5 -18.5t-28.5 -6.5q-22 0 -38.5 12t-20.5 29q-31 -41 -97 -41q-67 0 -104.5 44.5zM267 416.5q24 12.5 35 33.5q8 15 8 38v155
l-39 1q-15 1 -40 1q-56 0 -86 -33.5t-30 -87.5q0 -50 25.5 -85t74.5 -35q28 0 52 12.5z" />
    <glyph glyph-name="guillemotleft" unicode="&#xab;" horiz-adv-x="562" 
d="M252 250q0 17 30 44l205 183l27 -32l-223 -195l223 -196l-27 -31l-205 183q-30 27 -30 44zM39 250q0 17 30 44l205 183l27 -32l-223 -195l223 -196l-27 -31l-205 183q-30 27 -30 44z" />
    <glyph glyph-name="logicalnot" unicode="&#xac;" horiz-adv-x="565" 
d="M391 270h-304v45h353v-164h-49v119z" />
    <glyph glyph-name="uni00AD" unicode="&#xad;" horiz-adv-x="451" 
d="M81 320h289v-40h-289v40z" />
    <glyph glyph-name="registered" unicode="&#xae;" horiz-adv-x="772" 
d="M666.5 536q21.5 -56 21.5 -119q0 -67 -22.5 -122.5t-61.5 -95.5q-40 -41 -95.5 -63.5t-123.5 -22.5q-132 0 -217 85q-42 42 -63 97.5t-21 119.5q0 65 22 121.5t62 97.5q42 43 98.5 64.5t120.5 21.5q65 0 120.5 -22t96.5 -64t62.5 -98zM628.5 310.5q18.5 51.5 18.5 109.5
q0 56 -18.5 107t-53.5 86t-84 53.5t-104 18.5q-56 0 -105.5 -19t-84.5 -55q-36 -36 -54 -86t-18 -108q0 -59 18 -109.5t54 -86.5q35 -36 84.5 -55t104.5 -19q58 0 106.5 21t82.5 55q35 36 53.5 87.5zM519 290l16 -33q-13 -10 -27 -10q-18 0 -28.5 7.5t-13.5 13.5l-61 78
q-18 24 -29.5 31t-35.5 8v37h48q29 0 46 17t17 47q0 31 -16.5 50.5t-41.5 19.5h-68v-306h-39v342h109q41 0 68 -29.5t27 -70.5q0 -26 -9 -46.5t-21.5 -32.5t-23.5 -14q-18 -3 -28 -3q11 -6 22 -20q57 -76 66 -85q3 -3 5.5 -4.5t6.5 -1.5q6 0 11 5z" />
    <glyph glyph-name="macron" unicode="&#xaf;" horiz-adv-x="419" 
d="M80 610h259v-41h-259v41z" />
    <glyph glyph-name="degree" unicode="&#xb0;" horiz-adv-x="454" 
d="M133 440q-34 35 -34 96q0 64 37.5 96t92.5 32q57 0 91.5 -35t34.5 -95q0 -64 -38 -96.5t-92 -32.5q-58 0 -92 35zM290 467.5q24 26.5 24 67.5t-23.5 67t-62.5 26q-41 0 -64.5 -27t-23.5 -67q0 -41 23.5 -67t63.5 -26q39 0 63 26.5z" />
    <glyph glyph-name="plusminus" unicode="&#xb1;" horiz-adv-x="523" 
d="M240 274h-161v38h161v163h43v-163h161v-38h-161v-164h-43v164zM79 40h365v-39h-365v39z" />
    <glyph glyph-name="uni00B2" unicode="&#xb2;" horiz-adv-x="300" 
d="M39.5 248q4.5 16 24.5 40t62 54q6 4 31 21.5t38 36t13 39.5q0 26 -15.5 40.5t-43.5 14.5q-30 0 -52 -16.5t-29 -46.5l-34 18q14 39 42.5 59.5t70.5 20.5q46 0 73 -25t27 -68q0 -26 -10 -44.5t-25 -32t-46 -36.5q-18 -12 -36 -27q-27 -21 -35.5 -30.5t-14.5 -23.5h187v-41
h-232v12q0 19 4.5 35z" />
    <glyph glyph-name="uni00B3" unicode="&#xb3;" horiz-adv-x="298" 
d="M17 251l23 27q21 -20 42.5 -30t50.5 -10q38 0 61 15.5t23 45.5q0 31 -22.5 48.5t-53.5 17.5h-51v37h50q23 0 41.5 16t18.5 38q0 20 -18.5 31t-43.5 11q-38 0 -73 -24l-19 30q17 15 43 24t51 9q41 0 71.5 -22.5t30.5 -59.5q0 -21 -10 -42t-33 -28q28 -5 44.5 -32.5
t16.5 -57.5q0 -44 -35.5 -70t-85.5 -26q-70 0 -122 52z" />
    <glyph glyph-name="acute" unicode="&#xb4;" horiz-adv-x="219" 
d="M35 580l115 154l36 -29l-132 -143z" />
    <glyph glyph-name="uni00B5" unicode="&#xb5;" horiz-adv-x="615" 
d="M168 495v-343h1q2 -62 28 -91q27 -31 89 -31q57 0 95 29q39 30 75 81v355h42v-354q0 -76 37 -121l-25 -25q-21 16 -31 37q-17 34 -20 72q-33 -57 -75.5 -85t-97.5 -28q-37 0 -62 7q-33 9 -56 29v-281h-42v749h42z" />
    <glyph glyph-name="paragraph" unicode="&#xb6;" horiz-adv-x="654" 
d="M118 308q-43 45 -43 126q0 99 61 141q61 41 221 41h96l75 -3v-611h-44v567h-148v-567h-46v254q-128 11 -172 52z" />
    <glyph glyph-name="periodcentered" unicode="&#xb7;" horiz-adv-x="275" 
d="M99.5 288.5q-15.5 15.5 -15.5 38.5t15.5 38.5t37.5 15.5q23 0 38.5 -15.5t15.5 -38.5t-15.5 -38.5t-38.5 -15.5q-22 0 -37.5 15.5z" />
    <glyph glyph-name="cedilla" unicode="&#xb8;" horiz-adv-x="231" 
d="M125.5 -174q13.5 18 13.5 39q0 23 -15 36t-41 13h-24l11 95h47l-12 -61q36 -2 54.5 -25.5t18.5 -58.5q0 -39 -26 -69.5t-69 -27.5l7 38q22 3 35.5 21z" />
    <glyph glyph-name="uni00B9" unicode="&#xb9;" horiz-adv-x="206" 
d="M20 444l-9 38q22 -3 44.5 8.5t70.5 43.5h13v-334h-42v267q-36 -26 -77 -23z" />
    <glyph glyph-name="ordmasculine" unicode="&#xba;" horiz-adv-x="455" 
d="M115.5 413q-43.5 44 -43.5 111q0 44 19.5 80t55 57t80.5 21t80.5 -20.5t55 -56.5t19.5 -80q0 -69 -43.5 -112.5t-111.5 -43.5t-111.5 44zM310 440.5q30 33.5 30 86.5q0 54 -30.5 85.5t-82.5 31.5q-53 0 -83.5 -33.5t-30.5 -85.5q0 -53 31 -85.5t83 -32.5q53 0 83 33.5z
" />
    <glyph glyph-name="guillemotright" unicode="&#xbb;" horiz-adv-x="562" 
d="M481 250l-221 195l28 32l205 -183q11 -11 23 -25q7 -10 7 -19q0 -17 -30 -44l-205 -183l-28 32zM268 250l-221 195l28 32l205 -183q11 -11 23 -25q7 -10 7 -19q0 -17 -30 -44l-205 -183l-28 32z" />
    <glyph glyph-name="onequarter" unicode="&#xbc;" horiz-adv-x="675" 
d="M20 444l-9 38q22 -3 44.5 8.5t70.5 43.5h13v-334h-42v267q-36 -26 -77 -23zM383 497h44l-216 -496h-45zM569 43h-159v31l105 234h47l-101 -227h108v108h42v-108h42v-38h-42v-62h-42v62z" />
    <glyph glyph-name="onehalf" unicode="&#xbd;" horiz-adv-x="687" 
d="M20 444l-9 38q22 -3 44.5 8.5t70.5 43.5h13v-334h-42v267q-36 -26 -77 -23zM383 497h44l-216 -496h-45zM426.5 30q4.5 16 24.5 40t62 54q6 4 31 21.5t38 36t13 39.5q0 26 -15.5 40.5t-43.5 14.5q-30 0 -52 -16.5t-29 -46.5l-34 18q14 39 42.5 59.5t70.5 20.5q46 0 73 -25
t27 -68q0 -26 -10 -44.5t-25 -32t-46 -36.5q-18 -12 -36 -27q-27 -21 -35.5 -30.5t-14.5 -23.5h187v-41h-232v12q0 19 4.5 35z" />
    <glyph glyph-name="threequarters" unicode="&#xbe;" horiz-adv-x="767" 
d="M17 245l23 27q21 -20 42.5 -30t50.5 -10q38 0 61 15.5t23 45.5q0 31 -22.5 48.5t-53.5 17.5h-51v37h50q23 0 41.5 16t18.5 38q0 20 -18.5 31t-43.5 11q-38 0 -73 -24l-19 30q17 15 43 24t51 9q41 0 71.5 -22.5t30.5 -59.5q0 -21 -10 -42t-33 -28q28 -5 44.5 -32.5
t16.5 -57.5q0 -44 -35.5 -70t-85.5 -26q-70 0 -122 52zM475 497h44l-216 -496h-45zM661 43h-159v31l105 234h47l-101 -227h108v108h42v-108h42v-38h-42v-62h-42v62z" />
    <glyph glyph-name="questiondown" unicode="&#xbf;" horiz-adv-x="473" 
d="M337 557q10 -10 10 -26t-10 -26t-26 -10t-26.5 10t-10.5 26t10.5 26t26.5 10t26 -10zM353 380q0 -52 -20 -81q-29 -44 -108 -82q-71 -35 -104 -76.5t-33 -99.5q0 -45 21 -82t58.5 -58t84.5 -21q34 0 67 13.5t54 35t21 43.5q0 16 -10.5 25.5t-27.5 11.5l14 39
q28 -1 47 -22t19 -50q0 -37 -25 -68t-67.5 -49.5t-90.5 -18.5q-61 0 -108 25.5t-73 72t-26 105.5q0 47 15.5 81.5t49.5 63.5t95 65l21 12q22 11 35 21t27 27q13 17 18.5 32t5.5 36q0 7 -2 29l39 8q3 -18 3 -38z" />
    <glyph glyph-name="Agrave" unicode="&#xc0;" horiz-adv-x="752" 
d="M65 7.5q-21 16.5 -29 45.5l39 6q4 -11 15 -19.5t25 -8.5q12 0 22.5 8.5t14.5 18.5l265 634h8l289 -691h-45l-97 233h-304l-78 -192q-10 -25 -30 -38t-46 -13q-28 0 -49 16.5zM554 274l-115 288l-19 63l-19 -65l-116 -286h269zM249 822l25 39l158 -110l-14 -24z" />
    <glyph glyph-name="Aacute" unicode="&#xc1;" horiz-adv-x="752" 
d="M65 7.5q-21 16.5 -29 45.5l39 6q4 -11 15 -19.5t25 -8.5q12 0 22.5 8.5t14.5 18.5l265 634h8l289 -691h-45l-97 233h-304l-78 -192q-10 -25 -30 -38t-46 -13q-28 0 -49 16.5zM554 274l-115 288l-19 63l-19 -65l-116 -286h269zM403 762l161 105l25 -40l-173 -89z" />
    <glyph glyph-name="Acircumflex" unicode="&#xc2;" horiz-adv-x="752" 
d="M65 7.5q-21 16.5 -29 45.5l39 6q4 -11 15 -19.5t25 -8.5q12 0 22.5 8.5t14.5 18.5l265 634h8l289 -691h-45l-97 233h-304l-78 -192q-10 -25 -30 -38t-46 -13q-28 0 -49 16.5zM554 274l-115 288l-19 63l-19 -65l-116 -286h269zM399 853h43l120 -121h-56l-85 85l-86 -85
h-55z" />
    <glyph glyph-name="Atilde" unicode="&#xc3;" horiz-adv-x="752" 
d="M65 7.5q-21 16.5 -29 45.5l39 6q4 -11 15 -19.5t25 -8.5q12 0 22.5 8.5t14.5 18.5l265 634h8l289 -691h-45l-97 233h-304l-78 -192q-10 -25 -30 -38t-46 -13q-28 0 -49 16.5zM554 274l-115 288l-19 63l-19 -65l-116 -286h269zM331.5 801.5q23.5 8.5 46.5 8.5
q20 0 33.5 -5t28.5 -14t25.5 -13t25.5 -4q34 0 74 31l25 -31q-27 -21 -47 -29.5t-54 -8.5q-19 0 -31.5 4.5t-28.5 13.5q-14 8 -24.5 12t-25.5 4q-18 0 -35 -6.5t-40 -24.5l-25 31q29 23 52.5 31.5z" />
    <glyph glyph-name="Adieresis" unicode="&#xc4;" horiz-adv-x="752" 
d="M65 7.5q-21 16.5 -29 45.5l39 6q4 -11 15 -19.5t25 -8.5q12 0 22.5 8.5t14.5 18.5l265 634h8l289 -691h-45l-97 233h-304l-78 -192q-10 -25 -30 -38t-46 -13q-28 0 -49 16.5zM554 274l-115 288l-19 63l-19 -65l-116 -286h269zM283 741q-10 10 -10 26t10 26t26 10
t26.5 -10t10.5 -26t-10.5 -26t-26.5 -10t-26 10zM505 741q-10 10 -10 26t10 26t26 10t26.5 -10t10.5 -26t-10.5 -26t-26.5 -10t-26 10z" />
    <glyph glyph-name="Aring" unicode="&#xc5;" horiz-adv-x="752" 
d="M65 7.5q-21 16.5 -29 45.5l39 6q4 -11 15 -19.5t25 -8.5q12 0 22.5 8.5t14.5 18.5l265 634h8l289 -691h-45l-97 233h-304l-78 -192q-10 -25 -30 -38t-46 -13q-28 0 -49 16.5zM554 274l-115 288l-19 63l-19 -65l-116 -286h269zM352.5 763q-25.5 26 -25.5 66
q0 41 26.5 67.5t67.5 26.5t67.5 -26t26.5 -66q0 -42 -27.5 -68t-68.5 -26t-66.5 26zM461.5 786.5q18.5 19.5 18.5 44.5q0 24 -18 42.5t-41 18.5t-40.5 -19t-17.5 -44q0 -27 17.5 -44.5t39.5 -17.5q23 0 41.5 19.5z" />
    <glyph glyph-name="AE" unicode="&#xc6;" horiz-adv-x="971" 
d="M54.5 8.5q-19.5 10.5 -32.5 29.5l37 18q6 -7 17.5 -12.5t21.5 -5.5q14 0 22.5 8t15.5 18t9 14l334 607h427v-40h-357v-261h254v-40h-254v-303h377v-40h-419v234h-228l-92 -164q-6 -8 -21.5 -31.5t-31 -32.5t-37.5 -9q-23 0 -42.5 10.5zM507 275l-1 381l-31 -60l-175 -321
h207z" />
    <glyph glyph-name="Ccedilla" unicode="&#xc7;" horiz-adv-x="720" 
d="M558 13.5q-72 -34.5 -152 -35.5l-10 -53q36 -2 54.5 -25.5t18.5 -58.5q0 -39 -26 -69.5t-69 -27.5l7 38q22 3 35.5 21t13.5 39q0 23 -15 36t-41 13h-24l10 89q-87 10 -155 60.5t-106.5 128t-38.5 168.5q0 98 46.5 183t126.5 135.5t175 50.5q93 0 160 -37.5t67 -108.5
q0 -37 -22 -62.5t-57 -25.5q-26 0 -46 14l25 32q14 -6 22 -6q17 0 29 15t12 34q0 31 -30 55t-74 36.5t-85 12.5q-85 0 -155.5 -46t-111 -121.5t-40.5 -160.5t38.5 -158.5t107.5 -117t155 -43.5q73 0 138 33t106 89l32 -22q-49 -70 -121 -104.5z" />
    <glyph glyph-name="Egrave" unicode="&#xc8;" horiz-adv-x="619" 
d="M112 642q-11 -3 -20 -9q-8 -7 -11 -16t-4 -22h-38q2 43 28 67q24 22 77 22l427 1v-40h-386v-261h263v-40h-263v-303h386v-40h-428v644q-20 0 -31 -3zM186 831l25 39l158 -110l-14 -24z" />
    <glyph glyph-name="Eacute" unicode="&#xc9;" horiz-adv-x="619" 
d="M112 642q-11 -3 -20 -9q-8 -7 -11 -16t-4 -22h-38q2 43 28 67q24 22 77 22l427 1v-40h-386v-261h263v-40h-263v-303h386v-40h-428v644q-20 0 -31 -3zM340 771l161 105l25 -40l-173 -89z" />
    <glyph glyph-name="Ecircumflex" unicode="&#xca;" horiz-adv-x="619" 
d="M112 642q-11 -3 -20 -9q-8 -7 -11 -16t-4 -22h-38q2 43 28 67q24 22 77 22l427 1v-40h-386v-261h263v-40h-263v-303h386v-40h-428v644q-20 0 -31 -3zM336 862h43l120 -121h-56l-85 85l-86 -85h-55z" />
    <glyph glyph-name="Edieresis" unicode="&#xcb;" horiz-adv-x="619" 
d="M112 642q-11 -3 -20 -9q-8 -7 -11 -16t-4 -22h-38q2 43 28 67q24 22 77 22l427 1v-40h-386v-261h263v-40h-263v-303h386v-40h-428v644q-20 0 -31 -3zM220 750q-10 10 -10 26t10 26t26 10t26.5 -10t10.5 -26t-10.5 -26t-26.5 -10t-26 10zM442 750q-10 10 -10 26t10 26
t26 10t26.5 -10t10.5 -26t-10.5 -26t-26.5 -10t-26 10z" />
    <glyph glyph-name="Igrave" unicode="&#xcc;" horiz-adv-x="255" 
d="M105 685h45v-684h-45v684zM-21 868l33 33l128 -144l-18 -20z" />
    <glyph glyph-name="Iacute" unicode="&#xcd;" horiz-adv-x="255" 
d="M105 685h45v-684h-45v684zM109 764l86 172l41 -23l-105 -164z" />
    <glyph glyph-name="Icircumflex" unicode="&#xce;" horiz-adv-x="255" 
d="M105 685h45v-684h-45v684zM103 882h43l94 -131h-50l-65 95l-66 -95h-49z" />
    <glyph glyph-name="Idieresis" unicode="&#xcf;" horiz-adv-x="255" 
d="M105 685h45v-684h-45v684zM12 761q-10 10 -10 26t10 26t26 10t26.5 -10t10.5 -26t-10.5 -26t-26.5 -10t-26 10zM187 761q-10 10 -10 26t10 26t26 10t26.5 -10t10.5 -26t-10.5 -26t-26.5 -10t-26 10z" />
    <glyph glyph-name="Eth" unicode="&#xd0;" horiz-adv-x="779" 
d="M564.5 640q71.5 -47 112 -127.5t40.5 -181.5q0 -173 -107.5 -256t-332.5 -83q-48 0 -96 4l-39 4v347h-85v41h85v264q-20 0 -31 -3t-20 -9q-8 -7 -11 -16t-4 -22h-38q2 43 28 67q24 22 77 22l259 -1q91 -3 162.5 -50zM675 333q0 140 -75 224t-208 93h-208v-262h130v-41
h-130v-311q52 -4 111 -4q380 0 380 301z" />
    <glyph glyph-name="Ntilde" unicode="&#xd1;" horiz-adv-x="784" 
d="M33 15l38 27q6 -7 15.5 -11.5t15.5 -4.5q17 0 29 12t12 32v615h28l111 -125l328 -418l28 -45l-3 587h45v-683h-7l-459 572l-31 45l4 -548q0 -42 -24.5 -64.5t-61.5 -22.5q-41 0 -68 32zM333.5 810.5q23.5 8.5 46.5 8.5q20 0 33.5 -5t28.5 -14t25.5 -13t25.5 -4
q34 0 74 31l25 -31q-27 -21 -47 -29.5t-54 -8.5q-19 0 -31.5 4.5t-28.5 13.5q-14 8 -24.5 12t-25.5 4q-18 0 -35 -6.5t-40 -24.5l-25 31q29 23 52.5 31.5z" />
    <glyph glyph-name="Ograve" unicode="&#xd2;" horiz-adv-x="808" 
d="M231.5 31q-78.5 45 -123.5 123.5t-45 176.5v19q0 99 44.5 179.5t122 126.5t173.5 46t174 -46t123 -126.5t45 -179.5v-19q0 -99 -43.5 -177.5t-120.5 -123t-174 -44.5t-175.5 45zM556.5 64q68.5 40 107.5 110.5t39 156.5v19q0 87 -40 158.5t-109 112.5t-152 41t-151 -41
t-107 -112.5t-39 -158.5v-19q0 -86 39 -156.5t107.5 -110.5t152.5 -40t152.5 40zM230 831l25 39l158 -110l-14 -24z" />
    <glyph glyph-name="Oacute" unicode="&#xd3;" horiz-adv-x="808" 
d="M231.5 31q-78.5 45 -123.5 123.5t-45 176.5v19q0 99 44.5 179.5t122 126.5t173.5 46t174 -46t123 -126.5t45 -179.5v-19q0 -99 -43.5 -177.5t-120.5 -123t-174 -44.5t-175.5 45zM556.5 64q68.5 40 107.5 110.5t39 156.5v19q0 87 -40 158.5t-109 112.5t-152 41t-151 -41
t-107 -112.5t-39 -158.5v-19q0 -86 39 -156.5t107.5 -110.5t152.5 -40t152.5 40zM384 771l161 105l25 -40l-173 -89z" />
    <glyph glyph-name="Ocircumflex" unicode="&#xd4;" horiz-adv-x="808" 
d="M231.5 31q-78.5 45 -123.5 123.5t-45 176.5v19q0 99 44.5 179.5t122 126.5t173.5 46t174 -46t123 -126.5t45 -179.5v-19q0 -99 -43.5 -177.5t-120.5 -123t-174 -44.5t-175.5 45zM556.5 64q68.5 40 107.5 110.5t39 156.5v19q0 87 -40 158.5t-109 112.5t-152 41t-151 -41
t-107 -112.5t-39 -158.5v-19q0 -86 39 -156.5t107.5 -110.5t152.5 -40t152.5 40zM380 862h43l120 -121h-56l-85 85l-86 -85h-55z" />
    <glyph glyph-name="Otilde" unicode="&#xd5;" horiz-adv-x="808" 
d="M231.5 31q-78.5 45 -123.5 123.5t-45 176.5v19q0 99 44.5 179.5t122 126.5t173.5 46t174 -46t123 -126.5t45 -179.5v-19q0 -99 -43.5 -177.5t-120.5 -123t-174 -44.5t-175.5 45zM556.5 64q68.5 40 107.5 110.5t39 156.5v19q0 87 -40 158.5t-109 112.5t-152 41t-151 -41
t-107 -112.5t-39 -158.5v-19q0 -86 39 -156.5t107.5 -110.5t152.5 -40t152.5 40zM312.5 810.5q23.5 8.5 46.5 8.5q20 0 33.5 -5t28.5 -14t25.5 -13t25.5 -4q34 0 74 31l25 -31q-27 -21 -47 -29.5t-54 -8.5q-19 0 -31.5 4.5t-28.5 13.5q-14 8 -24.5 12t-25.5 4
q-18 0 -35 -6.5t-40 -24.5l-25 31q29 23 52.5 31.5z" />
    <glyph glyph-name="Odieresis" unicode="&#xd6;" horiz-adv-x="808" 
d="M231.5 31q-78.5 45 -123.5 123.5t-45 176.5v19q0 99 44.5 179.5t122 126.5t173.5 46t174 -46t123 -126.5t45 -179.5v-19q0 -99 -43.5 -177.5t-120.5 -123t-174 -44.5t-175.5 45zM556.5 64q68.5 40 107.5 110.5t39 156.5v19q0 87 -40 158.5t-109 112.5t-152 41t-151 -41
t-107 -112.5t-39 -158.5v-19q0 -86 39 -156.5t107.5 -110.5t152.5 -40t152.5 40zM264 750q-10 10 -10 26t10 26t26 10t26.5 -10t10.5 -26t-10.5 -26t-26.5 -10t-26 10zM486 750q-10 10 -10 26t10 26t26 10t26.5 -10t10.5 -26t-10.5 -26t-26.5 -10t-26 10z" />
    <glyph glyph-name="multiply" unicode="&#xd7;" horiz-adv-x="520" 
d="M75 112l152 152l-145 146l34 34l145 -146l145 146l31 -32l-144 -145l152 -152l-34 -33l-152 152l-152 -153z" />
    <glyph glyph-name="Oslash" unicode="&#xd8;" horiz-adv-x="808" 
d="M694.5 539q50.5 -84 50.5 -189v-19q0 -99 -43.5 -177.5t-120.5 -123t-174 -44.5q-62 0 -116 18l-13 -32h-54l21 52q-84 42 -133 123.5t-49 183.5v19q0 99 44.5 179.5t122 126.5t173.5 46q56 0 109 -17l23 56h54l-30 -75q85 -43 135.5 -127zM146.5 170
q41.5 -72 112.5 -110l238 587q-45 15 -95 15q-83 0 -151 -41t-107 -112.5t-39 -158.5v-19q0 -89 41.5 -161zM703 350q0 91 -43.5 164.5t-116.5 112.5l-238 -587q45 -16 99 -16q84 0 152.5 40t107.5 110.5t39 156.5v19z" />
    <glyph glyph-name="Ugrave" unicode="&#xd9;" horiz-adv-x="727" 
d="M249 27q-57 37 -86.5 99.5t-29.5 138.5v339q0 57 -47 57q-18 0 -27 -7.5t-15 -17.5l-31 23q22 42 75 42q39 0 63 -24.5t24 -72.5v-339q0 -65 24.5 -118.5t72 -85t113.5 -31.5q70 0 117.5 34.5t70 88t22.5 112.5v419h42v-419q0 -71 -27 -134t-83.5 -102t-140.5 -39
q-80 0 -137 37zM205 822l25 39l158 -110l-14 -24z" />
    <glyph glyph-name="Uacute" unicode="&#xda;" horiz-adv-x="727" 
d="M249 27q-57 37 -86.5 99.5t-29.5 138.5v339q0 57 -47 57q-18 0 -27 -7.5t-15 -17.5l-31 23q22 42 75 42q39 0 63 -24.5t24 -72.5v-339q0 -65 24.5 -118.5t72 -85t113.5 -31.5q70 0 117.5 34.5t70 88t22.5 112.5v419h42v-419q0 -71 -27 -134t-83.5 -102t-140.5 -39
q-80 0 -137 37zM359 762l161 105l25 -40l-173 -89z" />
    <glyph glyph-name="Ucircumflex" unicode="&#xdb;" horiz-adv-x="727" 
d="M249 27q-57 37 -86.5 99.5t-29.5 138.5v339q0 57 -47 57q-18 0 -27 -7.5t-15 -17.5l-31 23q22 42 75 42q39 0 63 -24.5t24 -72.5v-339q0 -65 24.5 -118.5t72 -85t113.5 -31.5q70 0 117.5 34.5t70 88t22.5 112.5v419h42v-419q0 -71 -27 -134t-83.5 -102t-140.5 -39
q-80 0 -137 37zM355 853h43l120 -121h-56l-85 85l-86 -85h-55z" />
    <glyph glyph-name="Udieresis" unicode="&#xdc;" horiz-adv-x="727" 
d="M249 27q-57 37 -86.5 99.5t-29.5 138.5v339q0 57 -47 57q-18 0 -27 -7.5t-15 -17.5l-31 23q22 42 75 42q39 0 63 -24.5t24 -72.5v-339q0 -65 24.5 -118.5t72 -85t113.5 -31.5q70 0 117.5 34.5t70 88t22.5 112.5v419h42v-419q0 -71 -27 -134t-83.5 -102t-140.5 -39
q-80 0 -137 37zM239 741q-10 10 -10 26t10 26t26 10t26.5 -10t10.5 -26t-10.5 -26t-26.5 -10t-26 10zM461 741q-10 10 -10 26t10 26t26 10t26.5 -10t10.5 -26t-10.5 -26t-26.5 -10t-26 10z" />
    <glyph glyph-name="Yacute" unicode="&#xdd;" horiz-adv-x="613" 
d="M100 656q-8 0 -15 -4q-11 -7 -15 -15l-35 16q7 21 30 34q20 11 39 11q20 0 38 -12.5t30 -35.5l168 -302l187 338h49l-216 -384l2 -301h-43v299l-183 330q-14 26 -36 26zM318 762l161 105l25 -40l-173 -89z" />
    <glyph glyph-name="Thorn" unicode="&#xde;" horiz-adv-x="556" 
d="M147 685v-125h168q89 -5 138.5 -59.5t49.5 -147.5q0 -107 -65 -159t-173 -52q-33 0 -48 3v38q17 -3 51 -3q85 0 139 45t54 132q0 79 -44.5 121t-120.5 42h-149v-519h-42v684h42z" />
    <glyph glyph-name="germandbls" unicode="&#xdf;" horiz-adv-x="541" 
d="M272.5 4q-27.5 12 -43 27t-12.5 15l28 28q42 -42 92 -42q57 0 90 43.5t33 106.5q0 36 -12 60t-32 41t-56 40q-35 23 -52.5 39.5t-18.5 41.5q-1 22 4 36.5t18 36.5q3 5 13 21.5t16 36t6 40.5q0 54 -32 82.5t-81 28.5q-56 0 -82 -28t-26 -100l-1 -558h-41l-1 556
q0 90 38 132.5t113 42.5q64 0 109.5 -38.5t45.5 -120.5q0 -39 -10 -64.5t-27 -47.5q-10 -14 -15 -24.5t-5 -24.5t12.5 -25t39.5 -27q35 -21 59.5 -41t42 -53.5t17.5 -82.5q0 -89 -46.5 -139.5t-117.5 -50.5q-38 0 -65.5 12z" />
    <glyph glyph-name="agrave" unicode="&#xe0;" horiz-adv-x="581" 
d="M565 28q-10 -17 -27.5 -26t-36.5 -9q-36 0 -57 20.5t-24 60.5q-21 -38 -64 -60.5t-97 -22.5q-69 0 -116.5 34.5t-71 92t-23.5 127.5q0 78 29 136.5t83.5 91t129.5 32.5q23 0 58.5 -2.5t62.5 -6.5h50v-418q0 -24 11 -35.5t29 -11.5q9 0 18.5 5t13.5 12zM419 460
q-16 -1 -72 3l-61 2q-95 0 -145.5 -62t-50.5 -156q0 -56 19.5 -105.5t58 -80t92.5 -30.5q49 0 87 24t57 62q15 30 15 69v274zM132 692l33 33l128 -144l-18 -20z" />
    <glyph glyph-name="aacute" unicode="&#xe1;" horiz-adv-x="581" 
d="M565 28q-10 -17 -27.5 -26t-36.5 -9q-36 0 -57 20.5t-24 60.5q-21 -38 -64 -60.5t-97 -22.5q-69 0 -116.5 34.5t-71 92t-23.5 127.5q0 78 29 136.5t83.5 91t129.5 32.5q23 0 58.5 -2.5t62.5 -6.5h50v-418q0 -24 11 -35.5t29 -11.5q9 0 18.5 5t13.5 12zM419 460
q-16 -1 -72 3l-61 2q-95 0 -145.5 -62t-50.5 -156q0 -56 19.5 -105.5t58 -80t92.5 -30.5q49 0 87 24t57 62q15 30 15 69v274zM261 580l115 154l36 -29l-132 -143z" />
    <glyph glyph-name="acircumflex" unicode="&#xe2;" horiz-adv-x="581" 
d="M565 28q-10 -17 -27.5 -26t-36.5 -9q-36 0 -57 20.5t-24 60.5q-21 -38 -64 -60.5t-97 -22.5q-69 0 -116.5 34.5t-71 92t-23.5 127.5q0 78 29 136.5t83.5 91t129.5 32.5q23 0 58.5 -2.5t62.5 -6.5h50v-418q0 -24 11 -35.5t29 -11.5q9 0 18.5 5t13.5 12zM419 460
q-16 -1 -72 3l-61 2q-95 0 -145.5 -62t-50.5 -156q0 -56 19.5 -105.5t58 -80t92.5 -30.5q49 0 87 24t57 62q15 30 15 69v274zM258 694h43l114 -131h-50l-85 95l-86 -95h-49z" />
    <glyph glyph-name="atilde" unicode="&#xe3;" horiz-adv-x="581" 
d="M565 28q-10 -17 -27.5 -26t-36.5 -9q-36 0 -57 20.5t-24 60.5q-21 -38 -64 -60.5t-97 -22.5q-69 0 -116.5 34.5t-71 92t-23.5 127.5q0 78 29 136.5t83.5 91t129.5 32.5q23 0 58.5 -2.5t62.5 -6.5h50v-418q0 -24 11 -35.5t29 -11.5q9 0 18.5 5t13.5 12zM419 460
q-16 -1 -72 3l-61 2q-95 0 -145.5 -62t-50.5 -156q0 -56 19.5 -105.5t58 -80t92.5 -30.5q49 0 87 24t57 62q15 30 15 69v274zM174.5 627.5q23.5 8.5 46.5 8.5q20 0 33.5 -5t28.5 -14t25.5 -13t25.5 -4q34 0 74 31l25 -31q-27 -21 -47 -29.5t-54 -8.5q-19 0 -31.5 4.5
t-28.5 13.5q-14 8 -24.5 12t-25.5 4q-18 0 -35 -6.5t-40 -24.5l-25 31q29 23 52.5 31.5z" />
    <glyph glyph-name="adieresis" unicode="&#xe4;" horiz-adv-x="581" 
d="M565 28q-10 -17 -27.5 -26t-36.5 -9q-36 0 -57 20.5t-24 60.5q-21 -38 -64 -60.5t-97 -22.5q-69 0 -116.5 34.5t-71 92t-23.5 127.5q0 78 29 136.5t83.5 91t129.5 32.5q23 0 58.5 -2.5t62.5 -6.5h50v-418q0 -24 11 -35.5t29 -11.5q9 0 18.5 5t13.5 12zM419 460
q-16 -1 -72 3l-61 2q-95 0 -145.5 -62t-50.5 -156q0 -56 19.5 -105.5t58 -80t92.5 -30.5q49 0 87 24t57 62q15 30 15 69v274zM139 574q-10 10 -10 26t10 26t26 10t26.5 -10t10.5 -26t-10.5 -26t-26.5 -10t-26 10zM361 574q-10 10 -10 26t10 26t26 10t26.5 -10t10.5 -26
t-10.5 -26t-26.5 -10t-26 10z" />
    <glyph glyph-name="aring" unicode="&#xe5;" horiz-adv-x="581" 
d="M565 28q-10 -17 -27.5 -26t-36.5 -9q-36 0 -57 20.5t-24 60.5q-21 -38 -64 -60.5t-97 -22.5q-69 0 -116.5 34.5t-71 92t-23.5 127.5q0 78 29 136.5t83.5 91t129.5 32.5q23 0 58.5 -2.5t62.5 -6.5h50v-418q0 -24 11 -35.5t29 -11.5q9 0 18.5 5t13.5 12zM419 460
q-16 -1 -72 3l-61 2q-95 0 -145.5 -62t-50.5 -156q0 -56 19.5 -105.5t58 -80t92.5 -30.5q49 0 87 24t57 62q15 30 15 69v274zM219.5 589q-25.5 27 -25.5 70t26 71t70 28t70 -27t26 -70q0 -44 -27.5 -71.5t-70.5 -27.5t-68.5 27zM333 613q18 21 18 48t-18 46.5t-43 19.5
q-26 0 -43 -20t-17 -48q0 -29 17.5 -48t41.5 -19q26 0 44 21z" />
    <glyph glyph-name="ae" unicode="&#xe6;" horiz-adv-x="791" 
d="M79.5 26q-42.5 35 -42.5 102q0 76 58.5 110t149.5 34h106v65q0 67 -28 98q-29 32 -82 32q-39 0 -79.5 -14.5t-72.5 -38.5l-20 31q32 28 78 44t91 16q35 0 57 -6.5t41 -22.5q21 -17 33 -40t17 -56q29 63 77 96q22 15 45 22t54 7q78 0 128.5 -41.5t50.5 -108.5
q0 -75 -61 -112.5t-157 -37.5h-128q9 -87 52.5 -131.5t125.5 -44.5q41 0 74.5 11t83.5 36l19 -31q-83 -54 -178 -54q-89 0 -139 43q-39 33 -62 98q-2 -6 -5 -26.5t-15.5 -42t-38.5 -39.5q-48 -33 -117 -33q-73 0 -115.5 35zM699 356q0 56 -39 83.5t-92 27.5
q-43 0 -75.5 -18.5t-53.5 -49.5q-24 -33 -36 -74t-10 -81h130q176 0 176 112zM307 68.5q44 39.5 44 106.5v60h-106q-79 0 -122.5 -24.5t-43.5 -84.5q0 -54 32 -75.5t78 -21.5q74 0 118 39.5z" />
    <glyph glyph-name="ccedilla" unicode="&#xe7;" horiz-adv-x="491" 
d="M340.5 -77.5q18.5 -23.5 18.5 -58.5q0 -39 -26 -69.5t-69 -27.5l7 38q22 3 35.5 21t13.5 39q0 23 -15 36t-41 13h-24l10 82q-97 9 -149.5 71.5t-52.5 169.5q0 81 28 142.5t79 95.5t118 34q74 0 122 -39t51 -102h-39q-3 47 -39 75t-93 28q-53 0 -95 -30.5t-66 -84
t-24 -120.5q0 -95 51 -149t140 -54q37 0 72.5 10.5t86.5 36.5l19 -31q-77 -50 -164 -54l-9 -47q36 -2 54.5 -25.5z" />
    <glyph glyph-name="egrave" unicode="&#xe8;" horiz-adv-x="495" 
d="M105 56.5q-57 65.5 -57 172.5q0 69 24 132t74 103.5t123 40.5q76 0 127 -41t51 -109q0 -72 -59.5 -111t-161.5 -39h-133q8 -84 54 -130t126 -46q45 0 82.5 13t77.5 38l21 -29q-85 -60 -181 -60q-111 0 -168 65.5zM355.5 270q49.5 27 49.5 86q0 54 -40 82.5t-93 28.5
q-61 0 -102.5 -36.5t-61 -89t-17.5 -98.5h135q80 0 129.5 27zM120 704l33 33l128 -144l-18 -20z" />
    <glyph glyph-name="eacute" unicode="&#xe9;" horiz-adv-x="495" 
d="M105 56.5q-57 65.5 -57 172.5q0 69 24 132t74 103.5t123 40.5q76 0 127 -41t51 -109q0 -72 -59.5 -111t-161.5 -39h-133q8 -84 54 -130t126 -46q45 0 82.5 13t77.5 38l21 -29q-85 -60 -181 -60q-111 0 -168 65.5zM355.5 270q49.5 27 49.5 86q0 54 -40 82.5t-93 28.5
q-61 0 -102.5 -36.5t-61 -89t-17.5 -98.5h135q80 0 129.5 27zM249 592l115 154l36 -29l-132 -143z" />
    <glyph glyph-name="ecircumflex" unicode="&#xea;" horiz-adv-x="495" 
d="M105 56.5q-57 65.5 -57 172.5q0 69 24 132t74 103.5t123 40.5q76 0 127 -41t51 -109q0 -72 -59.5 -111t-161.5 -39h-133q8 -84 54 -130t126 -46q45 0 82.5 13t77.5 38l21 -29q-85 -60 -181 -60q-111 0 -168 65.5zM355.5 270q49.5 27 49.5 86q0 54 -40 82.5t-93 28.5
q-61 0 -102.5 -36.5t-61 -89t-17.5 -98.5h135q80 0 129.5 27zM246 706h43l114 -131h-50l-85 95l-86 -95h-49z" />
    <glyph glyph-name="edieresis" unicode="&#xeb;" horiz-adv-x="495" 
d="M105 56.5q-57 65.5 -57 172.5q0 69 24 132t74 103.5t123 40.5q76 0 127 -41t51 -109q0 -72 -59.5 -111t-161.5 -39h-133q8 -84 54 -130t126 -46q45 0 82.5 13t77.5 38l21 -29q-85 -60 -181 -60q-111 0 -168 65.5zM355.5 270q49.5 27 49.5 86q0 54 -40 82.5t-93 28.5
q-61 0 -102.5 -36.5t-61 -89t-17.5 -98.5h135q80 0 129.5 27zM127 586q-10 10 -10 26t10 26t26 10t26.5 -10t10.5 -26t-10.5 -26t-26.5 -10t-26 10zM349 586q-10 10 -10 26t10 26t26 10t26.5 -10t10.5 -26t-10.5 -26t-26.5 -10t-26 10z" />
    <glyph glyph-name="igrave" unicode="&#xec;" horiz-adv-x="239" 
d="M133 40q11 -12 29 -12q17 0 30 16l31 -22q-23 -32 -62 -32q-36 0 -58.5 23.5t-22.5 63.5v423h42v-424q0 -24 11 -36zM-45 682l33 33l128 -144l-18 -20z" />
    <glyph glyph-name="iacute" unicode="&#xed;" horiz-adv-x="239" 
d="M133 40q11 -12 29 -12q17 0 30 16l31 -22q-23 -32 -62 -32q-36 0 -58.5 23.5t-22.5 63.5v423h42v-424q0 -24 11 -36zM85 578l86 172l41 -23l-105 -164z" />
    <glyph glyph-name="icircumflex" unicode="&#xee;" horiz-adv-x="239" 
d="M133 40q11 -12 29 -12q17 0 30 16l31 -22q-23 -32 -62 -32q-36 0 -58.5 23.5t-22.5 63.5v423h42v-424q0 -24 11 -36zM79 696h43l94 -131h-50l-65 95l-66 -95h-49z" />
    <glyph glyph-name="idieresis" unicode="&#xef;" horiz-adv-x="239" 
d="M133 40q11 -12 29 -12q17 0 30 16l31 -22q-23 -32 -62 -32q-36 0 -58.5 23.5t-22.5 63.5v423h42v-424q0 -24 11 -36zM-12 575q-10 10 -10 26t10 26t26 10t26.5 -10t10.5 -26t-10.5 -26t-26.5 -10t-26 10zM163 575q-10 10 -10 26t10 26t26 10t26.5 -10t10.5 -26t-10.5 -26
t-26.5 -10t-26 10z" />
    <glyph glyph-name="eth" unicode="&#xf0;" horiz-adv-x="521" 
d="M141 17.5q-48 32.5 -72.5 86.5t-24.5 117q0 65 26 120t74 87t111 32q42 0 82.5 -18.5t71.5 -56.5q-11 49 -33 101t-48 88l-110 -64l-21 37l104 60q-46 50 -107 80l19 39q71 -32 126 -97l114 66l21 -37l-109 -62q44 -61 70.5 -152t26.5 -181q0 -129 -55.5 -203.5
t-150.5 -74.5q-67 0 -115 32.5zM378.5 89.5q41.5 66.5 41.5 169.5q0 41 -10.5 67.5t-36.5 48.5q-24 21 -55.5 34t-64.5 13q-47 0 -85 -26t-59.5 -71.5t-21.5 -100.5q0 -51 19.5 -97t57.5 -75t91 -29q82 0 123.5 66.5z" />
    <glyph glyph-name="ntilde" unicode="&#xf1;" horiz-adv-x="586" 
d="M570 22q-23 -32 -62 -32q-36 0 -58.5 23.5t-22.5 63.5v260q0 130 -120 130q-50 0 -91.5 -25.5t-84.5 -83.5v-358h-42v360q0 44 -9 69.5t-28 49.5l28 27q22 -21 35.5 -48.5t15.5 -56.5q34 55 77.5 79.5t103.5 24.5q75 0 116 -38t41 -109v-282q0 -24 11 -36t29 -12
q17 0 30 16zM198.5 632.5q23.5 8.5 46.5 8.5q20 0 33.5 -5t28.5 -14t25.5 -13t25.5 -4q34 0 74 31l25 -31q-27 -21 -47 -29.5t-54 -8.5q-19 0 -31.5 4.5t-28.5 13.5q-14 8 -24.5 12t-25.5 4q-18 0 -35 -6.5t-40 -24.5l-25 31q29 23 52.5 31.5z" />
    <glyph glyph-name="ograve" unicode="&#xf2;" horiz-adv-x="576" 
d="M161.5 23q-54.5 32 -85 90t-30.5 133q0 76 30.5 134.5t85.5 91.5t126 33t126 -32.5t85.5 -91t30.5 -134.5q0 -75 -30.5 -133.5t-85.5 -90.5t-127 -32q-71 0 -125.5 32zM392.5 57q45.5 28 70.5 78.5t25 115.5q0 64 -25 113t-70.5 76t-104.5 27t-104.5 -27.5t-70.5 -77.5
t-25 -115q0 -64 25 -113.5t70.5 -77t104.5 -27.5t104.5 28zM142 697l33 33l128 -144l-18 -20z" />
    <glyph glyph-name="oacute" unicode="&#xf3;" horiz-adv-x="576" 
d="M161.5 23q-54.5 32 -85 90t-30.5 133q0 76 30.5 134.5t85.5 91.5t126 33t126 -32.5t85.5 -91t30.5 -134.5q0 -75 -30.5 -133.5t-85.5 -90.5t-127 -32q-71 0 -125.5 32zM392.5 57q45.5 28 70.5 78.5t25 115.5q0 64 -25 113t-70.5 76t-104.5 27t-104.5 -27.5t-70.5 -77.5
t-25 -115q0 -64 25 -113.5t70.5 -77t104.5 -27.5t104.5 28zM271 585l115 154l36 -29l-132 -143z" />
    <glyph glyph-name="ocircumflex" unicode="&#xf4;" horiz-adv-x="576" 
d="M161.5 23q-54.5 32 -85 90t-30.5 133q0 76 30.5 134.5t85.5 91.5t126 33t126 -32.5t85.5 -91t30.5 -134.5q0 -75 -30.5 -133.5t-85.5 -90.5t-127 -32q-71 0 -125.5 32zM392.5 57q45.5 28 70.5 78.5t25 115.5q0 64 -25 113t-70.5 76t-104.5 27t-104.5 -27.5t-70.5 -77.5
t-25 -115q0 -64 25 -113.5t70.5 -77t104.5 -27.5t104.5 28zM268 699h43l114 -131h-50l-85 95l-86 -95h-49z" />
    <glyph glyph-name="otilde" unicode="&#xf5;" horiz-adv-x="576" 
d="M161.5 23q-54.5 32 -85 90t-30.5 133q0 76 30.5 134.5t85.5 91.5t126 33t126 -32.5t85.5 -91t30.5 -134.5q0 -75 -30.5 -133.5t-85.5 -90.5t-127 -32q-71 0 -125.5 32zM392.5 57q45.5 28 70.5 78.5t25 115.5q0 64 -25 113t-70.5 76t-104.5 27t-104.5 -27.5t-70.5 -77.5
t-25 -115q0 -64 25 -113.5t70.5 -77t104.5 -27.5t104.5 28zM184.5 632.5q23.5 8.5 46.5 8.5q20 0 33.5 -5t28.5 -14t25.5 -13t25.5 -4q34 0 74 31l25 -31q-27 -21 -47 -29.5t-54 -8.5q-19 0 -31.5 4.5t-28.5 13.5q-14 8 -24.5 12t-25.5 4q-18 0 -35 -6.5t-40 -24.5l-25 31
q29 23 52.5 31.5z" />
    <glyph glyph-name="odieresis" unicode="&#xf6;" horiz-adv-x="576" 
d="M161.5 23q-54.5 32 -85 90t-30.5 133q0 76 30.5 134.5t85.5 91.5t126 33t126 -32.5t85.5 -91t30.5 -134.5q0 -75 -30.5 -133.5t-85.5 -90.5t-127 -32q-71 0 -125.5 32zM392.5 57q45.5 28 70.5 78.5t25 115.5q0 64 -25 113t-70.5 76t-104.5 27t-104.5 -27.5t-70.5 -77.5
t-25 -115q0 -64 25 -113.5t70.5 -77t104.5 -27.5t104.5 28zM149 579q-10 10 -10 26t10 26t26 10t26.5 -10t10.5 -26t-10.5 -26t-26.5 -10t-26 10zM371 579q-10 10 -10 26t10 26t26 10t26.5 -10t10.5 -26t-10.5 -26t-26.5 -10t-26 10z" />
    <glyph glyph-name="divide" unicode="&#xf7;" horiz-adv-x="480" 
d="M196 108q-10 10 -10 26t10 26t26 10t26.5 -10t10.5 -26t-10.5 -26t-26.5 -10t-26 10zM196 413q-10 10 -10 26t10 26t26 10t26.5 -10t10.5 -26t-10.5 -26t-26.5 -10t-26 10zM71 312h335v-44h-335v44z" />
    <glyph glyph-name="oslash" unicode="&#xf8;" horiz-adv-x="587" 
d="M136 42q-44 34 -66.5 87.5t-22.5 115.5q0 74 30.5 133t86.5 93t129 34q70 0 123 -30l23 39l37 -23l-27 -38q91 -71 91 -203q0 -83 -35 -142t-92 -88.5t-121 -29.5q-67 0 -122 31l-23 -39l-37 23zM302 466q-96 0 -153.5 -60.5t-57.5 -161.5q0 -53 16 -96t48 -72l238 362
q-32 28 -91 28zM393.5 55.5q46.5 26.5 74.5 78t28 122.5q0 52 -16.5 94t-48.5 70l-239 -369q48 -22 101 -22q54 0 100.5 26.5z" />
    <glyph glyph-name="ugrave" unicode="&#xf9;" horiz-adv-x="579" 
d="M238 -7q-75 0 -114 34.5t-43 107.5v229q0 44 -9 69.5t-28 49.5l28 27q23 -23 37 -52.5t14 -60.5v-236q0 -130 121 -130q55 0 94 25.5t79 78.5l1 365h42l-1 -422q0 -24 11 -35.5t29 -11.5q9 0 18.5 5t13.5 12l32 -20q-10 -17 -27.5 -26t-36.5 -9q-37 0 -58 21.5t-23 61.5
q-66 -83 -180 -83zM118 694l33 33l128 -144l-18 -20z" />
    <glyph glyph-name="uacute" unicode="&#xfa;" horiz-adv-x="579" 
d="M238 -7q-75 0 -114 34.5t-43 107.5v229q0 44 -9 69.5t-28 49.5l28 27q23 -23 37 -52.5t14 -60.5v-236q0 -130 121 -130q55 0 94 25.5t79 78.5l1 365h42l-1 -422q0 -24 11 -35.5t29 -11.5q9 0 18.5 5t13.5 12l32 -20q-10 -17 -27.5 -26t-36.5 -9q-37 0 -58 21.5t-23 61.5
q-66 -83 -180 -83zM247 582l115 154l36 -29l-132 -143z" />
    <glyph glyph-name="ucircumflex" unicode="&#xfb;" horiz-adv-x="579" 
d="M238 -7q-75 0 -114 34.5t-43 107.5v229q0 44 -9 69.5t-28 49.5l28 27q23 -23 37 -52.5t14 -60.5v-236q0 -130 121 -130q55 0 94 25.5t79 78.5l1 365h42l-1 -422q0 -24 11 -35.5t29 -11.5q9 0 18.5 5t13.5 12l32 -20q-10 -17 -27.5 -26t-36.5 -9q-37 0 -58 21.5t-23 61.5
q-66 -83 -180 -83zM244 696h43l114 -131h-50l-85 95l-86 -95h-49z" />
    <glyph glyph-name="udieresis" unicode="&#xfc;" horiz-adv-x="579" 
d="M238 -7q-75 0 -114 34.5t-43 107.5v229q0 44 -9 69.5t-28 49.5l28 27q23 -23 37 -52.5t14 -60.5v-236q0 -130 121 -130q55 0 94 25.5t79 78.5l1 365h42l-1 -422q0 -24 11 -35.5t29 -11.5q9 0 18.5 5t13.5 12l32 -20q-10 -17 -27.5 -26t-36.5 -9q-37 0 -58 21.5t-23 61.5
q-66 -83 -180 -83zM125 576q-10 10 -10 26t10 26t26 10t26.5 -10t10.5 -26t-10.5 -26t-26.5 -10t-26 10zM347 576q-10 10 -10 26t10 26t26 10t26.5 -10t10.5 -26t-10.5 -26t-26.5 -10t-26 10z" />
    <glyph glyph-name="yacute" unicode="&#xfd;" horiz-adv-x="546" 
d="M212 -247q-41 43 -41 109q0 43 21.5 79t58.5 53q-83 0 -125.5 35.5t-42.5 105.5v228q0 44 -9 69.5t-28 49.5l28 27q23 -23 37 -52.5t14 -60.5v-240q0 -65 28 -94.5t91 -29.5q47 0 85 20t75 66q8 15 11.5 26t3.5 24l1 332h42l-1 -366v-259q0 -76 -38.5 -120.5
t-105.5 -44.5q-64 0 -105 43zM391 -217q28 33 28 88v208q-28 -36 -68 -63q-35 -20 -56 -31q-43 -22 -62.5 -51t-19.5 -70q0 -50 28.5 -82t74.5 -32q47 0 75 33zM251 582l115 154l36 -29l-132 -143z" />
    <glyph glyph-name="thorn" unicode="&#xfe;" horiz-adv-x="541" 
d="M123 727q0 -139 -5 -324q24 55 67.5 79t97.5 24q68 0 115 -34t71 -92t24 -129q0 -76 -28 -134.5t-82.5 -91.5t-130.5 -33q-43 0 -129 12v-247h-39v970h39zM398.5 89q52.5 59 52.5 156q0 58 -19.5 109t-57.5 82.5t-91 31.5q-37 0 -72.5 -17t-59 -48.5t-28.5 -72.5v-290
q99 -10 123 -10q100 0 152.5 59z" />
    <glyph glyph-name="ydieresis" unicode="&#xff;" horiz-adv-x="546" 
d="M212 -247q-41 43 -41 109q0 43 21.5 79t58.5 53q-83 0 -125.5 35.5t-42.5 105.5v228q0 44 -9 69.5t-28 49.5l28 27q23 -23 37 -52.5t14 -60.5v-240q0 -65 28 -94.5t91 -29.5q47 0 85 20t75 66q8 15 11.5 26t3.5 24l1 332h42l-1 -366v-259q0 -76 -38.5 -120.5
t-105.5 -44.5q-64 0 -105 43zM391 -217q28 33 28 88v208q-28 -36 -68 -63q-35 -20 -56 -31q-43 -22 -62.5 -51t-19.5 -70q0 -50 28.5 -82t74.5 -32q47 0 75 33zM129 576q-10 10 -10 26t10 26t26 10t26.5 -10t10.5 -26t-10.5 -26t-26.5 -10t-26 10zM351 576q-10 10 -10 26
t10 26t26 10t26.5 -10t10.5 -26t-10.5 -26t-26.5 -10t-26 10z" />
    <glyph glyph-name="Amacron" unicode="&#x100;" horiz-adv-x="752" 
d="M65 7.5q-21 16.5 -29 45.5l39 6q4 -11 15 -19.5t25 -8.5q12 0 22.5 8.5t14.5 18.5l265 634h8l289 -691h-45l-97 233h-304l-78 -192q-10 -25 -30 -38t-46 -13q-28 0 -49 16.5zM554 274l-115 288l-19 63l-19 -65l-116 -286h269zM291 785h259v-41h-259v41z" />
    <glyph glyph-name="amacron" unicode="&#x101;" horiz-adv-x="581" 
d="M565 28q-10 -17 -27.5 -26t-36.5 -9q-36 0 -57 20.5t-24 60.5q-21 -38 -64 -60.5t-97 -22.5q-69 0 -116.5 34.5t-71 92t-23.5 127.5q0 78 29 136.5t83.5 91t129.5 32.5q23 0 58.5 -2.5t62.5 -6.5h50v-418q0 -24 11 -35.5t29 -11.5q9 0 18.5 5t13.5 12zM419 460
q-16 -1 -72 3l-61 2q-95 0 -145.5 -62t-50.5 -156q0 -56 19.5 -105.5t58 -80t92.5 -30.5q49 0 87 24t57 62q15 30 15 69v274zM148 606h259v-41h-259v41z" />
    <glyph glyph-name="Abreve" unicode="&#x102;" horiz-adv-x="752" 
d="M65 7.5q-21 16.5 -29 45.5l39 6q4 -11 15 -19.5t25 -8.5q12 0 22.5 8.5t14.5 18.5l265 634h8l289 -691h-45l-97 233h-304l-78 -192q-10 -25 -30 -38t-46 -13q-28 0 -49 16.5zM554 274l-115 288l-19 63l-19 -65l-116 -286h269zM324 762q-33 31 -37 84h44q4 -33 26.5 -54.5
t64.5 -21.5q40 0 62.5 21t24.5 55h44q-4 -55 -37.5 -85t-94.5 -30q-64 0 -97 31z" />
    <glyph glyph-name="abreve" unicode="&#x103;" horiz-adv-x="581" 
d="M565 28q-10 -17 -27.5 -26t-36.5 -9q-36 0 -57 20.5t-24 60.5q-21 -38 -64 -60.5t-97 -22.5q-69 0 -116.5 34.5t-71 92t-23.5 127.5q0 78 29 136.5t83.5 91t129.5 32.5q23 0 58.5 -2.5t62.5 -6.5h50v-418q0 -24 11 -35.5t29 -11.5q9 0 18.5 5t13.5 12zM419 460
q-16 -1 -72 3l-61 2q-95 0 -145.5 -62t-50.5 -156q0 -56 19.5 -105.5t58 -80t92.5 -30.5q49 0 87 24t57 62q15 30 15 69v274zM181.5 594q-33.5 33 -37.5 92h43q4 -39 27 -62.5t64 -23.5q40 0 62.5 23t24.5 63h43q-4 -62 -37.5 -93.5t-93.5 -31.5q-62 0 -95.5 33z" />
    <glyph glyph-name="Aogonek" unicode="&#x104;" horiz-adv-x="752" 
d="M760 -170q-17 -12 -39.5 -18.5t-42.5 -6.5q-37 0 -59 23t-22 61q0 29 15.5 52t56.5 60l-97 233h-304l-78 -192q-10 -25 -30 -38t-46 -13q-28 0 -49 16.5t-29 45.5l39 6q4 -11 15 -19.5t25 -8.5q12 0 22.5 8.5t14.5 18.5l265 634h8l289 -691q-42 -43 -57.5 -65.5
t-15.5 -42.5q0 -24 16.5 -36t34.5 -12q23 0 49 18zM285 274h269l-115 288l-19 63l-19 -65z" />
    <glyph glyph-name="aogonek" unicode="&#x105;" horiz-adv-x="581" 
d="M602 -152q-17 -12 -39.5 -18.5t-42.5 -6.5q-37 0 -59 23t-22 61q0 24 10.5 43t35.5 44q-29 5 -46 25.5t-19 54.5q-21 -38 -64 -60.5t-97 -22.5q-69 0 -116.5 34.5t-71 92t-23.5 127.5q0 78 29 136.5t83.5 91t129.5 32.5q23 0 58.5 -2.5t62.5 -6.5h50v-418q0 -24 11 -35.5
t29 -11.5q9 0 18.5 5t13.5 12l32 -20q-10 -15 -22 -23q-34 -35 -47 -55t-13 -39q0 -24 16.5 -36t34.5 -12q23 0 49 18zM419 460q-16 -1 -72 3l-61 2q-95 0 -145.5 -62t-50.5 -156q0 -56 19.5 -105.5t58 -80t92.5 -30.5q49 0 87 24t57 62q15 30 15 69v274z" />
    <glyph glyph-name="Cacute" unicode="&#x106;" horiz-adv-x="720" 
d="M227 26.5q-78 48.5 -122.5 130.5t-44.5 180t46.5 183t126.5 135.5t175 50.5q93 0 160 -37.5t67 -108.5q0 -37 -22 -62.5t-57 -25.5q-26 0 -46 14l25 32q14 -6 22 -6q17 0 29 15t12 34q0 31 -30 55t-74 36.5t-85 12.5q-85 0 -155.5 -46t-111 -121.5t-40.5 -160.5
t38.5 -158.5t107.5 -117t155 -43.5q73 0 138 33t106 89l32 -22q-50 -70 -123 -105t-154 -35q-97 0 -175 48.5zM366 801l161 105l25 -40l-173 -89z" />
    <glyph glyph-name="cacute" unicode="&#x107;" horiz-adv-x="491" 
d="M109 58.5q-61 63.5 -61 178.5q0 81 28 142.5t79 95.5t118 34q74 0 122 -39t51 -102h-39q-3 47 -39 75t-93 28q-53 0 -95 -30.5t-66 -84t-24 -120.5q0 -95 51 -149t140 -54q37 0 72.5 10.5t86.5 36.5l19 -31q-43 -28 -86 -41t-92 -13q-111 0 -172 63.5zM255 584l115 154
l36 -29l-132 -143z" />
    <glyph glyph-name="Ccircumflex" unicode="&#x108;" horiz-adv-x="720" 
d="M227 26.5q-78 48.5 -122.5 130.5t-44.5 180t46.5 183t126.5 135.5t175 50.5q93 0 160 -37.5t67 -108.5q0 -37 -22 -62.5t-57 -25.5q-26 0 -46 14l25 32q14 -6 22 -6q17 0 29 15t12 34q0 31 -30 55t-74 36.5t-85 12.5q-85 0 -155.5 -46t-111 -121.5t-40.5 -160.5
t38.5 -158.5t107.5 -117t155 -43.5q73 0 138 33t106 89l32 -22q-50 -70 -123 -105t-154 -35q-97 0 -175 48.5zM362 892h43l120 -121h-56l-85 85l-86 -85h-55z" />
    <glyph glyph-name="ccircumflex" unicode="&#x109;" horiz-adv-x="491" 
d="M109 58.5q-61 63.5 -61 178.5q0 81 28 142.5t79 95.5t118 34q74 0 122 -39t51 -102h-39q-3 47 -39 75t-93 28q-53 0 -95 -30.5t-66 -84t-24 -120.5q0 -95 51 -149t140 -54q37 0 72.5 10.5t86.5 36.5l19 -31q-43 -28 -86 -41t-92 -13q-111 0 -172 63.5zM252 698h43
l114 -131h-50l-85 95l-86 -95h-49z" />
    <glyph glyph-name="Cdotaccent" unicode="&#x10a;" horiz-adv-x="720" 
d="M227 26.5q-78 48.5 -122.5 130.5t-44.5 180t46.5 183t126.5 135.5t175 50.5q93 0 160 -37.5t67 -108.5q0 -37 -22 -62.5t-57 -25.5q-26 0 -46 14l25 32q14 -6 22 -6q17 0 29 15t12 34q0 31 -30 55t-74 36.5t-85 12.5q-85 0 -155.5 -46t-111 -121.5t-40.5 -160.5
t38.5 -158.5t107.5 -117t155 -43.5q73 0 138 33t106 89l32 -22q-50 -70 -123 -105t-154 -35q-97 0 -175 48.5zM358 786q-10 10 -10 26t10 26t26 10t26.5 -10t10.5 -26t-10.5 -26t-26.5 -10t-26 10z" />
    <glyph glyph-name="cdotaccent" unicode="&#x10b;" horiz-adv-x="491" 
d="M109 58.5q-61 63.5 -61 178.5q0 81 28 142.5t79 95.5t118 34q74 0 122 -39t51 -102h-39q-3 47 -39 75t-93 28q-53 0 -95 -30.5t-66 -84t-24 -120.5q0 -95 51 -149t140 -54q37 0 72.5 10.5t86.5 36.5l19 -31q-43 -28 -86 -41t-92 -13q-111 0 -172 63.5zM246 589
q-10 10 -10 26t10 26t26 10t26.5 -10t10.5 -26t-10.5 -26t-26.5 -10t-26 10z" />
    <glyph glyph-name="Ccaron" unicode="&#x10c;" horiz-adv-x="720" 
d="M227 26.5q-78 48.5 -122.5 130.5t-44.5 180t46.5 183t126.5 135.5t175 50.5q93 0 160 -37.5t67 -108.5q0 -37 -22 -62.5t-57 -25.5q-26 0 -46 14l25 32q14 -6 22 -6q17 0 29 15t12 34q0 31 -30 55t-74 36.5t-85 12.5q-85 0 -155.5 -46t-111 -121.5t-40.5 -160.5
t38.5 -158.5t107.5 -117t155 -43.5q73 0 138 33t106 89l32 -22q-50 -70 -123 -105t-154 -35q-97 0 -175 48.5zM298 892l86 -85l85 85h56l-120 -121h-43l-119 121h55z" />
    <glyph glyph-name="ccaron" unicode="&#x10d;" horiz-adv-x="491" 
d="M109 58.5q-61 63.5 -61 178.5q0 81 28 142.5t79 95.5t118 34q74 0 122 -39t51 -102h-39q-3 47 -39 75t-93 28q-53 0 -95 -30.5t-66 -84t-24 -120.5q0 -95 51 -149t140 -54q37 0 72.5 10.5t86.5 36.5l19 -31q-43 -28 -86 -41t-92 -13q-111 0 -172 63.5zM136 699h50l86 -95
l84 95h51l-114 -131h-44z" />
    <glyph glyph-name="Dcaron" unicode="&#x10e;" horiz-adv-x="779" 
d="M181 -4l-39 4v652q-20 0 -31 -3t-20 -9q-8 -7 -11 -16t-4 -22h-38q2 43 28 67q24 22 77 22l259 -1q91 -3 162.5 -50t112 -127.5t40.5 -181.5q0 -173 -107.5 -256t-332.5 -83q-48 0 -96 4zM675 333q0 140 -75 224t-208 93h-208v-614q52 -4 111 -4q380 0 380 301zM317 863
l86 -85l85 85h56l-120 -121h-43l-119 121h55z" />
    <glyph glyph-name="dcaron" unicode="&#x10f;" horiz-adv-x="581" 
d="M144.5 25.5q-47.5 34.5 -72 92.5t-24.5 129q0 77 29 135t83.5 90.5t129.5 32.5q34 0 71.5 -4t57.5 -8v235h42v-650q0 -24 11 -35.5t29 -11.5q9 0 18.5 5t13.5 12l32 -20q-10 -17 -27.5 -26t-36.5 -9q-37 0 -58 21.5t-23 61.5q-19 -35 -63.5 -60t-96.5 -25
q-68 0 -115.5 34.5zM345.5 52.5q38.5 23.5 58.5 64.5q15 32 15 69v268q-43 13 -108 13q-114 0 -167.5 -61t-53.5 -159q0 -93 44.5 -155.5t125.5 -62.5q47 0 85.5 23.5zM634 749l42 -21l-97 -169l-22 13z" />
    <glyph glyph-name="Dcroat" unicode="&#x110;" horiz-adv-x="779" 
d="M564.5 640q71.5 -47 112 -127.5t40.5 -181.5q0 -173 -107.5 -256t-332.5 -83q-48 0 -96 4l-39 4v347h-85v41h85v264q-20 0 -31 -3t-20 -9q-8 -7 -11 -16t-4 -22h-38q2 43 28 67q24 22 77 22l259 -1q91 -3 162.5 -50zM675 333q0 140 -75 224t-208 93h-208v-262h130v-41
h-130v-311q52 -4 111 -4q380 0 380 301z" />
    <glyph glyph-name="dcroat" unicode="&#x111;" horiz-adv-x="581" 
d="M565 28q-10 -17 -27.5 -26t-36.5 -9q-37 0 -58 21.5t-23 61.5q-19 -35 -63.5 -60t-96.5 -25q-68 0 -115.5 34.5t-72 92.5t-24.5 129q0 77 29 135t83.5 90.5t129.5 32.5q34 0 71.5 -4t57.5 -8v89h-129v41h129v105h42v-105h86v-41h-86v-504q0 -24 11 -35.5t29 -11.5
q9 0 18.5 5t13.5 12zM419 454q-43 13 -108 13q-114 0 -167.5 -61t-53.5 -159q0 -93 44.5 -155.5t125.5 -62.5q47 0 85.5 23.5t58.5 64.5q15 32 15 69v268z" />
    <glyph glyph-name="Emacron" unicode="&#x112;" horiz-adv-x="619" 
d="M112 642q-11 -3 -20 -9q-8 -7 -11 -16t-4 -22h-38q2 43 28 67q24 22 77 22l427 1v-40h-386v-261h263v-40h-263v-303h386v-40h-428v644q-20 0 -31 -3zM228 794h259v-41h-259v41z" />
    <glyph glyph-name="emacron" unicode="&#x113;" horiz-adv-x="495" 
d="M105 56.5q-57 65.5 -57 172.5q0 69 24 132t74 103.5t123 40.5q76 0 127 -41t51 -109q0 -72 -59.5 -111t-161.5 -39h-133q8 -84 54 -130t126 -46q45 0 82.5 13t77.5 38l21 -29q-85 -60 -181 -60q-111 0 -168 65.5zM355.5 270q49.5 27 49.5 86q0 54 -40 82.5t-93 28.5
q-61 0 -102.5 -36.5t-61 -89t-17.5 -98.5h135q80 0 129.5 27zM136 618h259v-41h-259v41z" />
    <glyph glyph-name="Ebreve" unicode="&#x114;" horiz-adv-x="619" 
d="M112 642q-11 -3 -20 -9q-8 -7 -11 -16t-4 -22h-38q2 43 28 67q24 22 77 22l427 1v-40h-386v-261h263v-40h-263v-303h386v-40h-428v644q-20 0 -31 -3zM261 771q-33 31 -37 84h44q4 -33 26.5 -54.5t64.5 -21.5q40 0 62.5 21t24.5 55h44q-4 -55 -37.5 -85t-94.5 -30
q-64 0 -97 31z" />
    <glyph glyph-name="ebreve" unicode="&#x115;" horiz-adv-x="495" 
d="M105 56.5q-57 65.5 -57 172.5q0 69 24 132t74 103.5t123 40.5q76 0 127 -41t51 -109q0 -72 -59.5 -111t-161.5 -39h-133q8 -84 54 -130t126 -46q45 0 82.5 13t77.5 38l21 -29q-85 -60 -181 -60q-111 0 -168 65.5zM355.5 270q49.5 27 49.5 86q0 54 -40 82.5t-93 28.5
q-61 0 -102.5 -36.5t-61 -89t-17.5 -98.5h135q80 0 129.5 27zM169.5 606q-33.5 33 -37.5 92h43q4 -39 27 -62.5t64 -23.5q40 0 62.5 23t24.5 63h43q-4 -62 -37.5 -93.5t-93.5 -31.5q-62 0 -95.5 33z" />
    <glyph glyph-name="Edotaccent" unicode="&#x116;" horiz-adv-x="619" 
d="M112 642q-11 -3 -20 -9q-8 -7 -11 -16t-4 -22h-38q2 43 28 67q24 22 77 22l427 1v-40h-386v-261h263v-40h-263v-303h386v-40h-428v644q-20 0 -31 -3zM332 756q-10 10 -10 26t10 26t26 10t26.5 -10t10.5 -26t-10.5 -26t-26.5 -10t-26 10z" />
    <glyph glyph-name="edotaccent" unicode="&#x117;" horiz-adv-x="495" 
d="M105 56.5q-57 65.5 -57 172.5q0 69 24 132t74 103.5t123 40.5q76 0 127 -41t51 -109q0 -72 -59.5 -111t-161.5 -39h-133q8 -84 54 -130t126 -46q45 0 82.5 13t77.5 38l21 -29q-85 -60 -181 -60q-111 0 -168 65.5zM355.5 270q49.5 27 49.5 86q0 54 -40 82.5t-93 28.5
q-61 0 -102.5 -36.5t-61 -89t-17.5 -98.5h135q80 0 129.5 27zM240 597q-10 10 -10 26t10 26t26 10t26.5 -10t10.5 -26t-10.5 -26t-26.5 -10t-26 10z" />
    <glyph glyph-name="Eogonek" unicode="&#x118;" horiz-adv-x="619" 
d="M617 -170q-17 -12 -39.5 -18.5t-42.5 -6.5q-37 0 -59 23t-22 61q0 29 16 52t56 60h-383v644q-20 0 -31 -3t-20 -9q-8 -7 -11 -16t-4 -22h-38q2 43 28 67q24 22 77 22l427 1v-40h-386v-261h263v-40h-263v-303h386v-40q-42 -43 -57.5 -65.5t-15.5 -42.5q0 -24 16.5 -36
t34.5 -12q23 0 49 18z" />
    <glyph glyph-name="eogonek" unicode="&#x119;" horiz-adv-x="495" 
d="M500 -120q-17 -12 -39.5 -18.5t-42.5 -6.5q-37 0 -59 23t-22 61q0 34 26 66q-44 -14 -90 -14q-111 0 -168 65.5t-57 172.5q0 69 24 132t74 103.5t123 40.5q76 0 127 -41t51 -109q0 -72 -59.5 -111t-161.5 -39h-133q8 -84 54 -130t126 -46q45 0 82.5 13t77.5 38l21 -29
q-42 -43 -57.5 -65.5t-15.5 -42.5q0 -24 16.5 -36t34.5 -12q23 0 49 18zM169.5 430.5q-41.5 -36.5 -61 -89t-17.5 -98.5h135q80 0 129.5 27t49.5 86q0 54 -40 82.5t-93 28.5q-61 0 -102.5 -36.5z" />
    <glyph glyph-name="Ecaron" unicode="&#x11a;" horiz-adv-x="619" 
d="M112 642q-11 -3 -20 -9q-8 -7 -11 -16t-4 -22h-38q2 43 28 67q24 22 77 22l427 1v-40h-386v-261h263v-40h-263v-303h386v-40h-428v644q-20 0 -31 -3zM272 862l86 -85l85 85h56l-120 -121h-43l-119 121h55z" />
    <glyph glyph-name="ecaron" unicode="&#x11b;" horiz-adv-x="495" 
d="M105 56.5q-57 65.5 -57 172.5q0 69 24 132t74 103.5t123 40.5q76 0 127 -41t51 -109q0 -72 -59.5 -111t-161.5 -39h-133q8 -84 54 -130t126 -46q45 0 82.5 13t77.5 38l21 -29q-85 -60 -181 -60q-111 0 -168 65.5zM355.5 270q49.5 27 49.5 86q0 54 -40 82.5t-93 28.5
q-61 0 -102.5 -36.5t-61 -89t-17.5 -98.5h135q80 0 129.5 27zM130 707h50l86 -95l84 95h51l-114 -131h-44z" />
    <glyph glyph-name="Gcircumflex" unicode="&#x11c;" horiz-adv-x="735" 
d="M678 335v-82q0 -81 -40.5 -143t-106 -96t-139.5 -34q-95 0 -170.5 47t-118 127t-42.5 176q0 100 44 184.5t121.5 134t174.5 49.5q50 0 102 -12.5t88.5 -43t36.5 -79.5q0 -40 -23 -65t-59 -25q-16 0 -28.5 5.5t-19.5 12.5l26 33q8 -10 23 -10q17 0 28.5 14.5t11.5 34.5
q0 34 -30.5 55.5t-73.5 30.5t-81 9q-83 0 -151.5 -45.5t-108 -121t-39.5 -162.5q0 -85 38 -156t104 -112t147 -41q65 0 121 31.5t89.5 84.5t33.5 115v42h-249v42h291zM380 852h43l120 -121h-56l-85 85l-86 -85h-55z" />
    <glyph glyph-name="gcircumflex" unicode="&#x11d;" horiz-adv-x="547" 
d="M212 -242.5q-41 42.5 -41 107.5q0 84 63 127q-54 7 -97 42t-67 91t-24 122q0 74 31.5 133t87 92.5t124.5 33.5q38 0 62 -3l62 -7h50v-628q0 -68 -41.5 -110.5t-107.5 -42.5q-61 0 -102 42.5zM307.5 41.5q27.5 11.5 51.5 31.5q28 24 45 52.5t17 51.5v285l-104 6h-33
q-55 0 -99.5 -29t-70.5 -79.5t-26 -112.5q0 -59 22.5 -108.5t61 -79t83.5 -29.5q25 0 52.5 11.5zM390.5 -215q26.5 32 30.5 91v218q-19 -35 -59 -67q-11 -10 -35 -23.5t-30 -17.5q-6 -3 -26 -15q-32 -22 -46 -46.5t-14 -57.5q0 -48 31 -81t77 -33q45 0 71.5 32zM264 707h43
l114 -131h-50l-85 95l-86 -95h-49z" />
    <glyph glyph-name="Gbreve" unicode="&#x11e;" horiz-adv-x="735" 
d="M678 335v-82q0 -81 -40.5 -143t-106 -96t-139.5 -34q-95 0 -170.5 47t-118 127t-42.5 176q0 100 44 184.5t121.5 134t174.5 49.5q50 0 102 -12.5t88.5 -43t36.5 -79.5q0 -40 -23 -65t-59 -25q-16 0 -28.5 5.5t-19.5 12.5l26 33q8 -10 23 -10q17 0 28.5 14.5t11.5 34.5
q0 34 -30.5 55.5t-73.5 30.5t-81 9q-83 0 -151.5 -45.5t-108 -121t-39.5 -162.5q0 -85 38 -156t104 -112t147 -41q65 0 121 31.5t89.5 84.5t33.5 115v42h-249v42h291zM305 761q-33 31 -37 84h44q4 -33 26.5 -54.5t64.5 -21.5q40 0 62.5 21t24.5 55h44q-4 -55 -37.5 -85
t-94.5 -30q-64 0 -97 31z" />
    <glyph glyph-name="gbreve" unicode="&#x11f;" horiz-adv-x="547" 
d="M212 -242.5q-41 42.5 -41 107.5q0 84 63 127q-54 7 -97 42t-67 91t-24 122q0 74 31.5 133t87 92.5t124.5 33.5q38 0 62 -3l62 -7h50v-628q0 -68 -41.5 -110.5t-107.5 -42.5q-61 0 -102 42.5zM307.5 41.5q27.5 11.5 51.5 31.5q28 24 45 52.5t17 51.5v285l-104 6h-33
q-55 0 -99.5 -29t-70.5 -79.5t-26 -112.5q0 -59 22.5 -108.5t61 -79t83.5 -29.5q25 0 52.5 11.5zM390.5 -215q26.5 32 30.5 91v218q-19 -35 -59 -67q-11 -10 -35 -23.5t-30 -17.5q-6 -3 -26 -15q-32 -22 -46 -46.5t-14 -57.5q0 -48 31 -81t77 -33q45 0 71.5 32zM187.5 607
q-33.5 33 -37.5 92h43q4 -39 27 -62.5t64 -23.5q40 0 62.5 23t24.5 63h43q-4 -62 -37.5 -93.5t-93.5 -31.5q-62 0 -95.5 33z" />
    <glyph glyph-name="Gdotaccent" unicode="&#x120;" horiz-adv-x="735" 
d="M678 335v-82q0 -81 -40.5 -143t-106 -96t-139.5 -34q-95 0 -170.5 47t-118 127t-42.5 176q0 100 44 184.5t121.5 134t174.5 49.5q50 0 102 -12.5t88.5 -43t36.5 -79.5q0 -40 -23 -65t-59 -25q-16 0 -28.5 5.5t-19.5 12.5l26 33q8 -10 23 -10q17 0 28.5 14.5t11.5 34.5
q0 34 -30.5 55.5t-73.5 30.5t-81 9q-83 0 -151.5 -45.5t-108 -121t-39.5 -162.5q0 -85 38 -156t104 -112t147 -41q65 0 121 31.5t89.5 84.5t33.5 115v42h-249v42h291zM376 746q-10 10 -10 26t10 26t26 10t26.5 -10t10.5 -26t-10.5 -26t-26.5 -10t-26 10z" />
    <glyph glyph-name="gdotaccent" unicode="&#x121;" horiz-adv-x="547" 
d="M212 -242.5q-41 42.5 -41 107.5q0 84 63 127q-54 7 -97 42t-67 91t-24 122q0 74 31.5 133t87 92.5t124.5 33.5q38 0 62 -3l62 -7h50v-628q0 -68 -41.5 -110.5t-107.5 -42.5q-61 0 -102 42.5zM307.5 41.5q27.5 11.5 51.5 31.5q28 24 45 52.5t17 51.5v285l-104 6h-33
q-55 0 -99.5 -29t-70.5 -79.5t-26 -112.5q0 -59 22.5 -108.5t61 -79t83.5 -29.5q25 0 52.5 11.5zM390.5 -215q26.5 32 30.5 91v218q-19 -35 -59 -67q-11 -10 -35 -23.5t-30 -17.5q-6 -3 -26 -15q-32 -22 -46 -46.5t-14 -57.5q0 -48 31 -81t77 -33q45 0 71.5 32zM258 598
q-10 10 -10 26t10 26t26 10t26.5 -10t10.5 -26t-10.5 -26t-26.5 -10t-26 10z" />
    <glyph glyph-name="uni0122" unicode="&#x122;" horiz-adv-x="735" 
d="M678 335v-82q0 -81 -40.5 -143t-106 -96t-139.5 -34q-95 0 -170.5 47t-118 127t-42.5 176q0 100 44 184.5t121.5 134t174.5 49.5q50 0 102 -12.5t88.5 -43t36.5 -79.5q0 -40 -23 -65t-59 -25q-16 0 -28.5 5.5t-19.5 12.5l26 33q8 -10 23 -10q17 0 28.5 14.5t11.5 34.5
q0 34 -30.5 55.5t-73.5 30.5t-81 9q-83 0 -151.5 -45.5t-108 -121t-39.5 -162.5q0 -85 38 -156t104 -112t147 -41q65 0 121 31.5t89.5 84.5t33.5 115v42h-249v42h291zM368 -128h50l-47 -197h-41z" />
    <glyph glyph-name="uni0123" unicode="&#x123;" horiz-adv-x="547" 
d="M212 -242.5q-41 42.5 -41 107.5q0 84 63 127q-54 7 -97 42t-67 91t-24 122q0 74 31.5 133t87 92.5t124.5 33.5q38 0 62 -3l62 -7h50v-628q0 -68 -41.5 -110.5t-107.5 -42.5q-61 0 -102 42.5zM307.5 41.5q27.5 11.5 51.5 31.5q28 24 45 52.5t17 51.5v285l-104 6h-33
q-55 0 -99.5 -29t-70.5 -79.5t-26 -112.5q0 -59 22.5 -108.5t61 -79t83.5 -29.5q25 0 52.5 11.5zM390.5 -215q26.5 32 30.5 91v218q-19 -35 -59 -67q-11 -10 -35 -23.5t-30 -17.5q-6 -3 -26 -15q-32 -22 -46 -46.5t-14 -57.5q0 -48 31 -81t77 -33q45 0 71.5 32zM306 685
q-8 -20 -8 -40q0 -10 1.5 -20.5t1.5 -14.5q0 -13 -7 -20t-20 -7t-19 7.5t-6 19.5q0 53 12 83q10 28 43 53l25 -25q-15 -16 -23 -36z" />
    <glyph glyph-name="Hcircumflex" unicode="&#x124;" horiz-adv-x="721" 
d="M91 661q-18 0 -27 -7.5t-15 -17.5l-31 23q22 42 75 42q39 0 63 -24.5t24 -72.5v-226h395v307h42v-684h-42v337h-395v-337h-42v603q0 57 -47 57zM354 853h43l120 -121h-56l-85 85l-86 -85h-55z" />
    <glyph glyph-name="hcircumflex" unicode="&#x125;" horiz-adv-x="581" 
d="M475 40q11 -12 29 -12q17 0 30 16l31 -22q-23 -32 -62 -32q-36 0 -58.5 23.5t-22.5 63.5v271q0 61 -32.5 91.5t-92.5 30.5q-54 0 -92.5 -27t-78.5 -82v-357h-42v726h42v-329q33 55 76.5 81t102.5 26q81 0 120 -39t39 -118v-275q0 -24 11 -36zM83 900h43l120 -121h-56
l-85 85l-86 -85h-55z" />
    <glyph glyph-name="Hbar" unicode="&#x126;" horiz-adv-x="721" 
d="M617 685v-684h-42v337h-395v-337h-42v603q0 57 -47 57q-18 0 -27 -7.5t-15 -17.5l-31 23q22 42 75 42q39 0 63 -24.5t24 -72.5v-93h395v174h42zM180 378h395v92h-395v-92z" />
    <glyph glyph-name="hbar" unicode="&#x127;" horiz-adv-x="581" 
d="M565 22q-23 -32 -62 -32q-36 0 -58.5 23.5t-22.5 63.5v271q0 61 -32.5 91.5t-92.5 30.5q-54 0 -92.5 -27t-78.5 -82v-357h-42v587h-87v41h87v98h42v-98h128v-41h-128v-190q33 55 76.5 81t102.5 26q81 0 120 -39t39 -118v-275q0 -24 11 -36t29 -12q17 0 30 16z" />
    <glyph glyph-name="Itilde" unicode="&#x128;" horiz-adv-x="255" 
d="M105 685h45v-684h-45v684zM35.5 803.5q23.5 8.5 46.5 8.5q20 0 33.5 -5t28.5 -14t25.5 -13t25.5 -4q34 0 74 31l25 -31q-27 -21 -47 -29.5t-54 -8.5q-19 0 -31.5 4.5t-28.5 13.5q-14 8 -24.5 12t-25.5 4q-18 0 -35 -6.5t-40 -24.5l-25 31q29 23 52.5 31.5z" />
    <glyph glyph-name="itilde" unicode="&#x129;" horiz-adv-x="239" 
d="M133 40q11 -12 29 -12q17 0 30 16l31 -22q-23 -32 -62 -32q-36 0 -58.5 23.5t-22.5 63.5v423h42v-424q0 -24 11 -36zM14 628q19 8 40 8q15 0 26.5 -5t26.5 -15q14 -8 22 -12t18 -4q18 0 29.5 6.5t34.5 24.5l25 -31q-6 -5 -21 -17t-30.5 -16.5t-39.5 -4.5q-13 0 -24.5 5
t-25.5 14q-4 2 -16.5 8.5t-23.5 6.5q-16 0 -28 -5.5t-37 -25.5l-25 31q30 24 49 32z" />
    <glyph glyph-name="Imacron" unicode="&#x12a;" horiz-adv-x="255" 
d="M105 685h45v-684h-45v684zM26 795h198v-44h-198v44z" />
    <glyph glyph-name="imacron" unicode="&#x12b;" horiz-adv-x="239" 
d="M133 40q11 -12 29 -12q17 0 30 16l31 -22q-23 -32 -62 -32q-36 0 -58.5 23.5t-22.5 63.5v423h42v-424q0 -24 11 -36zM2 609h198v-44h-198v44z" />
    <glyph glyph-name="Ibreve" unicode="&#x12c;" horiz-adv-x="255" 
d="M105 685h45v-684h-45v684zM42.5 777q-31.5 34 -35.5 91h48q4 -38 23 -62t48 -24q27 0 46 23.5t21 62.5h48q-4 -60 -35.5 -92.5t-80.5 -32.5q-51 0 -82.5 34z" />
    <glyph glyph-name="ibreve" unicode="&#x12d;" horiz-adv-x="239" 
d="M133 40q11 -12 29 -12q17 0 30 16l31 -22q-23 -32 -62 -32q-36 0 -58.5 23.5t-22.5 63.5v423h42v-424q0 -24 11 -36zM18.5 591q-31.5 34 -35.5 91h48q4 -38 23 -62t48 -24q27 0 46 23.5t21 62.5h48q-4 -60 -35.5 -92.5t-80.5 -32.5q-51 0 -82.5 34z" />
    <glyph glyph-name="Iogonek" unicode="&#x12e;" horiz-adv-x="255" 
d="M196 -170q-17 -12 -39.5 -18.5t-42.5 -6.5q-37 0 -59 23t-22 61q0 29 15.5 52t56.5 60v684h45v-684q-42 -43 -57.5 -65.5t-15.5 -42.5q0 -24 16.5 -36t34.5 -12q23 0 49 18z" />
    <glyph glyph-name="iogonek" unicode="&#x12f;" horiz-adv-x="239" 
d="M127.5 585q-10.5 -10 -26.5 -10t-26 10t-10 26t10 26t26 10t26.5 -10t10.5 -26t-10.5 -26zM256 -163q-17 -12 -39.5 -18.5t-42.5 -6.5q-37 0 -59 23t-22 61q0 26 12.5 46.5t41.5 48.5q-31 5 -49 27.5t-18 58.5v423h42v-424q0 -24 11 -36t29 -12q17 0 30 16l31 -22
q-5 -7 -15 -17q-40 -41 -55.5 -63t-15.5 -42q0 -24 16.5 -36t34.5 -12q23 0 49 18z" />
    <glyph glyph-name="Idotaccent" unicode="&#x130;" horiz-adv-x="255" 
d="M105 685h45v-684h-45v684zM99 749q-10 10 -10 26t10 26t26 10t26.5 -10t10.5 -26t-10.5 -26t-26.5 -10t-26 10z" />
    <glyph glyph-name="dotlessi" unicode="&#x131;" horiz-adv-x="239" 
d="M133 40q11 -12 29 -12q17 0 30 16l31 -22q-23 -32 -62 -32q-36 0 -58.5 23.5t-22.5 63.5v423h42v-424q0 -24 11 -36z" />
    <glyph glyph-name="IJ" unicode="&#x132;" horiz-adv-x="769" 
d="M105 685h45v-684h-45v684zM348.5 41.5q-43.5 47.5 -47.5 121.5l41 -4q2 -56 40 -90.5t103 -34.5q79 0 112.5 46t33.5 108v456q-23 -23 -66 -23q-23 0 -42 5.5t-45 16.5q-34 15 -57 15q-14 0 -27.5 -4t-27 -9.5t-22.5 -8.5l-18 36q41 15 58.5 20t36.5 5q30 0 88 -23
q35 -14 58 -14q17 0 34.5 8t24.5 20h47v-503q0 -82 -47.5 -136.5t-143.5 -54.5q-90 0 -133.5 47.5z" />
    <glyph glyph-name="ij" unicode="&#x133;" horiz-adv-x="451" 
d="M133 40q11 -12 29 -12q17 0 30 16l31 -22q-23 -32 -62 -32q-36 0 -58.5 23.5t-22.5 63.5v423h42v-424q0 -24 11 -36zM75 585q-10 10 -10 26t10 26t26 10t26.5 -10t10.5 -26t-10.5 -26t-26.5 -10t-26 10zM207 -224l35 23q18 -23 40 -23q19 0 31 14.5t12 36.5v673h42v-673
q0 -40 -23.5 -65.5t-61.5 -25.5q-44 0 -75 40zM320 585q-10 10 -10 26t10 26t26 10t26.5 -10t10.5 -26t-10.5 -26t-26.5 -10t-26 10z" />
    <glyph glyph-name="Jcircumflex" unicode="&#x134;" horiz-adv-x="514" 
d="M93.5 41.5q-43.5 47.5 -47.5 121.5l41 -4q2 -56 40 -90.5t103 -34.5q79 0 112.5 46t33.5 108v456q-23 -23 -66 -23q-23 0 -42 5.5t-45 16.5q-34 15 -57 15q-14 0 -27.5 -4t-27 -9.5t-22.5 -8.5l-18 36q41 15 58.5 20t36.5 5q30 0 88 -23q35 -14 58 -14q17 0 34.5 8
t24.5 20h47v-503q0 -82 -47.5 -136.5t-143.5 -54.5q-90 0 -133.5 47.5zM220 853h43l120 -121h-56l-85 85l-86 -85h-55z" />
    <glyph glyph-name="jcircumflex" unicode="&#x135;" horiz-adv-x="212" 
d="M-32 -224l35 23q18 -23 40 -23q19 0 31 14.5t12 36.5v673h42v-673q0 -40 -23.5 -65.5t-61.5 -25.5q-44 0 -75 40zM87 694h43l114 -131h-50l-85 95l-86 -95h-49z" />
    <glyph glyph-name="uni0136" unicode="&#x136;" horiz-adv-x="690" 
d="M87 661q-18 0 -27 -7.5t-15 -17.5l-31 23q22 42 75 42q39 0 63 -24.5t24 -72.5v-241h56q36 0 70 15q18 8 29 17.5t23 24.5q41 52 72 111q40 74 78 154h51q-60 -114 -98 -180q-33 -59 -53 -88q-4 -5 -16 -22t-21 -26t-21 -18l211 -298q5 -8 15 -14t21 -6q16 0 30 12
l33 -23q-12 -14 -30 -21.5t-36 -7.5q-40 0 -66 37l-218 308q-50 -15 -86 -15q-13 0 -23 1t-19 1v-323h-44v602q0 57 -47 57zM293 -92h50l-47 -197h-41z" />
    <glyph glyph-name="uni0137" unicode="&#x137;" horiz-adv-x="550" 
d="M126 728v-350q23 63 68 96.5t104 33.5q68 0 109 -40.5t41 -108.5q0 -97 -99 -142l92 -158q15 -28 37 -28q17 0 28 13l28 -25q-14 -14 -26.5 -20.5t-30.5 -6.5q-23 0 -39.5 9t-29.5 31l-100 174h-182v-206h-42v728h42zM337 259q34 14 53.5 41.5t19.5 62.5q0 46 -31.5 76.5
t-82.5 30.5q-55 0 -96 -36.5t-60 -102.5q-13 -47 -12 -86h126q52 0 83 14zM266 -93h50l-47 -197h-41z" />
    <glyph glyph-name="kgreenlandic" unicode="&#x138;" horiz-adv-x="531" 
d="M126 500v-222h21q10 -1 38 -1q36 0 78 18t68 44q10 10 29 48l20 36q23 39 47.5 64t55.5 34l12 -42q-23 -4 -52 -38q-20 -25 -48 -80q-15 -31 -36.5 -56t-69.5 -46q51 -23 76 -51t41 -64q27 -61 51 -88q25 -29 48 -34l-13 -42q-37 12 -67 48q-23 27 -55 97
q-22 47 -61.5 75t-87.5 34q-14 2 -47 2h-48v-236h-42v500h42z" />
    <glyph glyph-name="Lacute" unicode="&#x139;" horiz-adv-x="539" 
d="M105 685h42v-644h356v-40h-398v684zM283 771l161 105l25 -40l-173 -89z" />
    <glyph glyph-name="lacute" unicode="&#x13a;" horiz-adv-x="240" 
d="M134 40q11 -12 29 -12q17 0 30 16l31 -22q-23 -32 -62 -32q-36 0 -58.5 23.5t-22.5 63.5v650h42v-651q0 -24 11 -36zM84 805l161 105l25 -40l-173 -89z" />
    <glyph glyph-name="uni013B" unicode="&#x13b;" horiz-adv-x="539" 
d="M105 685h42v-644h356v-40h-398v684zM277 -100h50l-47 -197h-41z" />
    <glyph glyph-name="uni013C" unicode="&#x13c;" horiz-adv-x="240" 
d="M134 40q11 -12 29 -12q17 0 30 16l31 -22q-23 -32 -62 -32q-36 0 -58.5 23.5t-22.5 63.5v650h42v-651q0 -24 11 -36zM84 -95h50l-47 -197h-41z" />
    <glyph glyph-name="Lcaron" unicode="&#x13d;" horiz-adv-x="539" 
d="M105 685h42v-644h356v-40h-398v684zM410 749l42 -21l-97 -169l-22 13z" />
    <glyph glyph-name="lcaron" unicode="&#x13e;" horiz-adv-x="240" 
d="M134 40q11 -12 29 -12q17 0 30 16l31 -22q-23 -32 -62 -32q-36 0 -58.5 23.5t-22.5 63.5v650h42v-651q0 -24 11 -36zM277 776l42 -21l-97 -169l-22 13z" />
    <glyph glyph-name="Ldot" unicode="&#x13f;" horiz-adv-x="539" 
d="M105 685h42v-644h356v-40h-398v684zM292.5 346.5q-15.5 15.5 -15.5 38.5t15.5 38.5t37.5 15.5q23 0 38.5 -15.5t15.5 -38.5t-15.5 -38.5t-38.5 -15.5q-22 0 -37.5 15.5z" />
    <glyph glyph-name="ldot" unicode="&#x140;" horiz-adv-x="240" 
d="M134 40q11 -12 29 -12q17 0 30 16l31 -22q-23 -32 -62 -32q-36 0 -58.5 23.5t-22.5 63.5v650h42v-651q0 -24 11 -36zM190.5 404.5q-15.5 15.5 -15.5 38.5t15.5 38.5t37.5 15.5q23 0 38.5 -15.5t15.5 -38.5t-15.5 -38.5t-38.5 -15.5q-22 0 -37.5 15.5z" />
    <glyph glyph-name="Lslash" unicode="&#x141;" horiz-adv-x="539" 
d="M147 41h356v-40h-398v300l-66 -38l-22 39l88 51v332h42v-308l76 44l22 -39l-98 -57v-284z" />
    <glyph glyph-name="lslash" unicode="&#x142;" horiz-adv-x="270" 
d="M242 22q-23 -32 -62 -32q-36 0 -58.5 23.5t-22.5 63.5v297l-71 -44v48l71 44v305h42v-278l66 41v-48l-66 -41v-325q0 -24 11 -36t29 -12q17 0 30 16z" />
    <glyph glyph-name="Nacute" unicode="&#x143;" horiz-adv-x="784" 
d="M33 15l38 27q6 -7 15.5 -11.5t15.5 -4.5q17 0 29 12t12 32v615h28l111 -125l328 -418l28 -45l-3 587h45v-683h-7l-459 572l-31 45l4 -548q0 -42 -24.5 -64.5t-61.5 -22.5q-41 0 -68 32zM405 771l161 105l25 -40l-173 -89z" />
    <glyph glyph-name="nacute" unicode="&#x144;" horiz-adv-x="586" 
d="M570 22q-23 -32 -62 -32q-36 0 -58.5 23.5t-22.5 63.5v260q0 130 -120 130q-50 0 -91.5 -25.5t-84.5 -83.5v-358h-42v360q0 44 -9 69.5t-28 49.5l28 27q22 -21 35.5 -48.5t15.5 -56.5q34 55 77.5 79.5t103.5 24.5q75 0 116 -38t41 -109v-282q0 -24 11 -36t29 -12
q17 0 30 16zM285 585l115 154l36 -29l-132 -143z" />
    <glyph glyph-name="uni0145" unicode="&#x145;" horiz-adv-x="784" 
d="M33 15l38 27q6 -7 15.5 -11.5t15.5 -4.5q17 0 29 12t12 32v615h28l111 -125l328 -418l28 -45l-3 587h45v-683h-7l-459 572l-31 45l4 -548q0 -42 -24.5 -64.5t-61.5 -22.5q-41 0 -68 32zM400 -100h50l-47 -197h-41z" />
    <glyph glyph-name="uni0146" unicode="&#x146;" horiz-adv-x="586" 
d="M570 22q-23 -32 -62 -32q-36 0 -58.5 23.5t-22.5 63.5v260q0 130 -120 130q-50 0 -91.5 -25.5t-84.5 -83.5v-358h-42v360q0 44 -9 69.5t-28 49.5l28 27q22 -21 35.5 -48.5t15.5 -56.5q34 55 77.5 79.5t103.5 24.5q75 0 116 -38t41 -109v-282q0 -24 11 -36t29 -12
q17 0 30 16zM275 -93h50l-47 -197h-41z" />
    <glyph glyph-name="Ncaron" unicode="&#x147;" horiz-adv-x="784" 
d="M33 15l38 27q6 -7 15.5 -11.5t15.5 -4.5q17 0 29 12t12 32v615h28l111 -125l328 -418l28 -45l-3 587h45v-683h-7l-459 572l-31 45l4 -548q0 -42 -24.5 -64.5t-61.5 -22.5q-41 0 -68 32zM337 862l86 -85l85 85h56l-120 -121h-43l-119 121h55z" />
    <glyph glyph-name="ncaron" unicode="&#x148;" horiz-adv-x="586" 
d="M570 22q-23 -32 -62 -32q-36 0 -58.5 23.5t-22.5 63.5v260q0 130 -120 130q-50 0 -91.5 -25.5t-84.5 -83.5v-358h-42v360q0 44 -9 69.5t-28 49.5l28 27q22 -21 35.5 -48.5t15.5 -56.5q34 55 77.5 79.5t103.5 24.5q75 0 116 -38t41 -109v-282q0 -24 11 -36t29 -12
q17 0 30 16zM166 700h50l86 -95l84 95h51l-114 -131h-44z" />
    <glyph glyph-name="Eng" unicode="&#x14a;" horiz-adv-x="784" 
d="M680 684v-734q0 -36 -24 -60.5t-61 -24.5q-40 0 -65 32l35 23q12 -13 30 -13q19 0 31 12.5t12 30.5v95l-424 528l-31 45l4 -548q0 -42 -24.5 -64.5t-61.5 -22.5q-41 0 -68 32l38 27q6 -7 15.5 -11.5t15.5 -4.5q17 0 29 12t12 32v615h28l111 -125l328 -418l28 -45l-3 587
h45z" />
    <glyph glyph-name="eng" unicode="&#x14b;" horiz-adv-x="546" 
d="M128 396q36 58 81 83.5t103 25.5q74 0 113.5 -34.5t43.5 -107.5v-387q0 -35 -23.5 -59.5t-61.5 -24.5q-40 0 -65 32l34 23q13 -13 30 -13q16 0 30 12t14 31v360q0 129 -120 129q-56 0 -96 -27.5t-80 -80.5v-357h-41v353q0 78 -38 121l25 25q42 -32 51 -104z" />
    <glyph glyph-name="Omacron" unicode="&#x14c;" horiz-adv-x="808" 
d="M231.5 31q-78.5 45 -123.5 123.5t-45 176.5v19q0 99 44.5 179.5t122 126.5t173.5 46t174 -46t123 -126.5t45 -179.5v-19q0 -99 -43.5 -177.5t-120.5 -123t-174 -44.5t-175.5 45zM556.5 64q68.5 40 107.5 110.5t39 156.5v19q0 87 -40 158.5t-109 112.5t-152 41t-151 -41
t-107 -112.5t-39 -158.5v-19q0 -86 39 -156.5t107.5 -110.5t152.5 -40t152.5 40zM272 794h259v-41h-259v41z" />
    <glyph glyph-name="omacron" unicode="&#x14d;" horiz-adv-x="576" 
d="M161.5 23q-54.5 32 -85 90t-30.5 133q0 76 30.5 134.5t85.5 91.5t126 33t126 -32.5t85.5 -91t30.5 -134.5q0 -75 -30.5 -133.5t-85.5 -90.5t-127 -32q-71 0 -125.5 32zM392.5 57q45.5 28 70.5 78.5t25 115.5q0 64 -25 113t-70.5 76t-104.5 27t-104.5 -27.5t-70.5 -77.5
t-25 -115q0 -64 25 -113.5t70.5 -77t104.5 -27.5t104.5 28zM158 611h259v-41h-259v41z" />
    <glyph glyph-name="Obreve" unicode="&#x14e;" horiz-adv-x="808" 
d="M231.5 31q-78.5 45 -123.5 123.5t-45 176.5v19q0 99 44.5 179.5t122 126.5t173.5 46t174 -46t123 -126.5t45 -179.5v-19q0 -99 -43.5 -177.5t-120.5 -123t-174 -44.5t-175.5 45zM556.5 64q68.5 40 107.5 110.5t39 156.5v19q0 87 -40 158.5t-109 112.5t-152 41t-151 -41
t-107 -112.5t-39 -158.5v-19q0 -86 39 -156.5t107.5 -110.5t152.5 -40t152.5 40zM305 771q-33 31 -37 84h44q4 -33 26.5 -54.5t64.5 -21.5q40 0 62.5 21t24.5 55h44q-4 -55 -37.5 -85t-94.5 -30q-64 0 -97 31z" />
    <glyph glyph-name="obreve" unicode="&#x14f;" horiz-adv-x="576" 
d="M161.5 23q-54.5 32 -85 90t-30.5 133q0 76 30.5 134.5t85.5 91.5t126 33t126 -32.5t85.5 -91t30.5 -134.5q0 -75 -30.5 -133.5t-85.5 -90.5t-127 -32q-71 0 -125.5 32zM392.5 57q45.5 28 70.5 78.5t25 115.5q0 64 -25 113t-70.5 76t-104.5 27t-104.5 -27.5t-70.5 -77.5
t-25 -115q0 -64 25 -113.5t70.5 -77t104.5 -27.5t104.5 28zM191.5 599q-33.5 33 -37.5 92h43q4 -39 27 -62.5t64 -23.5q40 0 62.5 23t24.5 63h43q-4 -62 -37.5 -93.5t-93.5 -31.5q-62 0 -95.5 33z" />
    <glyph glyph-name="Ohungarumlaut" unicode="&#x150;" horiz-adv-x="808" 
d="M231.5 31q-78.5 45 -123.5 123.5t-45 176.5v19q0 99 44.5 179.5t122 126.5t173.5 46t174 -46t123 -126.5t45 -179.5v-19q0 -99 -43.5 -177.5t-120.5 -123t-174 -44.5t-175.5 45zM556.5 64q68.5 40 107.5 110.5t39 156.5v19q0 87 -40 158.5t-109 112.5t-152 41t-151 -41
t-107 -112.5t-39 -158.5v-19q0 -86 39 -156.5t107.5 -110.5t152.5 -40t152.5 40zM296 770l161 105l25 -40l-173 -89zM484 771l161 105l25 -40l-173 -89z" />
    <glyph glyph-name="ohungarumlaut" unicode="&#x151;" horiz-adv-x="576" 
d="M161.5 23q-54.5 32 -85 90t-30.5 133q0 76 30.5 134.5t85.5 91.5t126 33t126 -32.5t85.5 -91t30.5 -134.5q0 -75 -30.5 -133.5t-85.5 -90.5t-127 -32q-71 0 -125.5 32zM392.5 57q45.5 28 70.5 78.5t25 115.5q0 64 -25 113t-70.5 76t-104.5 27t-104.5 -27.5t-70.5 -77.5
t-25 -115q0 -64 25 -113.5t70.5 -77t104.5 -27.5t104.5 28zM187 584l115 154l36 -29l-132 -143zM365 585l115 154l36 -29l-132 -143z" />
    <glyph glyph-name="OE" unicode="&#x152;" horiz-adv-x="1223" 
d="M1169 35v-40h-452v191q-39 -92 -121 -146t-189 -54q-97 0 -175.5 45t-123.5 123.5t-45 176.5v19q0 99 44.5 179.5t122 126.5t173.5 46q107 0 190.5 -56.5t123.5 -151.5v185h432v-40h-390v-261h287v-40h-287v-303h410zM703 350q0 87 -40 158.5t-109 112.5t-152 41
t-151 -41t-107 -112.5t-39 -158.5v-19q0 -86 39 -156.5t107.5 -110.5t152.5 -40t152.5 40t107.5 110.5t39 156.5v19z" />
    <glyph glyph-name="oe" unicode="&#x153;" horiz-adv-x="931" 
d="M163.5 23.5q-56.5 32.5 -87 90.5t-30.5 132q0 75 31 133.5t87 92t130 33.5q80 0 137 -40t83 -116q21 72 70 114t123 42q75 0 124 -40t49 -110q0 -77 -61 -112t-156 -35h-127q8 -88 52 -133.5t122 -45.5q43 0 80 12t81 35l19 -31q-80 -54 -178 -54q-161 0 -202 147
q-29 -75 -85 -111t-132 -36q-73 0 -129.5 32.5zM400 58q46 29 70.5 80t24.5 113q0 63 -25.5 112.5t-71 76.5t-105.5 27q-61 0 -107.5 -28t-72 -78t-25.5 -112t25.5 -112.5t71.5 -79t107 -28.5q62 0 108 29zM790.5 271.5q47.5 27.5 47.5 85.5q0 55 -38.5 82.5t-89.5 27.5
q-56 0 -96.5 -33t-61 -84.5t-18.5 -105.5h129q80 0 127.5 27.5z" />
    <glyph glyph-name="Racute" unicode="&#x154;" horiz-adv-x="696" 
d="M112 642q-11 -3 -20 -9q-8 -7 -11 -16t-4 -22h-38q2 43 28 67q24 22 77 22l218 1q45 0 79 -17q49 -24 77 -74t28 -112q0 -53 -20.5 -96t-56 -67.5t-79.5 -24.5h-39l21 -9q16 -6 38 -35l148 -200q15 -20 35 -20q10 0 20.5 4t17.5 11l31 -21q-11 -16 -29 -24.5t-39 -8.5
q-41 0 -69 37l-123 168q-28 38 -56 59.5t-80 28.5v39h81q70 0 113.5 44t43.5 115q0 46 -19 83t-52.5 58.5t-74.5 21.5h-173v-644h-42v644q-20 0 -31 -3zM267 762l161 105l25 -40l-173 -89z" />
    <glyph glyph-name="racute" unicode="&#x155;" horiz-adv-x="350" 
d="M332 498v-38q-29 5 -50 5q-57 0 -92 -28q-15 -13 -32 -33.5t-29 -43.5v-359h-42v361q0 44 -9 69.5t-28 49.5l28 27q22 -21 35.5 -47.5t15.5 -55.5q13 26 31 47t36 32q34 21 84 21q14 0 52 -7zM198 585l115 154l36 -29l-132 -143z" />
    <glyph glyph-name="uni0156" unicode="&#x156;" horiz-adv-x="696" 
d="M112 642q-11 -3 -20 -9q-8 -7 -11 -16t-4 -22h-38q2 43 28 67q24 22 77 22l218 1q45 0 79 -17q49 -24 77 -74t28 -112q0 -53 -20.5 -96t-56 -67.5t-79.5 -24.5h-39l21 -9q16 -6 38 -35l148 -200q15 -20 35 -20q10 0 20.5 4t17.5 11l31 -21q-11 -16 -29 -24.5t-39 -8.5
q-41 0 -69 37l-123 168q-28 38 -56 59.5t-80 28.5v39h81q70 0 113.5 44t43.5 115q0 46 -19 83t-52.5 58.5t-74.5 21.5h-173v-644h-42v644q-20 0 -31 -3zM296 -101h50l-47 -197h-41z" />
    <glyph glyph-name="uni0157" unicode="&#x157;" horiz-adv-x="350" 
d="M332 498v-38q-29 5 -50 5q-57 0 -92 -28q-15 -13 -32 -33.5t-29 -43.5v-359h-42v361q0 44 -9 69.5t-28 49.5l28 27q22 -21 35.5 -47.5t15.5 -55.5q13 26 31 47t36 32q34 21 84 21q14 0 52 -7zM83 -99h50l-47 -197h-41z" />
    <glyph glyph-name="Rcaron" unicode="&#x158;" horiz-adv-x="696" 
d="M112 642q-11 -3 -20 -9q-8 -7 -11 -16t-4 -22h-38q2 43 28 67q24 22 77 22l218 1q45 0 79 -17q49 -24 77 -74t28 -112q0 -53 -20.5 -96t-56 -67.5t-79.5 -24.5h-39l21 -9q16 -6 38 -35l148 -200q15 -20 35 -20q10 0 20.5 4t17.5 11l31 -21q-11 -16 -29 -24.5t-39 -8.5
q-41 0 -69 37l-123 168q-28 38 -56 59.5t-80 28.5v39h81q70 0 113.5 44t43.5 115q0 46 -19 83t-52.5 58.5t-74.5 21.5h-173v-644h-42v644q-20 0 -31 -3zM199 853l86 -85l85 85h56l-120 -121h-43l-119 121h55z" />
    <glyph glyph-name="rcaron" unicode="&#x159;" horiz-adv-x="350" 
d="M332 498v-38q-29 5 -50 5q-57 0 -92 -28q-15 -13 -32 -33.5t-29 -43.5v-359h-42v361q0 44 -9 69.5t-28 49.5l28 27q22 -21 35.5 -47.5t15.5 -55.5q13 26 31 47t36 32q34 21 84 21q14 0 52 -7zM79 700h50l86 -95l84 95h51l-114 -131h-44z" />
    <glyph glyph-name="Sacute" unicode="&#x15a;" horiz-adv-x="561" 
d="M127.5 29.5q-65.5 45.5 -88.5 119.5l38 15q19 -63 74.5 -101.5t126.5 -38.5q53 0 96 22.5t67.5 62t24.5 88.5q0 38 -17.5 66.5t-58.5 54.5t-115 57q-65 27 -100.5 51t-51 51t-15.5 64q0 45 24 81.5t66.5 57.5t94.5 21q68 0 111 -32t43 -84q0 -39 -26 -63.5t-60 -20.5
l3 38q18 -2 29.5 10.5t11.5 33.5q0 34 -31.5 56t-78.5 22q-38 0 -71.5 -16.5t-53.5 -43.5t-20 -58q0 -29 12 -48.5t43 -38.5t92 -45q81 -34 126.5 -65t65.5 -66t20 -82q0 -62 -30 -110.5t-82.5 -76t-119.5 -27.5q-84 0 -149.5 45.5zM259 762l161 105l25 -40l-173 -89z" />
    <glyph glyph-name="sacute" unicode="&#x15b;" horiz-adv-x="422" 
d="M119 7q-44 18 -85 56l24 29q73 -65 157 -65q57 0 94 29t37 78q0 31 -16 51t-43.5 34t-83.5 37q-52 21 -80 36t-45.5 38.5t-17.5 58.5q0 56 41.5 90t110.5 34q64 0 119 -35l-20 -32q-49 29 -98 29t-79.5 -24t-30.5 -62q0 -21 11.5 -35.5t38.5 -29t85 -39.5q60 -26 89 -43
t45.5 -41t16.5 -62q0 -69 -48 -109.5t-127 -40.5q-51 0 -95 18zM191 580l115 154l36 -29l-132 -143z" />
    <glyph glyph-name="Scircumflex" unicode="&#x15c;" horiz-adv-x="561" 
d="M127.5 29.5q-65.5 45.5 -88.5 119.5l38 15q19 -63 74.5 -101.5t126.5 -38.5q53 0 96 22.5t67.5 62t24.5 88.5q0 38 -17.5 66.5t-58.5 54.5t-115 57q-65 27 -100.5 51t-51 51t-15.5 64q0 45 24 81.5t66.5 57.5t94.5 21q68 0 111 -32t43 -84q0 -39 -26 -63.5t-60 -20.5
l3 38q18 -2 29.5 10.5t11.5 33.5q0 34 -31.5 56t-78.5 22q-38 0 -71.5 -16.5t-53.5 -43.5t-20 -58q0 -29 12 -48.5t43 -38.5t92 -45q81 -34 126.5 -65t65.5 -66t20 -82q0 -62 -30 -110.5t-82.5 -76t-119.5 -27.5q-84 0 -149.5 45.5zM255 853h43l120 -121h-56l-85 85l-86 -85
h-55z" />
    <glyph glyph-name="scircumflex" unicode="&#x15d;" horiz-adv-x="422" 
d="M119 7q-44 18 -85 56l24 29q73 -65 157 -65q57 0 94 29t37 78q0 31 -16 51t-43.5 34t-83.5 37q-52 21 -80 36t-45.5 38.5t-17.5 58.5q0 56 41.5 90t110.5 34q64 0 119 -35l-20 -32q-49 29 -98 29t-79.5 -24t-30.5 -62q0 -21 11.5 -35.5t38.5 -29t85 -39.5q60 -26 89 -43
t45.5 -41t16.5 -62q0 -69 -48 -109.5t-127 -40.5q-51 0 -95 18zM188 694h43l114 -131h-50l-85 95l-86 -95h-49z" />
    <glyph glyph-name="Scedilla" unicode="&#x15e;" horiz-adv-x="561" 
d="M483 93.5q-26 -46.5 -73.5 -75t-107.5 -33.5l-5 -23q36 -2 54.5 -25.5t18.5 -58.5q0 -39 -26 -69.5t-69 -27.5l7 38q22 3 35.5 21t13.5 39q0 23 -15 36t-41 13h-24l7 57q-78 5 -137.5 49.5t-81.5 114.5l38 15q19 -63 74.5 -101.5t126.5 -38.5q53 0 96 22.5t67.5 62
t24.5 88.5q0 38 -17.5 66.5t-58.5 54.5t-115 57q-65 27 -100.5 51t-51 51t-15.5 64q0 45 24 81.5t66.5 57.5t94.5 21q68 0 111 -32t43 -84q0 -39 -26 -63.5t-60 -20.5l3 38q18 -2 29.5 10.5t11.5 33.5q0 34 -31.5 56t-78.5 22q-38 0 -71.5 -16.5t-53.5 -43.5t-20 -58
q0 -29 12 -48.5t43 -38.5t92 -45q81 -34 126.5 -65t65.5 -66t20 -82q0 -58 -26 -104.5z" />
    <glyph glyph-name="scedilla" unicode="&#x15f;" horiz-adv-x="422" 
d="M350 38q-39 -39 -105 -47l-8 -43q36 -2 54.5 -25.5t18.5 -58.5q0 -39 -26 -69.5t-69 -27.5l7 38q22 3 35.5 21t13.5 39q0 23 -15 36t-41 13h-24l9 75q-92 4 -166 74l24 29q73 -65 157 -65q57 0 94 29t37 78q0 31 -16 51t-43.5 34t-83.5 37q-52 21 -80 36t-45.5 38.5
t-17.5 58.5q0 56 41.5 90t110.5 34q64 0 119 -35l-20 -32q-49 29 -98 29t-79.5 -24t-30.5 -62q0 -21 11.5 -35.5t38.5 -29t85 -39.5q60 -26 89 -43t45.5 -41t16.5 -62q0 -62 -39 -101z" />
    <glyph glyph-name="Scaron" unicode="&#x160;" horiz-adv-x="561" 
d="M127.5 29.5q-65.5 45.5 -88.5 119.5l38 15q19 -63 74.5 -101.5t126.5 -38.5q53 0 96 22.5t67.5 62t24.5 88.5q0 38 -17.5 66.5t-58.5 54.5t-115 57q-65 27 -100.5 51t-51 51t-15.5 64q0 45 24 81.5t66.5 57.5t94.5 21q68 0 111 -32t43 -84q0 -39 -26 -63.5t-60 -20.5
l3 38q18 -2 29.5 10.5t11.5 33.5q0 34 -31.5 56t-78.5 22q-38 0 -71.5 -16.5t-53.5 -43.5t-20 -58q0 -29 12 -48.5t43 -38.5t92 -45q81 -34 126.5 -65t65.5 -66t20 -82q0 -62 -30 -110.5t-82.5 -76t-119.5 -27.5q-84 0 -149.5 45.5zM191 853l86 -85l85 85h56l-120 -121h-43
l-119 121h55z" />
    <glyph glyph-name="scaron" unicode="&#x161;" horiz-adv-x="422" 
d="M119 7q-44 18 -85 56l24 29q73 -65 157 -65q57 0 94 29t37 78q0 31 -16 51t-43.5 34t-83.5 37q-52 21 -80 36t-45.5 38.5t-17.5 58.5q0 56 41.5 90t110.5 34q64 0 119 -35l-20 -32q-49 29 -98 29t-79.5 -24t-30.5 -62q0 -21 11.5 -35.5t38.5 -29t85 -39.5q60 -26 89 -43
t45.5 -41t16.5 -62q0 -69 -48 -109.5t-127 -40.5q-51 0 -95 18zM72 695h50l86 -95l84 95h51l-114 -131h-44z" />
    <glyph glyph-name="uni0162" unicode="&#x162;" horiz-adv-x="608" 
d="M332 645v-630h5l-12 -61q36 -2 54.5 -25.5t18.5 -58.5q0 -39 -26 -69.5t-69 -27.5l7 38q22 3 35.5 21t13.5 39q0 23 -15 36t-41 13h-24l11 95v630h-169q-16 0 -27.5 -10t-15.5 -25h-41q1 27 24 50q25 25 57 25h453v-40h-239z" />
    <glyph glyph-name="uni0163" unicode="&#x163;" horiz-adv-x="349" 
d="M280.5 12.5q-25.5 -17.5 -61.5 -20.5l-9 -47q36 -2 54.5 -25.5t18.5 -58.5q0 -39 -26 -69.5t-69 -27.5l7 38q22 3 35.5 21t13.5 39q0 23 -15 36t-41 13h-24l10 82q-97 17 -97 147v483h42v-123h161v-40h-161v-320q0 -53 19.5 -82t64.5 -29q59 0 94 57l30 -22
q-21 -34 -46.5 -51.5z" />
    <glyph glyph-name="Tcaron" unicode="&#x164;" horiz-adv-x="608" 
d="M121 645q-16 0 -27.5 -10t-15.5 -25h-41q1 27 24 50q25 25 57 25h453v-40h-239v-644h-42v644h-169zM225 853l86 -85l85 85h56l-120 -121h-43l-119 121h55z" />
    <glyph glyph-name="tcaron" unicode="&#x165;" horiz-adv-x="349" 
d="M77 140v483h42v-123h161v-40h-161v-320q0 -53 19.5 -82t64.5 -29q59 0 94 57l30 -22q-23 -37 -52 -55t-72 -18q-126 0 -126 149zM386 749l42 -21l-97 -169l-22 13z" />
    <glyph glyph-name="Tbar" unicode="&#x166;" horiz-adv-x="608" 
d="M332 645v-272h108v-41h-108v-331h-42v331h-107v41h107v272h-169q-16 0 -27.5 -10t-15.5 -25h-41q1 27 24 50q25 25 57 25h453v-40h-239z" />
    <glyph glyph-name="tbar" unicode="&#x167;" horiz-adv-x="349" 
d="M327 64q-23 -37 -52 -55t-72 -18q-126 0 -126 149v145h-86v41h86v297h42v-123h161v-40h-161v-134h129v-41h-129v-145q0 -53 19.5 -82t64.5 -29q59 0 94 57z" />
    <glyph glyph-name="Utilde" unicode="&#x168;" horiz-adv-x="727" 
d="M249 27q-57 37 -86.5 99.5t-29.5 138.5v339q0 57 -47 57q-18 0 -27 -7.5t-15 -17.5l-31 23q22 42 75 42q39 0 63 -24.5t24 -72.5v-339q0 -65 24.5 -118.5t72 -85t113.5 -31.5q70 0 117.5 34.5t70 88t22.5 112.5v419h42v-419q0 -71 -27 -134t-83.5 -102t-140.5 -39
q-80 0 -137 37zM287.5 801.5q23.5 8.5 46.5 8.5q20 0 33.5 -5t28.5 -14t25.5 -13t25.5 -4q34 0 74 31l25 -31q-27 -21 -47 -29.5t-54 -8.5q-19 0 -31.5 4.5t-28.5 13.5q-14 8 -24.5 12t-25.5 4q-18 0 -35 -6.5t-40 -24.5l-25 31q29 23 52.5 31.5z" />
    <glyph glyph-name="utilde" unicode="&#x169;" horiz-adv-x="579" 
d="M238 -7q-75 0 -114 34.5t-43 107.5v229q0 44 -9 69.5t-28 49.5l28 27q23 -23 37 -52.5t14 -60.5v-236q0 -130 121 -130q55 0 94 25.5t79 78.5l1 365h42l-1 -422q0 -24 11 -35.5t29 -11.5q9 0 18.5 5t13.5 12l32 -20q-10 -17 -27.5 -26t-36.5 -9q-37 0 -58 21.5t-23 61.5
q-66 -83 -180 -83zM160.5 629.5q23.5 8.5 46.5 8.5q20 0 33.5 -5t28.5 -14t25.5 -13t25.5 -4q34 0 74 31l25 -31q-27 -21 -47 -29.5t-54 -8.5q-19 0 -31.5 4.5t-28.5 13.5q-14 8 -24.5 12t-25.5 4q-18 0 -35 -6.5t-40 -24.5l-25 31q29 23 52.5 31.5z" />
    <glyph glyph-name="Umacron" unicode="&#x16a;" horiz-adv-x="727" 
d="M249 27q-57 37 -86.5 99.5t-29.5 138.5v339q0 57 -47 57q-18 0 -27 -7.5t-15 -17.5l-31 23q22 42 75 42q39 0 63 -24.5t24 -72.5v-339q0 -65 24.5 -118.5t72 -85t113.5 -31.5q70 0 117.5 34.5t70 88t22.5 112.5v419h42v-419q0 -71 -27 -134t-83.5 -102t-140.5 -39
q-80 0 -137 37zM247 785h259v-41h-259v41z" />
    <glyph glyph-name="umacron" unicode="&#x16b;" horiz-adv-x="579" 
d="M238 -7q-75 0 -114 34.5t-43 107.5v229q0 44 -9 69.5t-28 49.5l28 27q23 -23 37 -52.5t14 -60.5v-236q0 -130 121 -130q55 0 94 25.5t79 78.5l1 365h42l-1 -422q0 -24 11 -35.5t29 -11.5q9 0 18.5 5t13.5 12l32 -20q-10 -17 -27.5 -26t-36.5 -9q-37 0 -58 21.5t-23 61.5
q-66 -83 -180 -83zM134 608h259v-41h-259v41z" />
    <glyph glyph-name="Ubreve" unicode="&#x16c;" horiz-adv-x="727" 
d="M249 27q-57 37 -86.5 99.5t-29.5 138.5v339q0 57 -47 57q-18 0 -27 -7.5t-15 -17.5l-31 23q22 42 75 42q39 0 63 -24.5t24 -72.5v-339q0 -65 24.5 -118.5t72 -85t113.5 -31.5q70 0 117.5 34.5t70 88t22.5 112.5v419h42v-419q0 -71 -27 -134t-83.5 -102t-140.5 -39
q-80 0 -137 37zM280 762q-33 31 -37 84h44q4 -33 26.5 -54.5t64.5 -21.5q40 0 62.5 21t24.5 55h44q-4 -55 -37.5 -85t-94.5 -30q-64 0 -97 31z" />
    <glyph glyph-name="ubreve" unicode="&#x16d;" horiz-adv-x="579" 
d="M238 -7q-75 0 -114 34.5t-43 107.5v229q0 44 -9 69.5t-28 49.5l28 27q23 -23 37 -52.5t14 -60.5v-236q0 -130 121 -130q55 0 94 25.5t79 78.5l1 365h42l-1 -422q0 -24 11 -35.5t29 -11.5q9 0 18.5 5t13.5 12l32 -20q-10 -17 -27.5 -26t-36.5 -9q-37 0 -58 21.5t-23 61.5
q-66 -83 -180 -83zM167.5 596q-33.5 33 -37.5 92h43q4 -39 27 -62.5t64 -23.5q40 0 62.5 23t24.5 63h43q-4 -62 -37.5 -93.5t-93.5 -31.5q-62 0 -95.5 33z" />
    <glyph glyph-name="Uring" unicode="&#x16e;" horiz-adv-x="727" 
d="M249 27q-57 37 -86.5 99.5t-29.5 138.5v339q0 57 -47 57q-18 0 -27 -7.5t-15 -17.5l-31 23q22 42 75 42q39 0 63 -24.5t24 -72.5v-339q0 -65 24.5 -118.5t72 -85t113.5 -31.5q70 0 117.5 34.5t70 88t22.5 112.5v419h42v-419q0 -71 -27 -134t-83.5 -102t-140.5 -39
q-80 0 -137 37zM308.5 763q-25.5 26 -25.5 66q0 41 26.5 67.5t67.5 26.5t67.5 -26t26.5 -66q0 -42 -27.5 -68t-68.5 -26t-66.5 26zM417.5 786.5q18.5 19.5 18.5 44.5q0 24 -18 42.5t-41 18.5t-40.5 -19t-17.5 -44q0 -27 17.5 -44.5t39.5 -17.5q23 0 41.5 19.5z" />
    <glyph glyph-name="uring" unicode="&#x16f;" horiz-adv-x="579" 
d="M238 -7q-75 0 -114 34.5t-43 107.5v229q0 44 -9 69.5t-28 49.5l28 27q23 -23 37 -52.5t14 -60.5v-236q0 -130 121 -130q55 0 94 25.5t79 78.5l1 365h42l-1 -422q0 -24 11 -35.5t29 -11.5q9 0 18.5 5t13.5 12l32 -20q-10 -17 -27.5 -26t-36.5 -9q-37 0 -58 21.5t-23 61.5
q-66 -83 -180 -83zM205.5 591q-25.5 27 -25.5 70t26 71t70 28t70 -27t26 -70q0 -44 -27.5 -71.5t-70.5 -27.5t-68.5 27zM319 615q18 21 18 48t-18 46.5t-43 19.5q-26 0 -43 -20t-17 -48q0 -29 17.5 -48t41.5 -19q26 0 44 21z" />
    <glyph glyph-name="Uhungarumlaut" unicode="&#x170;" horiz-adv-x="727" 
d="M249 27q-57 37 -86.5 99.5t-29.5 138.5v339q0 57 -47 57q-18 0 -27 -7.5t-15 -17.5l-31 23q22 42 75 42q39 0 63 -24.5t24 -72.5v-339q0 -65 24.5 -118.5t72 -85t113.5 -31.5q70 0 117.5 34.5t70 88t22.5 112.5v419h42v-419q0 -71 -27 -134t-83.5 -102t-140.5 -39
q-80 0 -137 37zM271 761l161 105l25 -40l-173 -89zM459 762l161 105l25 -40l-173 -89z" />
    <glyph glyph-name="uhungarumlaut" unicode="&#x171;" horiz-adv-x="579" 
d="M238 -7q-75 0 -114 34.5t-43 107.5v229q0 44 -9 69.5t-28 49.5l28 27q23 -23 37 -52.5t14 -60.5v-236q0 -130 121 -130q55 0 94 25.5t79 78.5l1 365h42l-1 -422q0 -24 11 -35.5t29 -11.5q9 0 18.5 5t13.5 12l32 -20q-10 -17 -27.5 -26t-36.5 -9q-37 0 -58 21.5t-23 61.5
q-66 -83 -180 -83zM163 581l115 154l36 -29l-132 -143zM341 582l115 154l36 -29l-132 -143z" />
    <glyph glyph-name="Uogonek" unicode="&#x172;" horiz-adv-x="727" 
d="M613 138.5q-24 -59.5 -71 -97.5q-39 -41 -53.5 -62.5t-14.5 -40.5q0 -24 16.5 -36t34.5 -12q23 0 49 18l19 -33q-17 -12 -39.5 -18.5t-42.5 -6.5q-37 0 -59 23t-22 61q0 33 25 64q-34 -8 -69 -8q-80 0 -137 37t-86.5 99.5t-29.5 138.5v339q0 57 -47 57q-18 0 -27 -7.5
t-15 -17.5l-31 23q22 42 75 42q39 0 63 -24.5t24 -72.5v-339q0 -65 24.5 -118.5t72 -85t113.5 -31.5q70 0 117.5 34.5t70 88t22.5 112.5v419h42v-419q0 -67 -24 -126.5z" />
    <glyph glyph-name="uogonek" unicode="&#x173;" horiz-adv-x="579" 
d="M601 -154q-17 -12 -39.5 -18.5t-42.5 -6.5q-37 0 -59 23t-22 61q0 24 11 44t36 45q-30 4 -47.5 25t-19.5 57q-66 -83 -180 -83q-75 0 -114 34.5t-43 107.5v229q0 44 -9 69.5t-28 49.5l28 27q23 -23 37 -52.5t14 -60.5v-236q0 -130 121 -130q55 0 94 25.5t79 78.5l1 365
h42l-1 -422q0 -24 11 -35.5t29 -11.5q9 0 18.5 5t13.5 12l32 -20q-3 -6 -8 -11q-42 -43 -57.5 -65.5t-15.5 -42.5q0 -24 16.5 -36t34.5 -12q23 0 49 18z" />
    <glyph glyph-name="Wcircumflex" unicode="&#x174;" horiz-adv-x="1097" 
d="M93 657q-3 0 -11 -2q-11 -4 -17 -12l-31 22q3 8 12.5 15.5t23.5 12.5q17 5 27 5q25 0 43.5 -16t27.5 -46l175 -542l11 -53l12 53l190 592h50l190 -592l12 -56l11 56l190 592h46l-222 -685h-50l-202 619l-201 -619h-50l-202 623q-10 33 -35 33zM560 861h43l120 -121h-56
l-85 85l-86 -85h-55z" />
    <glyph glyph-name="wcircumflex" unicode="&#x175;" horiz-adv-x="769" 
d="M48 451.5q-13 15.5 -29 26.5l21 33q25 -15 40 -35.5t24 -48.5l122 -367l143 437h47l142 -437l143 437h42l-161 -495h-47l-143 437l-143 -437h-48l-136 419q-4 15 -17 30.5zM372 698h43l114 -131h-50l-85 95l-86 -95h-49z" />
    <glyph glyph-name="Ycircumflex" unicode="&#x176;" horiz-adv-x="613" 
d="M100 656q-8 0 -15 -4q-11 -7 -15 -15l-35 16q7 21 30 34q20 11 39 11q20 0 38 -12.5t30 -35.5l168 -302l187 338h49l-216 -384l2 -301h-43v299l-183 330q-14 26 -36 26zM314 853h43l120 -121h-56l-85 85l-86 -85h-55z" />
    <glyph glyph-name="ycircumflex" unicode="&#x177;" horiz-adv-x="546" 
d="M212 -247q-41 43 -41 109q0 43 21.5 79t58.5 53q-83 0 -125.5 35.5t-42.5 105.5v228q0 44 -9 69.5t-28 49.5l28 27q23 -23 37 -52.5t14 -60.5v-240q0 -65 28 -94.5t91 -29.5q47 0 85 20t75 66q8 15 11.5 26t3.5 24l1 332h42l-1 -366v-259q0 -76 -38.5 -120.5
t-105.5 -44.5q-64 0 -105 43zM391 -217q28 33 28 88v208q-28 -36 -68 -63q-35 -20 -56 -31q-43 -22 -62.5 -51t-19.5 -70q0 -50 28.5 -82t74.5 -32q47 0 75 33zM248 696h43l114 -131h-50l-85 95l-86 -95h-49z" />
    <glyph glyph-name="Ydieresis" unicode="&#x178;" horiz-adv-x="613" 
d="M100 656q-8 0 -15 -4q-11 -7 -15 -15l-35 16q7 21 30 34q20 11 39 11q20 0 38 -12.5t30 -35.5l168 -302l187 338h49l-216 -384l2 -301h-43v299l-183 330q-14 26 -36 26zM198 741q-10 10 -10 26t10 26t26 10t26.5 -10t10.5 -26t-10.5 -26t-26.5 -10t-26 10zM420 741
q-10 10 -10 26t10 26t26 10t26.5 -10t10.5 -26t-10.5 -26t-26.5 -10t-26 10z" />
    <glyph glyph-name="Zacute" unicode="&#x179;" horiz-adv-x="573" 
d="M419 644h-344v40h414l-359 -603l45 -8q23 -4 89 -22q46 -13 72 -18.5t50 -5.5q66 0 122 50l28 -28q-37 -34 -72.5 -48t-77.5 -14q-35 0 -70 8t-86 23q-75 24 -119 31l-36 -60l-34 20zM265 762l161 105l25 -40l-173 -89z" />
    <glyph glyph-name="zacute" unicode="&#x17a;" horiz-adv-x="464" 
d="M328 456h-268v39h343v-4l-282 -412l90 -32q56 -20 115 -20q25 0 46 6.5t51 25.5l19 -32q-30 -21 -55.5 -30t-58.5 -9q-55 0 -124 22l-106 34l-42 -60l-33 25zM233 581l115 154l36 -29l-132 -143z" />
    <glyph glyph-name="Zdotaccent" unicode="&#x17b;" horiz-adv-x="573" 
d="M419 644h-344v40h414l-359 -603l45 -8q23 -4 89 -22q46 -13 72 -18.5t50 -5.5q66 0 122 50l28 -28q-37 -34 -72.5 -48t-77.5 -14q-35 0 -70 8t-86 23q-75 24 -119 31l-36 -60l-34 20zM257 747q-10 10 -10 26t10 26t26 10t26.5 -10t10.5 -26t-10.5 -26t-26.5 -10t-26 10z
" />
    <glyph glyph-name="zdotaccent" unicode="&#x17c;" horiz-adv-x="464" 
d="M328 456h-268v39h343v-4l-282 -412l90 -32q56 -20 115 -20q25 0 46 6.5t51 25.5l19 -32q-30 -21 -55.5 -30t-58.5 -9q-55 0 -124 22l-106 34l-42 -60l-33 25zM224 586q-10 10 -10 26t10 26t26 10t26.5 -10t10.5 -26t-10.5 -26t-26.5 -10t-26 10z" />
    <glyph glyph-name="Zcaron" unicode="&#x17d;" horiz-adv-x="573" 
d="M419 644h-344v40h414l-359 -603l45 -8q23 -4 89 -22q46 -13 72 -18.5t50 -5.5q66 0 122 50l28 -28q-37 -34 -72.5 -48t-77.5 -14q-35 0 -70 8t-86 23q-75 24 -119 31l-36 -60l-34 20zM197 853l86 -85l85 85h56l-120 -121h-43l-119 121h55z" />
    <glyph glyph-name="zcaron" unicode="&#x17e;" horiz-adv-x="464" 
d="M328 456h-268v39h343v-4l-282 -412l90 -32q56 -20 115 -20q25 0 46 6.5t51 25.5l19 -32q-30 -21 -55.5 -30t-58.5 -9q-55 0 -124 22l-106 34l-42 -60l-33 25zM114 696h50l86 -95l84 95h51l-114 -131h-44z" />
    <glyph glyph-name="longs" unicode="&#x17f;" horiz-adv-x="245" 
d="M120 649q36 54 114 54q74 0 111 -41l-31 -31q-26 33 -78 33q-63 0 -86.5 -42.5t-23.5 -118.5v-713h-42v710q0 95 36 149z" />
    <glyph glyph-name="uni018F" unicode="&#x18f;" horiz-adv-x="684" 
d="M485.5 660q65.5 -42 99 -118t33.5 -177q0 -104 -34 -190.5t-100 -137.5t-159 -51q-78 0 -138.5 35.5t-94 100t-33.5 147.5q0 33 5 83h512v13q0 104 -51.5 201t-203.5 97q-58 0 -106.5 -15.5t-110.5 -47.5l-18 30q54 34 115 53t125 19q94 0 159.5 -42zM442 53.5
q53 33.5 88.5 99.5t43.5 159h-473q-2 -34 -2 -47q0 -69 30.5 -125.5t82.5 -88t114 -31.5q63 0 116 33.5z" />
    <glyph glyph-name="florin" unicode="&#x192;" horiz-adv-x="521" 
d="M90.5 -248.5q-10.5 1.5 -23.5 4.5v33l50 -1q20 -1 37.5 7t29.5 23q26 32 26 107v443h-116v39h116v71q0 51 5.5 94t23.5 69q28 41 90 41q32 0 62.5 -1t50 -2.5t5.5 -1.5v-35q-20 0 -32 1l-71 1q-21 0 -39 -9.5t-29 -24.5q-23 -33 -23 -104v-99h176v-39h-176v-443
q0 -96 -36 -138q-32 -37 -100 -37q-16 0 -26.5 1.5z" />
    <glyph glyph-name="uni0197" unicode="&#x197;" horiz-adv-x="255" 
d="M255 407v-41h-105v-365h-45v365h-107v41h107v278h45v-278h105z" />
    <glyph glyph-name="uni019D" unicode="&#x19d;" horiz-adv-x="761" 
d="M-29.5 -172.5q-30.5 28.5 -32.5 69.5h43q3 -23 21.5 -39t40.5 -16q25 0 43.5 19t18.5 42v782h25l111 -127l347 -425l27 -39l-3 590h44v-683h-14l-470 572l-27 41l4 -711q0 -51 -33.5 -77.5t-75.5 -26.5q-39 0 -69.5 28.5z" />
    <glyph glyph-name="Ohorn" unicode="&#x1a0;" horiz-adv-x="808" 
d="M698.5 531.5q46.5 -81.5 46.5 -181.5v-19q0 -99 -43.5 -177.5t-120.5 -123t-174 -44.5t-175.5 45t-123.5 123.5t-45 176.5v19q0 99 44.5 179.5t122 126.5t173.5 46q44 0 88 -11h37q31 0 49 19t18 46q0 25 -16 42l29 27q27 -30 27 -71q0 -31 -16 -57.5t-46 -38.5
q79 -45 125.5 -126.5zM703 350q0 87 -40 158.5t-109 112.5t-152 41t-151 -41t-107 -112.5t-39 -158.5v-19q0 -86 39 -156.5t107.5 -110.5t152.5 -40t152.5 40t107.5 110.5t39 156.5v19z" />
    <glyph glyph-name="ohorn" unicode="&#x1a1;" horiz-adv-x="576" 
d="M506.5 366.5q23.5 -53.5 23.5 -119.5q0 -75 -30.5 -133.5t-85.5 -90.5t-127 -32q-71 0 -125.5 32t-85 90t-30.5 133q0 76 30.5 134.5t85.5 91.5t126 33q44 0 86 -14h32q31 0 49 19t18 46q0 25 -16 42l29 27q27 -30 27 -71q0 -34 -19 -61.5t-54 -38.5q43 -34 66.5 -87.5z
M392.5 57q45.5 28 70.5 78.5t25 115.5q0 64 -25 113t-70.5 76t-104.5 27t-104.5 -27.5t-70.5 -77.5t-25 -115q0 -64 25 -113.5t70.5 -77t104.5 -27.5t104.5 28z" />
    <glyph glyph-name="Uhorn" unicode="&#x1af;" horiz-adv-x="727" 
d="M753 747q0 -41 -28 -72t-76 -33h-12v-377q0 -71 -27 -134t-83.5 -102t-140.5 -39q-80 0 -137 37t-86.5 99.5t-29.5 138.5v339q0 57 -47 57q-18 0 -27 -7.5t-15 -17.5l-31 23q22 42 75 42q39 0 63 -24.5t24 -72.5v-339q0 -65 24.5 -118.5t72 -85t113.5 -31.5
q70 0 117.5 34.5t70 88t22.5 112.5v419h51q31 0 49 19t18 46q0 25 -16 42l29 27q27 -30 27 -71z" />
    <glyph glyph-name="uhorn" unicode="&#x1b0;" horiz-adv-x="579" 
d="M517.5 36q9.5 5 13.5 12l32 -20q-10 -17 -27.5 -26t-36.5 -9q-37 0 -58 21.5t-23 61.5q-66 -83 -180 -83q-75 0 -114 34.5t-43 107.5v229q0 44 -9 69.5t-28 49.5l28 27q23 -23 37 -52.5t14 -60.5v-236q0 -130 121 -130q55 0 94 25.5t79 78.5l1 365h45q31 0 49 19t18 46
q0 25 -16 42l29 27q27 -30 27 -71t-28 -72t-76 -33h-6l-1 -380q0 -24 11 -35.5t29 -11.5q9 0 18.5 5z" />
    <glyph glyph-name="uni01C0" unicode="&#x1c0;" horiz-adv-x="252" 
d="M105 746h42v-822h-42v822z" />
    <glyph glyph-name="uni01C1" unicode="&#x1c1;" horiz-adv-x="450" 
d="M303 746h42v-822h-42v822zM105 746h42v-822h-42v822z" />
    <glyph glyph-name="uni01C4" unicode="&#x1c4;" horiz-adv-x="1332" 
d="M181 -4l-39 4v652q-20 0 -31 -3t-20 -9q-8 -7 -11 -16t-4 -22h-38q2 43 28 67q24 22 77 22l259 -1q91 -3 162.5 -50t112 -127.5t40.5 -181.5q0 -173 -107.5 -256t-332.5 -83q-48 0 -96 4zM675 333q0 140 -75 224t-208 93h-208v-614q52 -4 111 -4q380 0 380 301zM1178 644
h-344v40h414l-359 -603l45 -8q23 -4 89 -22q46 -13 72 -18.5t50 -5.5q66 0 122 50l28 -28q-37 -34 -72.5 -48t-77.5 -14q-35 0 -70 8t-86 23q-75 24 -119 31l-36 -60l-34 20zM988 853l86 -85l85 85h56l-120 -121h-43l-119 121h55z" />
    <glyph glyph-name="uni01C5" unicode="&#x1c5;" horiz-adv-x="1243" 
d="M181 -4l-39 4v652q-20 0 -31 -3t-20 -9q-8 -7 -11 -16t-4 -22h-38q2 43 28 67q24 22 77 22l259 -1q91 -3 162.5 -50t112 -127.5t40.5 -181.5q0 -173 -107.5 -256t-332.5 -83q-48 0 -96 4zM675 333q0 140 -75 224t-208 93h-208v-614q52 -4 111 -4q380 0 380 301zM1107 456
h-268v39h343v-4l-282 -412l90 -32q56 -20 115 -20q25 0 46 6.5t51 25.5l19 -32q-30 -21 -55.5 -30t-58.5 -9q-55 0 -124 22l-106 34l-42 -60l-33 25zM893 696h50l86 -95l84 95h51l-114 -131h-44z" />
    <glyph glyph-name="uni01C6" unicode="&#x1c6;" horiz-adv-x="1045" 
d="M144.5 25.5q-47.5 34.5 -72 92.5t-24.5 129q0 77 29 135t83.5 90.5t129.5 32.5q34 0 71.5 -4t57.5 -8v235h42v-650q0 -24 11 -35.5t29 -11.5q9 0 18.5 5t13.5 12l32 -20q-10 -17 -27.5 -26t-36.5 -9q-37 0 -58 21.5t-23 61.5q-19 -35 -63.5 -60t-96.5 -25
q-68 0 -115.5 34.5zM345.5 52.5q38.5 23.5 58.5 64.5q15 32 15 69v268q-43 13 -108 13q-114 0 -167.5 -61t-53.5 -159q0 -93 44.5 -155.5t125.5 -62.5q47 0 85.5 23.5zM909 456h-268v39h343v-4l-282 -412l90 -32q56 -20 115 -20q25 0 46 6.5t51 25.5l19 -32
q-30 -21 -55.5 -30t-58.5 -9q-55 0 -124 22l-106 34l-42 -60l-33 25zM695 696h50l86 -95l84 95h51l-114 -131h-44z" />
    <glyph glyph-name="uni01C7" unicode="&#x1c7;" horiz-adv-x="1043" 
d="M105 685h42v-644h356v-40h-398v684zM622.5 41.5q-43.5 47.5 -47.5 121.5l41 -4q2 -56 40 -90.5t103 -34.5q79 0 112.5 46t33.5 108v456q-23 -23 -66 -23q-23 0 -42 5.5t-45 16.5q-34 15 -57 15q-14 0 -27.5 -4t-27 -9.5t-22.5 -8.5l-18 36q41 15 58.5 20t36.5 5
q30 0 88 -23q35 -14 58 -14q17 0 34.5 8t24.5 20h47v-503q0 -82 -47.5 -136.5t-143.5 -54.5q-90 0 -133.5 47.5z" />
    <glyph glyph-name="uni01C8" unicode="&#x1c8;" horiz-adv-x="751" 
d="M105 685h42v-644h356v-40h-398v684zM507 -224l35 23q18 -23 40 -23q19 0 31 14.5t12 36.5v673h42v-673q0 -40 -23.5 -65.5t-61.5 -25.5q-44 0 -75 40zM620 585q-10 10 -10 26t10 26t26 10t26.5 -10t10.5 -26t-10.5 -26t-26.5 -10t-26 10z" />
    <glyph glyph-name="uni01C9" unicode="&#x1c9;" horiz-adv-x="452" 
d="M134 40q11 -12 29 -12q17 0 30 16l31 -22q-23 -32 -62 -32q-36 0 -58.5 23.5t-22.5 63.5v650h42v-651q0 -24 11 -36zM208 -224l35 23q18 -23 40 -23q19 0 31 14.5t12 36.5v673h42v-673q0 -40 -23.5 -65.5t-61.5 -25.5q-44 0 -75 40zM321 585q-10 10 -10 26t10 26t26 10
t26.5 -10t10.5 -26t-10.5 -26t-26.5 -10t-26 10z" />
    <glyph glyph-name="uni01CA" unicode="&#x1ca;" horiz-adv-x="1298" 
d="M33 15l38 27q6 -7 15.5 -11.5t15.5 -4.5q17 0 29 12t12 32v615h28l111 -125l328 -418l28 -45l-3 587h45v-683h-7l-459 572l-31 45l4 -548q0 -42 -24.5 -64.5t-61.5 -22.5q-41 0 -68 32zM877.5 41.5q-43.5 47.5 -47.5 121.5l41 -4q2 -56 40 -90.5t103 -34.5q79 0 112.5 46
t33.5 108v456q-23 -23 -66 -23q-23 0 -42 5.5t-45 16.5q-34 15 -57 15q-14 0 -27.5 -4t-27 -9.5t-22.5 -8.5l-18 36q41 15 58.5 20t36.5 5q30 0 88 -23q35 -14 58 -14q17 0 34.5 8t24.5 20h47v-503q0 -82 -47.5 -136.5t-143.5 -54.5q-90 0 -133.5 47.5z" />
    <glyph glyph-name="uni01CB" unicode="&#x1cb;" horiz-adv-x="996" 
d="M33 15l38 27q6 -7 15.5 -11.5t15.5 -4.5q17 0 29 12t12 32v615h28l111 -125l328 -418l28 -45l-3 587h45v-683h-7l-459 572l-31 45l4 -548q0 -42 -24.5 -64.5t-61.5 -22.5q-41 0 -68 32zM752 -224l35 23q18 -23 40 -23q19 0 31 14.5t12 36.5v673h42v-673
q0 -40 -23.5 -65.5t-61.5 -25.5q-44 0 -75 40zM865 585q-10 10 -10 26t10 26t26 10t26.5 -10t10.5 -26t-10.5 -26t-26.5 -10t-26 10z" />
    <glyph glyph-name="uni01CC" unicode="&#x1cc;" horiz-adv-x="798" 
d="M570 22q-23 -32 -62 -32q-36 0 -58.5 23.5t-22.5 63.5v260q0 130 -120 130q-50 0 -91.5 -25.5t-84.5 -83.5v-358h-42v360q0 44 -9 69.5t-28 49.5l28 27q22 -21 35.5 -48.5t15.5 -56.5q34 55 77.5 79.5t103.5 24.5q75 0 116 -38t41 -109v-282q0 -24 11 -36t29 -12
q17 0 30 16zM554 -224l35 23q18 -23 40 -23q19 0 31 14.5t12 36.5v673h42v-673q0 -40 -23.5 -65.5t-61.5 -25.5q-44 0 -75 40zM667 585q-10 10 -10 26t10 26t26 10t26.5 -10t10.5 -26t-10.5 -26t-26.5 -10t-26 10z" />
    <glyph glyph-name="uni01CD" unicode="&#x1cd;" horiz-adv-x="752" 
d="M65 7.5q-21 16.5 -29 45.5l39 6q4 -11 15 -19.5t25 -8.5q12 0 22.5 8.5t14.5 18.5l265 634h8l289 -691h-45l-97 233h-304l-78 -192q-10 -25 -30 -38t-46 -13q-28 0 -49 16.5zM554 274l-115 288l-19 63l-19 -65l-116 -286h269zM335 853l86 -85l85 85h56l-120 -121h-43
l-119 121h55z" />
    <glyph glyph-name="uni01CE" unicode="&#x1ce;" horiz-adv-x="581" 
d="M565 28q-10 -17 -27.5 -26t-36.5 -9q-36 0 -57 20.5t-24 60.5q-21 -38 -64 -60.5t-97 -22.5q-69 0 -116.5 34.5t-71 92t-23.5 127.5q0 78 29 136.5t83.5 91t129.5 32.5q23 0 58.5 -2.5t62.5 -6.5h50v-418q0 -24 11 -35.5t29 -11.5q9 0 18.5 5t13.5 12zM419 460
q-16 -1 -72 3l-61 2q-95 0 -145.5 -62t-50.5 -156q0 -56 19.5 -105.5t58 -80t92.5 -30.5q49 0 87 24t57 62q15 30 15 69v274zM142 695h50l86 -95l84 95h51l-114 -131h-44z" />
    <glyph glyph-name="uni01CF" unicode="&#x1cf;" horiz-adv-x="255" 
d="M105 685h45v-684h-45v684zM59 882l66 -95l65 95h50l-94 -131h-43l-93 131h49z" />
    <glyph glyph-name="uni01D0" unicode="&#x1d0;" horiz-adv-x="239" 
d="M133 40q11 -12 29 -12q17 0 30 16l31 -22q-23 -32 -62 -32q-36 0 -58.5 23.5t-22.5 63.5v423h42v-424q0 -24 11 -36zM35 696l66 -95l65 95h50l-94 -131h-43l-93 131h49z" />
    <glyph glyph-name="uni01D1" unicode="&#x1d1;" horiz-adv-x="808" 
d="M231.5 31q-78.5 45 -123.5 123.5t-45 176.5v19q0 99 44.5 179.5t122 126.5t173.5 46t174 -46t123 -126.5t45 -179.5v-19q0 -99 -43.5 -177.5t-120.5 -123t-174 -44.5t-175.5 45zM556.5 64q68.5 40 107.5 110.5t39 156.5v19q0 87 -40 158.5t-109 112.5t-152 41t-151 -41
t-107 -112.5t-39 -158.5v-19q0 -86 39 -156.5t107.5 -110.5t152.5 -40t152.5 40zM316 862l86 -85l85 85h56l-120 -121h-43l-119 121h55z" />
    <glyph glyph-name="uni01D2" unicode="&#x1d2;" horiz-adv-x="576" 
d="M161.5 23q-54.5 32 -85 90t-30.5 133q0 76 30.5 134.5t85.5 91.5t126 33t126 -32.5t85.5 -91t30.5 -134.5q0 -75 -30.5 -133.5t-85.5 -90.5t-127 -32q-71 0 -125.5 32zM392.5 57q45.5 28 70.5 78.5t25 115.5q0 64 -25 113t-70.5 76t-104.5 27t-104.5 -27.5t-70.5 -77.5
t-25 -115q0 -64 25 -113.5t70.5 -77t104.5 -27.5t104.5 28zM152 700h50l86 -95l84 95h51l-114 -131h-44z" />
    <glyph glyph-name="uni01D3" unicode="&#x1d3;" horiz-adv-x="727" 
d="M249 27q-57 37 -86.5 99.5t-29.5 138.5v339q0 57 -47 57q-18 0 -27 -7.5t-15 -17.5l-31 23q22 42 75 42q39 0 63 -24.5t24 -72.5v-339q0 -65 24.5 -118.5t72 -85t113.5 -31.5q70 0 117.5 34.5t70 88t22.5 112.5v419h42v-419q0 -71 -27 -134t-83.5 -102t-140.5 -39
q-80 0 -137 37zM291 853l86 -85l85 85h56l-120 -121h-43l-119 121h55z" />
    <glyph glyph-name="uni01D4" unicode="&#x1d4;" horiz-adv-x="579" 
d="M238 -7q-75 0 -114 34.5t-43 107.5v229q0 44 -9 69.5t-28 49.5l28 27q23 -23 37 -52.5t14 -60.5v-236q0 -130 121 -130q55 0 94 25.5t79 78.5l1 365h42l-1 -422q0 -24 11 -35.5t29 -11.5q9 0 18.5 5t13.5 12l32 -20q-10 -17 -27.5 -26t-36.5 -9q-37 0 -58 21.5t-23 61.5
q-66 -83 -180 -83zM128 697h50l86 -95l84 95h51l-114 -131h-44z" />
    <glyph glyph-name="uni01D5" unicode="&#x1d5;" horiz-adv-x="727" 
d="M249 27q-57 37 -86.5 99.5t-29.5 138.5v339q0 57 -47 57q-18 0 -27 -7.5t-15 -17.5l-31 23q22 42 75 42q39 0 63 -24.5t24 -72.5v-339q0 -65 24.5 -118.5t72 -85t113.5 -31.5q70 0 117.5 34.5t70 88t22.5 112.5v419h42v-419q0 -71 -27 -134t-83.5 -102t-140.5 -39
q-80 0 -137 37zM239 741q-10 10 -10 26t10 26t26 10t26.5 -10t10.5 -26t-10.5 -26t-26.5 -10t-26 10zM461 741q-10 10 -10 26t10 26t26 10t26.5 -10t10.5 -26t-10.5 -26t-26.5 -10t-26 10zM246 901h259v-41h-259v41z" />
    <glyph glyph-name="uni01D6" unicode="&#x1d6;" horiz-adv-x="579" 
d="M238 -7q-75 0 -114 34.5t-43 107.5v229q0 44 -9 69.5t-28 49.5l28 27q23 -23 37 -52.5t14 -60.5v-236q0 -130 121 -130q55 0 94 25.5t79 78.5l1 365h42l-1 -422q0 -24 11 -35.5t29 -11.5q9 0 18.5 5t13.5 12l32 -20q-10 -17 -27.5 -26t-36.5 -9q-37 0 -58 21.5t-23 61.5
q-66 -83 -180 -83zM125 576q-10 10 -10 26t10 26t26 10t26.5 -10t10.5 -26t-10.5 -26t-26.5 -10t-26 10zM347 576q-10 10 -10 26t10 26t26 10t26.5 -10t10.5 -26t-10.5 -26t-26.5 -10t-26 10zM133 741h259v-41h-259v41z" />
    <glyph glyph-name="uni01D7" unicode="&#x1d7;" horiz-adv-x="727" 
d="M249 27q-57 37 -86.5 99.5t-29.5 138.5v339q0 57 -47 57q-18 0 -27 -7.5t-15 -17.5l-31 23q22 42 75 42q39 0 63 -24.5t24 -72.5v-339q0 -65 24.5 -118.5t72 -85t113.5 -31.5q70 0 117.5 34.5t70 88t22.5 112.5v419h42v-419q0 -71 -27 -134t-83.5 -102t-140.5 -39
q-80 0 -137 37zM239 741q-10 10 -10 26t10 26t26 10t26.5 -10t10.5 -26t-10.5 -26t-26.5 -10t-26 10zM461 741q-10 10 -10 26t10 26t26 10t26.5 -10t10.5 -26t-10.5 -26t-26.5 -10t-26 10zM358 878l161 105l25 -40l-173 -89z" />
    <glyph glyph-name="uni01D8" unicode="&#x1d8;" horiz-adv-x="579" 
d="M238 -7q-75 0 -114 34.5t-43 107.5v229q0 44 -9 69.5t-28 49.5l28 27q23 -23 37 -52.5t14 -60.5v-236q0 -130 121 -130q55 0 94 25.5t79 78.5l1 365h42l-1 -422q0 -24 11 -35.5t29 -11.5q9 0 18.5 5t13.5 12l32 -20q-10 -17 -27.5 -26t-36.5 -9q-37 0 -58 21.5t-23 61.5
q-66 -83 -180 -83zM125 576q-10 10 -10 26t10 26t26 10t26.5 -10t10.5 -26t-10.5 -26t-26.5 -10t-26 10zM347 576q-10 10 -10 26t10 26t26 10t26.5 -10t10.5 -26t-10.5 -26t-26.5 -10t-26 10zM246 715l115 154l36 -29l-132 -143z" />
    <glyph glyph-name="uni01D9" unicode="&#x1d9;" horiz-adv-x="727" 
d="M249 27q-57 37 -86.5 99.5t-29.5 138.5v339q0 57 -47 57q-18 0 -27 -7.5t-15 -17.5l-31 23q22 42 75 42q39 0 63 -24.5t24 -72.5v-339q0 -65 24.5 -118.5t72 -85t113.5 -31.5q70 0 117.5 34.5t70 88t22.5 112.5v419h42v-419q0 -71 -27 -134t-83.5 -102t-140.5 -39
q-80 0 -137 37zM239 741q-10 10 -10 26t10 26t26 10t26.5 -10t10.5 -26t-10.5 -26t-26.5 -10t-26 10zM461 741q-10 10 -10 26t10 26t26 10t26.5 -10t10.5 -26t-10.5 -26t-26.5 -10t-26 10zM290 969l86 -85l85 85h56l-120 -121h-43l-119 121h55z" />
    <glyph glyph-name="uni01DA" unicode="&#x1da;" horiz-adv-x="579" 
d="M238 -7q-75 0 -114 34.5t-43 107.5v229q0 44 -9 69.5t-28 49.5l28 27q23 -23 37 -52.5t14 -60.5v-236q0 -130 121 -130q55 0 94 25.5t79 78.5l1 365h42l-1 -422q0 -24 11 -35.5t29 -11.5q9 0 18.5 5t13.5 12l32 -20q-10 -17 -27.5 -26t-36.5 -9q-37 0 -58 21.5t-23 61.5
q-66 -83 -180 -83zM125 576q-10 10 -10 26t10 26t26 10t26.5 -10t10.5 -26t-10.5 -26t-26.5 -10t-26 10zM347 576q-10 10 -10 26t10 26t26 10t26.5 -10t10.5 -26t-10.5 -26t-26.5 -10t-26 10zM127 830h50l86 -95l84 95h51l-114 -131h-44z" />
    <glyph glyph-name="uni01DB" unicode="&#x1db;" horiz-adv-x="727" 
d="M249 27q-57 37 -86.5 99.5t-29.5 138.5v339q0 57 -47 57q-18 0 -27 -7.5t-15 -17.5l-31 23q22 42 75 42q39 0 63 -24.5t24 -72.5v-339q0 -65 24.5 -118.5t72 -85t113.5 -31.5q70 0 117.5 34.5t70 88t22.5 112.5v419h42v-419q0 -71 -27 -134t-83.5 -102t-140.5 -39
q-80 0 -137 37zM239 741q-10 10 -10 26t10 26t26 10t26.5 -10t10.5 -26t-10.5 -26t-26.5 -10t-26 10zM461 741q-10 10 -10 26t10 26t26 10t26.5 -10t10.5 -26t-10.5 -26t-26.5 -10t-26 10zM204 938l25 39l158 -110l-14 -24z" />
    <glyph glyph-name="uni01DC" unicode="&#x1dc;" horiz-adv-x="579" 
d="M238 -7q-75 0 -114 34.5t-43 107.5v229q0 44 -9 69.5t-28 49.5l28 27q23 -23 37 -52.5t14 -60.5v-236q0 -130 121 -130q55 0 94 25.5t79 78.5l1 365h42l-1 -422q0 -24 11 -35.5t29 -11.5q9 0 18.5 5t13.5 12l32 -20q-10 -17 -27.5 -26t-36.5 -9q-37 0 -58 21.5t-23 61.5
q-66 -83 -180 -83zM125 576q-10 10 -10 26t10 26t26 10t26.5 -10t10.5 -26t-10.5 -26t-26.5 -10t-26 10zM347 576q-10 10 -10 26t10 26t26 10t26.5 -10t10.5 -26t-10.5 -26t-26.5 -10t-26 10zM117 827l33 33l128 -144l-18 -20z" />
    <glyph glyph-name="uni01DE" unicode="&#x1de;" horiz-adv-x="752" 
d="M65 7.5q-21 16.5 -29 45.5l39 6q4 -11 15 -19.5t25 -8.5q12 0 22.5 8.5t14.5 18.5l265 634h8l289 -691h-45l-97 233h-304l-78 -192q-10 -25 -30 -38t-46 -13q-28 0 -49 16.5zM554 274l-115 288l-19 63l-19 -65l-116 -286h269zM283 741q-10 10 -10 26t10 26t26 10
t26.5 -10t10.5 -26t-10.5 -26t-26.5 -10t-26 10zM505 741q-10 10 -10 26t10 26t26 10t26.5 -10t10.5 -26t-10.5 -26t-26.5 -10t-26 10zM290 901h259v-41h-259v41z" />
    <glyph glyph-name="uni01DF" unicode="&#x1df;" horiz-adv-x="581" 
d="M565 28q-10 -17 -27.5 -26t-36.5 -9q-36 0 -57 20.5t-24 60.5q-21 -38 -64 -60.5t-97 -22.5q-69 0 -116.5 34.5t-71 92t-23.5 127.5q0 78 29 136.5t83.5 91t129.5 32.5q23 0 58.5 -2.5t62.5 -6.5h50v-418q0 -24 11 -35.5t29 -11.5q9 0 18.5 5t13.5 12zM419 460
q-16 -1 -72 3l-61 2q-95 0 -145.5 -62t-50.5 -156q0 -56 19.5 -105.5t58 -80t92.5 -30.5q49 0 87 24t57 62q15 30 15 69v274zM139 574q-10 10 -10 26t10 26t26 10t26.5 -10t10.5 -26t-10.5 -26t-26.5 -10t-26 10zM361 574q-10 10 -10 26t10 26t26 10t26.5 -10t10.5 -26
t-10.5 -26t-26.5 -10t-26 10zM147 739h259v-41h-259v41z" />
    <glyph glyph-name="uni01E0" unicode="&#x1e0;" horiz-adv-x="752" 
d="M65 7.5q-21 16.5 -29 45.5l39 6q4 -11 15 -19.5t25 -8.5q12 0 22.5 8.5t14.5 18.5l265 634h8l289 -691h-45l-97 233h-304l-78 -192q-10 -25 -30 -38t-46 -13q-28 0 -49 16.5zM554 274l-115 288l-19 63l-19 -65l-116 -286h269zM395 747q-10 10 -10 26t10 26t26 10
t26.5 -10t10.5 -26t-10.5 -26t-26.5 -10t-26 10zM291 901h259v-41h-259v41z" />
    <glyph glyph-name="uni01E1" unicode="&#x1e1;" horiz-adv-x="581" 
d="M565 28q-10 -17 -27.5 -26t-36.5 -9q-36 0 -57 20.5t-24 60.5q-21 -38 -64 -60.5t-97 -22.5q-69 0 -116.5 34.5t-71 92t-23.5 127.5q0 78 29 136.5t83.5 91t129.5 32.5q23 0 58.5 -2.5t62.5 -6.5h50v-418q0 -24 11 -35.5t29 -11.5q9 0 18.5 5t13.5 12zM419 460
q-16 -1 -72 3l-61 2q-95 0 -145.5 -62t-50.5 -156q0 -56 19.5 -105.5t58 -80t92.5 -30.5q49 0 87 24t57 62q15 30 15 69v274zM252 585q-10 10 -10 26t10 26t26 10t26.5 -10t10.5 -26t-10.5 -26t-26.5 -10t-26 10zM148 753h259v-41h-259v41z" />
    <glyph glyph-name="uni01E2" unicode="&#x1e2;" horiz-adv-x="971" 
d="M54.5 8.5q-19.5 10.5 -32.5 29.5l37 18q6 -7 17.5 -12.5t21.5 -5.5q14 0 22.5 8t15.5 18t9 14l334 607h427v-40h-357v-261h254v-40h-254v-303h377v-40h-419v234h-228l-92 -164q-6 -8 -21.5 -31.5t-31 -32.5t-37.5 -9q-23 0 -42.5 10.5zM507 275l-1 381l-31 -60l-175 -321
h207zM431 793h259v-41h-259v41z" />
    <glyph glyph-name="uni01E3" unicode="&#x1e3;" horiz-adv-x="791" 
d="M79.5 26q-42.5 35 -42.5 102q0 76 58.5 110t149.5 34h106v65q0 67 -28 98q-29 32 -82 32q-39 0 -79.5 -14.5t-72.5 -38.5l-20 31q32 28 78 44t91 16q35 0 57 -6.5t41 -22.5q21 -17 33 -40t17 -56q29 63 77 96q22 15 45 22t54 7q78 0 128.5 -41.5t50.5 -108.5
q0 -75 -61 -112.5t-157 -37.5h-128q9 -87 52.5 -131.5t125.5 -44.5q41 0 74.5 11t83.5 36l19 -31q-83 -54 -178 -54q-89 0 -139 43q-39 33 -62 98q-2 -6 -5 -26.5t-15.5 -42t-38.5 -39.5q-48 -33 -117 -33q-73 0 -115.5 35zM699 356q0 56 -39 83.5t-92 27.5
q-43 0 -75.5 -18.5t-53.5 -49.5q-24 -33 -36 -74t-10 -81h130q176 0 176 112zM307 68.5q44 39.5 44 106.5v60h-106q-79 0 -122.5 -24.5t-43.5 -84.5q0 -54 32 -75.5t78 -21.5q74 0 118 39.5zM265 612h259v-41h-259v41z" />
    <glyph glyph-name="Gcaron" unicode="&#x1e6;" horiz-adv-x="735" 
d="M678 335v-82q0 -81 -40.5 -143t-106 -96t-139.5 -34q-95 0 -170.5 47t-118 127t-42.5 176q0 100 44 184.5t121.5 134t174.5 49.5q50 0 102 -12.5t88.5 -43t36.5 -79.5q0 -40 -23 -65t-59 -25q-16 0 -28.5 5.5t-19.5 12.5l26 33q8 -10 23 -10q17 0 28.5 14.5t11.5 34.5
q0 34 -30.5 55.5t-73.5 30.5t-81 9q-83 0 -151.5 -45.5t-108 -121t-39.5 -162.5q0 -85 38 -156t104 -112t147 -41q65 0 121 31.5t89.5 84.5t33.5 115v42h-249v42h291zM316 852l86 -85l85 85h56l-120 -121h-43l-119 121h55z" />
    <glyph glyph-name="gcaron" unicode="&#x1e7;" horiz-adv-x="547" 
d="M212 -242.5q-41 42.5 -41 107.5q0 84 63 127q-54 7 -97 42t-67 91t-24 122q0 74 31.5 133t87 92.5t124.5 33.5q38 0 62 -3l62 -7h50v-628q0 -68 -41.5 -110.5t-107.5 -42.5q-61 0 -102 42.5zM307.5 41.5q27.5 11.5 51.5 31.5q28 24 45 52.5t17 51.5v285l-104 6h-33
q-55 0 -99.5 -29t-70.5 -79.5t-26 -112.5q0 -59 22.5 -108.5t61 -79t83.5 -29.5q25 0 52.5 11.5zM390.5 -215q26.5 32 30.5 91v218q-19 -35 -59 -67q-11 -10 -35 -23.5t-30 -17.5q-6 -3 -26 -15q-32 -22 -46 -46.5t-14 -57.5q0 -48 31 -81t77 -33q45 0 71.5 32zM148 708h50
l86 -95l84 95h51l-114 -131h-44z" />
    <glyph glyph-name="uni01E8" unicode="&#x1e8;" horiz-adv-x="690" 
d="M87 661q-18 0 -27 -7.5t-15 -17.5l-31 23q22 42 75 42q39 0 63 -24.5t24 -72.5v-241h56q36 0 70 15q18 8 29 17.5t23 24.5q41 52 72 111q40 74 78 154h51q-60 -114 -98 -180q-33 -59 -53 -88q-4 -5 -16 -22t-21 -26t-21 -18l211 -298q5 -8 15 -14t21 -6q16 0 30 12
l33 -23q-12 -14 -30 -21.5t-36 -7.5q-40 0 -66 37l-218 308q-50 -15 -86 -15q-13 0 -23 1t-19 1v-323h-44v602q0 57 -47 57zM231 853l86 -85l85 85h56l-120 -121h-43l-119 121h55z" />
    <glyph glyph-name="uni01E9" unicode="&#x1e9;" horiz-adv-x="550" 
d="M126 728v-350q23 63 68 96.5t104 33.5q68 0 109 -40.5t41 -108.5q0 -97 -99 -142l92 -158q15 -28 37 -28q17 0 28 13l28 -25q-14 -14 -26.5 -20.5t-30.5 -6.5q-23 0 -39.5 9t-29.5 31l-100 174h-182v-206h-42v728h42zM337 259q34 14 53.5 41.5t19.5 62.5q0 46 -31.5 76.5
t-82.5 30.5q-55 0 -96 -36.5t-60 -102.5q-13 -47 -12 -86h126q52 0 83 14zM18 897l86 -85l85 85h56l-120 -121h-43l-119 121h55z" />
    <glyph glyph-name="uni01EA" unicode="&#x1ea;" horiz-adv-x="808" 
d="M707.5 165.5q-37.5 -74.5 -103.5 -120.5q-41 -42 -56.5 -64.5t-15.5 -42.5q0 -24 16.5 -36t34.5 -12q23 0 49 18l19 -33q-17 -12 -39.5 -18.5t-42.5 -6.5q-37 0 -59 23t-22 61q0 19 6.5 35t21.5 33q-54 -16 -109 -16q-97 0 -175.5 45t-123.5 123.5t-45 176.5v19
q0 99 44.5 179.5t122 126.5t173.5 46t174 -46t123 -126.5t45 -179.5v-19q0 -91 -37.5 -165.5zM556.5 64q68.5 40 107.5 110.5t39 156.5v19q0 87 -40 158.5t-109 112.5t-152 41t-151 -41t-107 -112.5t-39 -158.5v-19q0 -86 39 -156.5t107.5 -110.5t152.5 -40t152.5 40z" />
    <glyph glyph-name="uni01EB" unicode="&#x1eb;" horiz-adv-x="576" 
d="M468 -96l19 -33q-17 -12 -39.5 -18.5t-42.5 -6.5q-37 0 -59 23t-22 61q0 19 6.5 35t21.5 34q-32 -8 -65 -8q-71 0 -125.5 32t-85 90t-30.5 133q0 76 30.5 134.5t85.5 91.5t126 33t126 -32.5t85.5 -91t30.5 -134.5q0 -66 -23.5 -119t-66.5 -87q-41 -42 -56.5 -64.5
t-15.5 -42.5q0 -24 16.5 -36t34.5 -12q23 0 49 18zM113 133.5q25 -49.5 70.5 -77t104.5 -27.5t104.5 28t70.5 78.5t25 115.5q0 64 -25 113t-70.5 76t-104.5 27t-104.5 -27.5t-70.5 -77.5t-25 -115q0 -64 25 -113.5z" />
    <glyph glyph-name="uni01EC" unicode="&#x1ec;" horiz-adv-x="808" 
d="M531 794v-41h-259v41h259zM707.5 165.5q-37.5 -74.5 -103.5 -120.5q-41 -42 -56.5 -64.5t-15.5 -42.5q0 -24 16.5 -36t34.5 -12q23 0 49 18l19 -33q-17 -12 -39.5 -18.5t-42.5 -6.5q-37 0 -59 23t-22 61q0 19 6.5 35t21.5 33q-54 -16 -109 -16q-97 0 -175.5 45
t-123.5 123.5t-45 176.5v19q0 99 44.5 179.5t122 126.5t173.5 46t174 -46t123 -126.5t45 -179.5v-19q0 -91 -37.5 -165.5zM556.5 64q68.5 40 107.5 110.5t39 156.5v19q0 87 -40 158.5t-109 112.5t-152 41t-151 -41t-107 -112.5t-39 -158.5v-19q0 -86 39 -156.5t107.5 -110.5
t152.5 -40t152.5 40z" />
    <glyph glyph-name="uni01ED" unicode="&#x1ed;" horiz-adv-x="576" 
d="M417 611v-41h-259v41h259zM468 -96l19 -33q-17 -12 -39.5 -18.5t-42.5 -6.5q-37 0 -59 23t-22 61q0 19 6.5 35t21.5 34q-32 -8 -65 -8q-71 0 -125.5 32t-85 90t-30.5 133q0 76 30.5 134.5t85.5 91.5t126 33t126 -32.5t85.5 -91t30.5 -134.5q0 -66 -23.5 -119t-66.5 -87
q-41 -42 -56.5 -64.5t-15.5 -42.5q0 -24 16.5 -36t34.5 -12q23 0 49 18zM113 133.5q25 -49.5 70.5 -77t104.5 -27.5t104.5 28t70.5 78.5t25 115.5q0 64 -25 113t-70.5 76t-104.5 27t-104.5 -27.5t-70.5 -77.5t-25 -115q0 -64 25 -113.5z" />
    <glyph glyph-name="uni01F0" unicode="&#x1f0;" horiz-adv-x="212" 
d="M-32 -224l35 23q18 -23 40 -23q19 0 31 14.5t12 36.5v673h42v-673q0 -40 -23.5 -65.5t-61.5 -25.5q-44 0 -75 40zM-29 695h50l86 -95l84 95h51l-114 -131h-44z" />
    <glyph glyph-name="uni01F1" unicode="&#x1f1;" horiz-adv-x="1332" 
d="M181 -4l-39 4v652q-20 0 -31 -3t-20 -9q-8 -7 -11 -16t-4 -22h-38q2 43 28 67q24 22 77 22l259 -1q91 -3 162.5 -50t112 -127.5t40.5 -181.5q0 -173 -107.5 -256t-332.5 -83q-48 0 -96 4zM675 333q0 140 -75 224t-208 93h-208v-614q52 -4 111 -4q380 0 380 301zM1178 644
h-344v40h414l-359 -603l45 -8q23 -4 89 -22q46 -13 72 -18.5t50 -5.5q66 0 122 50l28 -28q-37 -34 -72.5 -48t-77.5 -14q-35 0 -70 8t-86 23q-75 24 -119 31l-36 -60l-34 20z" />
    <glyph glyph-name="uni01F2" unicode="&#x1f2;" horiz-adv-x="1243" 
d="M181 -4l-39 4v652q-20 0 -31 -3t-20 -9q-8 -7 -11 -16t-4 -22h-38q2 43 28 67q24 22 77 22l259 -1q91 -3 162.5 -50t112 -127.5t40.5 -181.5q0 -173 -107.5 -256t-332.5 -83q-48 0 -96 4zM675 333q0 140 -75 224t-208 93h-208v-614q52 -4 111 -4q380 0 380 301zM1107 456
h-268v39h343v-4l-282 -412l90 -32q56 -20 115 -20q25 0 46 6.5t51 25.5l19 -32q-30 -21 -55.5 -30t-58.5 -9q-55 0 -124 22l-106 34l-42 -60l-33 25z" />
    <glyph glyph-name="uni01F3" unicode="&#x1f3;" horiz-adv-x="1045" 
d="M144.5 25.5q-47.5 34.5 -72 92.5t-24.5 129q0 77 29 135t83.5 90.5t129.5 32.5q34 0 71.5 -4t57.5 -8v235h42v-650q0 -24 11 -35.5t29 -11.5q9 0 18.5 5t13.5 12l32 -20q-10 -17 -27.5 -26t-36.5 -9q-37 0 -58 21.5t-23 61.5q-19 -35 -63.5 -60t-96.5 -25
q-68 0 -115.5 34.5zM345.5 52.5q38.5 23.5 58.5 64.5q15 32 15 69v268q-43 13 -108 13q-114 0 -167.5 -61t-53.5 -159q0 -93 44.5 -155.5t125.5 -62.5q47 0 85.5 23.5zM909 456h-268v39h343v-4l-282 -412l90 -32q56 -20 115 -20q25 0 46 6.5t51 25.5l19 -32
q-30 -21 -55.5 -30t-58.5 -9q-55 0 -124 22l-106 34l-42 -60l-33 25z" />
    <glyph glyph-name="uni01F4" unicode="&#x1f4;" horiz-adv-x="735" 
d="M678 335v-82q0 -81 -40.5 -143t-106 -96t-139.5 -34q-95 0 -170.5 47t-118 127t-42.5 176q0 100 44 184.5t121.5 134t174.5 49.5q50 0 102 -12.5t88.5 -43t36.5 -79.5q0 -40 -23 -65t-59 -25q-16 0 -28.5 5.5t-19.5 12.5l26 33q8 -10 23 -10q17 0 28.5 14.5t11.5 34.5
q0 34 -30.5 55.5t-73.5 30.5t-81 9q-83 0 -151.5 -45.5t-108 -121t-39.5 -162.5q0 -85 38 -156t104 -112t147 -41q65 0 121 31.5t89.5 84.5t33.5 115v42h-249v42h291zM384 761l161 105l25 -40l-173 -89z" />
    <glyph glyph-name="uni01F5" unicode="&#x1f5;" horiz-adv-x="547" 
d="M212 -242.5q-41 42.5 -41 107.5q0 84 63 127q-54 7 -97 42t-67 91t-24 122q0 74 31.5 133t87 92.5t124.5 33.5q38 0 62 -3l62 -7h50v-628q0 -68 -41.5 -110.5t-107.5 -42.5q-61 0 -102 42.5zM307.5 41.5q27.5 11.5 51.5 31.5q28 24 45 52.5t17 51.5v285l-104 6h-33
q-55 0 -99.5 -29t-70.5 -79.5t-26 -112.5q0 -59 22.5 -108.5t61 -79t83.5 -29.5q25 0 52.5 11.5zM390.5 -215q26.5 32 30.5 91v218q-19 -35 -59 -67q-11 -10 -35 -23.5t-30 -17.5q-6 -3 -26 -15q-32 -22 -46 -46.5t-14 -57.5q0 -48 31 -81t77 -33q45 0 71.5 32zM267 593
l115 154l36 -29l-132 -143z" />
    <glyph glyph-name="uni01F8" unicode="&#x1f8;" horiz-adv-x="784" 
d="M33 15l38 27q6 -7 15.5 -11.5t15.5 -4.5q17 0 29 12t12 32v615h28l111 -125l328 -418l28 -45l-3 587h45v-683h-7l-459 572l-31 45l4 -548q0 -42 -24.5 -64.5t-61.5 -22.5q-41 0 -68 32zM251 831l25 39l158 -110l-14 -24z" />
    <glyph glyph-name="uni01F9" unicode="&#x1f9;" horiz-adv-x="586" 
d="M570 22q-23 -32 -62 -32q-36 0 -58.5 23.5t-22.5 63.5v260q0 130 -120 130q-50 0 -91.5 -25.5t-84.5 -83.5v-358h-42v360q0 44 -9 69.5t-28 49.5l28 27q22 -21 35.5 -48.5t15.5 -56.5q34 55 77.5 79.5t103.5 24.5q75 0 116 -38t41 -109v-282q0 -24 11 -36t29 -12
q17 0 30 16zM156 697l33 33l128 -144l-18 -20z" />
    <glyph glyph-name="Aringacute" unicode="&#x1fa;" horiz-adv-x="752" 
d="M65 7.5q-21 16.5 -29 45.5l39 6q4 -11 15 -19.5t25 -8.5q12 0 22.5 8.5t14.5 18.5l265 634h8l289 -691h-45l-97 233h-304l-78 -192q-10 -25 -30 -38t-46 -13q-28 0 -49 16.5zM554 274l-115 288l-19 63l-19 -65l-116 -286h269zM352.5 763q-25.5 26 -25.5 66
q0 41 26.5 67.5t67.5 26.5t67.5 -26t26.5 -66q0 -42 -27.5 -68t-68.5 -26t-66.5 26zM461.5 786.5q18.5 19.5 18.5 44.5q0 24 -18 42.5t-41 18.5t-40.5 -19t-17.5 -44q0 -27 17.5 -44.5t39.5 -17.5q23 0 41.5 19.5zM403 1001l161 105l25 -40l-173 -89z" />
    <glyph glyph-name="aringacute" unicode="&#x1fb;" horiz-adv-x="581" 
d="M565 28q-10 -17 -27.5 -26t-36.5 -9q-36 0 -57 20.5t-24 60.5q-21 -38 -64 -60.5t-97 -22.5q-69 0 -116.5 34.5t-71 92t-23.5 127.5q0 78 29 136.5t83.5 91t129.5 32.5q23 0 58.5 -2.5t62.5 -6.5h50v-418q0 -24 11 -35.5t29 -11.5q9 0 18.5 5t13.5 12zM419 460
q-16 -1 -72 3l-61 2q-95 0 -145.5 -62t-50.5 -156q0 -56 19.5 -105.5t58 -80t92.5 -30.5q49 0 87 24t57 62q15 30 15 69v274zM219.5 589q-25.5 27 -25.5 70t26 71t70 28t70 -27t26 -70q0 -44 -27.5 -71.5t-70.5 -27.5t-68.5 27zM333 613q18 21 18 48t-18 46.5t-43 19.5
q-26 0 -43 -20t-17 -48q0 -29 17.5 -48t41.5 -19q26 0 44 21zM261 830l115 154l36 -29l-132 -143z" />
    <glyph glyph-name="AEacute" unicode="&#x1fc;" horiz-adv-x="971" 
d="M54.5 8.5q-19.5 10.5 -32.5 29.5l37 18q6 -7 17.5 -12.5t21.5 -5.5q14 0 22.5 8t15.5 18t9 14l334 607h427v-40h-357v-261h254v-40h-254v-303h377v-40h-419v234h-228l-92 -164q-6 -8 -21.5 -31.5t-31 -32.5t-37.5 -9q-23 0 -42.5 10.5zM507 275l-1 381l-31 -60l-175 -321
h207zM543 770l161 105l25 -40l-173 -89z" />
    <glyph glyph-name="aeacute" unicode="&#x1fd;" horiz-adv-x="791" 
d="M79.5 26q-42.5 35 -42.5 102q0 76 58.5 110t149.5 34h106v65q0 67 -28 98q-29 32 -82 32q-39 0 -79.5 -14.5t-72.5 -38.5l-20 31q32 28 78 44t91 16q35 0 57 -6.5t41 -22.5q21 -17 33 -40t17 -56q29 63 77 96q22 15 45 22t54 7q78 0 128.5 -41.5t50.5 -108.5
q0 -75 -61 -112.5t-157 -37.5h-128q9 -87 52.5 -131.5t125.5 -44.5q41 0 74.5 11t83.5 36l19 -31q-83 -54 -178 -54q-89 0 -139 43q-39 33 -62 98q-2 -6 -5 -26.5t-15.5 -42t-38.5 -39.5q-48 -33 -117 -33q-73 0 -115.5 35zM699 356q0 56 -39 83.5t-92 27.5
q-43 0 -75.5 -18.5t-53.5 -49.5q-24 -33 -36 -74t-10 -81h130q176 0 176 112zM307 68.5q44 39.5 44 106.5v60h-106q-79 0 -122.5 -24.5t-43.5 -84.5q0 -54 32 -75.5t78 -21.5q74 0 118 39.5zM378 586l115 154l36 -29l-132 -143z" />
    <glyph glyph-name="Oslashacute" unicode="&#x1fe;" horiz-adv-x="808" 
d="M694.5 539q50.5 -84 50.5 -189v-19q0 -99 -43.5 -177.5t-120.5 -123t-174 -44.5q-62 0 -116 18l-13 -32h-54l21 52q-84 42 -133 123.5t-49 183.5v19q0 99 44.5 179.5t122 126.5t173.5 46q56 0 109 -17l23 56h54l-30 -75q85 -43 135.5 -127zM146.5 170
q41.5 -72 112.5 -110l238 587q-45 15 -95 15q-83 0 -151 -41t-107 -112.5t-39 -158.5v-19q0 -89 41.5 -161zM703 350q0 91 -43.5 164.5t-116.5 112.5l-238 -587q45 -16 99 -16q84 0 152.5 40t107.5 110.5t39 156.5v19zM384 771l161 105l25 -40l-173 -89z" />
    <glyph glyph-name="oslashacute" unicode="&#x1ff;" horiz-adv-x="587" 
d="M136 42q-44 34 -66.5 87.5t-22.5 115.5q0 74 30.5 133t86.5 93t129 34q70 0 123 -30l23 39l37 -23l-27 -38q91 -71 91 -203q0 -83 -35 -142t-92 -88.5t-121 -29.5q-67 0 -122 31l-23 -39l-37 23zM302 466q-96 0 -153.5 -60.5t-57.5 -161.5q0 -53 16 -96t48 -72l238 362
q-32 28 -91 28zM393.5 55.5q46.5 26.5 74.5 78t28 122.5q0 52 -16.5 94t-48.5 70l-239 -369q48 -22 101 -22q54 0 100.5 26.5zM270 584l115 154l36 -29l-132 -143z" />
    <glyph glyph-name="uni0200" unicode="&#x200;" horiz-adv-x="752" 
d="M65 7.5q-21 16.5 -29 45.5l39 6q4 -11 15 -19.5t25 -8.5q12 0 22.5 8.5t14.5 18.5l265 634h8l289 -691h-45l-97 233h-304l-78 -192q-10 -25 -30 -38t-46 -13q-28 0 -49 16.5zM554 274l-115 288l-19 63l-19 -65l-116 -286h269zM181 824l25 39l158 -110l-14 -24zM340 825
l25 39l158 -110l-14 -24z" />
    <glyph glyph-name="uni0201" unicode="&#x201;" horiz-adv-x="581" 
d="M565 28q-10 -17 -27.5 -26t-36.5 -9q-36 0 -57 20.5t-24 60.5q-21 -38 -64 -60.5t-97 -22.5q-69 0 -116.5 34.5t-71 92t-23.5 127.5q0 78 29 136.5t83.5 91t129.5 32.5q23 0 58.5 -2.5t62.5 -6.5h50v-418q0 -24 11 -35.5t29 -11.5q9 0 18.5 5t13.5 12zM419 460
q-16 -1 -72 3l-61 2q-95 0 -145.5 -62t-50.5 -156q0 -56 19.5 -105.5t58 -80t92.5 -30.5q49 0 87 24t57 62q15 30 15 69v274zM65 682l33 33l128 -144l-18 -20zM228 684l33 33l128 -144l-18 -20z" />
    <glyph glyph-name="uni0202" unicode="&#x202;" horiz-adv-x="752" 
d="M65 7.5q-21 16.5 -29 45.5l39 6q4 -11 15 -19.5t25 -8.5q12 0 22.5 8.5t14.5 18.5l265 634h8l289 -691h-45l-97 233h-304l-78 -192q-10 -25 -30 -38t-46 -13q-28 0 -49 16.5zM554 274l-115 288l-19 63l-19 -65l-116 -286h269zM517.5 818q33.5 -30 37.5 -85h-44
q-2 34 -24.5 55t-62.5 21q-42 0 -64.5 -21.5t-26.5 -54.5h-44q4 53 37 84t97 31q61 0 94.5 -30z" />
    <glyph glyph-name="uni0203" unicode="&#x203;" horiz-adv-x="581" 
d="M565 28q-10 -17 -27.5 -26t-36.5 -9q-36 0 -57 20.5t-24 60.5q-21 -38 -64 -60.5t-97 -22.5q-69 0 -116.5 34.5t-71 92t-23.5 127.5q0 78 29 136.5t83.5 91t129.5 32.5q23 0 58.5 -2.5t62.5 -6.5h50v-418q0 -24 11 -35.5t29 -11.5q9 0 18.5 5t13.5 12zM419 460
q-16 -1 -72 3l-61 2q-95 0 -145.5 -62t-50.5 -156q0 -56 19.5 -105.5t58 -80t92.5 -30.5q49 0 87 24t57 62q15 30 15 69v274zM381.5 661.5q33.5 -31.5 37.5 -93.5h-43q-2 40 -24.5 63t-62.5 23q-41 0 -64 -23.5t-27 -62.5h-43q4 59 37.5 92t95.5 33q60 0 93.5 -31.5z" />
    <glyph glyph-name="uni0204" unicode="&#x204;" horiz-adv-x="619" 
d="M112 642q-11 -3 -20 -9q-8 -7 -11 -16t-4 -22h-38q2 43 28 67q24 22 77 22l427 1v-40h-386v-261h263v-40h-263v-303h386v-40h-428v644q-20 0 -31 -3zM118 833l25 39l158 -110l-14 -24zM277 834l25 39l158 -110l-14 -24z" />
    <glyph glyph-name="uni0205" unicode="&#x205;" horiz-adv-x="495" 
d="M105 56.5q-57 65.5 -57 172.5q0 69 24 132t74 103.5t123 40.5q76 0 127 -41t51 -109q0 -72 -59.5 -111t-161.5 -39h-133q8 -84 54 -130t126 -46q45 0 82.5 13t77.5 38l21 -29q-85 -60 -181 -60q-111 0 -168 65.5zM355.5 270q49.5 27 49.5 86q0 54 -40 82.5t-93 28.5
q-61 0 -102.5 -36.5t-61 -89t-17.5 -98.5h135q80 0 129.5 27zM53 694l33 33l128 -144l-18 -20zM216 696l33 33l128 -144l-18 -20z" />
    <glyph glyph-name="uni0206" unicode="&#x206;" horiz-adv-x="619" 
d="M112 642q-11 -3 -20 -9q-8 -7 -11 -16t-4 -22h-38q2 43 28 67q24 22 77 22l427 1v-40h-386v-261h263v-40h-263v-303h386v-40h-428v644q-20 0 -31 -3zM454.5 827q33.5 -30 37.5 -85h-44q-2 34 -24.5 55t-62.5 21q-42 0 -64.5 -21.5t-26.5 -54.5h-44q4 53 37 84t97 31
q61 0 94.5 -30z" />
    <glyph glyph-name="uni0207" unicode="&#x207;" horiz-adv-x="495" 
d="M105 56.5q-57 65.5 -57 172.5q0 69 24 132t74 103.5t123 40.5q76 0 127 -41t51 -109q0 -72 -59.5 -111t-161.5 -39h-133q8 -84 54 -130t126 -46q45 0 82.5 13t77.5 38l21 -29q-85 -60 -181 -60q-111 0 -168 65.5zM355.5 270q49.5 27 49.5 86q0 54 -40 82.5t-93 28.5
q-61 0 -102.5 -36.5t-61 -89t-17.5 -98.5h135q80 0 129.5 27zM369.5 673.5q33.5 -31.5 37.5 -93.5h-43q-2 40 -24.5 63t-62.5 23q-41 0 -64 -23.5t-27 -62.5h-43q4 59 37.5 92t95.5 33q60 0 93.5 -31.5z" />
    <glyph glyph-name="uni0208" unicode="&#x208;" horiz-adv-x="255" 
d="M105 685h45v-684h-45v684zM-88 868l33 33l128 -144l-18 -20zM75 870l33 33l128 -144l-18 -20z" />
    <glyph glyph-name="uni0209" unicode="&#x209;" horiz-adv-x="239" 
d="M133 40q11 -12 29 -12q17 0 30 16l31 -22q-23 -32 -62 -32q-36 0 -58.5 23.5t-22.5 63.5v423h42v-424q0 -24 11 -36zM-112 682l33 33l128 -144l-18 -20zM51 684l33 33l128 -144l-18 -20z" />
    <glyph glyph-name="uni020A" unicode="&#x20a;" horiz-adv-x="255" 
d="M105 685h45v-684h-45v684zM238 754h-48q-5 86 -62 86q-24 0 -38 -23t-18 -63h-48q4 59 30 92t73 33q103 0 111 -125z" />
    <glyph glyph-name="uni020B" unicode="&#x20b;" horiz-adv-x="239" 
d="M133 40q11 -12 29 -12q17 0 30 16l31 -22q-23 -32 -62 -32q-36 0 -58.5 23.5t-22.5 63.5v423h42v-424q0 -24 11 -36zM214 568h-48q-5 86 -62 86q-24 0 -38 -23t-18 -63h-48q4 59 30 92t73 33q103 0 111 -125z" />
    <glyph glyph-name="uni020C" unicode="&#x20c;" horiz-adv-x="808" 
d="M231.5 31q-78.5 45 -123.5 123.5t-45 176.5v19q0 99 44.5 179.5t122 126.5t173.5 46t174 -46t123 -126.5t45 -179.5v-19q0 -99 -43.5 -177.5t-120.5 -123t-174 -44.5t-175.5 45zM556.5 64q68.5 40 107.5 110.5t39 156.5v19q0 87 -40 158.5t-109 112.5t-152 41t-151 -41
t-107 -112.5t-39 -158.5v-19q0 -86 39 -156.5t107.5 -110.5t152.5 -40t152.5 40zM162 833l25 39l158 -110l-14 -24zM321 834l25 39l158 -110l-14 -24z" />
    <glyph glyph-name="uni020D" unicode="&#x20d;" horiz-adv-x="576" 
d="M161.5 23q-54.5 32 -85 90t-30.5 133q0 76 30.5 134.5t85.5 91.5t126 33t126 -32.5t85.5 -91t30.5 -134.5q0 -75 -30.5 -133.5t-85.5 -90.5t-127 -32q-71 0 -125.5 32zM392.5 57q45.5 28 70.5 78.5t25 115.5q0 64 -25 113t-70.5 76t-104.5 27t-104.5 -27.5t-70.5 -77.5
t-25 -115q0 -64 25 -113.5t70.5 -77t104.5 -27.5t104.5 28zM75 687l33 33l128 -144l-18 -20zM238 689l33 33l128 -144l-18 -20z" />
    <glyph glyph-name="uni020E" unicode="&#x20e;" horiz-adv-x="808" 
d="M231.5 31q-78.5 45 -123.5 123.5t-45 176.5v19q0 99 44.5 179.5t122 126.5t173.5 46t174 -46t123 -126.5t45 -179.5v-19q0 -99 -43.5 -177.5t-120.5 -123t-174 -44.5t-175.5 45zM556.5 64q68.5 40 107.5 110.5t39 156.5v19q0 87 -40 158.5t-109 112.5t-152 41t-151 -41
t-107 -112.5t-39 -158.5v-19q0 -86 39 -156.5t107.5 -110.5t152.5 -40t152.5 40zM498.5 827q33.5 -30 37.5 -85h-44q-2 34 -24.5 55t-62.5 21q-42 0 -64.5 -21.5t-26.5 -54.5h-44q4 53 37 84t97 31q61 0 94.5 -30z" />
    <glyph glyph-name="uni020F" unicode="&#x20f;" horiz-adv-x="576" 
d="M161.5 23q-54.5 32 -85 90t-30.5 133q0 76 30.5 134.5t85.5 91.5t126 33t126 -32.5t85.5 -91t30.5 -134.5q0 -75 -30.5 -133.5t-85.5 -90.5t-127 -32q-71 0 -125.5 32zM392.5 57q45.5 28 70.5 78.5t25 115.5q0 64 -25 113t-70.5 76t-104.5 27t-104.5 -27.5t-70.5 -77.5
t-25 -115q0 -64 25 -113.5t70.5 -77t104.5 -27.5t104.5 28zM391.5 666.5q33.5 -31.5 37.5 -93.5h-43q-2 40 -24.5 63t-62.5 23q-41 0 -64 -23.5t-27 -62.5h-43q4 59 37.5 92t95.5 33q60 0 93.5 -31.5z" />
    <glyph glyph-name="uni0210" unicode="&#x210;" horiz-adv-x="696" 
d="M112 642q-11 -3 -20 -9q-8 -7 -11 -16t-4 -22h-38q2 43 28 67q24 22 77 22l218 1q45 0 79 -17q49 -24 77 -74t28 -112q0 -53 -20.5 -96t-56 -67.5t-79.5 -24.5h-39l21 -9q16 -6 38 -35l148 -200q15 -20 35 -20q10 0 20.5 4t17.5 11l31 -21q-11 -16 -29 -24.5t-39 -8.5
q-41 0 -69 37l-123 168q-28 38 -56 59.5t-80 28.5v39h81q70 0 113.5 44t43.5 115q0 46 -19 83t-52.5 58.5t-74.5 21.5h-173v-644h-42v644q-20 0 -31 -3zM45 824l25 39l158 -110l-14 -24zM204 825l25 39l158 -110l-14 -24z" />
    <glyph glyph-name="uni0211" unicode="&#x211;" horiz-adv-x="350" 
d="M332 498v-38q-29 5 -50 5q-57 0 -92 -28q-15 -13 -32 -33.5t-29 -43.5v-359h-42v361q0 44 -9 69.5t-28 49.5l28 27q22 -21 35.5 -47.5t15.5 -55.5q13 26 31 47t36 32q34 21 84 21q14 0 52 -7zM2 687l33 33l128 -144l-18 -20zM165 689l33 33l128 -144l-18 -20z" />
    <glyph glyph-name="uni0212" unicode="&#x212;" horiz-adv-x="696" 
d="M112 642q-11 -3 -20 -9q-8 -7 -11 -16t-4 -22h-38q2 43 28 67q24 22 77 22l218 1q45 0 79 -17q49 -24 77 -74t28 -112q0 -53 -20.5 -96t-56 -67.5t-79.5 -24.5h-39l21 -9q16 -6 38 -35l148 -200q15 -20 35 -20q10 0 20.5 4t17.5 11l31 -21q-11 -16 -29 -24.5t-39 -8.5
q-41 0 -69 37l-123 168q-28 38 -56 59.5t-80 28.5v39h81q70 0 113.5 44t43.5 115q0 46 -19 83t-52.5 58.5t-74.5 21.5h-173v-644h-42v644q-20 0 -31 -3zM381.5 818q33.5 -30 37.5 -85h-44q-2 34 -24.5 55t-62.5 21q-42 0 -64.5 -21.5t-26.5 -54.5h-44q4 53 37 84t97 31
q61 0 94.5 -30z" />
    <glyph glyph-name="uni0213" unicode="&#x213;" horiz-adv-x="350" 
d="M332 498v-38q-29 5 -50 5q-57 0 -92 -28q-15 -13 -32 -33.5t-29 -43.5v-359h-42v361q0 44 -9 69.5t-28 49.5l28 27q22 -21 35.5 -47.5t15.5 -55.5q13 26 31 47t36 32q34 21 84 21q14 0 52 -7zM318.5 666.5q33.5 -31.5 37.5 -93.5h-43q-2 40 -24.5 63t-62.5 23
q-41 0 -64 -23.5t-27 -62.5h-43q4 59 37.5 92t95.5 33q60 0 93.5 -31.5z" />
    <glyph glyph-name="uni0214" unicode="&#x214;" horiz-adv-x="727" 
d="M249 27q-57 37 -86.5 99.5t-29.5 138.5v339q0 57 -47 57q-18 0 -27 -7.5t-15 -17.5l-31 23q22 42 75 42q39 0 63 -24.5t24 -72.5v-339q0 -65 24.5 -118.5t72 -85t113.5 -31.5q70 0 117.5 34.5t70 88t22.5 112.5v419h42v-419q0 -71 -27 -134t-83.5 -102t-140.5 -39
q-80 0 -137 37zM137 824l25 39l158 -110l-14 -24zM296 825l25 39l158 -110l-14 -24z" />
    <glyph glyph-name="uni0215" unicode="&#x215;" horiz-adv-x="579" 
d="M238 -7q-75 0 -114 34.5t-43 107.5v229q0 44 -9 69.5t-28 49.5l28 27q23 -23 37 -52.5t14 -60.5v-236q0 -130 121 -130q55 0 94 25.5t79 78.5l1 365h42l-1 -422q0 -24 11 -35.5t29 -11.5q9 0 18.5 5t13.5 12l32 -20q-10 -17 -27.5 -26t-36.5 -9q-37 0 -58 21.5t-23 61.5
q-66 -83 -180 -83zM51 684l33 33l128 -144l-18 -20zM214 686l33 33l128 -144l-18 -20z" />
    <glyph glyph-name="uni0216" unicode="&#x216;" horiz-adv-x="727" 
d="M249 27q-57 37 -86.5 99.5t-29.5 138.5v339q0 57 -47 57q-18 0 -27 -7.5t-15 -17.5l-31 23q22 42 75 42q39 0 63 -24.5t24 -72.5v-339q0 -65 24.5 -118.5t72 -85t113.5 -31.5q70 0 117.5 34.5t70 88t22.5 112.5v419h42v-419q0 -71 -27 -134t-83.5 -102t-140.5 -39
q-80 0 -137 37zM473.5 818q33.5 -30 37.5 -85h-44q-2 34 -24.5 55t-62.5 21q-42 0 -64.5 -21.5t-26.5 -54.5h-44q4 53 37 84t97 31q61 0 94.5 -30z" />
    <glyph glyph-name="uni0217" unicode="&#x217;" horiz-adv-x="579" 
d="M238 -7q-75 0 -114 34.5t-43 107.5v229q0 44 -9 69.5t-28 49.5l28 27q23 -23 37 -52.5t14 -60.5v-236q0 -130 121 -130q55 0 94 25.5t79 78.5l1 365h42l-1 -422q0 -24 11 -35.5t29 -11.5q9 0 18.5 5t13.5 12l32 -20q-10 -17 -27.5 -26t-36.5 -9q-37 0 -58 21.5t-23 61.5
q-66 -83 -180 -83zM367.5 663.5q33.5 -31.5 37.5 -93.5h-43q-2 40 -24.5 63t-62.5 23q-41 0 -64 -23.5t-27 -62.5h-43q4 59 37.5 92t95.5 33q60 0 93.5 -31.5z" />
    <glyph glyph-name="uni0218" unicode="&#x218;" horiz-adv-x="561" 
d="M127.5 29.5q-65.5 45.5 -88.5 119.5l38 15q19 -63 74.5 -101.5t126.5 -38.5q53 0 96 22.5t67.5 62t24.5 88.5q0 38 -17.5 66.5t-58.5 54.5t-115 57q-65 27 -100.5 51t-51 51t-15.5 64q0 45 24 81.5t66.5 57.5t94.5 21q68 0 111 -32t43 -84q0 -39 -26 -63.5t-60 -20.5
l3 38q18 -2 29.5 10.5t11.5 33.5q0 34 -31.5 56t-78.5 22q-38 0 -71.5 -16.5t-53.5 -43.5t-20 -58q0 -29 12 -48.5t43 -38.5t92 -45q81 -34 126.5 -65t65.5 -66t20 -82q0 -62 -30 -110.5t-82.5 -76t-119.5 -27.5q-84 0 -149.5 45.5zM261 -85h50l-47 -197h-41z" />
    <glyph glyph-name="uni0219" unicode="&#x219;" horiz-adv-x="422" 
d="M119 7q-44 18 -85 56l24 29q73 -65 157 -65q57 0 94 29t37 78q0 31 -16 51t-43.5 34t-83.5 37q-52 21 -80 36t-45.5 38.5t-17.5 58.5q0 56 41.5 90t110.5 34q64 0 119 -35l-20 -32q-49 29 -98 29t-79.5 -24t-30.5 -62q0 -21 11.5 -35.5t38.5 -29t85 -39.5q60 -26 89 -43
t45.5 -41t16.5 -62q0 -69 -48 -109.5t-127 -40.5q-51 0 -95 18zM201 -99h50l-47 -197h-41z" />
    <glyph glyph-name="uni021A" unicode="&#x21a;" horiz-adv-x="608" 
d="M121 645q-16 0 -27.5 -10t-15.5 -25h-41q1 27 24 50q25 25 57 25h453v-40h-239v-644h-42v644h-169zM289 -93h50l-47 -197h-41z" />
    <glyph glyph-name="uni021B" unicode="&#x21b;" horiz-adv-x="349" 
d="M77 140v483h42v-123h161v-40h-161v-320q0 -53 19.5 -82t64.5 -29q59 0 94 57l30 -22q-23 -37 -52 -55t-72 -18q-126 0 -126 149zM174 -102h50l-47 -197h-41z" />
    <glyph glyph-name="uni021E" unicode="&#x21e;" horiz-adv-x="721" 
d="M91 661q-18 0 -27 -7.5t-15 -17.5l-31 23q22 42 75 42q39 0 63 -24.5t24 -72.5v-226h395v307h42v-684h-42v337h-395v-337h-42v603q0 57 -47 57zM290 853l86 -85l85 85h56l-120 -121h-43l-119 121h55z" />
    <glyph glyph-name="uni021F" unicode="&#x21f;" horiz-adv-x="581" 
d="M475 40q11 -12 29 -12q17 0 30 16l31 -22q-23 -32 -62 -32q-36 0 -58.5 23.5t-22.5 63.5v271q0 61 -32.5 91.5t-92.5 30.5q-54 0 -92.5 -27t-78.5 -82v-357h-42v726h42v-329q33 55 76.5 81t102.5 26q81 0 120 -39t39 -118v-275q0 -24 11 -36zM19 900l86 -85l85 85h56
l-120 -121h-43l-119 121h55z" />
    <glyph glyph-name="uni0226" unicode="&#x226;" horiz-adv-x="752" 
d="M65 7.5q-21 16.5 -29 45.5l39 6q4 -11 15 -19.5t25 -8.5q12 0 22.5 8.5t14.5 18.5l265 634h8l289 -691h-45l-97 233h-304l-78 -192q-10 -25 -30 -38t-46 -13q-28 0 -49 16.5zM554 274l-115 288l-19 63l-19 -65l-116 -286h269zM395 747q-10 10 -10 26t10 26t26 10
t26.5 -10t10.5 -26t-10.5 -26t-26.5 -10t-26 10z" />
    <glyph glyph-name="uni0227" unicode="&#x227;" horiz-adv-x="581" 
d="M565 28q-10 -17 -27.5 -26t-36.5 -9q-36 0 -57 20.5t-24 60.5q-21 -38 -64 -60.5t-97 -22.5q-69 0 -116.5 34.5t-71 92t-23.5 127.5q0 78 29 136.5t83.5 91t129.5 32.5q23 0 58.5 -2.5t62.5 -6.5h50v-418q0 -24 11 -35.5t29 -11.5q9 0 18.5 5t13.5 12zM419 460
q-16 -1 -72 3l-61 2q-95 0 -145.5 -62t-50.5 -156q0 -56 19.5 -105.5t58 -80t92.5 -30.5q49 0 87 24t57 62q15 30 15 69v274zM252 585q-10 10 -10 26t10 26t26 10t26.5 -10t10.5 -26t-10.5 -26t-26.5 -10t-26 10z" />
    <glyph glyph-name="uni0228" unicode="&#x228;" horiz-adv-x="619" 
d="M185 645v-261h263v-40h-263v-303h386v-40h-179l-11 -55q36 -2 54.5 -25.5t18.5 -58.5q0 -39 -26 -69.5t-69 -27.5l7 38q22 3 35.5 21t13.5 39q0 23 -15 36t-41 13h-24l10 89h-202v644q-20 0 -31 -3t-20 -9q-8 -7 -11 -16t-4 -22h-38q2 43 28 67q24 22 77 22l427 1v-40
h-386z" />
    <glyph glyph-name="uni0229" unicode="&#x229;" horiz-adv-x="495" 
d="M335.5 -77.5q18.5 -23.5 18.5 -58.5q0 -39 -26 -69.5t-69 -27.5l7 38q22 3 35.5 21t13.5 39q0 23 -15 36t-41 13h-24l9 78q-96 9 -146 73t-50 164q0 69 24 132t74 103.5t123 40.5q76 0 127 -41t51 -109q0 -72 -59.5 -111t-161.5 -39h-133q8 -84 54 -130t126 -46
q45 0 82.5 13t77.5 38l21 -29q-78 -55 -164 -60l-9 -43q36 -2 54.5 -25.5zM169.5 430.5q-41.5 -36.5 -61 -89t-17.5 -98.5h135q80 0 129.5 27t49.5 86q0 54 -40 82.5t-93 28.5q-61 0 -102.5 -36.5z" />
    <glyph glyph-name="uni022A" unicode="&#x22a;" horiz-adv-x="808" 
d="M231.5 31q-78.5 45 -123.5 123.5t-45 176.5v19q0 99 44.5 179.5t122 126.5t173.5 46t174 -46t123 -126.5t45 -179.5v-19q0 -99 -43.5 -177.5t-120.5 -123t-174 -44.5t-175.5 45zM556.5 64q68.5 40 107.5 110.5t39 156.5v19q0 87 -40 158.5t-109 112.5t-152 41t-151 -41
t-107 -112.5t-39 -158.5v-19q0 -86 39 -156.5t107.5 -110.5t152.5 -40t152.5 40zM264 750q-10 10 -10 26t10 26t26 10t26.5 -10t10.5 -26t-10.5 -26t-26.5 -10t-26 10zM486 750q-10 10 -10 26t10 26t26 10t26.5 -10t10.5 -26t-10.5 -26t-26.5 -10t-26 10zM271 910h259v-41
h-259v41z" />
    <glyph glyph-name="uni022B" unicode="&#x22b;" horiz-adv-x="576" 
d="M161.5 23q-54.5 32 -85 90t-30.5 133q0 76 30.5 134.5t85.5 91.5t126 33t126 -32.5t85.5 -91t30.5 -134.5q0 -75 -30.5 -133.5t-85.5 -90.5t-127 -32q-71 0 -125.5 32zM392.5 57q45.5 28 70.5 78.5t25 115.5q0 64 -25 113t-70.5 76t-104.5 27t-104.5 -27.5t-70.5 -77.5
t-25 -115q0 -64 25 -113.5t70.5 -77t104.5 -27.5t104.5 28zM149 579q-10 10 -10 26t10 26t26 10t26.5 -10t10.5 -26t-10.5 -26t-26.5 -10t-26 10zM371 579q-10 10 -10 26t10 26t26 10t26.5 -10t10.5 -26t-10.5 -26t-26.5 -10t-26 10zM157 744h259v-41h-259v41z" />
    <glyph glyph-name="uni022C" unicode="&#x22c;" horiz-adv-x="808" 
d="M231.5 31q-78.5 45 -123.5 123.5t-45 176.5v19q0 99 44.5 179.5t122 126.5t173.5 46t174 -46t123 -126.5t45 -179.5v-19q0 -99 -43.5 -177.5t-120.5 -123t-174 -44.5t-175.5 45zM556.5 64q68.5 40 107.5 110.5t39 156.5v19q0 87 -40 158.5t-109 112.5t-152 41t-151 -41
t-107 -112.5t-39 -158.5v-19q0 -86 39 -156.5t107.5 -110.5t152.5 -40t152.5 40zM312.5 810.5q23.5 8.5 46.5 8.5q20 0 33.5 -5t28.5 -14t25.5 -13t25.5 -4q34 0 74 31l25 -31q-27 -21 -47 -29.5t-54 -8.5q-19 0 -31.5 4.5t-28.5 13.5q-14 8 -24.5 12t-25.5 4
q-18 0 -35 -6.5t-40 -24.5l-25 31q29 23 52.5 31.5zM272 910h259v-41h-259v41z" />
    <glyph glyph-name="uni022D" unicode="&#x22d;" horiz-adv-x="576" 
d="M161.5 23q-54.5 32 -85 90t-30.5 133q0 76 30.5 134.5t85.5 91.5t126 33t126 -32.5t85.5 -91t30.5 -134.5q0 -75 -30.5 -133.5t-85.5 -90.5t-127 -32q-71 0 -125.5 32zM392.5 57q45.5 28 70.5 78.5t25 115.5q0 64 -25 113t-70.5 76t-104.5 27t-104.5 -27.5t-70.5 -77.5
t-25 -115q0 -64 25 -113.5t70.5 -77t104.5 -27.5t104.5 28zM184.5 632.5q23.5 8.5 46.5 8.5q20 0 33.5 -5t28.5 -14t25.5 -13t25.5 -4q34 0 74 31l25 -31q-27 -21 -47 -29.5t-54 -8.5q-19 0 -31.5 4.5t-28.5 13.5q-14 8 -24.5 12t-25.5 4q-18 0 -35 -6.5t-40 -24.5l-25 31
q29 23 52.5 31.5zM158 795h259v-41h-259v41z" />
    <glyph glyph-name="uni0230" unicode="&#x230;" horiz-adv-x="808" 
d="M231.5 31q-78.5 45 -123.5 123.5t-45 176.5v19q0 99 44.5 179.5t122 126.5t173.5 46t174 -46t123 -126.5t45 -179.5v-19q0 -99 -43.5 -177.5t-120.5 -123t-174 -44.5t-175.5 45zM556.5 64q68.5 40 107.5 110.5t39 156.5v19q0 87 -40 158.5t-109 112.5t-152 41t-151 -41
t-107 -112.5t-39 -158.5v-19q0 -86 39 -156.5t107.5 -110.5t152.5 -40t152.5 40zM376 756q-10 10 -10 26t10 26t26 10t26.5 -10t10.5 -26t-10.5 -26t-26.5 -10t-26 10zM272 910h259v-41h-259v41z" />
    <glyph glyph-name="uni0231" unicode="&#x231;" horiz-adv-x="576" 
d="M161.5 23q-54.5 32 -85 90t-30.5 133q0 76 30.5 134.5t85.5 91.5t126 33t126 -32.5t85.5 -91t30.5 -134.5q0 -75 -30.5 -133.5t-85.5 -90.5t-127 -32q-71 0 -125.5 32zM392.5 57q45.5 28 70.5 78.5t25 115.5q0 64 -25 113t-70.5 76t-104.5 27t-104.5 -27.5t-70.5 -77.5
t-25 -115q0 -64 25 -113.5t70.5 -77t104.5 -27.5t104.5 28zM262 590q-10 10 -10 26t10 26t26 10t26.5 -10t10.5 -26t-10.5 -26t-26.5 -10t-26 10zM158 758h259v-41h-259v41z" />
    <glyph glyph-name="uni0232" unicode="&#x232;" horiz-adv-x="613" 
d="M100 656q-8 0 -15 -4q-11 -7 -15 -15l-35 16q7 21 30 34q20 11 39 11q20 0 38 -12.5t30 -35.5l168 -302l187 338h49l-216 -384l2 -301h-43v299l-183 330q-14 26 -36 26zM206 785h259v-41h-259v41z" />
    <glyph glyph-name="uni0233" unicode="&#x233;" horiz-adv-x="546" 
d="M212 -247q-41 43 -41 109q0 43 21.5 79t58.5 53q-83 0 -125.5 35.5t-42.5 105.5v228q0 44 -9 69.5t-28 49.5l28 27q23 -23 37 -52.5t14 -60.5v-240q0 -65 28 -94.5t91 -29.5q47 0 85 20t75 66q8 15 11.5 26t3.5 24l1 332h42l-1 -366v-259q0 -76 -38.5 -120.5
t-105.5 -44.5q-64 0 -105 43zM391 -217q28 33 28 88v208q-28 -36 -68 -63q-35 -20 -56 -31q-43 -22 -62.5 -51t-19.5 -70q0 -50 28.5 -82t74.5 -32q47 0 75 33zM138 608h259v-41h-259v41z" />
    <glyph glyph-name="uni0237" unicode="&#x237;" horiz-adv-x="212" 
d="M-32 -224l35 23q18 -23 40 -23q19 0 31 14.5t12 36.5v673h42v-673q0 -40 -23.5 -65.5t-61.5 -25.5q-44 0 -75 40z" />
    <glyph glyph-name="uni0244" unicode="&#x244;" horiz-adv-x="727" 
d="M656 321h-19v-56q0 -71 -27 -134t-83.5 -102t-140.5 -39q-80 0 -137 37t-86.5 99.5t-29.5 138.5v56h-25v41h25v242q0 57 -47 57q-18 0 -27 -7.5t-15 -17.5l-31 23q22 42 75 42q39 0 63 -24.5t24 -72.5v-242h420v322h42v-322h19v-41zM595 321h-420v-56q0 -65 24.5 -118.5
t72 -85t113.5 -31.5q70 0 117.5 34.5t70 88t22.5 112.5v56z" />
    <glyph glyph-name="uni0259" unicode="&#x259;" horiz-adv-x="514" 
d="M407.5 444q57.5 -66 57.5 -177q0 -79 -27 -141t-76.5 -96.5t-116.5 -34.5q-58 0 -103.5 26.5t-71 73t-25.5 106.5q0 18 4 64h374q0 74 -36.5 140.5t-146.5 66.5q-41 0 -77 -11.5t-81 -36.5l-19 31q39 26 86 40.5t97 14.5q104 0 161.5 -66zM363.5 85q48.5 54 57.5 142
h-332q-2 -11 -2 -28q0 -48 21.5 -86.5t57.5 -60t79 -21.5q70 0 118.5 54z" />
    <glyph glyph-name="uni0268" unicode="&#x268;" horiz-adv-x="239" 
d="M75 585q-10 10 -10 26t10 26t26 10t26.5 -10t10.5 -26t-10.5 -26t-26.5 -10t-26 10zM223 22q-23 -32 -62 -32q-36 0 -58.5 23.5t-22.5 63.5v182h-84v41h84v200h42v-200h88v-41h-88v-183q0 -24 11 -36t29 -12q17 0 30 16z" />
    <glyph glyph-name="uni0272" unicode="&#x272;" horiz-adv-x="588" 
d="M570 22q-23 -32 -62 -32q-36 0 -58.5 23.5t-22.5 63.5v260q0 130 -120 130q-50 0 -91.5 -25.5t-84.5 -83.5v-358h-1v-119q0 -36 -24 -60.5t-61 -24.5q-40 0 -65 32l35 23q12 -13 30 -13q19 0 31 12.5t12 30.5v227h1v252q0 44 -9 69.5t-28 49.5l28 27q22 -21 35.5 -48.5
t15.5 -56.5q34 55 77.5 79.5t103.5 24.5q75 0 116 -38t41 -109v-282q0 -24 11 -36t29 -12q17 0 30 16z" />
    <glyph glyph-name="uni0289" unicode="&#x289;" horiz-adv-x="579" 
d="M563 28q-10 -17 -27.5 -26t-36.5 -9q-37 0 -58 21.5t-23 61.5q-66 -83 -180 -83q-75 0 -114 34.5t-43 107.5v112h-12v41h12v76q0 44 -9 69.5t-28 49.5l28 27q23 -23 37 -52.5t14 -60.5v-109h294l1 212h42l-1 -212h16v-41h-16v-169q0 -24 11 -35.5t29 -11.5q9 0 18.5 5
t13.5 12zM338 56.5q39 25.5 79 78.5v112h-294v-86q0 -130 121 -130q55 0 94 25.5z" />
    <glyph glyph-name="uni02B9" unicode="&#x2b9;" horiz-adv-x="195" 
d="M80 684h59l-10 -182h-39z" />
    <glyph glyph-name="uni02BA" unicode="&#x2ba;" horiz-adv-x="308" 
d="M80 679h58l-10 -182h-39zM192 679h58l-9 -182h-40z" />
    <glyph glyph-name="uni02BC" unicode="&#x2bc;" horiz-adv-x="210" 
d="M91 608v61q0 12 6.5 19.5t18.5 7.5q11 0 18.5 -8t7.5 -19v-61q0 -38 -16 -83q-15 -37 -48 -63l-25 25q38 43 38 121z" />
    <glyph glyph-name="circumflex" unicode="&#x2c6;" horiz-adv-x="334" 
d="M145 689h43l114 -131h-50l-85 95l-86 -95h-49z" />
    <glyph glyph-name="caron" unicode="&#x2c7;" horiz-adv-x="337" 
d="M33 699h50l86 -95l84 95h51l-114 -131h-44z" />
    <glyph glyph-name="breve" unicode="&#x2d8;" horiz-adv-x="378" 
d="M93.5 594q-33.5 33 -37.5 92h43q4 -39 27 -62.5t64 -23.5q40 0 62.5 23t24.5 63h43q-4 -62 -37.5 -93.5t-93.5 -31.5q-62 0 -95.5 33z" />
    <glyph glyph-name="dotaccent" unicode="&#x2d9;" horiz-adv-x="189" 
d="M72 601q-10 10 -10 26t10 26t26 10t26.5 -10t10.5 -26t-10.5 -26t-26.5 -10t-26 10z" />
    <glyph glyph-name="ring" unicode="&#x2da;" horiz-adv-x="312" 
d="M85.5 589q-25.5 27 -25.5 70t26 71t70 28t70 -27t26 -70q0 -44 -27.5 -71.5t-70.5 -27.5t-68.5 27zM199 613q18 21 18 48t-18 46.5t-43 19.5q-26 0 -43 -20t-17 -48q0 -29 17.5 -48t41.5 -19q26 0 44 21z" />
    <glyph glyph-name="ogonek" unicode="&#x2db;" horiz-adv-x="255" 
d="M78 -184q-22 23 -22 61q0 30 16.5 53.5t60.5 63.5l40 -5q-42 -43 -57.5 -65.5t-15.5 -42.5q0 -24 16.5 -36t34.5 -12q23 0 49 18l19 -33q-17 -12 -39.5 -18.5t-42.5 -6.5q-37 0 -59 23z" />
    <glyph glyph-name="tilde" unicode="&#x2dc;" horiz-adv-x="433" 
d="M113.5 627.5q23.5 8.5 46.5 8.5q20 0 33.5 -5t28.5 -14t25.5 -13t25.5 -4q34 0 74 31l25 -31q-27 -21 -47 -29.5t-54 -8.5q-19 0 -31.5 4.5t-28.5 13.5q-14 8 -24.5 12t-25.5 4q-18 0 -35 -6.5t-40 -24.5l-25 31q29 23 52.5 31.5z" />
    <glyph glyph-name="hungarumlaut" unicode="&#x2dd;" horiz-adv-x="383" 
d="M35 579l115 154l36 -29l-132 -143zM213 580l115 154l36 -29l-132 -143z" />
    <glyph glyph-name="gravecomb" unicode="&#x300;" 
d="M-200 682l33 33l128 -144l-18 -20z" />
    <glyph glyph-name="acutecomb" unicode="&#x301;" 
d="M-171 580l115 154l36 -29l-132 -143z" />
    <glyph glyph-name="uni0302" unicode="&#x302;" 
d="M-179 696h43l114 -131h-50l-85 95l-86 -95h-49z" />
    <glyph glyph-name="tildecomb" unicode="&#x303;" 
d="M-302.5 627.5q23.5 8.5 46.5 8.5q20 0 33.5 -5t28.5 -14t25.5 -13t25.5 -4q34 0 74 31l25 -31q-27 -21 -47 -29.5t-54 -8.5q-19 0 -31.5 4.5t-28.5 13.5q-14 8 -24.5 12t-25.5 4q-18 0 -35 -6.5t-40 -24.5l-25 31q29 23 52.5 31.5z" />
    <glyph glyph-name="uni0304" unicode="&#x304;" 
d="M-315 610h259v-41h-259v41z" />
    <glyph glyph-name="uni0306" unicode="&#x306;" 
d="M-269.5 594q-33.5 33 -37.5 92h43q4 -39 27 -62.5t64 -23.5q40 0 62.5 23t24.5 63h43q-4 -62 -37.5 -93.5t-93.5 -31.5q-62 0 -95.5 33z" />
    <glyph glyph-name="uni0307" unicode="&#x307;" 
d="M-108 585q-10 10 -10 26t10 26t26 10t26.5 -10t10.5 -26t-10.5 -26t-26.5 -10t-26 10z" />
    <glyph glyph-name="uni0308" unicode="&#x308;" 
d="M-373 574q-10 10 -10 26t10 26t26 10t26.5 -10t10.5 -26t-10.5 -26t-26.5 -10t-26 10zM-151 574q-10 10 -10 26t10 26t26 10t26.5 -10t10.5 -26t-10.5 -26t-26.5 -10t-26 10z" />
    <glyph glyph-name="hookabovecomb" unicode="&#x309;" 
d="M-117.5 636.5q14.5 24.5 14.5 43.5q0 24 -14.5 36t-28.5 12q-26 0 -54 -27l-22 32q41 36 83 36q36 0 57.5 -23.5t21.5 -63.5q0 -27 -13.5 -51.5t-47.5 -61.5h-47q36 43 50.5 67.5z" />
    <glyph glyph-name="uni030A" unicode="&#x30a;" 
d="M-202.5 589q-25.5 27 -25.5 70t26 71t70 28t70 -27t26 -70q0 -44 -27.5 -71.5t-70.5 -27.5t-68.5 27zM-89 613q18 21 18 48t-18 46.5t-43 19.5q-26 0 -43 -20t-17 -48q0 -29 17.5 -48t41.5 -19q26 0 44 21z" />
    <glyph glyph-name="uni030B" unicode="&#x30b;" 
d="M-356 579l115 154l36 -29l-132 -143zM-178 580l115 154l36 -29l-132 -143z" />
    <glyph glyph-name="uni030C" unicode="&#x30c;" 
d="M-293 699h50l86 -95l84 95h51l-114 -131h-44z" />
    <glyph glyph-name="uni030F" unicode="&#x30f;" 
d="M-392 682l33 33l128 -144l-18 -20zM-229 684l33 33l128 -144l-18 -20z" />
    <glyph glyph-name="uni0311" unicode="&#x311;" 
d="M-80.5 661.5q33.5 -31.5 37.5 -93.5h-43q-2 40 -24.5 63t-62.5 23q-41 0 -64 -23.5t-27 -62.5h-43q4 59 37.5 92t95.5 33q60 0 93.5 -31.5z" />
    <glyph glyph-name="uni0312" unicode="&#x312;" 
d="M-69 672q-8 -20 -8 -40q0 -10 1.5 -20.5t1.5 -14.5q0 -13 -7 -20t-20 -7t-19 7.5t-6 19.5q0 53 12 83q10 28 43 53l25 -25q-15 -16 -23 -36z" />
    <glyph glyph-name="uni031B" unicode="&#x31b;" 
d="M-43 621q0 -41 -28 -72t-76 -33h-17l-27 42h41q31 0 49 19t18 46q0 25 -16 42l29 27q27 -30 27 -71z" />
    <glyph glyph-name="dotbelowcomb" unicode="&#x323;" 
d="M-121 -146q-10 10 -10 26t10 26t26 10t26.5 -10t10.5 -26t-10.5 -26t-26.5 -10t-26 10z" />
    <glyph glyph-name="uni0324" unicode="&#x324;" 
d="M-358 -147q-10 10 -10 26t10 26t26 10t26.5 -10t10.5 -26t-10.5 -26t-26.5 -10t-26 10zM-136 -147q-10 10 -10 26t10 26t26 10t26.5 -10t10.5 -26t-10.5 -26t-26.5 -10t-26 10z" />
    <glyph glyph-name="uni0326" unicode="&#x326;" 
d="M-110 -93h50l-47 -197h-41z" />
    <glyph glyph-name="uni0327" unicode="&#x327;" 
d="M-84.5 -174q13.5 18 13.5 39q0 23 -15 36t-41 13h-24l11 95h47l-12 -61q36 -2 54.5 -25.5t18.5 -58.5q0 -39 -26 -69.5t-69 -27.5l7 38q22 3 35.5 21z" />
    <glyph glyph-name="uni0328" unicode="&#x328;" 
d="M-155 -190q-22 23 -22 61q0 30 16.5 53.5t60.5 63.5l40 -5q-42 -43 -57.5 -65.5t-15.5 -42.5q0 -24 16.5 -36t34.5 -12q23 0 49 18l19 -33q-17 -12 -39.5 -18.5t-42.5 -6.5q-37 0 -59 23z" />
    <glyph glyph-name="uni032D" unicode="&#x32d;" 
d="M-179 -81h43l114 -131h-50l-85 95l-86 -95h-49z" />
    <glyph glyph-name="uni032E" unicode="&#x32e;" 
d="M-268.5 -177q-33.5 33 -37.5 92h43q4 -39 27 -62.5t64 -23.5q40 0 62.5 23t24.5 63h43q-4 -62 -37.5 -93.5t-93.5 -31.5q-62 0 -95.5 33z" />
    <glyph glyph-name="uni0331" unicode="&#x331;" 
d="M-315 -94h259v-41h-259v41z" />
    <glyph glyph-name="uni0335" unicode="&#x335;" 
d="M-300 265h257v-41h-257v41z" />
    <glyph glyph-name="uni0336" unicode="&#x336;" 
d="M-486 272h406v-41h-406v41z" />
    <glyph glyph-name="uni0337" unicode="&#x337;" 
d="M-265 361l206 119l22 -39l-206 -119z" />
    <glyph glyph-name="uni0338" unicode="&#x338;" 
d="M-62 594h51l-281 -666h-50z" />
    <glyph glyph-name="uni0340" unicode="&#x340;" 
d="M-103 676l33 33l128 -144l-18 -20z" />
    <glyph glyph-name="uni0341" unicode="&#x341;" 
d="M-171 574l115 154l36 -29l-132 -143z" />
    <glyph glyph-name="uni0344" unicode="&#x344;" 
d="M-210 585l115 154l36 -29l-132 -143zM-327 788q-10 10 -10 26t10 26t26 10t26.5 -10t10.5 -26t-10.5 -26t-26.5 -10t-26 10zM-105 788q-10 10 -10 26t10 26t26 10t26.5 -10t10.5 -26t-10.5 -26t-26.5 -10t-26 10z" />
    <glyph glyph-name="uni0374" unicode="&#x374;" horiz-adv-x="299" 
d="M120 678h59l-10 -182h-39z" />
    <glyph glyph-name="uni037E" unicode="&#x37e;" horiz-adv-x="241" 
d="M98 397q-10 10 -10 26t10 26t26 10t26.5 -10t10.5 -26t-10.5 -26t-26.5 -10t-26 10zM92 -50q8 20 8 40q0 10 -1.5 20.5t-1.5 14.5q0 13 7 20t20 7t19 -7.5t6 -19.5q0 -53 -12 -83q-10 -28 -43 -53l-25 25q15 16 23 36z" />
    <glyph glyph-name="anoteleia" unicode="&#x387;" horiz-adv-x="275" 
d="M99.5 282.5q-15.5 15.5 -15.5 38.5t15.5 38.5t37.5 15.5q23 0 38.5 -15.5t15.5 -38.5t-15.5 -38.5t-38.5 -15.5q-22 0 -37.5 15.5z" />
    <glyph glyph-name="uni0394" unicode="&#x394;" horiz-adv-x="574" 
d="M45 36l189 595h104l190 -596l1 -40h-482zM478 38l-175 550h-34l-175 -550h384z" />
    <glyph glyph-name="uni03A9" unicode="&#x3a9;" horiz-adv-x="631" 
d="M201 33q-18 26 -37 62q-40 76 -61 149.5t-21 152.5q0 139 55 214.5t179 75.5q232 0 232 -290q0 -138 -74 -288q-22 -43 -45 -76h140v-39h-183v34l37 71q76 145 76 285q0 120 -42.5 188t-140.5 68q-102 0 -143 -66t-41 -190q0 -76 21.5 -149.5t61.5 -152.5q14 -27 30 -54
v-34h-183v39h139z" />
    <glyph glyph-name="uni03BC" unicode="&#x3bc;" horiz-adv-x="544" 
d="M126 489v-343h1q2 -62 28 -91q27 -31 89 -31q57 0 95 29q39 30 75 81v355h42v-354q0 -76 37 -121l-25 -25q-21 16 -31 37q-17 34 -20 72q-33 -57 -75.5 -85t-97.5 -28q-37 0 -62 7q-33 9 -56 29v-281h-42v749h42z" />
    <glyph glyph-name="omicron" unicode="&#x3bf;" horiz-adv-x="576" 
d="M161.5 23q-54.5 32 -85 90t-30.5 133q0 76 30.5 134.5t85.5 91.5t126 33t126 -32.5t85.5 -91t30.5 -134.5q0 -75 -30.5 -133.5t-85.5 -90.5t-127 -32q-71 0 -125.5 32zM392.5 57q45.5 28 70.5 78.5t25 115.5q0 64 -25 113t-70.5 76t-104.5 27t-104.5 -27.5t-70.5 -77.5
t-25 -115q0 -64 25 -113.5t70.5 -77t104.5 -27.5t104.5 28z" />
    <glyph glyph-name="pi" unicode="&#x3c0;" horiz-adv-x="555" 
d="M84 444l-40 -5l-23 -6v51q21 5 44 6l51 4l55 3h207q38 0 74 4q34 3 71 14l-3 -46q-7 -4 -28 -11q-28 -7 -68 -7v-295q0 -36 5 -54q5 -21 17 -33q12 -14 33 -17q22 -4 41 -4l1 -47q-42 2 -66 7q-29 7 -46 23q-18 16 -25 46q-8 28 -8 79v293h-182l-27 -448h-48l27 449z" />
    <glyph glyph-name="uni03D6" unicode="&#x3d6;" horiz-adv-x="555" 
d="M84 444l-40 -5l-23 -6v51q21 5 44 6l51 4l55 3h207q38 0 74 4q34 3 71 14l-3 -46q-7 -4 -28 -11q-28 -7 -68 -7v-295q0 -36 5 -54q5 -21 17 -33q12 -14 33 -17q22 -4 41 -4l1 -47q-42 2 -66 7q-29 7 -46 23q-18 16 -25 46q-8 28 -8 79v293h-182l-27 -448h-48l27 449z" />
    <glyph glyph-name="uni0400" unicode="&#x400;" horiz-adv-x="619" 
d="M112 642q-11 -3 -20 -9q-8 -7 -11 -16t-4 -22h-38q2 43 28 67q24 22 77 22l427 1v-40h-386v-261h263v-40h-263v-303h386v-40h-428v644q-20 0 -31 -3zM123 822l25 39l158 -110l-14 -24z" />
    <glyph glyph-name="uni0401" unicode="&#x401;" horiz-adv-x="619" 
d="M112 642q-11 -3 -20 -9q-8 -7 -11 -16t-4 -22h-38q2 43 28 67q24 22 77 22l427 1v-40h-386v-261h263v-40h-263v-303h386v-40h-428v644q-20 0 -31 -3zM156 758q-10 10 -10 26t10 26t26 10t26.5 -10t10.5 -26t-10.5 -26t-26.5 -10t-26 10zM378 758q-10 10 -10 26t10 26
t26 10t26.5 -10t10.5 -26t-10.5 -26t-26.5 -10t-26 10z" />
    <glyph glyph-name="uni040D" unicode="&#x45d;" horiz-adv-x="784" 
d="M162.5 678.5q24.5 -22.5 24.5 -64.5l-4 -548l31 45l459 572h7v-683h-45l3 587l-28 -45l-328 -418l-111 -125h-28v615q0 20 -12 32t-29 12q-6 0 -15.5 -4.5t-15.5 -11.5l-38 27q27 32 68 32q37 0 61.5 -22.5zM216 822l25 39l158 -110l-14 -24z" />
    <glyph glyph-name="uni040D" unicode="&#x40d;" horiz-adv-x="784" 
d="M162.5 678.5q24.5 -22.5 24.5 -64.5l-4 -548l31 45l459 572h7v-683h-45l3 587l-28 -45l-328 -418l-111 -125h-28v615q0 20 -12 32t-29 12q-6 0 -15.5 -4.5t-15.5 -11.5l-38 27q27 32 68 32q37 0 61.5 -22.5zM216 822l25 39l158 -110l-14 -24z" />
    <glyph glyph-name="uni0410" unicode="&#x410;" horiz-adv-x="752" 
d="M65 7.5q-21 16.5 -29 45.5l39 6q4 -11 15 -19.5t25 -8.5q12 0 22.5 8.5t14.5 18.5l265 634h8l289 -691h-45l-97 233h-304l-78 -192q-10 -25 -30 -38t-46 -13q-28 0 -49 16.5zM554 274l-115 288l-19 63l-19 -65l-116 -286h269z" />
    <glyph glyph-name="uni0411" unicode="&#x411;" horiz-adv-x="586" 
d="M418 358.5q51 -26.5 81.5 -73t30.5 -103.5q0 -61 -33.5 -108.5t-98.5 -68.5q-43 -14 -117 -14q-86 0 -132 5l-44 5v685h395l1 -40h-354v-261h162q58 0 109 -26.5zM434.5 69.5q53.5 39.5 53.5 112.5q0 46 -21.5 83t-63 58.5t-98.5 21.5h-158v-310l75 -3l69 -2
q90 0 143.5 39.5z" />
    <glyph glyph-name="uni0412" unicode="&#x412;" horiz-adv-x="647" 
d="M111 654q-11 -3 -20 -9q-8 -7 -11 -16t-4 -22h-38q2 43 28 67q24 22 77 22h214q57 0 102 -22t70.5 -62t25.5 -92q0 -44 -20 -78.5t-52 -56.5q-20 -14 -59 -19q36 -5 61 -19q49 -27 75 -67.5t26 -99.5q0 -97 -69 -143t-192 -46q-98 0 -139 5l-44 5v656q-20 0 -31 -3z
M486 66q57 36 57 115q0 50 -24.5 87t-65.5 57t-90 20h-89v39h82q33 0 62 9t49 26q44 38 44 101q0 64 -39.5 99t-100.5 38h-187v-622l107 -4l38 -1q100 0 157 36z" />
    <glyph glyph-name="uni0413" unicode="&#x413;" horiz-adv-x="539" 
d="M105 683h398v-40h-356v-644h-42v684z" />
    <glyph glyph-name="uni0414" unicode="&#x414;" horiz-adv-x="712" 
d="M633 -168v168h-555v-168h-42v208l51 1q96 173 149 330t53 313h302l-1 -644h86l-1 -208h-42zM269 335q-43 -131 -135 -295h414v604h-217q-19 -178 -62 -309z" />
    <glyph glyph-name="uni0415" unicode="&#x415;" horiz-adv-x="619" 
d="M112 642q-11 -3 -20 -9q-8 -7 -11 -16t-4 -22h-38q2 43 28 67q24 22 77 22l427 1v-40h-386v-261h263v-40h-263v-303h386v-40h-428v644q-20 0 -31 -3z" />
    <glyph glyph-name="uni0416" unicode="&#x416;" horiz-adv-x="910" 
d="M347 348q-30 0 -36 -1q-46 -5 -81.5 -47.5t-55.5 -102.5l-7 -24q-23 -74 -44.5 -118t-55.5 -60l-22 35q23 10 49.5 68.5t44.5 120.5q16 54 45 89t80 62q-33 18 -51.5 45t-27 54t-18.5 73q-2 9 -6 29t-10 35q-9 23 -16.5 30t-24.5 7q-20 0 -44 -13l-19 36q12 7 29.5 11.5
t34.5 4.5q46 0 65 -32.5t30 -95.5q13 -69 36.5 -111.5t79.5 -50.5q29 -4 110 -4v296h42v-296q95 0 126 8q57 15 77 66q10 26 27 98q5 29 13 55q11 35 29 51t52 16q31 0 63 -16l-19 -36q-28 14 -44 14q-23 0 -31 -13.5t-13.5 -38t-7.5 -34.5q-15 -63 -25.5 -95t-30 -56
t-53.5 -38q3 -1 12 -3.5t18 -8t21 -14.5q36 -30 58 -68.5t33.5 -75.5t6.5 -28q39 -121 79 -140l-20 -35q-26 12 -46 43t-32 63t-32 94q-1 4 -6 20t-12.5 30.5t-19.5 28.5q-35 43 -74.5 58t-105.5 17l-43 1v-351h-42v347z" />
    <glyph glyph-name="uni0417" unicode="&#x417;" horiz-adv-x="564" 
d="M142 7.5q-63 21.5 -101 60.5l20 35q36 -37 94.5 -57t116.5 -20q60 0 103 21.5t65.5 58t22.5 82.5q0 49 -24 89.5t-66.5 65.5t-94.5 27h-133v40h132q39 0 72.5 20.5t53 52.5t19.5 65q0 47 -43.5 79t-130.5 32q-50 0 -94 -11t-71 -30l-10 38q31 19 75.5 31t99.5 12
q103 0 160 -41.5t57 -111.5q0 -44 -21 -78.5t-52.5 -55t-59.5 -22.5q34 -4 74.5 -27t69.5 -68.5t29 -111.5q0 -91 -64 -144t-169 -53q-67 0 -130 21.5z" />
    <glyph glyph-name="uni0418" unicode="&#x418;" horiz-adv-x="784" 
d="M162.5 678.5q24.5 -22.5 24.5 -64.5l-4 -548l31 45l459 572h7v-683h-45l3 587l-28 -45l-328 -418l-111 -125h-28v615q0 20 -12 32t-29 12q-6 0 -15.5 -4.5t-15.5 -11.5l-38 27q27 32 68 32q37 0 61.5 -22.5z" />
    <glyph glyph-name="uni0419" unicode="&#x419;" horiz-adv-x="784" 
d="M162.5 678.5q24.5 -22.5 24.5 -64.5l-4 -548l31 45l459 572h7v-683h-45l3 587l-28 -45l-328 -418l-111 -125h-28v615q0 20 -12 32t-29 12q-6 0 -15.5 -4.5t-15.5 -11.5l-38 27q27 32 68 32q37 0 61.5 -22.5zM300.5 778q-33.5 33 -37.5 92h43q4 -39 27 -62.5t64 -23.5
q40 0 62.5 23t24.5 63h43q-4 -62 -37.5 -93.5t-93.5 -31.5q-62 0 -95.5 33z" />
    <glyph glyph-name="uni041A" unicode="&#x41a;" horiz-adv-x="653" 
d="M147 684v-306q87 1 133 9.5t77.5 41t49.5 103.5q21 84 30 109q22 61 96 61q41 0 78 -17l-19 -38q-32 13 -58 13q-37 0 -50 -21q-9 -14 -19 -57q-15 -63 -38 -122q-24 -59 -95 -96q55 -23 88.5 -54t49.5 -61.5t33 -76.5q16 -40 25.5 -60.5t26.5 -39.5q38 -44 52 -48
l-11 -39q-46 16 -76 64.5t-61 126.5q-2 5 -13.5 33t-21.5 40q-29 39 -80 64.5t-91 25.5h-106v-339h-42v684h42z" />
    <glyph glyph-name="uni041B" unicode="&#x41b;" horiz-adv-x="716" 
d="M34 26l33 25q18 -23 47 -23q26 0 41 16.5t26 49.5q12 39 20 118q10 93 14.5 221t4.5 251h391v-686h-44v642h-305q0 -130 -9 -309t-29 -243q-17 -51 -41.5 -76.5t-70.5 -25.5q-48 0 -78 40z" />
    <glyph glyph-name="uni041C" unicode="&#x41c;" horiz-adv-x="1028" 
d="M64.5 1.5q-19.5 12.5 -30.5 32.5l41 17q12 -19 34 -19q12 0 22 7t14 20l133 626h49l212 -578l18 -64l18 64l213 578h51l140 -684h-45l-114 568l-12 71l-20 -71l-205 -568h-52l-204 567l-20 73l-11 -73l-107 -512q-6 -29 -28 -48t-52 -19q-25 0 -44.5 12.5z" />
    <glyph glyph-name="uni041D" unicode="&#x41d;" horiz-adv-x="721" 
d="M91 661q-18 0 -27 -7.5t-15 -17.5l-31 23q22 42 75 42q39 0 63 -24.5t24 -72.5v-226h395v307h42v-684h-42v337h-395v-337h-42v603q0 57 -47 57z" />
    <glyph glyph-name="uni041E" unicode="&#x41e;" horiz-adv-x="808" 
d="M231.5 31q-78.5 45 -123.5 123.5t-45 176.5v19q0 99 44.5 179.5t122 126.5t173.5 46t174 -46t123 -126.5t45 -179.5v-19q0 -99 -43.5 -177.5t-120.5 -123t-174 -44.5t-175.5 45zM556.5 64q68.5 40 107.5 110.5t39 156.5v19q0 87 -40 158.5t-109 112.5t-152 41t-151 -41
t-107 -112.5t-39 -158.5v-19q0 -86 39 -156.5t107.5 -110.5t152.5 -40t152.5 40z" />
    <glyph glyph-name="uni041F" unicode="&#x41f;" horiz-adv-x="681" 
d="M105 686h471v-686h-42v646h-387v-646h-42v686z" />
    <glyph glyph-name="uni0420" unicode="&#x420;" horiz-adv-x="594" 
d="M111 642q-11 -3 -20 -9q-8 -7 -11 -16t-4 -22h-38q2 43 28 67q24 22 77 22l210 1q89 1 138.5 -57t49.5 -152q0 -105 -61.5 -158t-156.5 -53q-31 0 -69 5v38q51 -3 64 -3q83 0 132 41t49 129q0 83 -44 126.5t-116 43.5h-155v-645h-42v645q-20 0 -31 -3z" />
    <glyph glyph-name="uni0421" unicode="&#x421;" horiz-adv-x="720" 
d="M227 26.5q-78 48.5 -122.5 130.5t-44.5 180t46.5 183t126.5 135.5t175 50.5q93 0 160 -37.5t67 -108.5q0 -37 -22 -62.5t-57 -25.5q-26 0 -46 14l25 32q14 -6 22 -6q17 0 29 15t12 34q0 31 -30 55t-74 36.5t-85 12.5q-85 0 -155.5 -46t-111 -121.5t-40.5 -160.5
t38.5 -158.5t107.5 -117t155 -43.5q73 0 138 33t106 89l32 -22q-50 -70 -123 -105t-154 -35q-97 0 -175 48.5z" />
    <glyph glyph-name="uni0422" unicode="&#x422;" horiz-adv-x="608" 
d="M121 645q-16 0 -27.5 -10t-15.5 -25h-41q1 27 24 50q25 25 57 25h453v-40h-239v-644h-42v644h-169z" />
    <glyph glyph-name="uni0423" unicode="&#x423;" horiz-adv-x="671" 
d="M105 14l18 37q46 -20 80 -20q35 0 61.5 20t47 53t46.5 89l-223 434q-14 26 -34 26q-9 0 -16 -4q-11 -7 -15 -15l-35 16q6 21 31 34q19 10 38 10q21 0 38.5 -12.5t29.5 -35.5l209 -406l205 444h46q-191 -419 -224 -486t-34 -69q-15 -33 -42.5 -69t-51.5 -50
q-34 -20 -75 -20q-47 0 -100 24z" />
    <glyph glyph-name="uni0424" unicode="&#x424;" horiz-adv-x="790" 
d="M201 91q-72 43 -108.5 109.5t-36.5 140.5q0 75 36 141t108 109t174 48v75h42v-75q102 -5 173.5 -48t108 -109.5t36.5 -140.5t-36.5 -140t-108.5 -109.5t-173 -48.5v-75h-42v75q-101 5 -173 48zM224.5 552.5q-62.5 -36.5 -94.5 -92.5t-32 -119q0 -62 32 -118.5t94.5 -93
t149.5 -40.5v504q-87 -4 -149.5 -40.5zM565.5 130q62.5 37 94.5 93t32 119q0 62 -32 118t-94 92.5t-150 40.5v-505q87 5 149.5 42z" />
    <glyph glyph-name="uni0425" unicode="&#x425;" horiz-adv-x="615" 
d="M287 393l188 292h53l-216 -332l175 -297q4 -7 13 -12.5t20 -5.5q10 0 22 8l39 -28q-27 -25 -65 -25q-29 0 -47 16.5t-40 54.5l-145 257l-183 -320h-53l209 361l-213 323h53z" />
    <glyph glyph-name="uni0426" unicode="&#x426;" horiz-adv-x="730" 
d="M135 -1l-1 570v35q0 57 -47 57q-18 0 -27 -7.5t-15 -17.5l-31 23q22 42 75 42q39 0 63 -24.5t24 -72.5v-565h374v645h42v-645h102v-197h-42v157h-517z" />
    <glyph glyph-name="uni0427" unicode="&#x427;" horiz-adv-x="724" 
d="M471 281.5q-67 -32.5 -146 -32.5q-92 0 -135.5 51t-43.5 165q0 25 1 39q0 12 0.5 29t-0.5 38l-2 35q-3 55 -46 55q-20 0 -28.5 -8t-15.5 -19l-32 21q20 46 78 46q37 0 60.5 -23.5t25.5 -69.5l2 -35v-31v-103q0 -74 39 -112t116 -38q71 0 128 33.5t105 103.5v258h42v-677
h-42v363q-39 -56 -106 -88.5z" />
    <glyph glyph-name="uni0428" unicode="&#x428;" horiz-adv-x="976" 
d="M134 570v35q0 57 -47 57q-18 0 -27 -7.5t-15 -17.5l-31 23q22 42 75 42q39 0 63 -24.5t24 -72.5v-565h306v644h42v-644h306v644h42l-1 -684l-736 -1z" />
    <glyph glyph-name="uni0429" unicode="&#x429;" horiz-adv-x="976" 
d="M975 40v-205h-42v165l-798 -1l-1 571v35q0 57 -47 57q-18 0 -27 -7.5t-15 -17.5l-31 23q22 42 75 42q39 0 63 -24.5t24 -72.5v-565h306v644h42v-644h306v644h42l-1 -644h104z" />
    <glyph glyph-name="uni042A" unicode="&#x42a;" horiz-adv-x="706" 
d="M545 362q50 -25 80.5 -71t30.5 -106q0 -61 -34 -110t-98 -70q-43 -14 -117 -14q-86 0 -132 5l-46 5v643h-192v40h192v1h42v-650l77 -3l69 -2q90 0 143.5 40t53.5 115q0 44 -21.5 81t-63 59t-98.5 22h-159v40h165q58 0 108 -25z" />
    <glyph glyph-name="uni042B" unicode="&#x42b;" horiz-adv-x="837" 
d="M421 362q50 -25 80.5 -71t30.5 -106q0 -61 -34 -110t-98 -70q-43 -14 -117 -14q-86 0 -132 5l-46 5v684h42v-650l77 -3l69 -2q90 0 143.5 40t53.5 115q0 44 -21.5 81t-63 59t-98.5 22h-159v40h165q58 0 108 -25zM687 685h45v-684h-45v684z" />
    <glyph glyph-name="uni042C" unicode="&#x42c;" horiz-adv-x="582" 
d="M421 362q50 -25 80.5 -71t30.5 -106q0 -61 -34 -110t-98 -70q-43 -14 -117 -14q-86 0 -132 5l-46 5v684h42v-650l77 -3l69 -2q90 0 143.5 40t53.5 115q0 44 -21.5 81t-63 59t-98.5 22h-159v40h165q58 0 108 -25z" />
    <glyph glyph-name="uni042D" unicode="&#x42d;" horiz-adv-x="617" 
d="M514 169.5q-40 -80.5 -113 -125t-169 -44.5q-107 0 -187 57l25 34q35 -25 77.5 -38t86.5 -13q67 0 128.5 31.5t102.5 97.5t45 163h-309v38h309q-4 100 -44.5 165.5t-101.5 96t-130 30.5q-45 0 -87.5 -12.5t-76.5 -35.5l-25 32q41 28 89.5 42t95.5 14q97 0 170.5 -44.5
t113.5 -123.5t40 -181q0 -103 -40 -183.5z" />
    <glyph glyph-name="uni042E" unicode="&#x42e;" horiz-adv-x="946" 
d="M147 685v-325h133q4 104 47.5 178.5t111 112t143.5 37.5q88 0 157 -46.5t107 -126t38 -174.5t-38.5 -174t-107.5 -125.5t-156 -46.5q-76 0 -143.5 38.5t-111 112.5t-47.5 176h-133v-324h-42v687h42zM809.5 496q-33.5 70 -93.5 111t-136 41t-135 -42t-91.5 -112.5
t-32.5 -152.5t32.5 -152t91.5 -112t136 -42t137 42t92.5 113t32.5 153q0 83 -33.5 153z" />
    <glyph glyph-name="uni042F" unicode="&#x42f;" horiz-adv-x="654" 
d="M507 645h-163q-42 0 -75 -21.5t-52 -58.5t-19 -83q0 -70 42.5 -114.5t114.5 -44.5h81v-39q-36 -5 -60.5 -18t-38.5 -27t-37 -43l-129 -168q-28 -37 -69 -37q-21 0 -39 8.5t-29 24.5l31 21q7 -7 17.5 -11t20.5 -4q20 0 35 20l154 200q22 28 38 35l21 9h-39q-43 0 -78.5 24
t-56.5 67t-21 97q0 62 28.5 112t76.5 74q34 17 79 17h209v-684h-42v644z" />
    <glyph glyph-name="uni0430" unicode="&#x430;" horiz-adv-x="581" 
d="M565 28q-10 -17 -27.5 -26t-36.5 -9q-36 0 -57 20.5t-24 60.5q-21 -38 -64 -60.5t-97 -22.5q-69 0 -116.5 34.5t-71 92t-23.5 127.5q0 78 29 136.5t83.5 91t129.5 32.5q23 0 58.5 -2.5t62.5 -6.5h50v-418q0 -24 11 -35.5t29 -11.5q9 0 18.5 5t13.5 12zM419 460
q-16 -1 -72 3l-61 2q-95 0 -145.5 -62t-50.5 -156q0 -56 19.5 -105.5t58 -80t92.5 -30.5q49 0 87 24t57 62q15 30 15 69v274z" />
    <glyph glyph-name="uni0431" unicode="&#x431;" horiz-adv-x="536" 
d="M123 62q-54 69 -61 189q-2 40 -2 61q0 33 4 78q8 97 43 164.5t109 101.5q32 15 61 22.5t63 13.5q40 7 55 16t14 34l42 4q3 -35 -17 -60q-13 -17 -35.5 -24.5t-62.5 -15.5q-81 -15 -124.5 -42.5t-66 -76.5t-40.5 -139q32 49 81 74t104 25q62 0 107 -33.5t69 -88.5t24 -120
q0 -69 -25.5 -126.5t-73 -91.5t-111.5 -34q-103 0 -157 69zM429.5 343.5q-18.5 46.5 -54 75t-84.5 28.5t-92.5 -26.5t-65.5 -62.5q-16 -24 -22.5 -48.5t-6.5 -60.5q0 -59 20.5 -108t60 -78.5t94.5 -29.5q54 0 92 29t57.5 77.5t19.5 105.5q0 52 -18.5 98.5z" />
    <glyph glyph-name="uni0432" unicode="&#x432;" horiz-adv-x="505" 
d="M269 505q69 3 114.5 -24.5t45.5 -100.5q0 -39 -15.5 -64.5t-46.5 -41.5q31 -12 61.5 -45.5t30.5 -88.5q0 -59 -40 -99.5t-115 -40.5h-220v505h185zM387 380q-1 40 -29 62t-79 22h-153v-177h112q150 0 149 93zM386.5 69.5q30.5 29.5 30.5 70.5q0 44 -33 76.5t-88 32.5
h-170v-209h178q52 0 82.5 29.5z" />
    <glyph glyph-name="uni0433" unicode="&#x433;" horiz-adv-x="430" 
d="M411 500v-40h-285v-460h-42v500h327z" />
    <glyph glyph-name="uni0434" unicode="&#x434;" horiz-adv-x="548" 
d="M472 -141v141h-410v-141h-42v179h33q37 64 71.5 151t55 171t16.5 140h257v-462h61v-179h-42zM189 236q-29 -91 -91 -198h313v422h-176q-17 -133 -46 -224z" />
    <glyph glyph-name="uni0435" unicode="&#x435;" horiz-adv-x="495" 
d="M105 56.5q-57 65.5 -57 172.5q0 69 24 132t74 103.5t123 40.5q76 0 127 -41t51 -109q0 -72 -59.5 -111t-161.5 -39h-133q8 -84 54 -130t126 -46q45 0 82.5 13t77.5 38l21 -29q-85 -60 -181 -60q-111 0 -168 65.5zM355.5 270q49.5 27 49.5 86q0 54 -40 82.5t-93 28.5
q-61 0 -102.5 -36.5t-61 -89t-17.5 -98.5h135q80 0 129.5 27z" />
    <glyph glyph-name="uni0436" unicode="&#x436;" horiz-adv-x="724" 
d="M279 247.5q-15 -0.5 -24 -2.5q-27 -7 -53 -23.5t-41 -38.5q-8 -11 -21 -50q-22 -61 -42 -98.5t-52 -49.5l-15 39q23 8 41.5 48t35.5 90q13 38 34 63t60 44q-40 23 -60 78q-5 15 -14 50q-8 36 -15.5 52t-27.5 16q-14 0 -33 -10l-18 37q10 6 24.5 9t27.5 3q20 0 36.5 -7
t25.5 -22q5 -8 8.5 -22.5t6.5 -32.5q2 -6 3 -12.5t2 -11.5q10 -47 28 -70t50 -31q25 -6 94 -6v211h42v-211q44 0 71 3t44 11q24 11 35.5 33.5t22.5 68.5q8 36 15.5 55.5t23 31.5t42.5 12q28 0 54 -12l-18 -37q-19 10 -33 10q-20 0 -27.5 -15.5t-15.5 -50.5q-1 -4 -6 -27.5
t-16 -44.5q-19 -39 -52 -58q51 -27 72.5 -60t36.5 -85q12 -36 21.5 -58.5t28.5 -44.5l2 -1q2 0 5 2.5t5 1.5l-15 -39q-16 7 -30.5 22t-23.5 31q-20 35 -39 90q-11 32 -20 49.5t-27.5 34t-52.5 30.5q-11 4 -23.5 5.5t-23 1t-17.5 -0.5h-39v-248h-42v248q-46 0 -61 -0.5z" />
    <glyph glyph-name="uni0437" unicode="&#x437;" horiz-adv-x="483" 
d="M102.5 8q-50.5 18 -78.5 44l27 31q59 -53 158 -53q76 0 131 32.5t55 102.5q0 106 -142 106h-89v40h87q60 0 88 24.5t28 56.5q0 43 -45 63.5t-107 20.5q-65 0 -150 -25l-11 40q47 13 80 19t75 6q85 0 142.5 -30t57.5 -94q0 -27 -15.5 -54t-42.5 -43q39 -14 62.5 -54
t23.5 -81q0 -53 -31 -91.5t-82 -58.5t-111 -20t-110.5 18z" />
    <glyph glyph-name="uni0438" unicode="&#x438;" horiz-adv-x="601" 
d="M438 500h46v-424q0 -24 11 -36t29 -12q17 0 30 16l31 -22q-23 -32 -62 -32q-36 0 -58.5 23.5t-22.5 63.5v359l-314 -436h-39l-2 364q0 44 -9 70t-29 49l28 27q24 -23 38 -52.5t14 -60.5v-331z" />
    <glyph glyph-name="uni0439" unicode="&#x439;" horiz-adv-x="601" 
d="M438 500h46v-424q0 -24 11 -36t29 -12q17 0 30 16l31 -22q-23 -32 -62 -32q-36 0 -58.5 23.5t-22.5 63.5v359l-314 -436h-39l-2 364q0 44 -9 70t-29 49l28 27q24 -23 38 -52.5t14 -60.5v-331zM200.5 594q-33.5 33 -37.5 92h43q4 -39 27 -62.5t64 -23.5q40 0 62.5 23
t24.5 63h43q-4 -62 -37.5 -93.5t-93.5 -31.5q-62 0 -95.5 33z" />
    <glyph glyph-name="uni043A" unicode="&#x43a;" horiz-adv-x="533" 
d="M126 500v-222q48 1 75 4q38 4 63.5 19t37.5 33t18.5 35.5t10.5 32.5t5 20q8 31 20 51t37 31q17 7 41 7q38 0 69 -12l-15 -41q-31 11 -50 11t-36 -10q-8 -5 -14 -19.5t-14 -41.5q-14 -48 -28 -75q-10 -19 -26 -34t-43 -29q17 -3 44 -19.5t44 -32.5q14 -13 21.5 -26
t15.5 -32q3 -7 10 -20t14 -25q23 -38 40 -58t39 -26l-11 -42q-32 10 -57 36.5t-39.5 52t-42.5 82.5q-23 46 -95 75q-17 6 -29 8t-24.5 2h-20.5l-60 -1v-238h-42v504h42z" />
    <glyph glyph-name="uni043B" unicode="&#x43b;" horiz-adv-x="560" 
d="M16 22l33 25q16 -17 35 -17q17 0 21 2q27 13 40 105.5t15.5 169t4.5 193.5l312 1v-501h-42v456h-231q-1 -187 -11.5 -284t-32.5 -138q-15 -27 -33 -36t-45 -9q-38 0 -66 33z" />
    <glyph glyph-name="uni043C" unicode="&#x43c;" horiz-adv-x="801" 
d="M54.5 9q-21.5 14 -36.5 46l34 19q7 -16 20.5 -26.5t29.5 -10.5q28 0 39.5 17.5t19.5 60.5l47 385h44l195 -409l196 409h44l60 -500h-43l-49 432l-190 -396h-35l-190 395l-36 -315q-7 -57 -29.5 -89t-69.5 -32q-29 0 -50.5 14z" />
    <glyph glyph-name="uni043D" unicode="&#x43d;" horiz-adv-x="581" 
d="M475 40q11 -12 29 -12q17 0 30 16l31 -22q-23 -32 -62 -32q-36 0 -58.5 23.5t-22.5 63.5v149h-292v-226h-42v362q0 44 -9 69.5t-28 49.5l28 27q23 -23 37 -52.5t14 -60.5v-129h292v234h42v-424q0 -24 11 -36z" />
    <glyph glyph-name="uni043E" unicode="&#x43e;" horiz-adv-x="576" 
d="M161.5 23q-54.5 32 -85 90t-30.5 133q0 76 30.5 134.5t85.5 91.5t126 33t126 -32.5t85.5 -91t30.5 -134.5q0 -75 -30.5 -133.5t-85.5 -90.5t-127 -32q-71 0 -125.5 32zM392.5 57q45.5 28 70.5 78.5t25 115.5q0 64 -25 113t-70.5 76t-104.5 27t-104.5 -27.5t-70.5 -77.5
t-25 -115q0 -64 25 -113.5t70.5 -77t104.5 -27.5t104.5 28z" />
    <glyph glyph-name="uni043F" unicode="&#x43f;" horiz-adv-x="546" 
d="M462 0h-42v462h-294v-462h-42v500h378v-500z" />
    <glyph glyph-name="uni0440" unicode="&#x440;" horiz-adv-x="551" 
d="M407 471q48 -34 72 -91.5t24 -128.5q0 -77 -28.5 -135.5t-83 -91.5t-130.5 -33q-40 0 -129 12v-263h-42v621q0 44 -9 69.5t-28 49.5l28 27q21 -20 34.5 -46t15.5 -54q21 51 62.5 74.5t96.5 23.5q69 0 117 -34zM408 88.5q53 59.5 53 156.5q0 60 -20 110.5t-58.5 81
t-89.5 30.5q-39 0 -74.5 -17.5t-59.5 -49t-27 -71.5v-290q100 -10 124 -10q99 0 152 59.5z" />
    <glyph glyph-name="uni0441" unicode="&#x441;" horiz-adv-x="491" 
d="M109 58.5q-61 63.5 -61 178.5q0 81 28 142.5t79 95.5t118 34q74 0 122 -39t51 -102h-39q-3 47 -39 75t-93 28q-53 0 -95 -30.5t-66 -84t-24 -120.5q0 -95 51 -149t140 -54q37 0 72.5 10.5t86.5 36.5l19 -31q-43 -28 -86 -41t-92 -13q-111 0 -172 63.5z" />
    <glyph glyph-name="uni0442" unicode="&#x442;" horiz-adv-x="497" 
d="M228 458h-209v42h459v-42h-208v-458h-42v458z" />
    <glyph glyph-name="uni0443" unicode="&#x443;" horiz-adv-x="546" 
d="M212 -247q-41 43 -41 109q0 43 21.5 79t58.5 53q-83 0 -125.5 35.5t-42.5 105.5v228q0 44 -9 69.5t-28 49.5l28 27q23 -23 37 -52.5t14 -60.5v-240q0 -65 28 -94.5t91 -29.5q47 0 85 20t75 66q8 15 11.5 26t3.5 24l1 332h42l-1 -366v-259q0 -76 -38.5 -120.5
t-105.5 -44.5q-64 0 -105 43zM391 -217q28 33 28 88v208q-28 -36 -68 -63q-35 -20 -56 -31q-43 -22 -62.5 -51t-19.5 -70q0 -50 28.5 -82t74.5 -32q47 0 75 33z" />
    <glyph glyph-name="uni0444" unicode="&#x444;" horiz-adv-x="680" 
d="M168.5 30.5q-62.5 37.5 -94.5 95.5t-32 123q0 63 31 121t93.5 96.5t152.5 43.5v167h42v-167q90 -5 153 -44t93.5 -97t30.5 -121q0 -64 -30.5 -121.5t-93 -95.5t-153.5 -43v-167h-42v167q-88 5 -150.5 42.5zM191 434.5q-53 -32.5 -80 -82t-27 -103.5t27 -103t80 -81.5
t128 -36.5v442q-75 -3 -128 -35.5zM489 64q53 32 80 81.5t27 103.5t-27 103.5t-80 82t-128 35.5v-442q75 4 128 36z" />
    <glyph glyph-name="uni0445" unicode="&#x445;" horiz-adv-x="472" 
d="M216 280l131 217h51l-152 -246l121 -195q13 -21 33 -21q14 0 23 9l39 -25q-25 -27 -62 -27q-45 0 -70 40l-114 186l-136 -217h-49l156 248l-158 248h51z" />
    <glyph glyph-name="uni0446" unicode="&#x446;" horiz-adv-x="577" 
d="M88 0v394q0 27 -10.5 54.5t-23.5 42.5l34 27q17 -18 29 -55.5t12 -68.5v-356h300v462h41v-462h87v-178h-43v139z" />
    <glyph glyph-name="uni0447" unicode="&#x447;" horiz-adv-x="567" 
d="M361.5 178.5q-42.5 -19.5 -86.5 -19.5q-100 0 -138 47q-29 37 -29 103l1 94q0 38 -5.5 53t-28.5 15q-8 0 -16 -4t-12 -10l-33 23q12 16 29 23.5t33 7.5q21 0 39 -10.5t26 -27.5q8 -16 8 -60l-1 -84q0 -72 20 -97q13 -16 40.5 -25.5t57.5 -9.5q47 0 95.5 23.5t79.5 70.5
v210h42v-501h-42v232q-37 -34 -79.5 -53.5z" />
    <glyph glyph-name="uni0448" unicode="&#x448;" horiz-adv-x="816" 
d="M88 394q0 26 -10.5 54.5t-23.5 42.5l34 27q17 -19 29.5 -56t12.5 -68v-354h260v460h42v-460h258v460h42v-500h-644v394z" />
    <glyph glyph-name="uni0449" unicode="&#x449;" horiz-adv-x="834" 
d="M772 -140v141l-683 -1v395q0 26 -10 53.5t-24 43.5l33 27q18 -19 30.5 -55t12.5 -69v-355h260v460h42v-460h257v460h42v-460h82v-180h-42z" />
    <glyph glyph-name="uni044A" unicode="&#x44a;" horiz-adv-x="569" 
d="M19 460v40h182l1 -196h150q85 0 133.5 -35t48.5 -121q0 -64 -43 -106t-108 -42h-223v460h-141zM448.5 61q39.5 25 39.5 89q0 48 -19.5 73t-56.5 34t-98 9h-112v-226l129 -2q78 -2 117.5 23z" />
    <glyph glyph-name="uni044B" unicode="&#x44b;" horiz-adv-x="649" 
d="M411.5 278.5q52.5 -38.5 52.5 -121.5q0 -68 -39 -112.5t-112 -44.5h-223l-2 364q0 44 -9 70t-29 49l28 27q24 -23 38 -52.5t14 -60.5l1 -80h127q101 0 153.5 -38.5zM520 500h45v-500h-45v500zM351.5 45.5q30.5 7.5 50.5 33t20 76.5q0 53 -24 80t-62 35.5t-92 8.5h-113
v-241h146q44 0 74.5 7.5z" />
    <glyph glyph-name="uni044C" unicode="&#x44c;" horiz-adv-x="500" 
d="M411.5 278.5q52.5 -38.5 52.5 -121.5q0 -68 -39 -112.5t-112 -44.5h-223l-2 364q0 44 -9 70t-29 49l28 27q24 -23 38 -52.5t14 -60.5l1 -80h127q101 0 153.5 -38.5zM351.5 45.5q30.5 7.5 50.5 33t20 76.5q0 53 -24 80t-62 35.5t-92 8.5h-113v-241h146q44 0 74.5 7.5z" />
    <glyph glyph-name="uni044D" unicode="&#x44d;" horiz-adv-x="487" 
d="M409 112q-33 -60 -92.5 -94t-135.5 -34q-41 0 -80 11t-72 32l24 33q58 -36 128 -36q52 0 100.5 23.5t81 69.5t36.5 110h-241v42h241q-5 65 -37 110.5t-80 67.5t-101 22q-35 0 -68.5 -9.5t-59.5 -26.5l-24 33q65 43 152 43q77 0 136.5 -33.5t92 -93t32.5 -135.5
q0 -75 -33 -135z" />
    <glyph glyph-name="uni044E" unicode="&#x44e;" horiz-adv-x="769" 
d="M365 15q-54 27 -89.5 81.5t-39.5 133.5h-111v-231h-42v501h42v-233h111q4 79 39 133.5t89 82t114 27.5q62 0 118 -28.5t91.5 -87.5t35.5 -145q0 -85 -35.5 -144t-91.5 -88t-118 -29q-59 0 -113 27zM584 56.5q46 28.5 71.5 78t25.5 111.5q0 106 -55 165t-149 59
q-50 0 -95.5 -24.5t-75 -74.5t-29.5 -122t29.5 -122t76 -74.5t96.5 -24.5q59 0 105 28.5z" />
    <glyph glyph-name="uni044F" unicode="&#x44f;" horiz-adv-x="515" 
d="M47.5 -2q-12.5 4 -19.5 10l24 31q5 -8 21 -8q9 0 17.5 7.5t24.5 25.5l21 25q58 69 91 97q24 20 40 28q-38 -1 -65 1t-49 11q-45 19 -68 54t-23 76q0 31 14 59.5t38 48.5q44 36 111 36h207v-500h-42v219q-58 -11 -88.5 -27t-62.5 -48q-17 -17 -57 -64q-20 -26 -47 -54
q-16 -17 -31.5 -24.5t-32.5 -7.5q-11 0 -23.5 4zM201 253q13 -1 49 -1l140 1v209h-101q-53 0 -73 -1.5t-38 -7.5q-37 -12 -55.5 -38.5t-18.5 -57.5q0 -32 17.5 -59.5t52.5 -38.5q14 -5 27 -6z" />
    <glyph glyph-name="uni0450" unicode="&#x450;" horiz-adv-x="495" 
d="M105 56.5q-57 65.5 -57 172.5q0 69 24 132t74 103.5t123 40.5q76 0 127 -41t51 -109q0 -72 -59.5 -111t-161.5 -39h-133q8 -84 54 -130t126 -46q45 0 82.5 13t77.5 38l21 -29q-85 -60 -181 -60q-111 0 -168 65.5zM355.5 270q49.5 27 49.5 86q0 54 -40 82.5t-93 28.5
q-61 0 -102.5 -36.5t-61 -89t-17.5 -98.5h135q80 0 129.5 27zM78 692l33 33l128 -144l-18 -20z" />
    <glyph glyph-name="uni0451" unicode="&#x451;" horiz-adv-x="495" 
d="M105 56.5q-57 65.5 -57 172.5q0 69 24 132t74 103.5t123 40.5q76 0 127 -41t51 -109q0 -72 -59.5 -111t-161.5 -39h-133q8 -84 54 -130t126 -46q45 0 82.5 13t77.5 38l21 -29q-85 -60 -181 -60q-111 0 -168 65.5zM355.5 270q49.5 27 49.5 86q0 54 -40 82.5t-93 28.5
q-61 0 -102.5 -36.5t-61 -89t-17.5 -98.5h135q80 0 129.5 27zM85 574q-10 10 -10 26t10 26t26 10t26.5 -10t10.5 -26t-10.5 -26t-26.5 -10t-26 10zM307 574q-10 10 -10 26t10 26t26 10t26.5 -10t10.5 -26t-10.5 -26t-26.5 -10t-26 10z" />
    <glyph glyph-name="uni0E3F" unicode="&#xe3f;" horiz-adv-x="615" 
d="M506.5 260q25.5 -41 25.5 -91q0 -56 -32 -100.5t-93 -63.5q-36 -11 -97 -13v-88h-42v87l-37 -1q-45 0 -65 6l-46 13v631h148v107h42v-107q46 0 79 -12q54 -19 83 -58t29 -94q0 -83 -71 -121q-3 -2 -52 -16q48 -10 54 -14q49 -24 74.5 -65zM268 600h-101v-245h101v245z
M310 600v-245q65 0 105.5 32.5t40.5 92.5q0 53 -34.5 84t-96.5 36h-15zM268 32v283h-101v-279l69 -3zM439 68.5q48 35.5 48 100.5q0 63 -45.5 104.5t-125.5 41.5h-6v-284q81 2 129 37.5z" />
    <glyph glyph-name="uni1E02" unicode="&#x1e02;" horiz-adv-x="647" 
d="M111 654q-11 -3 -20 -9q-8 -7 -11 -16t-4 -22h-38q2 43 28 67q24 22 77 22h214q57 0 102 -22t70.5 -62t25.5 -92q0 -44 -20 -78.5t-52 -56.5q-20 -14 -59 -19q36 -5 61 -19q49 -27 75 -67.5t26 -99.5q0 -97 -69 -143t-192 -46q-98 0 -139 5l-44 5v656q-20 0 -31 -3z
M486 66q57 36 57 115q0 50 -24.5 87t-65.5 57t-90 20h-89v39h82q33 0 62 9t49 26q44 38 44 101q0 64 -39.5 99t-100.5 38h-187v-622l107 -4l38 -1q100 0 157 36zM281 747q-10 10 -10 26t10 26t26 10t26.5 -10t10.5 -26t-10.5 -26t-26.5 -10t-26 10z" />
    <glyph glyph-name="uni1E03" unicode="&#x1e03;" horiz-adv-x="544" 
d="M147 -3q-39 6 -64 13v717h42v-319q23 49 66 73t96 24q63 0 110 -32t72.5 -90.5t25.5 -134.5q0 -114 -60.5 -185.5t-189.5 -71.5q-50 0 -98 6zM403.5 90.5q49.5 61.5 49.5 156.5q0 69 -22.5 118.5t-61 75.5t-85.5 26q-26 0 -52.5 -9.5t-48.5 -25.5q-53 -39 -58 -103v-289
l60 -8q19 -3 59 -3q110 0 159.5 61.5zM77 789q-10 10 -10 26t10 26t26 10t26.5 -10t10.5 -26t-10.5 -26t-26.5 -10t-26 10z" />
    <glyph glyph-name="uni1E08" unicode="&#x1e08;" horiz-adv-x="720" 
d="M552 866l-173 -89l-13 24l161 105zM558 13.5q-72 -34.5 -152 -35.5l-10 -53q36 -2 54.5 -25.5t18.5 -58.5q0 -39 -26 -69.5t-69 -27.5l7 38q22 3 35.5 21t13.5 39q0 23 -15 36t-41 13h-24l10 89q-87 10 -155 60.5t-106.5 128t-38.5 168.5q0 98 46.5 183t126.5 135.5
t175 50.5q93 0 160 -37.5t67 -108.5q0 -37 -22 -62.5t-57 -25.5q-26 0 -46 14l25 32q14 -6 22 -6q17 0 29 15t12 34q0 31 -30 55t-74 36.5t-85 12.5q-85 0 -155.5 -46t-111 -121.5t-40.5 -160.5t38.5 -158.5t107.5 -117t155 -43.5q73 0 138 33t106 89l32 -22
q-49 -70 -121 -104.5z" />
    <glyph glyph-name="uni1E09" unicode="&#x1e09;" horiz-adv-x="491" 
d="M406 709l-132 -143l-19 18l115 154zM340.5 -77.5q18.5 -23.5 18.5 -58.5q0 -39 -26 -69.5t-69 -27.5l7 38q22 3 35.5 21t13.5 39q0 23 -15 36t-41 13h-24l10 82q-97 9 -149.5 71.5t-52.5 169.5q0 81 28 142.5t79 95.5t118 34q74 0 122 -39t51 -102h-39q-3 47 -39 75
t-93 28q-53 0 -95 -30.5t-66 -84t-24 -120.5q0 -95 51 -149t140 -54q37 0 72.5 10.5t86.5 36.5l19 -31q-77 -50 -164 -54l-9 -47q36 -2 54.5 -25.5z" />
    <glyph glyph-name="uni1E0A" unicode="&#x1e0a;" horiz-adv-x="779" 
d="M181 -4l-39 4v652q-20 0 -31 -3t-20 -9q-8 -7 -11 -16t-4 -22h-38q2 43 28 67q24 22 77 22l259 -1q91 -3 162.5 -50t112 -127.5t40.5 -181.5q0 -173 -107.5 -256t-332.5 -83q-48 0 -96 4zM675 333q0 140 -75 224t-208 93h-208v-614q52 -4 111 -4q380 0 380 301zM377 757
q-10 10 -10 26t10 26t26 10t26.5 -10t10.5 -26t-10.5 -26t-26.5 -10t-26 10z" />
    <glyph glyph-name="uni1E0B" unicode="&#x1e0b;" horiz-adv-x="581" 
d="M144.5 25.5q-47.5 34.5 -72 92.5t-24.5 129q0 77 29 135t83.5 90.5t129.5 32.5q34 0 71.5 -4t57.5 -8v235h42v-650q0 -24 11 -35.5t29 -11.5q9 0 18.5 5t13.5 12l32 -20q-10 -17 -27.5 -26t-36.5 -9q-37 0 -58 21.5t-23 61.5q-19 -35 -63.5 -60t-96.5 -25
q-68 0 -115.5 34.5zM345.5 52.5q38.5 23.5 58.5 64.5q15 32 15 69v268q-43 13 -108 13q-114 0 -167.5 -61t-53.5 -159q0 -93 44.5 -155.5t125.5 -62.5q47 0 85.5 23.5zM406 804q-10 10 -10 26t10 26t26 10t26.5 -10t10.5 -26t-10.5 -26t-26.5 -10t-26 10z" />
    </font>
</defs>
</svg>
